<svg width="272" height="946" viewBox="0 0 272 946" fill="none" xmlns="http://www.w3.org/2000/svg">
<path d="M20 13H249V242H20V13Z" fill="#7900B1"/>
<path d="M86 525C74.8 497.8 43.3333 487 29 485H24V706.5C27.1667 739 19.4 787.3 35 784.5C54.5 781 86 717 92 690.5C98 664 70 647 57.5 623C45 599 100 559 86 525Z" fill="#A90029"/>
<path d="M116.952 754.369C70.7302 768.88 104.254 826.426 24 821.422V920H248V734.353C245.46 711.168 245.257 668.901 222.095 683.312C193.143 701.327 241.397 821.422 180.444 821.422C119.492 821.422 163.175 739.857 116.952 754.369Z" fill="#FFEC00"/>
<path d="M116.952 638.777C97.1429 619.261 210.413 353.05 248 421.104V455.632V616.259C241.397 623.431 232.559 638.777 207.365 638.777C175.873 638.777 180.444 683.312 161.143 727.848C141.841 772.383 136.762 658.292 116.952 638.777Z" fill="#FFEC00"/>
<path d="M20.5 398.5V268.5V259.5H251.5V398.5C245.167 391.333 228 376.5 210 374.5C187.5 372 181.5 449 122 440C62.5 431 132 318.5 106 299C80 279.5 88 347.5 62 398.5C41.2 439.3 25.6667 415.5 20.5 398.5Z" fill="#A90029"/>
<path d="M259 13V933H136.748H13V13H259Z" stroke="black" stroke-width="25.86"/>
<path d="M13 255H257.5" stroke="black" stroke-width="25.86"/>
<ellipse cx="56.7627" cy="685.497" rx="28.9098" ry="28.0805" transform="rotate(77.0696 56.7627 685.497)" fill="#A90029"/>
<ellipse cx="61.7646" cy="700.2" rx="7.12845" ry="6.72351" transform="rotate(77.0696 61.7646 700.2)" fill="white"/>
<ellipse cx="48.9226" cy="669.017" rx="7.12845" ry="6.72351" transform="rotate(77.0696 48.9226 669.017)" fill="white"/>
<ellipse cx="71.3271" cy="681.755" rx="7.12845" ry="6.72351" transform="rotate(77.0696 71.3271 681.755)" fill="white"/>
<ellipse cx="46.2355" cy="730.768" rx="17.0569" ry="16.5676" transform="rotate(-47.617 46.2355 730.768)" fill="#A90029"/>
<ellipse cx="51.6884" cy="723.405" rx="4.2058" ry="3.96689" transform="rotate(-47.617 51.6884 723.405)" fill="white"/>
<ellipse cx="40.8715" cy="740.105" rx="4.2058" ry="3.96689" transform="rotate(-47.617 40.8715 740.105)" fill="white"/>
<ellipse cx="39.529" cy="724.959" rx="4.2058" ry="3.96689" transform="rotate(-47.617 39.529 724.959)" fill="white"/>
<ellipse cx="42.5766" cy="637.099" rx="12.2717" ry="11.9196" transform="rotate(-47.617 42.5766 637.099)" fill="#A90029"/>
<ellipse cx="46.4995" cy="631.802" rx="3.02589" ry="2.854" transform="rotate(-47.617 46.4995 631.802)" fill="white"/>
<ellipse cx="38.7176" cy="643.816" rx="3.02589" ry="2.854" transform="rotate(-47.617 38.7176 643.816)" fill="white"/>
<ellipse cx="37.7516" cy="632.919" rx="3.02589" ry="2.854" transform="rotate(-47.617 37.7516 632.919)" fill="white"/>
<ellipse cx="41.3249" cy="593.622" rx="11.5592" ry="11.2276" transform="rotate(95.7261 41.3249 593.622)" fill="#A90029"/>
<ellipse cx="41.3392" cy="599.831" rx="2.85021" ry="2.6883" transform="rotate(95.7261 41.3392 599.831)" fill="white"/>
<ellipse cx="40.4635" cy="586.375" rx="2.85021" ry="2.6883" transform="rotate(95.7261 40.4635 586.375)" fill="white"/>
<ellipse cx="47.3221" cy="594.067" rx="2.85021" ry="2.6883" transform="rotate(95.7261 47.3221 594.067)" fill="white"/>
<ellipse cx="46.6982" cy="566.051" rx="12.1226" ry="11.7748" transform="rotate(27.5959 46.6982 566.051)" fill="#A90029"/>
<ellipse cx="52.7468" cy="568.461" rx="2.98913" ry="2.81932" transform="rotate(27.5959 52.7468 568.461)" fill="white"/>
<ellipse cx="39.3089" cy="564.058" rx="2.98913" ry="2.81932" transform="rotate(27.5959 39.3089 564.058)" fill="white"/>
<ellipse cx="49.4745" cy="560.388" rx="2.98913" ry="2.81932" transform="rotate(27.5959 49.4745 560.388)" fill="white"/>
<ellipse cx="45.6982" cy="511.051" rx="12.1226" ry="11.7748" transform="rotate(27.5959 45.6982 511.051)" fill="#A90029"/>
<ellipse cx="51.7468" cy="513.461" rx="2.98913" ry="2.81932" transform="rotate(27.5959 51.7468 513.461)" fill="white"/>
<ellipse cx="38.3089" cy="509.058" rx="2.98913" ry="2.81932" transform="rotate(27.5959 38.3089 509.058)" fill="white"/>
<ellipse cx="48.4745" cy="505.388" rx="2.98913" ry="2.81932" transform="rotate(27.5959 48.4745 505.388)" fill="white"/>
<ellipse cx="66" cy="878.686" rx="27.5" ry="26.7111" fill="#FFEC00"/>
<ellipse cx="51.3106" cy="885.454" rx="6.78082" ry="6.39563" fill="#9B00E4"/>
<ellipse cx="73.1569" cy="892.225" rx="6.78082" ry="6.39563" fill="#9B00E4"/>
<ellipse cx="73.1569" cy="863.634" rx="6.78082" ry="6.39563" fill="#9B00E4"/>
<ellipse cx="121" cy="873.211" rx="27.5" ry="26.7111" fill="#FFEC00"/>
<ellipse cx="106.311" cy="879.979" rx="6.78082" ry="6.39563" fill="#9B00E4"/>
<ellipse cx="128.157" cy="886.75" rx="6.78082" ry="6.39563" fill="#9B00E4"/>
<ellipse cx="128.157" cy="858.159" rx="6.78082" ry="6.39563" fill="#9B00E4"/>
<ellipse cx="92" cy="828.211" rx="27.5" ry="26.7111" fill="#FFEC00"/>
<ellipse cx="77.3106" cy="834.979" rx="6.78082" ry="6.39563" fill="#9B00E4"/>
<ellipse cx="99.1569" cy="841.75" rx="6.78082" ry="6.39563" fill="#9B00E4"/>
<ellipse cx="99.1569" cy="813.159" rx="6.78082" ry="6.39563" fill="#9B00E4"/>
<ellipse cx="200" cy="873.896" rx="38.5" ry="37.3956" fill="#FFEC00"/>
<ellipse cx="179.434" cy="883.37" rx="9.49315" ry="8.95388" fill="#9B00E4"/>
<ellipse cx="210.02" cy="892.849" rx="9.49315" ry="8.95388" fill="#9B00E4"/>
<ellipse cx="210.02" cy="852.824" rx="9.49315" ry="8.95388" fill="#9B00E4"/>
<ellipse cx="168.5" cy="846.812" rx="24" ry="23.3115" fill="#FFEC00"/>
<ellipse cx="155.68" cy="852.718" rx="5.91781" ry="5.58164" fill="#9B00E4"/>
<ellipse cx="174.746" cy="858.626" rx="5.91781" ry="5.58164" fill="#9B00E4"/>
<ellipse cx="174.746" cy="833.676" rx="5.91781" ry="5.58164" fill="#9B00E4"/>
<ellipse cx="185.5" cy="512.697" rx="28" ry="27.1968" fill="#FFEC00"/>
<ellipse cx="170.544" cy="519.587" rx="6.90411" ry="6.51191" fill="#9B00E4"/>
<ellipse cx="192.787" cy="526.482" rx="6.90411" ry="6.51191" fill="#9B00E4"/>
<ellipse cx="192.787" cy="497.371" rx="6.90411" ry="6.51191" fill="#9B00E4"/>
<ellipse cx="214" cy="462.197" rx="28" ry="27.1968" fill="#FFEC00"/>
<ellipse cx="199.044" cy="469.087" rx="6.90411" ry="6.51191" fill="#9B00E4"/>
<ellipse cx="221.287" cy="475.982" rx="6.90411" ry="6.51191" fill="#9B00E4"/>
<ellipse cx="221.287" cy="446.871" rx="6.90411" ry="6.51191" fill="#9B00E4"/>
<ellipse cx="217" cy="562.197" rx="28" ry="27.1968" fill="#FFEC00"/>
<ellipse cx="202.044" cy="569.087" rx="6.90411" ry="6.51191" fill="#9B00E4"/>
<ellipse cx="224.287" cy="575.982" rx="6.90411" ry="6.51191" fill="#9B00E4"/>
<ellipse cx="224.287" cy="546.871" rx="6.90411" ry="6.51191" fill="#9B00E4"/>
<ellipse cx="164" cy="581.197" rx="28" ry="27.1968" fill="#FFEC00"/>
<ellipse cx="149.044" cy="588.087" rx="6.90411" ry="6.51191" fill="#9B00E4"/>
<ellipse cx="171.287" cy="594.982" rx="6.90411" ry="6.51191" fill="#9B00E4"/>
<ellipse cx="171.287" cy="565.871" rx="6.90411" ry="6.51191" fill="#9B00E4"/>
<ellipse cx="171.838" cy="344.46" rx="28.9098" ry="28.0805" transform="rotate(77.0696 171.838 344.46)" fill="#A90029"/>
<ellipse cx="176.839" cy="359.163" rx="7.12845" ry="6.72351" transform="rotate(77.0696 176.839 359.163)" fill="white"/>
<ellipse cx="163.997" cy="327.98" rx="7.12845" ry="6.72351" transform="rotate(77.0696 163.997 327.98)" fill="white"/>
<ellipse cx="186.402" cy="340.717" rx="7.12845" ry="6.72351" transform="rotate(77.0696 186.402 340.717)" fill="white"/>
<ellipse cx="214.838" cy="302.46" rx="28.9098" ry="28.0805" transform="rotate(77.0696 214.838 302.46)" fill="#A90029"/>
<ellipse cx="219.839" cy="317.163" rx="7.12845" ry="6.72351" transform="rotate(77.0696 219.839 317.163)" fill="white"/>
<ellipse cx="206.997" cy="285.98" rx="7.12845" ry="6.72351" transform="rotate(77.0696 206.997 285.98)" fill="white"/>
<ellipse cx="229.402" cy="298.717" rx="7.12845" ry="6.72351" transform="rotate(77.0696 229.402 298.717)" fill="white"/>
<ellipse cx="55.8036" cy="319.352" rx="25.4633" ry="24.7329" transform="rotate(77.0696 55.8036 319.352)" fill="#A90029"/>
<ellipse cx="60.2091" cy="332.302" rx="6.27862" ry="5.92195" transform="rotate(77.0696 60.2091 332.302)" fill="white"/>
<ellipse cx="48.898" cy="304.837" rx="6.27862" ry="5.92195" transform="rotate(77.0696 48.898 304.837)" fill="white"/>
<ellipse cx="68.6316" cy="316.055" rx="6.27862" ry="5.92195" transform="rotate(77.0696 68.6316 316.055)" fill="white"/>
<ellipse cx="129.035" cy="362.421" rx="15.039" ry="14.6076" transform="rotate(95.7261 129.035 362.421)" fill="#A90029"/>
<ellipse cx="129.054" cy="370.499" rx="3.70825" ry="3.4976" transform="rotate(95.7261 129.054 370.499)" fill="white"/>
<ellipse cx="127.914" cy="352.993" rx="3.70825" ry="3.4976" transform="rotate(95.7261 127.914 352.993)" fill="white"/>
<ellipse cx="136.838" cy="363" rx="3.70825" ry="3.4976" transform="rotate(95.7261 136.838 363)" fill="white"/>
<ellipse cx="137.035" cy="295.421" rx="15.039" ry="14.6076" transform="rotate(95.7261 137.035 295.421)" fill="#A90029"/>
<ellipse cx="137.054" cy="303.499" rx="3.70825" ry="3.4976" transform="rotate(95.7261 137.054 303.499)" fill="white"/>
<ellipse cx="135.914" cy="285.993" rx="3.70825" ry="3.4976" transform="rotate(95.7261 135.914 285.993)" fill="white"/>
<ellipse cx="144.838" cy="296" rx="3.70825" ry="3.4976" transform="rotate(95.7261 144.838 296)" fill="white"/>
<ellipse cx="181.035" cy="296.421" rx="15.039" ry="14.6076" transform="rotate(95.7261 181.035 296.421)" fill="#A90029"/>
<ellipse cx="181.054" cy="304.499" rx="3.70825" ry="3.4976" transform="rotate(95.7261 181.054 304.499)" fill="white"/>
<ellipse cx="179.914" cy="286.993" rx="3.70825" ry="3.4976" transform="rotate(95.7261 179.914 286.993)" fill="white"/>
<ellipse cx="188.838" cy="297" rx="3.70825" ry="3.4976" transform="rotate(95.7261 188.838 297)" fill="white"/>
<ellipse cx="228.035" cy="355.421" rx="15.039" ry="14.6076" transform="rotate(95.7261 228.035 355.421)" fill="#A90029"/>
<ellipse cx="228.054" cy="363.499" rx="3.70825" ry="3.4976" transform="rotate(95.7261 228.054 363.499)" fill="white"/>
<ellipse cx="226.914" cy="345.993" rx="3.70825" ry="3.4976" transform="rotate(95.7261 226.914 345.993)" fill="white"/>
<ellipse cx="235.838" cy="356" rx="3.70825" ry="3.4976" transform="rotate(95.7261 235.838 356)" fill="white"/>
<ellipse cx="42.0352" cy="346.421" rx="15.039" ry="14.6076" transform="rotate(95.7261 42.0352 346.421)" fill="#A90029"/>
<ellipse cx="42.0538" cy="354.499" rx="3.70825" ry="3.4976" transform="rotate(95.7261 42.0538 354.499)" fill="white"/>
<ellipse cx="40.9144" cy="336.993" rx="3.70825" ry="3.4976" transform="rotate(95.7261 40.9144 336.993)" fill="white"/>
<ellipse cx="49.8377" cy="347" rx="3.70825" ry="3.4976" transform="rotate(95.7261 49.8377 347)" fill="white"/>
<ellipse cx="69.0352" cy="284.421" rx="15.039" ry="14.6076" transform="rotate(95.7261 69.0352 284.421)" fill="#A90029"/>
<ellipse cx="69.0538" cy="292.499" rx="3.70825" ry="3.4976" transform="rotate(95.7261 69.0538 292.499)" fill="white"/>
<ellipse cx="67.9144" cy="274.993" rx="3.70825" ry="3.4976" transform="rotate(95.7261 67.9144 274.993)" fill="white"/>
<ellipse cx="76.8377" cy="285" rx="3.70825" ry="3.4976" transform="rotate(95.7261 76.8377 285)" fill="white"/>
</svg>
