<svg width="222" height="663" viewBox="0 0 222 663" fill="none" xmlns="http://www.w3.org/2000/svg">
<path d="M64.2507 268.051C53.186 240.816 22.0997 230.003 7.93957 228H3V449.784C6.12839 482.325 -1.54441 530.687 13.8671 527.883C33.1314 524.379 64.2507 460.297 70.1782 433.763C76.1056 407.229 48.444 390.207 36.0951 366.177C23.7462 342.146 78.0815 302.095 64.2507 268.051Z" fill="#E1305A"/>
<path d="M97.526 497.211C51.5158 511.737 84.8858 569.337 5 564.328V663H222V476.823C219.472 453.616 225.242 411.662 202.187 426.087C173.367 444.119 221.4 564.328 160.727 564.328C100.054 564.328 143.536 482.686 97.526 497.211Z" fill="#FFED5C"/>
<path d="M97.526 381.509C77.8073 361.975 184.087 92.9044 221.502 161.023V198.19V358.97C214.929 366.149 212.602 381.509 187.524 381.509C156.176 381.509 160.727 426.087 141.514 470.665C122.301 515.243 117.245 401.044 97.526 381.509Z" fill="#FFED5C"/>
<path d="M2 141.589V11.0381V2H222V141.589C215.766 134.392 206.251 119.496 188.532 117.487C166.385 114.977 160.479 192.303 101.911 183.265C43.3423 174.227 111.754 61.25 86.1611 41.6674C60.5682 22.0847 68.443 90.3729 42.8501 141.589C22.3758 182.562 7.08576 158.661 2 141.589Z" fill="#E1305A"/>
<ellipse cx="34.7627" cy="428.497" rx="28.9098" ry="28.0805" transform="rotate(77.0696 34.7627 428.497)" fill="#E1305A"/>
<ellipse cx="39.7647" cy="443.2" rx="7.12845" ry="6.72351" transform="rotate(77.0696 39.7647 443.2)" fill="white"/>
<ellipse cx="26.9225" cy="412.017" rx="7.12845" ry="6.72351" transform="rotate(77.0696 26.9225 412.017)" fill="white"/>
<ellipse cx="49.3272" cy="424.755" rx="7.12845" ry="6.72351" transform="rotate(77.0696 49.3272 424.755)" fill="white"/>
<ellipse cx="24.2355" cy="473.768" rx="17.0569" ry="16.5676" transform="rotate(-47.617 24.2355 473.768)" fill="#E1305A"/>
<ellipse cx="29.6886" cy="466.405" rx="4.2058" ry="3.96689" transform="rotate(-47.617 29.6886 466.405)" fill="white"/>
<ellipse cx="18.8717" cy="483.105" rx="4.2058" ry="3.96689" transform="rotate(-47.617 18.8717 483.105)" fill="white"/>
<ellipse cx="17.5289" cy="467.959" rx="4.2058" ry="3.96689" transform="rotate(-47.617 17.5289 467.959)" fill="white"/>
<ellipse cx="20.5766" cy="380.099" rx="12.2717" ry="11.9196" transform="rotate(-47.617 20.5766 380.099)" fill="#E1305A"/>
<ellipse cx="24.4994" cy="374.802" rx="3.02589" ry="2.854" transform="rotate(-47.617 24.4994 374.802)" fill="white"/>
<ellipse cx="16.7176" cy="386.816" rx="3.02589" ry="2.854" transform="rotate(-47.617 16.7176 386.816)" fill="white"/>
<ellipse cx="15.7513" cy="375.919" rx="3.02589" ry="2.854" transform="rotate(-47.617 15.7513 375.919)" fill="white"/>
<ellipse cx="19.325" cy="336.622" rx="11.5592" ry="11.2276" transform="rotate(95.7261 19.325 336.622)" fill="#E1305A"/>
<ellipse cx="19.3396" cy="342.831" rx="2.85021" ry="2.6883" transform="rotate(95.7261 19.3396 342.831)" fill="white"/>
<ellipse cx="18.4636" cy="329.375" rx="2.85021" ry="2.6883" transform="rotate(95.7261 18.4636 329.375)" fill="white"/>
<ellipse cx="25.322" cy="337.067" rx="2.85021" ry="2.6883" transform="rotate(95.7261 25.322 337.067)" fill="white"/>
<ellipse cx="24.6982" cy="309.051" rx="12.1226" ry="11.7748" transform="rotate(27.5959 24.6982 309.051)" fill="#E1305A"/>
<ellipse cx="30.7469" cy="311.461" rx="2.98913" ry="2.81932" transform="rotate(27.5959 30.7469 311.461)" fill="white"/>
<ellipse cx="17.3089" cy="307.058" rx="2.98913" ry="2.81932" transform="rotate(27.5959 17.3089 307.058)" fill="white"/>
<ellipse cx="27.4744" cy="303.388" rx="2.98913" ry="2.81932" transform="rotate(27.5959 27.4744 303.388)" fill="white"/>
<ellipse cx="23.6982" cy="254.051" rx="12.1226" ry="11.7748" transform="rotate(27.5959 23.6982 254.051)" fill="#E1305A"/>
<ellipse cx="29.7469" cy="256.461" rx="2.98913" ry="2.81932" transform="rotate(27.5959 29.7469 256.461)" fill="white"/>
<ellipse cx="16.3089" cy="252.058" rx="2.98913" ry="2.81932" transform="rotate(27.5959 16.3089 252.058)" fill="white"/>
<ellipse cx="26.4744" cy="248.388" rx="2.98913" ry="2.81932" transform="rotate(27.5959 26.4744 248.388)" fill="white"/>
<ellipse cx="44" cy="621.686" rx="27.5" ry="26.7111" fill="#FFED5C"/>
<ellipse cx="29.3106" cy="628.454" rx="6.78082" ry="6.39563" fill="#008DCB"/>
<ellipse cx="51.1568" cy="635.225" rx="6.78082" ry="6.39563" fill="#008DCB"/>
<ellipse cx="51.1568" cy="606.634" rx="6.78082" ry="6.39563" fill="#008DCB"/>
<ellipse cx="99" cy="616.211" rx="27.5" ry="26.7111" fill="#FFED5C"/>
<ellipse cx="84.3106" cy="622.979" rx="6.78082" ry="6.39563" fill="#008DCB"/>
<ellipse cx="106.157" cy="629.75" rx="6.78082" ry="6.39563" fill="#008DCB"/>
<ellipse cx="106.157" cy="601.159" rx="6.78082" ry="6.39563" fill="#008DCB"/>
<ellipse cx="70" cy="571.211" rx="27.5" ry="26.7111" fill="#FFED5C"/>
<ellipse cx="55.3106" cy="577.979" rx="6.78082" ry="6.39563" fill="#008DCB"/>
<ellipse cx="77.1568" cy="584.75" rx="6.78082" ry="6.39563" fill="#008DCB"/>
<ellipse cx="77.1568" cy="556.159" rx="6.78082" ry="6.39563" fill="#008DCB"/>
<ellipse cx="178" cy="616.896" rx="38.5" ry="37.3956" fill="#FFED5C"/>
<ellipse cx="157.435" cy="626.37" rx="9.49315" ry="8.95388" fill="#008DCB"/>
<ellipse cx="188.02" cy="635.849" rx="9.49315" ry="8.95388" fill="#008DCB"/>
<ellipse cx="188.02" cy="595.824" rx="9.49315" ry="8.95388" fill="#008DCB"/>
<ellipse cx="146.5" cy="589.812" rx="24" ry="23.3115" fill="#FFED5C"/>
<ellipse cx="133.68" cy="595.718" rx="5.91781" ry="5.58164" fill="#008DCB"/>
<ellipse cx="152.746" cy="601.626" rx="5.91781" ry="5.58164" fill="#008DCB"/>
<ellipse cx="152.746" cy="576.676" rx="5.91781" ry="5.58164" fill="#008DCB"/>
<ellipse cx="163.5" cy="255.697" rx="28" ry="27.1968" fill="#FFED5C"/>
<ellipse cx="148.543" cy="262.587" rx="6.90411" ry="6.51191" fill="#008DCB"/>
<ellipse cx="170.787" cy="269.482" rx="6.90411" ry="6.51191" fill="#008DCB"/>
<ellipse cx="170.787" cy="240.371" rx="6.90411" ry="6.51191" fill="#008DCB"/>
<ellipse cx="192" cy="205.197" rx="28" ry="27.1968" fill="#FFED5C"/>
<ellipse cx="177.043" cy="212.087" rx="6.90411" ry="6.51191" fill="#008DCB"/>
<ellipse cx="199.287" cy="218.982" rx="6.90411" ry="6.51191" fill="#008DCB"/>
<ellipse cx="199.287" cy="189.871" rx="6.90411" ry="6.51191" fill="#008DCB"/>
<ellipse cx="171" cy="323.197" rx="28" ry="27.1968" fill="#FFED5C"/>
<ellipse cx="156.043" cy="330.087" rx="6.90411" ry="6.51191" fill="#008DCB"/>
<ellipse cx="178.287" cy="336.982" rx="6.90411" ry="6.51191" fill="#008DCB"/>
<ellipse cx="178.287" cy="307.871" rx="6.90411" ry="6.51191" fill="#008DCB"/>
<ellipse cx="149.837" cy="87.4602" rx="28.9098" ry="28.0805" transform="rotate(77.0696 149.837 87.4602)" fill="#E1305A"/>
<ellipse cx="154.839" cy="102.163" rx="7.12845" ry="6.72351" transform="rotate(77.0696 154.839 102.163)" fill="white"/>
<ellipse cx="141.997" cy="70.9803" rx="7.12845" ry="6.72351" transform="rotate(77.0696 141.997 70.9803)" fill="white"/>
<ellipse cx="164.402" cy="83.7176" rx="7.12845" ry="6.72351" transform="rotate(77.0696 164.402 83.7176)" fill="white"/>
<ellipse cx="185.837" cy="34.4602" rx="28.9098" ry="28.0805" transform="rotate(77.0696 185.837 34.4602)" fill="#E1305A"/>
<ellipse cx="190.839" cy="49.1631" rx="7.12845" ry="6.72351" transform="rotate(77.0696 190.839 49.1631)" fill="white"/>
<ellipse cx="177.997" cy="17.9803" rx="7.12845" ry="6.72351" transform="rotate(77.0696 177.997 17.9803)" fill="white"/>
<ellipse cx="200.402" cy="30.7176" rx="7.12845" ry="6.72351" transform="rotate(77.0696 200.402 30.7176)" fill="white"/>
<ellipse cx="33.8036" cy="62.352" rx="25.4633" ry="24.7329" transform="rotate(77.0696 33.8036 62.352)" fill="#E1305A"/>
<ellipse cx="38.2093" cy="75.302" rx="6.27862" ry="5.92195" transform="rotate(77.0696 38.2093 75.302)" fill="white"/>
<ellipse cx="26.8978" cy="47.8366" rx="6.27862" ry="5.92195" transform="rotate(77.0696 26.8978 47.8366)" fill="white"/>
<ellipse cx="46.6317" cy="59.0554" rx="6.27862" ry="5.92195" transform="rotate(77.0696 46.6317 59.0554)" fill="white"/>
<ellipse cx="107.035" cy="105.422" rx="15.039" ry="14.6076" transform="rotate(95.7261 107.035 105.422)" fill="#E1305A"/>
<ellipse cx="107.054" cy="113.499" rx="3.70825" ry="3.4976" transform="rotate(95.7261 107.054 113.499)" fill="white"/>
<ellipse cx="105.915" cy="95.9929" rx="3.70825" ry="3.4976" transform="rotate(95.7261 105.915 95.9929)" fill="white"/>
<ellipse cx="114.837" cy="106" rx="3.70825" ry="3.4976" transform="rotate(95.7261 114.837 106)" fill="white"/>
<ellipse cx="115.035" cy="38.4216" rx="15.039" ry="14.6076" transform="rotate(95.7261 115.035 38.4216)" fill="#E1305A"/>
<ellipse cx="115.054" cy="46.4995" rx="3.70825" ry="3.4976" transform="rotate(95.7261 115.054 46.4995)" fill="white"/>
<ellipse cx="113.915" cy="28.9929" rx="3.70825" ry="3.4976" transform="rotate(95.7261 113.915 28.9929)" fill="white"/>
<ellipse cx="122.837" cy="39.0005" rx="3.70825" ry="3.4976" transform="rotate(95.7261 122.837 39.0005)" fill="white"/>
<ellipse cx="159.035" cy="39.4216" rx="15.039" ry="14.6076" transform="rotate(95.7261 159.035 39.4216)" fill="#E1305A"/>
<ellipse cx="159.054" cy="47.4995" rx="3.70825" ry="3.4976" transform="rotate(95.7261 159.054 47.4995)" fill="white"/>
<ellipse cx="157.915" cy="29.9929" rx="3.70825" ry="3.4976" transform="rotate(95.7261 157.915 29.9929)" fill="white"/>
<ellipse cx="166.837" cy="40.0005" rx="3.70825" ry="3.4976" transform="rotate(95.7261 166.837 40.0005)" fill="white"/>
<ellipse cx="193.035" cy="96.4213" rx="15.039" ry="14.6076" transform="rotate(95.7261 193.035 96.4213)" fill="#E1305A"/>
<ellipse cx="193.054" cy="104.499" rx="3.70825" ry="3.4976" transform="rotate(95.7261 193.054 104.499)" fill="white"/>
<ellipse cx="191.915" cy="86.9926" rx="3.70825" ry="3.4976" transform="rotate(95.7261 191.915 86.9926)" fill="white"/>
<ellipse cx="200.837" cy="97.0002" rx="3.70825" ry="3.4976" transform="rotate(95.7261 200.837 97.0002)" fill="white"/>
<ellipse cx="20.0351" cy="89.4216" rx="15.039" ry="14.6076" transform="rotate(95.7261 20.0351 89.4216)" fill="#E1305A"/>
<ellipse cx="20.0537" cy="97.4995" rx="3.70825" ry="3.4976" transform="rotate(95.7261 20.0537 97.4995)" fill="white"/>
<ellipse cx="18.9145" cy="79.9929" rx="3.70825" ry="3.4976" transform="rotate(95.7261 18.9145 79.9929)" fill="white"/>
<ellipse cx="27.8374" cy="90.0005" rx="3.70825" ry="3.4976" transform="rotate(95.7261 27.8374 90.0005)" fill="white"/>
<ellipse cx="47.0351" cy="27.4216" rx="15.039" ry="14.6076" transform="rotate(95.7261 47.0351 27.4216)" fill="#E1305A"/>
<ellipse cx="47.0537" cy="35.4995" rx="3.70825" ry="3.4976" transform="rotate(95.7261 47.0537 35.4995)" fill="white"/>
<ellipse cx="45.9145" cy="17.9929" rx="3.70825" ry="3.4976" transform="rotate(95.7261 45.9145 17.9929)" fill="white"/>
<ellipse cx="54.8374" cy="28.0005" rx="3.70825" ry="3.4976" transform="rotate(95.7261 54.8374 28.0005)" fill="white"/>
</svg>
