<svg width="218" height="688" viewBox="0 0 218 688" fill="none" xmlns="http://www.w3.org/2000/svg">
<path d="M66.0122 293.102C54.0875 265.833 20.5846 255.005 5.32373 253H0.000180561V475.064C4.5597e-05 509.824 -0.44337 556.687 16.1661 553.88C36.928 550.371 66.0122 485.59 72.4005 459.023C78.7887 432.456 48.9769 415.412 35.668 391.351C22.3591 367.29 80.9182 327.188 66.0122 293.102Z" fill="#E1305A"/>
<path d="M92.8649 522.211C46.6857 536.737 80.1783 594.337 -0.000976562 589.328V688H217.796V501.823C215.259 478.616 221.05 436.662 197.91 451.087C168.984 469.119 217.194 589.328 156.298 589.328C95.4022 589.328 139.044 507.686 92.8649 522.211Z" fill="#FFED5C"/>
<path d="M92.8649 406.509C73.0738 386.975 179.744 117.904 217.297 186.023V223.19V383.97C210.7 391.149 208.364 406.509 183.193 406.509C151.731 406.509 156.298 451.087 137.014 495.665C117.731 540.243 112.656 426.044 92.8649 406.509Z" fill="#FFED5C"/>
<path d="M-0.000976562 167.521V39.8395V0H217.796V167.521C211.624 160.482 202.204 145.913 184.664 143.949C162.738 141.494 156.891 217.12 98.9091 208.281C40.9273 199.441 108.654 88.9478 83.3174 69.7956C57.9808 50.6433 65.7767 117.431 40.4401 167.521C20.1708 207.593 5.03386 184.218 -0.000976562 167.521Z" fill="#E1305A"/>
<ellipse rx="7.14012" ry="6.92941" transform="matrix(0.230597 0.973049 -0.976146 0.217117 41.044 468.2)" fill="white"/>
<ellipse rx="7.14012" ry="6.92941" transform="matrix(0.230597 0.973049 -0.976146 0.217117 27.7886 437.017)" fill="white"/>
<ellipse rx="7.14012" ry="6.92941" transform="matrix(0.230597 0.973049 -0.976146 0.217117 50.9151 449.755)" fill="white"/>
<ellipse rx="17.3087" ry="16.8609" transform="matrix(0.685675 -0.727908 0.749187 0.662358 25.0157 498.768)" fill="#E1305A"/>
<ellipse rx="4.2679" ry="4.03711" transform="matrix(0.685675 -0.727908 0.749187 0.662358 30.6443 491.405)" fill="white"/>
<ellipse rx="4.2679" ry="4.03711" transform="matrix(0.685675 -0.727908 0.749187 0.662358 19.4783 508.105)" fill="white"/>
<ellipse rx="4.2679" ry="4.03711" transform="matrix(0.685675 -0.727908 0.749187 0.662358 18.0925 492.959)" fill="white"/>
<ellipse rx="12.4528" ry="12.1306" transform="matrix(0.685675 -0.727908 0.749187 0.662358 21.2385 405.099)" fill="#E1305A"/>
<ellipse rx="3.07056" ry="2.90452" transform="matrix(0.685675 -0.727908 0.749187 0.662358 25.2873 399.802)" fill="white"/>
<ellipse rx="3.07056" ry="2.90452" transform="matrix(0.685675 -0.727908 0.749187 0.662358 17.2556 411.816)" fill="white"/>
<ellipse rx="3.07056" ry="2.90452" transform="matrix(0.685675 -0.727908 0.749187 0.662358 16.2585 400.919)" fill="white"/>
<ellipse rx="11.5629" ry="11.5857" transform="matrix(-0.102954 0.994686 -0.995315 -0.0966889 19.9466 361.622)" fill="#E1305A"/>
<ellipse rx="2.85114" ry="2.77405" transform="matrix(-0.102954 0.994686 -0.995315 -0.0966888 19.961 367.831)" fill="white"/>
<ellipse rx="2.85114" ry="2.77405" transform="matrix(-0.102954 0.994686 -0.995315 -0.0966888 19.0572 354.375)" fill="white"/>
<ellipse rx="2.85114" ry="2.77405" transform="matrix(-0.102954 0.994686 -0.995315 -0.0966888 26.1363 362.067)" fill="white"/>
<ellipse rx="12.4303" ry="11.8572" transform="matrix(0.892138 0.451763 -0.474831 0.880077 25.4926 334.051)" fill="#E1305A"/>
<ellipse rx="3.06501" ry="2.83906" transform="matrix(0.892138 0.451763 -0.474831 0.880077 31.7364 336.461)" fill="white"/>
<ellipse rx="3.06501" ry="2.83906" transform="matrix(0.892138 0.451763 -0.474831 0.880077 17.8653 332.058)" fill="white"/>
<ellipse rx="3.06501" ry="2.83906" transform="matrix(0.892138 0.451763 -0.474831 0.880077 28.3585 328.388)" fill="white"/>
<ellipse rx="12.4303" ry="11.8572" transform="matrix(0.892138 0.451763 -0.474831 0.880077 24.4613 279.051)" fill="#E1305A"/>
<ellipse rx="3.06501" ry="2.83906" transform="matrix(0.892138 0.451763 -0.474831 0.880077 30.7032 281.461)" fill="white"/>
<ellipse rx="3.06501" ry="2.83906" transform="matrix(0.892138 0.451763 -0.474831 0.880077 16.8331 277.058)" fill="white"/>
<ellipse rx="3.06501" ry="2.83906" transform="matrix(0.892138 0.451763 -0.474831 0.880077 27.3263 273.388)" fill="white"/>
<ellipse cx="45.4166" cy="646.686" rx="28.3859" ry="26.7111" fill="#FFED5C"/>
<ellipse cx="30.2532" cy="653.454" rx="6.99926" ry="6.39563" fill="#008DCB"/>
<ellipse cx="52.8035" cy="660.225" rx="6.99926" ry="6.39563" fill="#008DCB"/>
<ellipse cx="52.8035" cy="631.634" rx="6.99926" ry="6.39563" fill="#008DCB"/>
<ellipse cx="102.188" cy="641.211" rx="28.3859" ry="26.7111" fill="#FFED5C"/>
<ellipse cx="87.0256" cy="647.979" rx="6.99926" ry="6.39563" fill="#008DCB"/>
<ellipse cx="109.576" cy="654.75" rx="6.99926" ry="6.39563" fill="#008DCB"/>
<ellipse cx="109.576" cy="626.159" rx="6.99926" ry="6.39563" fill="#008DCB"/>
<ellipse cx="81.0285" cy="599.711" rx="28.3859" ry="26.7111" fill="#FFED5C"/>
<ellipse cx="65.865" cy="606.479" rx="6.99926" ry="6.39563" fill="#008DCB"/>
<ellipse cx="88.4153" cy="613.25" rx="6.99926" ry="6.39563" fill="#008DCB"/>
<ellipse cx="88.4153" cy="584.659" rx="6.99926" ry="6.39563" fill="#008DCB"/>
<ellipse cx="174.959" cy="648.654" rx="30.4503" ry="28.6538" fill="#FFED5C"/>
<ellipse cx="158.693" cy="655.913" rx="7.50829" ry="6.86076" fill="#008DCB"/>
<ellipse cx="182.884" cy="663.177" rx="7.50829" ry="6.86076" fill="#008DCB"/>
<ellipse cx="182.884" cy="632.508" rx="7.50829" ry="6.86076" fill="#008DCB"/>
<ellipse cx="151.218" cy="614.812" rx="24.7731" ry="23.3115" fill="#FFED5C"/>
<ellipse cx="137.985" cy="620.718" rx="6.10844" ry="5.58164" fill="#008DCB"/>
<ellipse cx="157.665" cy="626.626" rx="6.10844" ry="5.58164" fill="#008DCB"/>
<ellipse cx="157.665" cy="601.676" rx="6.10844" ry="5.58164" fill="#008DCB"/>
<ellipse cx="168.766" cy="280.697" rx="28.902" ry="27.1968" fill="#FFED5C"/>
<ellipse cx="153.327" cy="287.587" rx="7.12652" ry="6.51191" fill="#008DCB"/>
<ellipse cx="176.287" cy="294.482" rx="7.12652" ry="6.51191" fill="#008DCB"/>
<ellipse cx="176.287" cy="265.371" rx="7.12652" ry="6.51191" fill="#008DCB"/>
<ellipse cx="187.862" cy="230.34" rx="23.7409" ry="22.3402" fill="#FFED5C"/>
<ellipse cx="175.181" cy="236" rx="5.85392" ry="5.34907" fill="#008DCB"/>
<ellipse cx="194.04" cy="241.664" rx="5.85392" ry="5.34907" fill="#008DCB"/>
<ellipse cx="194.04" cy="217.751" rx="5.85392" ry="5.34907" fill="#008DCB"/>
<ellipse cx="176.508" cy="348.197" rx="28.902" ry="27.1968" fill="#FFED5C"/>
<ellipse cx="161.069" cy="355.087" rx="7.12652" ry="6.51191" fill="#008DCB"/>
<ellipse cx="184.029" cy="361.982" rx="7.12652" ry="6.51191" fill="#008DCB"/>
<ellipse cx="184.029" cy="332.871" rx="7.12652" ry="6.51191" fill="#008DCB"/>
<ellipse rx="28.9572" ry="28.9405" transform="matrix(0.230597 0.973049 -0.976146 0.217117 139.18 113.46)" fill="#E1305A"/>
<ellipse rx="7.14012" ry="6.92941" transform="matrix(0.230597 0.973049 -0.976146 0.217117 144.343 128.163)" fill="white"/>
<ellipse rx="7.14012" ry="6.92941" transform="matrix(0.230597 0.973049 -0.976146 0.217117 131.087 96.9803)" fill="white"/>
<ellipse rx="7.14012" ry="6.92941" transform="matrix(0.230597 0.973049 -0.976146 0.217117 154.214 109.718)" fill="white"/>
<ellipse rx="23.1898" ry="23.1765" transform="matrix(0.230597 0.973049 -0.976146 0.217117 190.028 73.5969)" fill="#E1305A"/>
<ellipse rx="5.71804" ry="5.54929" transform="matrix(0.230597 0.973049 -0.976146 0.217117 194.163 85.3713)" fill="white"/>
<ellipse rx="5.71804" ry="5.54929" transform="matrix(0.230597 0.973049 -0.976146 0.217117 183.547 60.3992)" fill="white"/>
<ellipse rx="5.71804" ry="5.54929" transform="matrix(0.230597 0.973049 -0.976146 0.217117 202.068 70.5996)" fill="white"/>
<ellipse rx="19.5326" ry="19.5214" transform="matrix(0.230597 0.973049 -0.976146 0.217117 27.5598 95.2446)" fill="#E1305A"/>
<ellipse rx="4.81626" ry="4.67413" transform="matrix(0.230597 0.973049 -0.976146 0.217117 31.0416 105.162)" fill="white"/>
<ellipse rx="4.81626" ry="4.67413" transform="matrix(0.230597 0.973049 -0.976146 0.217117 22.1007 84.1281)" fill="white"/>
<ellipse rx="4.81626" ry="4.67413" transform="matrix(0.230597 0.973049 -0.976146 0.217117 37.6998 92.7198)" fill="white"/>
<ellipse rx="15.0439" ry="15.0736" transform="matrix(-0.102954 0.994686 -0.995315 -0.0966889 110.481 130.422)" fill="#E1305A"/>
<ellipse rx="3.70946" ry="3.60917" transform="matrix(-0.102954 0.994686 -0.995315 -0.0966888 110.5 138.499)" fill="white"/>
<ellipse rx="3.70946" ry="3.60917" transform="matrix(-0.102954 0.994686 -0.995315 -0.0966888 109.326 120.993)" fill="white"/>
<ellipse rx="3.70946" ry="3.60917" transform="matrix(-0.102954 0.994686 -0.995315 -0.0966888 118.536 131)" fill="white"/>
<ellipse rx="15.0439" ry="15.0736" transform="matrix(-0.102954 0.994686 -0.995315 -0.0966889 118.74 63.4216)" fill="#E1305A"/>
<ellipse rx="3.70946" ry="3.60917" transform="matrix(-0.102954 0.994686 -0.995315 -0.0966888 118.759 71.4995)" fill="white"/>
<ellipse rx="3.70946" ry="3.60917" transform="matrix(-0.102954 0.994686 -0.995315 -0.0966888 117.583 53.9929)" fill="white"/>
<ellipse rx="3.70946" ry="3.60917" transform="matrix(-0.102954 0.994686 -0.995315 -0.0966888 126.793 64.0005)" fill="white"/>
<ellipse rx="15.0439" ry="15.0736" transform="matrix(-0.102954 0.994686 -0.995315 -0.0966889 151.77 65.4213)" fill="#E1305A"/>
<ellipse rx="3.70946" ry="3.60917" transform="matrix(-0.102954 0.994686 -0.995315 -0.0966888 151.79 73.4992)" fill="white"/>
<ellipse rx="3.70946" ry="3.60917" transform="matrix(-0.102954 0.994686 -0.995315 -0.0966888 150.614 55.9926)" fill="white"/>
<ellipse rx="3.70946" ry="3.60917" transform="matrix(-0.102954 0.994686 -0.995315 -0.0966888 159.825 66.0002)" fill="white"/>
<ellipse rx="15.0439" ry="15.0736" transform="matrix(-0.102954 0.994686 -0.995315 -0.0966889 199.252 121.421)" fill="#E1305A"/>
<ellipse rx="3.70946" ry="3.60917" transform="matrix(-0.102954 0.994686 -0.995315 -0.0966888 199.272 129.499)" fill="white"/>
<ellipse rx="3.70946" ry="3.60917" transform="matrix(-0.102954 0.994686 -0.995315 -0.0966888 198.096 111.993)" fill="white"/>
<ellipse rx="3.70946" ry="3.60917" transform="matrix(-0.102954 0.994686 -0.995315 -0.0966888 207.307 122)" fill="white"/>
<ellipse rx="15.0439" ry="15.0736" transform="matrix(-0.102954 0.994686 -0.995315 -0.0966889 21.7114 127.421)" fill="#E1305A"/>
<ellipse rx="3.70946" ry="3.60917" transform="matrix(-0.102954 0.994686 -0.995315 -0.0966888 21.7304 135.499)" fill="white"/>
<ellipse rx="3.70946" ry="3.60917" transform="matrix(-0.102954 0.994686 -0.995315 -0.0966888 20.5546 117.993)" fill="white"/>
<ellipse rx="3.70946" ry="3.60917" transform="matrix(-0.102954 0.994686 -0.995315 -0.0966888 29.7656 128)" fill="white"/>
<ellipse rx="15.4148" ry="14.7158" transform="matrix(0.885328 0.464968 -0.488321 0.872664 48.7023 66.0094)" fill="#E1305A"/>
<ellipse rx="3.80091" ry="3.52351" transform="matrix(0.885328 0.464968 -0.488321 0.872664 56.3993 69.1144)" fill="white"/>
<ellipse rx="3.80091" ry="3.52351" transform="matrix(0.885328 0.464968 -0.488321 0.872664 39.2787 63.399)" fill="white"/>
<ellipse rx="3.80091" ry="3.52351" transform="matrix(0.885328 0.464968 -0.488321 0.872664 52.3647 59.037)" fill="white"/>
</svg>
