<svg width="272" height="946" viewBox="0 0 272 946" fill="none" xmlns="http://www.w3.org/2000/svg">
<path d="M20 13H249V242H20V13Z" fill="#7900B1"/>
<path d="M86 525C74.8 497.8 43.3333 487 29 485H24V706.5C27.1667 739 19.4 787.3 35 784.5C54.5 781 86 717 92 690.5C98 664 70 647 57.5 623C45 599 100 559 86 525Z" fill="#A90029"/>
<path d="M116.952 754.369C70.7302 768.88 104.254 826.426 24 821.422V920H248V734.353C245.46 711.168 245.257 668.901 222.095 683.312C193.143 701.327 241.397 821.422 180.444 821.422C119.492 821.422 163.175 739.857 116.952 754.369Z" fill="#FFEC00"/>
<path d="M116.952 638.777C97.1429 619.261 210.413 353.05 248 421.104V455.632V616.259C241.397 623.431 232.559 638.777 207.365 638.777C175.873 638.777 180.444 683.312 161.143 727.848C141.841 772.383 136.762 658.292 116.952 638.777Z" fill="#FFEC00"/>
<path d="M20.5 398.5V268.5V259.5H251.5V398.5C245.167 391.333 228 376.5 210 374.5C187.5 372 181.5 449 122 440C62.5 431 132 318.5 106 299C80 279.5 88 347.5 62 398.5C41.2 439.3 25.6667 415.5 20.5 398.5Z" fill="#A90029"/>
<path d="M259 13V933H136.748H13V13H259Z" stroke="black" stroke-width="25.86"/>
<path d="M13 255H257.5" stroke="black" stroke-width="25.86"/>
</svg>
