<svg width="251" height="894" viewBox="0 0 251 894" fill="none" xmlns="http://www.w3.org/2000/svg">
<path d="M22 0H251V217H22V0Z" fill="#7900B1"/>
<path d="M86 498.887C74.8 471.746 43.3333 460.97 29 458.974H24V679.992C27.1667 712.422 19.4 760.617 35 757.823C54.5 754.33 86 690.47 92 664.027C98 637.585 70 620.622 57.5 596.674C45 572.726 100 532.813 86 498.887Z" fill="#A90029"/>
<path d="M118.197 727.693C71.356 742.177 105.329 799.609 24 794.615V893H251V707.717C248.426 684.577 248.22 642.393 224.748 656.776C195.408 674.755 244.308 794.615 182.54 794.615C120.771 794.615 165.039 713.21 118.197 727.693Z" fill="#FFEC00"/>
<path d="M118.197 612.328C98.1224 592.851 212.909 327.162 251 395.082V429.542V589.854C244.308 597.013 235.352 612.328 209.821 612.328C177.907 612.328 182.54 656.776 162.98 701.224C143.419 745.672 138.272 631.805 118.197 612.328Z" fill="#FFEC00"/>
<path d="M20 372.822V242.988V234H251V372.822C244.667 365.665 227.5 350.85 209.5 348.853C187 346.356 181 423.257 121.5 414.269C62 405.28 131.5 292.924 105.5 273.449C79.5 253.974 87.5 321.887 61.5 372.822C40.7 413.57 25.1667 389.8 20 372.822Z" fill="#A90029"/>
<path d="M13 893.5V0" stroke="black" stroke-width="25.86"/>
<ellipse rx="28.8501" ry="28.0775" transform="matrix(0.224229 0.974536 -0.974749 0.223304 56.7627 659.035)" fill="#A90029"/>
<ellipse rx="7.11373" ry="6.72278" transform="matrix(0.224229 0.974536 -0.974749 0.223304 61.7647 673.706)" fill="white"/>
<ellipse rx="7.11373" ry="6.72278" transform="matrix(0.224229 0.974536 -0.974749 0.223304 48.9225 642.591)" fill="white"/>
<ellipse rx="7.11373" ry="6.72278" transform="matrix(0.224229 0.974536 -0.974749 0.223304 71.3272 655.301)" fill="white"/>
<ellipse rx="17.0367" ry="16.5512" transform="matrix(0.674884 -0.737924 0.739385 0.673283 46.2355 704.208)" fill="#A90029"/>
<ellipse rx="4.20082" ry="3.96297" transform="matrix(0.674884 -0.737924 0.739385 0.673283 51.6886 696.86)" fill="white"/>
<ellipse rx="4.20082" ry="3.96297" transform="matrix(0.674884 -0.737924 0.739385 0.673283 40.8717 713.524)" fill="white"/>
<ellipse rx="4.20082" ry="3.96297" transform="matrix(0.674884 -0.737924 0.739385 0.673283 39.5289 698.411)" fill="white"/>
<ellipse rx="12.2571" ry="11.9079" transform="matrix(0.674884 -0.737924 0.739385 0.673283 42.5766 610.742)" fill="#A90029"/>
<ellipse rx="3.0223" ry="2.85118" transform="matrix(0.674884 -0.737924 0.739385 0.673283 46.4994 605.457)" fill="white"/>
<ellipse rx="3.0223" ry="2.85118" transform="matrix(0.674884 -0.737924 0.739385 0.673283 38.7176 617.445)" fill="white"/>
<ellipse rx="3.0223" ry="2.85118" transform="matrix(0.674884 -0.737924 0.739385 0.673283 37.7513 606.572)" fill="white"/>
<ellipse rx="11.5343" ry="11.2274" transform="matrix(-0.0999882 0.994989 -0.995032 -0.0995583 41.325 567.36)" fill="#A90029"/>
<ellipse rx="2.84407" ry="2.68824" transform="matrix(-0.0999882 0.994989 -0.995032 -0.0995583 41.3396 573.555)" fill="white"/>
<ellipse rx="2.84407" ry="2.68824" transform="matrix(-0.0999882 0.994989 -0.995032 -0.0995583 40.4636 560.129)" fill="white"/>
<ellipse rx="2.84407" ry="2.68824" transform="matrix(-0.0999882 0.994989 -0.995032 -0.0995583 47.322 567.804)" fill="white"/>
<ellipse rx="12.1169" ry="11.7547" transform="matrix(0.88665 0.462441 -0.464024 0.885823 46.6982 539.849)" fill="#A90029"/>
<ellipse rx="2.98773" ry="2.81451" transform="matrix(0.88665 0.462441 -0.464024 0.885823 52.7469 542.254)" fill="white"/>
<ellipse rx="2.98773" ry="2.81451" transform="matrix(0.88665 0.462441 -0.464024 0.885823 39.3089 537.86)" fill="white"/>
<ellipse rx="2.98773" ry="2.81451" transform="matrix(0.88665 0.462441 -0.464024 0.885823 49.4744 534.198)" fill="white"/>
<ellipse rx="12.1169" ry="11.7547" transform="matrix(0.88665 0.462441 -0.464024 0.885823 45.6982 484.968)" fill="#A90029"/>
<ellipse rx="2.98773" ry="2.81451" transform="matrix(0.88665 0.462441 -0.464024 0.885823 51.7469 487.374)" fill="white"/>
<ellipse rx="2.98773" ry="2.81451" transform="matrix(0.88665 0.462441 -0.464024 0.885823 38.3089 482.98)" fill="white"/>
<ellipse rx="2.98773" ry="2.81451" transform="matrix(0.88665 0.462441 -0.464024 0.885823 48.4744 479.318)" fill="white"/>
<ellipse cx="66" cy="851.804" rx="27.5" ry="26.6531" fill="#FFEC00"/>
<ellipse cx="51.3106" cy="858.557" rx="6.78082" ry="6.38172" fill="#9B00E4"/>
<ellipse cx="73.1568" cy="865.313" rx="6.78082" ry="6.38172" fill="#9B00E4"/>
<ellipse cx="73.1568" cy="836.785" rx="6.78082" ry="6.38172" fill="#9B00E4"/>
<ellipse cx="121" cy="846.341" rx="27.5" ry="26.6531" fill="#FFEC00"/>
<ellipse cx="106.311" cy="853.094" rx="6.78082" ry="6.38172" fill="#9B00E4"/>
<ellipse cx="128.157" cy="859.85" rx="6.78082" ry="6.38172" fill="#9B00E4"/>
<ellipse cx="128.157" cy="831.322" rx="6.78082" ry="6.38172" fill="#9B00E4"/>
<ellipse cx="92" cy="801.439" rx="27.5" ry="26.6531" fill="#FFEC00"/>
<ellipse cx="77.3106" cy="808.192" rx="6.78082" ry="6.38172" fill="#9B00E4"/>
<ellipse cx="99.1568" cy="814.948" rx="6.78082" ry="6.38172" fill="#9B00E4"/>
<ellipse cx="99.1568" cy="786.42" rx="6.78082" ry="6.38172" fill="#9B00E4"/>
<ellipse cx="200" cy="847.024" rx="38.5" ry="37.3143" fill="#FFEC00"/>
<ellipse cx="179.435" cy="856.478" rx="9.49315" ry="8.93441" fill="#9B00E4"/>
<ellipse cx="210.02" cy="865.937" rx="9.49315" ry="8.93441" fill="#9B00E4"/>
<ellipse cx="210.02" cy="825.998" rx="9.49315" ry="8.93441" fill="#9B00E4"/>
<ellipse cx="168.5" cy="819.999" rx="24" ry="23.2609" fill="#FFEC00"/>
<ellipse cx="155.68" cy="825.892" rx="5.91781" ry="5.5695" fill="#9B00E4"/>
<ellipse cx="174.746" cy="831.788" rx="5.91781" ry="5.5695" fill="#9B00E4"/>
<ellipse cx="174.746" cy="806.891" rx="5.91781" ry="5.5695" fill="#9B00E4"/>
<ellipse cx="185.5" cy="486.61" rx="28" ry="27.1377" fill="#FFEC00"/>
<ellipse cx="170.543" cy="493.486" rx="6.90411" ry="6.49775" fill="#9B00E4"/>
<ellipse cx="192.787" cy="500.365" rx="6.90411" ry="6.49775" fill="#9B00E4"/>
<ellipse cx="192.787" cy="471.318" rx="6.90411" ry="6.49775" fill="#9B00E4"/>
<ellipse cx="214" cy="436.22" rx="28" ry="27.1377" fill="#FFEC00"/>
<ellipse cx="199.043" cy="443.096" rx="6.90411" ry="6.49775" fill="#9B00E4"/>
<ellipse cx="221.287" cy="449.975" rx="6.90411" ry="6.49775" fill="#9B00E4"/>
<ellipse cx="221.287" cy="420.928" rx="6.90411" ry="6.49775" fill="#9B00E4"/>
<ellipse cx="217" cy="536.003" rx="28" ry="27.1377" fill="#FFEC00"/>
<ellipse cx="202.043" cy="542.879" rx="6.90411" ry="6.49775" fill="#9B00E4"/>
<ellipse cx="224.287" cy="549.758" rx="6.90411" ry="6.49775" fill="#9B00E4"/>
<ellipse cx="224.287" cy="520.71" rx="6.90411" ry="6.49775" fill="#9B00E4"/>
<ellipse cx="164" cy="554.962" rx="28" ry="27.1377" fill="#FFEC00"/>
<ellipse cx="149.043" cy="561.837" rx="6.90411" ry="6.49775" fill="#9B00E4"/>
<ellipse cx="171.287" cy="568.716" rx="6.90411" ry="6.49775" fill="#9B00E4"/>
<ellipse cx="171.287" cy="539.669" rx="6.90411" ry="6.49775" fill="#9B00E4"/>
<ellipse rx="28.8501" ry="28.0775" transform="matrix(0.224229 0.974536 -0.974749 0.223304 171.837 318.74)" fill="#A90029"/>
<ellipse rx="7.11373" ry="6.72278" transform="matrix(0.224229 0.974536 -0.974749 0.223304 176.839 333.411)" fill="white"/>
<ellipse rx="7.11373" ry="6.72278" transform="matrix(0.224229 0.974536 -0.974749 0.223304 163.997 302.295)" fill="white"/>
<ellipse rx="7.11373" ry="6.72278" transform="matrix(0.224229 0.974536 -0.974749 0.223304 186.402 315.005)" fill="white"/>
<ellipse rx="28.8501" ry="28.0775" transform="matrix(0.224229 0.974536 -0.974749 0.223304 214.837 276.831)" fill="#A90029"/>
<ellipse rx="7.11373" ry="6.72278" transform="matrix(0.224229 0.974536 -0.974749 0.223304 219.839 291.502)" fill="white"/>
<ellipse rx="7.11373" ry="6.72278" transform="matrix(0.224229 0.974536 -0.974749 0.223304 206.997 260.387)" fill="white"/>
<ellipse rx="7.11373" ry="6.72278" transform="matrix(0.224229 0.974536 -0.974749 0.223304 229.402 273.096)" fill="white"/>
<ellipse rx="25.4107" ry="24.7302" transform="matrix(0.224229 0.974536 -0.974749 0.223304 55.8036 293.686)" fill="#A90029"/>
<ellipse rx="6.26565" ry="5.92131" transform="matrix(0.224229 0.974536 -0.974749 0.223304 60.2093 306.608)" fill="white"/>
<ellipse rx="6.26565" ry="5.92131" transform="matrix(0.224229 0.974536 -0.974749 0.223304 48.8978 279.202)" fill="white"/>
<ellipse rx="6.26565" ry="5.92131" transform="matrix(0.224229 0.974536 -0.974749 0.223304 68.6317 290.397)" fill="white"/>
<ellipse rx="15.0067" ry="14.6073" transform="matrix(-0.0999882 0.994989 -0.995032 -0.0995583 129.035 336.662)" fill="#A90029"/>
<ellipse rx="3.70027" ry="3.49753" transform="matrix(-0.0999882 0.994989 -0.995032 -0.0995583 129.054 344.722)" fill="white"/>
<ellipse rx="3.70027" ry="3.49753" transform="matrix(-0.0999882 0.994989 -0.995032 -0.0995583 127.915 327.254)" fill="white"/>
<ellipse rx="3.70027" ry="3.49753" transform="matrix(-0.0999882 0.994989 -0.995032 -0.0995583 136.837 337.24)" fill="white"/>
<ellipse rx="15.0067" ry="14.6073" transform="matrix(-0.0999882 0.994989 -0.995032 -0.0995583 137.035 269.808)" fill="#A90029"/>
<ellipse rx="3.70027" ry="3.49753" transform="matrix(-0.0999882 0.994989 -0.995032 -0.0995583 137.054 277.868)" fill="white"/>
<ellipse rx="3.70027" ry="3.49753" transform="matrix(-0.0999882 0.994989 -0.995032 -0.0995583 135.915 260.399)" fill="white"/>
<ellipse rx="3.70027" ry="3.49753" transform="matrix(-0.0999882 0.994989 -0.995032 -0.0995583 144.837 270.385)" fill="white"/>
<ellipse rx="15.0067" ry="14.6073" transform="matrix(-0.0999882 0.994989 -0.995032 -0.0995583 181.035 270.805)" fill="#A90029"/>
<ellipse rx="3.70027" ry="3.49753" transform="matrix(-0.0999882 0.994989 -0.995032 -0.0995583 181.054 278.866)" fill="white"/>
<ellipse rx="3.70027" ry="3.49753" transform="matrix(-0.0999882 0.994989 -0.995032 -0.0995583 179.915 261.397)" fill="white"/>
<ellipse rx="3.70027" ry="3.49753" transform="matrix(-0.0999882 0.994989 -0.995032 -0.0995583 188.837 271.383)" fill="white"/>
<ellipse rx="15.0067" ry="14.6073" transform="matrix(-0.0999882 0.994989 -0.995032 -0.0995583 228.035 329.677)" fill="#A90029"/>
<ellipse rx="3.70027" ry="3.49753" transform="matrix(-0.0999882 0.994989 -0.995032 -0.0995583 228.054 337.738)" fill="white"/>
<ellipse rx="3.70027" ry="3.49753" transform="matrix(-0.0999882 0.994989 -0.995032 -0.0995583 226.915 320.269)" fill="white"/>
<ellipse rx="3.70027" ry="3.49753" transform="matrix(-0.0999882 0.994989 -0.995032 -0.0995583 235.837 330.255)" fill="white"/>
<ellipse rx="15.0067" ry="14.6073" transform="matrix(-0.0999882 0.994989 -0.995032 -0.0995583 42.0351 320.697)" fill="#A90029"/>
<ellipse rx="3.70027" ry="3.49753" transform="matrix(-0.0999882 0.994989 -0.995032 -0.0995583 42.0537 328.757)" fill="white"/>
<ellipse rx="3.70027" ry="3.49753" transform="matrix(-0.0999882 0.994989 -0.995032 -0.0995583 40.9145 311.289)" fill="white"/>
<ellipse rx="3.70027" ry="3.49753" transform="matrix(-0.0999882 0.994989 -0.995032 -0.0995583 49.8374 321.274)" fill="white"/>
<ellipse rx="15.0067" ry="14.6073" transform="matrix(-0.0999882 0.994989 -0.995032 -0.0995583 69.0351 258.832)" fill="#A90029"/>
<ellipse rx="3.70027" ry="3.49753" transform="matrix(-0.0999882 0.994989 -0.995032 -0.0995583 69.0537 266.892)" fill="white"/>
<ellipse rx="3.70027" ry="3.49753" transform="matrix(-0.0999882 0.994989 -0.995032 -0.0995583 67.9145 249.423)" fill="white"/>
<ellipse rx="3.70027" ry="3.49753" transform="matrix(-0.0999882 0.994989 -0.995032 -0.0995583 76.8374 259.409)" fill="white"/>
</svg>
