<svg width="209" height="688" viewBox="0 0 209 688" fill="none" xmlns="http://www.w3.org/2000/svg">
<path d="M63.288 293.102C51.8555 265.833 19.7357 255.005 5.10489 253H0.00110935V475.064C0.000979961 509.824 -0.42413 556.687 15.4997 553.88C35.4044 550.371 63.2879 485.59 69.4125 459.023C75.537 432.456 46.9559 415.412 34.1964 391.351C21.437 367.29 77.5785 327.188 63.288 293.102Z" fill="#E1305A"/>
<path d="M89.0321 522.211C44.7593 536.737 76.8692 594.337 0 589.328V688H208.806V501.823C206.373 478.616 211.926 436.662 189.74 451.087C162.009 469.119 208.228 589.328 149.846 589.328C91.4646 589.328 133.305 507.686 89.0321 522.211Z" fill="#FFED5C"/>
<path d="M89.0321 406.509C70.058 386.975 172.325 117.904 208.327 186.023V223.19V383.97C202.002 391.149 199.763 406.509 175.632 406.509C145.468 406.509 149.846 451.087 131.359 495.665C112.871 540.243 108.006 426.044 89.0321 406.509Z" fill="#FFED5C"/>
<path d="M0 167.521V39.8395V0H208.806V167.521C202.889 160.482 193.858 145.913 177.041 143.949C156.02 141.494 150.415 217.12 94.8268 208.281C39.2387 199.441 104.169 88.9478 79.8787 69.7956C55.5881 50.6433 63.0621 117.431 38.7715 167.521C19.3391 207.593 4.82698 184.218 0 167.521Z" fill="#E1305A"/>
<ellipse rx="7.12476" ry="6.65711" transform="matrix(0.221554 0.975148 -0.974128 0.225998 39.3505 468.2)" fill="white"/>
<ellipse rx="7.12476" ry="6.65711" transform="matrix(0.221554 0.975148 -0.974128 0.225998 26.642 437.017)" fill="white"/>
<ellipse rx="7.12476" ry="6.65711" transform="matrix(0.221554 0.975148 -0.974128 0.225998 48.8139 449.755)" fill="white"/>
<ellipse rx="16.9765" ry="16.4738" transform="matrix(0.670232 -0.742152 0.735135 0.677921 23.9838 498.768)" fill="#E1305A"/>
<ellipse rx="4.18599" ry="3.94443" transform="matrix(0.670232 -0.742152 0.735135 0.677921 29.3801 491.405)" fill="white"/>
<ellipse rx="4.18599" ry="3.94443" transform="matrix(0.670232 -0.742152 0.735135 0.677921 18.6755 508.105)" fill="white"/>
<ellipse rx="4.18599" ry="3.94443" transform="matrix(0.670232 -0.742152 0.735135 0.677921 17.3464 492.959)" fill="white"/>
<ellipse rx="12.2138" ry="11.8522" transform="matrix(0.670232 -0.742152 0.735135 0.677921 20.3629 405.099)" fill="#E1305A"/>
<ellipse rx="3.01163" ry="2.83784" transform="matrix(0.670232 -0.742152 0.735135 0.677921 24.2443 399.802)" fill="white"/>
<ellipse rx="3.01163" ry="2.83784" transform="matrix(0.670232 -0.742152 0.735135 0.677921 16.5441 411.816)" fill="white"/>
<ellipse rx="3.01163" ry="2.83784" transform="matrix(0.670232 -0.742152 0.735135 0.677921 15.5881 400.919)" fill="white"/>
<ellipse rx="11.558" ry="11.112" transform="matrix(-0.0987456 0.995113 -0.994906 -0.100811 19.1241 361.622)" fill="#E1305A"/>
<ellipse rx="2.84991" ry="2.66062" transform="matrix(-0.0987456 0.995113 -0.994906 -0.100811 19.1384 367.831)" fill="white"/>
<ellipse rx="2.84991" ry="2.66062" transform="matrix(-0.0987456 0.995113 -0.994906 -0.100811 18.2717 354.375)" fill="white"/>
<ellipse rx="2.84991" ry="2.66062" transform="matrix(-0.0987456 0.995113 -0.994906 -0.100811 25.0583 362.067)" fill="white"/>
<ellipse rx="12.0237" ry="11.7487" transform="matrix(0.884235 0.467043 -0.459436 0.888211 24.441 334.051)" fill="#E1305A"/>
<ellipse rx="2.96474" ry="2.81306" transform="matrix(0.884235 0.467043 -0.459436 0.888211 30.4272 336.461)" fill="white"/>
<ellipse rx="2.96474" ry="2.81306" transform="matrix(0.884235 0.467043 -0.459436 0.888211 17.1289 332.058)" fill="white"/>
<ellipse rx="2.96474" ry="2.81306" transform="matrix(0.884235 0.467043 -0.459436 0.888211 27.1885 328.388)" fill="white"/>
<ellipse rx="12.0237" ry="11.7487" transform="matrix(0.884235 0.467043 -0.459436 0.888211 23.4523 279.051)" fill="#E1305A"/>
<ellipse rx="2.96474" ry="2.81306" transform="matrix(0.884235 0.467043 -0.459436 0.888211 29.437 281.461)" fill="white"/>
<ellipse rx="2.96474" ry="2.81306" transform="matrix(0.884235 0.467043 -0.459436 0.888211 16.1392 277.058)" fill="white"/>
<ellipse rx="2.96474" ry="2.81306" transform="matrix(0.884235 0.467043 -0.459436 0.888211 26.1992 273.388)" fill="white"/>
<ellipse cx="43.5426" cy="646.686" rx="27.214" ry="26.7111" fill="#FFED5C"/>
<ellipse cx="29.0052" cy="653.454" rx="6.7103" ry="6.39563" fill="#008DCB"/>
<ellipse cx="50.6244" cy="660.225" rx="6.7103" ry="6.39563" fill="#008DCB"/>
<ellipse cx="50.6244" cy="631.634" rx="6.7103" ry="6.39563" fill="#008DCB"/>
<ellipse cx="97.9704" cy="641.211" rx="27.214" ry="26.7111" fill="#FFED5C"/>
<ellipse cx="83.4339" cy="647.979" rx="6.7103" ry="6.39563" fill="#008DCB"/>
<ellipse cx="105.053" cy="654.75" rx="6.7103" ry="6.39563" fill="#008DCB"/>
<ellipse cx="105.053" cy="626.159" rx="6.7103" ry="6.39563" fill="#008DCB"/>
<ellipse cx="77.6842" cy="599.711" rx="27.214" ry="26.7111" fill="#FFED5C"/>
<ellipse cx="63.1468" cy="606.479" rx="6.7103" ry="6.39563" fill="#008DCB"/>
<ellipse cx="84.766" cy="613.25" rx="6.7103" ry="6.39563" fill="#008DCB"/>
<ellipse cx="84.766" cy="584.659" rx="6.7103" ry="6.39563" fill="#008DCB"/>
<ellipse cx="167.737" cy="648.654" rx="29.1932" ry="28.6538" fill="#FFED5C"/>
<ellipse cx="152.143" cy="655.913" rx="7.19833" ry="6.86076" fill="#008DCB"/>
<ellipse cx="175.335" cy="663.177" rx="7.19833" ry="6.86076" fill="#008DCB"/>
<ellipse cx="175.335" cy="632.508" rx="7.19833" ry="6.86076" fill="#008DCB"/>
<ellipse cx="144.976" cy="614.812" rx="23.7504" ry="23.3115" fill="#FFED5C"/>
<ellipse cx="132.29" cy="620.718" rx="5.85627" ry="5.58164" fill="#008DCB"/>
<ellipse cx="151.158" cy="626.626" rx="5.85627" ry="5.58164" fill="#008DCB"/>
<ellipse cx="151.158" cy="601.676" rx="5.85627" ry="5.58164" fill="#008DCB"/>
<ellipse cx="161.8" cy="280.697" rx="27.7088" ry="27.1968" fill="#FFED5C"/>
<ellipse cx="146.998" cy="287.587" rx="6.83231" ry="6.51191" fill="#008DCB"/>
<ellipse cx="169.011" cy="294.482" rx="6.83231" ry="6.51191" fill="#008DCB"/>
<ellipse cx="169.011" cy="265.371" rx="6.83231" ry="6.51191" fill="#008DCB"/>
<ellipse cx="180.107" cy="230.34" rx="22.7608" ry="22.3402" fill="#FFED5C"/>
<ellipse cx="167.95" cy="236" rx="5.61225" ry="5.34907" fill="#008DCB"/>
<ellipse cx="186.031" cy="241.664" rx="5.61225" ry="5.34907" fill="#008DCB"/>
<ellipse cx="186.031" cy="217.751" rx="5.61225" ry="5.34907" fill="#008DCB"/>
<ellipse cx="169.222" cy="348.197" rx="27.7088" ry="27.1968" fill="#FFED5C"/>
<ellipse cx="154.42" cy="355.087" rx="6.83231" ry="6.51191" fill="#008DCB"/>
<ellipse cx="176.433" cy="361.982" rx="6.83231" ry="6.51191" fill="#008DCB"/>
<ellipse cx="176.433" cy="332.871" rx="6.83231" ry="6.51191" fill="#008DCB"/>
<ellipse rx="28.8949" ry="27.8032" transform="matrix(0.221554 0.975148 -0.974128 0.225998 133.435 113.46)" fill="#E1305A"/>
<ellipse rx="7.12476" ry="6.65711" transform="matrix(0.221554 0.975148 -0.974128 0.225998 138.385 128.163)" fill="white"/>
<ellipse rx="7.12476" ry="6.65711" transform="matrix(0.221554 0.975148 -0.974128 0.225998 125.677 96.9803)" fill="white"/>
<ellipse rx="7.12476" ry="6.65711" transform="matrix(0.221554 0.975148 -0.974128 0.225998 147.849 109.718)" fill="white"/>
<ellipse rx="23.1399" ry="22.2657" transform="matrix(0.221554 0.975148 -0.974128 0.225998 182.184 73.5969)" fill="#E1305A"/>
<ellipse rx="5.70573" ry="5.33122" transform="matrix(0.221554 0.975148 -0.974128 0.225998 186.148 85.3713)" fill="white"/>
<ellipse rx="5.70573" ry="5.33122" transform="matrix(0.221554 0.975148 -0.974128 0.225998 175.971 60.3991)" fill="white"/>
<ellipse rx="5.70573" ry="5.33122" transform="matrix(0.221554 0.975148 -0.974128 0.225998 193.727 70.5996)" fill="white"/>
<ellipse rx="25.4501" ry="24.4886" transform="matrix(0.221554 0.975148 -0.974128 0.225998 35.4315 99.352)" fill="#E1305A"/>
<ellipse rx="6.27537" ry="5.86347" transform="matrix(0.221554 0.975148 -0.974128 0.225998 39.7909 112.302)" fill="white"/>
<ellipse rx="6.27537" ry="5.86347" transform="matrix(0.221554 0.975148 -0.974128 0.225998 28.5975 84.8366)" fill="white"/>
<ellipse rx="6.27537" ry="5.86347" transform="matrix(0.221554 0.975148 -0.974128 0.225998 48.1258 96.0554)" fill="white"/>
<ellipse rx="15.0375" ry="14.4572" transform="matrix(-0.0987456 0.995113 -0.994906 -0.100811 105.922 130.422)" fill="#E1305A"/>
<ellipse rx="3.70787" ry="3.46159" transform="matrix(-0.0987456 0.995113 -0.994906 -0.100811 105.94 138.499)" fill="white"/>
<ellipse rx="3.70787" ry="3.46159" transform="matrix(-0.0987456 0.995113 -0.994906 -0.100811 104.813 120.993)" fill="white"/>
<ellipse rx="3.70787" ry="3.46159" transform="matrix(-0.0987456 0.995113 -0.994906 -0.100811 113.643 131)" fill="white"/>
<ellipse rx="15.0375" ry="14.4572" transform="matrix(-0.0987456 0.995113 -0.994906 -0.100811 113.839 63.4216)" fill="#E1305A"/>
<ellipse rx="3.70787" ry="3.46159" transform="matrix(-0.0987456 0.995113 -0.994906 -0.100811 113.857 71.4995)" fill="white"/>
<ellipse rx="3.70787" ry="3.46159" transform="matrix(-0.0987456 0.995113 -0.994906 -0.100811 112.73 53.9929)" fill="white"/>
<ellipse rx="3.70787" ry="3.46159" transform="matrix(-0.0987456 0.995113 -0.994906 -0.100811 121.56 64.0005)" fill="white"/>
<ellipse rx="15.0375" ry="14.4572" transform="matrix(-0.0987456 0.995113 -0.994906 -0.100811 145.506 65.4213)" fill="#E1305A"/>
<ellipse rx="3.70787" ry="3.46159" transform="matrix(-0.0987456 0.995113 -0.994906 -0.100811 145.524 73.4992)" fill="white"/>
<ellipse rx="3.70787" ry="3.46159" transform="matrix(-0.0987456 0.995113 -0.994906 -0.100811 144.397 55.9926)" fill="white"/>
<ellipse rx="3.70787" ry="3.46159" transform="matrix(-0.0987456 0.995113 -0.994906 -0.100811 153.228 66.0002)" fill="white"/>
<ellipse rx="15.0375" ry="14.4572" transform="matrix(-0.0987456 0.995113 -0.994906 -0.100811 191.028 121.421)" fill="#E1305A"/>
<ellipse rx="3.70787" ry="3.46159" transform="matrix(-0.0987456 0.995113 -0.994906 -0.100811 191.046 129.499)" fill="white"/>
<ellipse rx="3.70787" ry="3.46159" transform="matrix(-0.0987456 0.995113 -0.994906 -0.100811 189.918 111.993)" fill="white"/>
<ellipse rx="3.70787" ry="3.46159" transform="matrix(-0.0987456 0.995113 -0.994906 -0.100811 198.749 122)" fill="white"/>
<ellipse rx="15.0375" ry="14.4572" transform="matrix(-0.0987456 0.995113 -0.994906 -0.100811 20.8161 127.421)" fill="#E1305A"/>
<ellipse rx="3.70787" ry="3.46159" transform="matrix(-0.0987456 0.995113 -0.994906 -0.100811 20.8344 135.499)" fill="white"/>
<ellipse rx="3.70787" ry="3.46159" transform="matrix(-0.0987456 0.995113 -0.994906 -0.100811 19.707 117.993)" fill="white"/>
<ellipse rx="3.70787" ry="3.46159" transform="matrix(-0.0987456 0.995113 -0.994906 -0.100811 28.5376 128)" fill="white"/>
<ellipse rx="14.9183" ry="14.5733" transform="matrix(0.877026 0.480442 -0.472741 0.881201 46.6924 66.0094)" fill="#E1305A"/>
<ellipse rx="3.67848" ry="3.48937" transform="matrix(0.877026 0.480442 -0.472741 0.881201 54.0717 69.1144)" fill="white"/>
<ellipse rx="3.67848" ry="3.48937" transform="matrix(0.877026 0.480442 -0.472741 0.881201 37.6581 63.399)" fill="white"/>
<ellipse rx="3.67848" ry="3.48937" transform="matrix(0.877026 0.480442 -0.472741 0.881201 50.204 59.037)" fill="white"/>
</svg>
