<svg width="255" height="68" viewBox="0 0 255 68" fill="none" xmlns="http://www.w3.org/2000/svg">
<path d="M1.37376 42.0634L2.71052 18.5158L26.7964 17.4328L27.0443 22.9539L8.02742 23.8089L7.18232 36.6906C9.42455 35.231 12.0093 34.4354 14.9366 34.3038C19.22 34.1112 22.6847 35.3789 25.3306 38.1069C27.9756 40.8134 29.4063 44.5774 29.6228 49.3989C29.8402 54.2419 28.6988 58.1215 26.1984 61.0378C23.7186 63.9315 20.1326 65.4839 15.4402 65.6949C11.286 65.8817 7.84421 64.8825 5.11482 62.6975C2.38543 60.5124 0.74645 57.394 0.197878 53.3424L5.84804 53.0883C6.33476 55.7624 7.38393 57.7534 8.99554 59.0613C10.6062 60.3477 12.6815 60.9338 15.2213 60.8196C17.998 60.6947 20.1294 59.6499 21.6157 57.6851C23.1234 55.7193 23.8024 53.0683 23.6526 49.732C23.5115 46.5894 22.5375 44.1098 20.7305 42.293C18.944 40.4538 16.6302 39.5981 13.789 39.7258C11.1845 39.8429 9.1653 40.5053 7.73133 41.7128L6.20727 43.0754L1.37376 42.0634ZM77.3429 27.8098C77.2308 25.313 76.2271 23.3739 74.3318 21.9924C72.4571 20.5885 69.8731 19.9606 66.5799 20.1087C63.8247 20.2326 61.5452 21.1007 59.7412 22.7132C57.9577 24.3031 57.1162 26.2174 57.2168 28.4559L51.0177 28.7346C50.9056 26.2378 51.4831 23.9687 52.7502 21.9275C54.0389 19.8853 55.8855 18.2602 58.29 17.0521C60.6935 15.8225 63.3805 15.1409 66.3508 15.0074C71.6028 14.7713 75.7348 15.7717 78.7469 18.0088C81.7581 20.2243 83.3579 23.4307 83.5463 27.628C83.6439 29.8019 83.0656 31.8122 81.8113 33.6587C80.557 35.5053 78.7584 36.9988 76.4156 38.1394C82.0305 39.7418 84.9612 43.2874 85.2076 48.7761C85.397 52.9949 83.976 56.4126 80.9446 59.0293C77.9132 61.6459 73.7715 63.0722 68.5195 63.3084C65.3985 63.4487 62.5326 63.0276 59.9219 62.045C57.3318 61.0399 55.2805 59.5469 53.768 57.5659C52.2556 55.585 51.4361 53.1846 51.3095 50.3649L57.5085 50.0862C57.6197 52.5615 58.6918 54.5839 60.725 56.1532C62.7571 57.701 65.2799 58.4071 68.2934 58.2716C71.6727 58.1197 74.328 57.2131 76.2592 55.5518C78.2119 53.8895 79.1303 51.7669 79.0144 49.184C78.767 43.6737 75.2292 41.0182 68.4011 41.2173L62.5895 41.4786L62.3605 36.3773L68.1398 36.1175C71.2795 35.9116 73.626 35.0944 75.1795 33.6657C76.7329 32.2371 77.4541 30.2851 77.3429 27.8098ZM94.0293 61.5144L91.9186 14.5049L107.287 13.8139C112.388 13.5845 116.267 14.467 118.923 16.4612C121.601 18.4545 123.032 21.5175 123.218 25.6502C123.317 27.8457 122.78 29.8217 121.608 31.5783C120.435 33.3133 118.793 34.692 116.682 35.7143C119.254 36.3104 121.316 37.5765 122.87 39.5124C124.444 41.4259 125.293 43.7602 125.416 46.5154C125.606 50.7342 124.388 54.1104 121.763 56.644C119.137 59.1777 115.328 60.5568 110.334 60.7813L94.0293 61.5144ZM99.2411 39.2484L100.001 56.1667L110.236 55.7065C113.12 55.5768 115.357 54.7321 116.948 53.1724C118.559 51.5902 119.306 49.4861 119.188 46.8601C118.934 41.1992 115.729 38.5071 109.573 38.7839L99.2411 39.2484ZM99.0178 34.2762L108.381 33.8553C111.093 33.7333 113.226 32.958 114.779 31.5294C116.354 30.0998 117.09 28.2227 116.985 25.8981C116.869 23.3151 116.032 21.4764 114.473 20.3818C112.913 19.2657 110.594 18.7768 107.516 18.9152L98.3467 19.3275L99.0178 34.2762ZM160.823 36.7384L140.45 37.6544L141.198 54.3144L164.865 53.2503L165.092 58.3193L135.227 59.6621L133.116 12.6526L162.659 11.3243L162.888 16.4256L139.544 17.4752L140.223 32.5854L160.596 31.6694L160.823 36.7384ZM136.905 4.81481C136.862 3.84621 137.116 3.02597 137.668 2.35411C138.241 1.65975 139.109 1.28644 140.271 1.23418C141.433 1.18192 142.331 1.47588 142.964 2.11604C143.595 2.73468 143.933 3.5283 143.976 4.4969C144.02 5.4655 143.755 6.28622 143.181 6.95905C142.607 7.63188 141.739 7.99443 140.577 8.04669C139.415 8.09895 138.518 7.81576 137.886 7.19712C137.276 6.57751 136.949 5.78341 136.905 4.81481ZM150.792 4.25517C150.748 3.28657 151.002 2.45558 151.553 1.76219C152.126 1.06783 152.993 0.694522 154.156 0.642263C155.318 0.590004 156.216 0.883955 156.848 1.52412C157.481 2.16428 157.819 2.96866 157.862 3.93726C157.906 4.90587 157.641 5.72658 157.067 6.39942C156.493 7.07225 155.625 7.43479 154.463 7.48705C153.301 7.53931 152.404 7.25612 151.772 6.63749C151.162 6.01788 150.835 5.22378 150.792 4.25517ZM195.383 22.5026C195.271 20.0058 194.267 18.0666 192.372 16.6852C190.497 15.2813 187.913 14.6534 184.62 14.8015C181.865 14.9254 179.585 15.7935 177.781 17.4059C175.998 18.9959 175.156 20.9101 175.257 23.1487L169.058 23.4274C168.946 20.9306 169.523 18.6615 170.79 16.6203C172.079 14.5781 173.926 12.953 176.33 11.7449C178.734 10.5153 181.42 9.83373 184.391 9.70018C189.643 9.46405 193.775 10.4645 196.787 12.7015C199.798 14.9171 201.398 18.1235 201.586 22.3207C201.684 24.4947 201.106 26.505 199.851 28.3515C198.597 30.198 196.798 31.6916 194.456 32.8322C200.071 34.4346 203.001 37.9802 203.248 43.4689C203.437 47.6877 202.016 51.1054 198.985 53.722C195.953 56.3387 191.812 57.765 186.56 58.0012C183.438 58.1415 180.573 57.7204 177.962 56.7378C175.372 55.7327 173.321 54.2397 171.808 52.2587C170.296 50.2778 169.476 47.8774 169.35 45.0577L175.549 44.779C175.66 47.2543 176.732 49.2766 178.765 50.846C180.797 52.3938 183.32 53.0999 186.333 52.9644C189.713 52.8125 192.368 51.9059 194.299 50.2446C196.252 48.5823 197.17 46.4597 197.054 43.8768C196.807 38.3665 193.269 35.711 186.441 35.9101L180.63 36.1714L180.401 31.0701L186.18 30.8103C189.32 30.6044 191.666 29.7871 193.22 28.3585C194.773 26.9299 195.494 24.9779 195.383 22.5026ZM254.882 65.8319L248.716 66.1092L248.198 54.5828L214.459 56.0998L214.977 67.6584L208.778 67.9371L208 51.3109L211.842 51.1382C213.763 48.7656 215.229 45.637 216.241 41.7524C217.273 37.8453 217.837 33.5927 217.933 28.9944L218.063 8.8333L246.184 7.56892L248.067 49.5094L254.202 49.2336L254.882 65.8319ZM218.912 50.8202L241.836 49.7896L240.182 12.9504L224.265 13.6661L224.207 27.5153C224.17 32.9305 223.656 37.5692 222.664 41.4313C221.695 45.2924 220.444 48.422 218.912 50.8202Z" fill="black"/>
</svg>
