<svg width="135" height="627" viewBox="0 0 135 627" fill="none" xmlns="http://www.w3.org/2000/svg">
<path d="M93.3432 320.963L116.799 323.433L116.721 347.543L111.194 347.524L111.256 328.488L98.43 327.024C99.7799 329.334 100.45 331.954 100.441 334.884C100.427 339.172 98.9936 342.571 96.1414 345.083C93.3106 347.594 89.4821 348.842 84.6558 348.826C79.8079 348.81 75.9878 347.483 73.1953 344.845C70.4243 342.229 69.0465 338.573 69.0617 333.875C69.0752 329.717 70.2389 326.327 72.5529 323.706C74.8668 321.085 78.0605 319.598 82.1339 319.246L82.1155 324.901C79.4211 325.259 77.3819 326.211 75.9979 327.758C74.6355 329.305 73.9501 331.349 73.9419 333.892C73.9329 336.671 74.8738 338.85 76.7648 340.429C78.6557 342.03 81.2709 342.836 84.6106 342.847C87.7563 342.857 90.28 342.004 92.1816 340.287C94.1047 338.591 95.0709 336.321 95.0801 333.477C95.0886 330.87 94.5243 328.821 93.3871 327.33L92.0995 325.742L93.3432 320.963ZM103.922 397.531C106.421 397.539 108.406 396.63 109.877 394.803C111.37 392.998 112.122 390.448 112.132 387.151C112.141 384.393 111.384 382.074 109.86 380.195C108.358 378.337 106.486 377.404 104.246 377.397L104.266 371.192C106.765 371.2 109.004 371.886 110.982 373.25C112.959 374.635 114.494 376.558 115.585 379.018C116.697 381.478 117.248 384.195 117.239 387.168C117.222 392.425 116.023 396.504 113.644 399.405C111.286 402.306 108.006 403.75 103.805 403.736C101.629 403.729 99.6485 403.054 97.8645 401.712C96.0805 400.371 94.6753 398.502 93.6488 396.107C91.7779 401.638 88.0953 404.395 82.6011 404.377C78.378 404.363 75.0327 402.779 72.5651 399.625C70.0975 396.471 68.8723 392.265 68.8893 387.008C68.8995 383.884 69.4581 381.042 70.5653 378.481C71.6939 375.943 73.284 373.966 75.3355 372.55C77.387 371.135 79.824 370.432 82.6465 370.441L82.6264 376.647C80.1486 376.638 78.077 377.612 76.4116 379.567C74.7677 381.522 73.9409 384.008 73.9311 387.025C73.9201 390.407 74.6978 393.103 76.2642 395.112C77.8305 397.143 79.9064 398.162 82.4919 398.171C88.0077 398.189 90.8305 394.783 90.9604 387.954L90.9793 382.136L96.0857 382.153L96.067 387.938C96.1214 391.084 96.8247 393.467 98.1768 395.088C99.529 396.708 101.444 397.523 103.922 397.531ZM69.4528 412.575L116.509 412.73L116.459 428.114C116.443 433.221 115.375 437.052 113.255 439.609C111.135 442.188 108.007 443.47 103.87 443.457C101.672 443.449 99.7242 442.818 98.0261 441.563C96.3495 440.307 95.0515 438.601 94.132 436.443C93.4128 438.983 92.0489 440.983 90.0403 442.441C88.0533 443.921 85.6808 444.657 82.9229 444.648C78.6999 444.634 75.3862 443.255 72.9819 440.51C70.5776 437.766 69.3836 433.894 69.3998 428.896L69.4528 412.575ZM91.4419 418.853L74.5067 418.797L74.4735 429.042C74.4641 431.929 75.2001 434.205 76.6814 435.869C78.1842 437.554 80.2499 438.401 82.8785 438.41C88.5451 438.429 91.3884 435.357 91.4084 429.195L91.4419 418.853ZM96.4191 418.869L96.3887 428.242C96.3799 430.956 97.0516 433.124 98.4037 434.745C99.7558 436.387 101.595 437.211 103.922 437.219C106.508 437.228 108.385 436.48 109.553 434.975C110.743 433.471 111.343 431.178 111.353 428.097L111.383 418.919L96.4191 418.869ZM90.9834 480.484L91.0496 460.091L74.373 460.036L74.2961 483.726L69.222 483.709L69.319 453.814L116.376 453.969L116.28 483.541L111.173 483.524L111.249 460.158L96.1237 460.108L96.0575 480.501L90.9834 480.484ZM124.022 458.132C124.991 458.135 125.798 458.428 126.443 459.012C127.109 459.618 127.44 460.502 127.436 461.666C127.432 462.829 127.096 463.711 126.426 464.313C125.777 464.914 124.968 465.213 123.999 465.209C123.029 465.206 122.222 464.902 121.578 464.296C120.933 463.691 120.613 462.807 120.617 461.643C120.621 460.48 120.947 459.597 121.595 458.996C122.243 458.417 123.052 458.128 124.022 458.132ZM123.912 472.029C124.882 472.032 125.699 472.325 126.366 472.909C127.031 473.515 127.363 474.399 127.359 475.563C127.355 476.726 127.018 477.609 126.348 478.21C125.678 478.811 124.859 479.11 123.889 479.106C122.92 479.103 122.113 478.799 121.468 478.193C120.824 477.588 120.503 476.704 120.507 475.54C120.511 474.377 120.837 473.494 121.485 472.893C122.134 472.314 122.943 472.025 123.912 472.029ZM103.538 515.689C106.038 515.698 108.023 514.789 109.494 512.962C110.987 511.157 111.738 508.606 111.749 505.31C111.758 502.552 111.001 500.233 109.477 498.354C107.975 496.496 106.103 495.563 103.862 495.555L103.882 489.35C106.382 489.358 108.62 490.045 110.598 491.409C112.576 492.794 114.11 494.717 115.201 497.177C116.314 499.637 116.865 502.353 116.855 505.327C116.838 510.584 115.64 514.663 113.261 517.564C110.903 520.465 107.623 521.908 103.421 521.894C101.245 521.887 99.2652 521.213 97.4812 519.871C95.6972 518.529 94.2919 516.661 93.2655 514.266C91.3946 519.797 87.712 522.553 82.2177 522.535C77.9947 522.521 74.6494 520.937 72.1818 517.783C69.7142 514.63 68.4889 510.424 68.506 505.167C68.5161 502.043 69.0748 499.2 70.182 496.64C71.3106 494.101 72.9007 492.124 74.9522 490.709C77.0036 489.294 79.4407 488.591 82.2632 488.6L82.2431 494.805C79.7653 494.797 77.6937 495.771 76.0282 497.726C74.3844 499.681 73.5576 502.167 73.5478 505.183C73.5368 508.566 74.3145 511.262 75.8809 513.271C77.4472 515.302 79.5231 516.321 82.1086 516.33C87.6244 516.348 90.4472 512.942 90.5771 506.112L90.596 500.295L95.7024 500.312L95.6836 506.097C95.7381 509.243 96.4414 511.626 97.7935 513.246C99.1457 514.867 101.061 515.681 103.538 515.689ZM57.3942 573.033L57.4142 566.86L68.9521 566.898L69.0617 533.125L57.4914 533.087L57.5116 526.881L74.156 526.904L74.1435 530.75C76.4209 532.783 79.4752 534.398 83.3065 535.596C87.1594 536.815 91.38 537.583 95.9683 537.9L116.1 539.001L116.008 567.151L74.0259 567.012L74.006 573.153L57.3942 573.033ZM74.1206 537.828L74.0461 560.775L110.922 560.896L110.974 544.963L97.1436 544.239C91.7364 543.941 87.1279 543.204 83.318 542.028C79.5081 540.873 76.4422 539.473 74.1206 537.828Z" fill="black"/>
<path d="M93.8103 18.0734L93.8774 12.3533L72.742 12.1055L72.8148 5.90066L119.868 6.45227L119.796 12.6571L99.0481 12.4139L98.9913 17.2615L119.546 33.9541L119.455 41.6779L96.8502 23.4421L72.3863 42.4513L72.4753 34.8567L93.8103 18.0734ZM91.8759 64.5291L119.057 75.6754L118.972 82.8821L79.9669 65.7793C77.4809 64.6297 75.7157 63.5639 74.6714 62.582C73.6486 61.6004 72.8648 60.4492 72.3201 59.1284C71.7966 57.8294 71.5463 56.1996 71.5693 54.239C71.5893 52.537 71.699 51.4501 71.8985 50.9784L76.8084 51.2299L76.6446 54.1692C76.6181 56.4314 77.6864 58.1247 79.8495 59.249L81.5206 60.0766L84.3824 61.3383L119.408 45.7175L119.327 52.6657L91.8759 64.5291ZM90.1796 96.1842L71.7589 95.9683L71.8316 89.7634L118.885 90.315L118.682 107.669C118.621 112.818 117.26 116.832 114.597 119.71C111.935 122.609 108.438 124.033 104.108 123.982C99.54 123.929 96.0343 122.455 93.5902 119.56C91.1675 116.688 89.9873 112.591 90.0497 107.269L90.1796 96.1842ZM95.2534 96.2437L95.1227 107.393C95.0838 110.711 95.8296 113.262 97.3601 115.047C98.9122 116.832 101.164 117.742 104.116 117.777C106.916 117.81 109.167 116.953 110.869 115.206C112.57 113.459 113.471 111.045 113.572 107.965L113.706 96.46L95.2534 96.2437ZM92.9258 167.97C88.3152 167.916 84.2954 167.093 80.8665 165.502C77.459 163.91 74.8671 161.682 73.0907 158.817C71.3143 155.952 70.4483 152.623 70.4927 148.831C70.5362 145.126 71.4796 141.851 73.3229 139.007C75.1878 136.163 77.8101 133.963 81.1898 132.408C84.5907 130.875 88.5106 130.113 92.9493 130.122L96.3426 130.162C100.867 130.215 104.854 131.048 108.305 132.661C111.755 134.275 114.379 136.525 116.176 139.412C117.995 142.321 118.883 145.628 118.84 149.334C118.796 153.104 117.841 156.411 115.976 159.255C114.133 162.121 111.467 164.309 107.98 165.82C104.515 167.33 100.488 168.059 95.8989 168.005L92.9258 167.97ZM96.0359 161.833C101.616 161.899 105.906 160.828 108.905 158.623C111.926 156.417 113.46 153.3 113.508 149.271C113.553 145.35 112.092 142.241 109.124 139.943C106.177 137.668 102.054 136.467 96.755 136.34L93.297 136.299C87.8893 136.236 83.621 137.317 80.492 139.543C77.3843 141.791 75.8072 144.907 75.7604 148.893C75.7134 152.9 77.1313 156.02 80.0141 158.252C82.9184 160.484 87.0956 161.664 92.5457 161.792L96.0359 161.833ZM89.1567 183.44L70.736 183.224L70.8087 177.019L117.862 177.571L117.659 194.925C117.599 200.075 116.237 204.088 113.575 206.966C110.912 209.865 107.415 211.289 103.085 211.238C98.5171 211.185 95.0114 209.711 92.5673 206.816C90.1446 203.944 88.9644 199.847 89.0268 194.525L89.1567 183.44ZM94.2305 183.5L94.0998 194.649C94.0609 197.967 94.8067 200.518 96.3372 202.303C97.8893 204.088 100.141 204.998 103.093 205.033C105.894 205.066 108.145 204.209 109.846 202.462C111.547 200.715 112.448 198.301 112.549 195.221L112.684 183.716L94.2305 183.5ZM111.886 251.776L112.063 236.651L70.1154 236.16L70.1878 229.987L112.135 230.479L112.312 215.387L117.418 215.447L116.992 251.836L111.886 251.776Z" fill="black"/>
</svg>
