<svg width="690" height="887" viewBox="0 0 690 887" fill="none" xmlns="http://www.w3.org/2000/svg">
<path d="M137.601 741.114C80.1676 720.749 34.4003 864.644 0 887V0.5H690V67.9846V133.585C682.522 147.781 671.155 173.237 647.623 161.488C618.208 146.801 557.384 80.2228 555.889 176.174C554.393 272.126 458.172 235.9 437.233 235.9C416.293 235.9 356.965 193.309 300.13 235.9C243.295 278.491 217.37 181.07 192.442 184.497C167.514 187.924 206.402 270.659 174.993 295.136C143.584 319.613 122.146 238.348 82.7601 250.097C43.3743 261.847 60.3251 323.039 92.7312 350.943C125.137 378.848 203.909 313.248 217.37 364.161C230.831 415.074 203.909 392.067 174.993 409.201C146.077 426.335 103.699 361.715 75.2818 424.867C46.8642 488.019 115.827 488.498 137.601 520.817C159.039 552.638 188.454 614.811 208.396 654.954C228.338 695.097 340.513 734.75 357.962 741.114C375.412 747.479 394.357 810.63 300.13 831.681C205.903 852.732 209.393 766.571 137.601 741.114Z" fill="#FFEC00"/>
</svg>
