<svg width="693" height="910" viewBox="0 0 693 910" fill="none" xmlns="http://www.w3.org/2000/svg">
<path d="M138.5 760.5C80.9 739.7 35 886.667 0.5 909.5V0.5H692.5V73V140C685 154.5 673.6 180.499 650 168.499C620.5 153.499 559.5 85.4994 558 183.499C556.5 281.499 460 244.5 439 244.5C418 244.5 358.5 201 301.5 244.5C244.5 288 218.5 188.5 193.5 192C168.5 195.5 207.5 280.001 176 305.001C144.5 330.001 123 247.001 83.5 259.001C44 271.001 61 333.499 93.5 361.999C126 390.499 205 323.499 218.5 375.499C232 427.499 205 404.001 176 421.501C147 439.001 104.5 373.001 76 437.501C47.5 502.001 116.663 502.49 138.5 535.5C160 568 189.5 631.5 209.5 672.5C229.5 713.5 342 754 359.5 760.5C377 767 396 831.5 301.5 853C207 874.5 210.5 786.5 138.5 760.5Z" fill="#FFEC00"/>
</svg>
