<svg width="695" height="960" viewBox="0 0 695 960" fill="none" xmlns="http://www.w3.org/2000/svg">
<path d="M469 668H694V960H469V668Z" fill="#7900B1"/>
<path d="M138.5 760.5C80.9 739.7 35 886.667 0.5 909.5V0.5H692.5V73V140C685 154.5 673.6 180.499 650 168.499C620.5 153.499 559.5 85.4994 558 183.499C556.5 281.499 460 244.5 439 244.5C418 244.5 358.5 201 301.5 244.5C244.5 288 218.5 188.5 193.5 192C168.5 195.5 207.5 280.001 176 305.001C144.5 330.001 123 247.001 83.5 259.001C44 271.001 61 333.499 93.5 361.999C126 390.499 205 323.499 218.5 375.499C232 427.499 205 404.001 176 421.501C147 439.001 104.5 373.001 76 437.501C47.5 502.001 116.663 502.49 138.5 535.5C160 568 189.5 631.5 209.5 672.5C229.5 713.5 342 754 359.5 760.5C377 767 396 831.5 301.5 853C207 874.5 210.5 786.5 138.5 760.5Z" fill="#FFEC00"/>
<path d="M685 427.5H241.5V663.5H457.5V960" stroke="black" stroke-width="25.86"/>
<path d="M589.792 500.715L588.566 484.308L578.375 485.069L579.008 493.53C579.226 497.086 578.522 499.927 576.895 502.054C575.267 504.181 572.927 505.359 569.873 505.587C566.803 505.816 564.282 504.994 562.309 503.12C560.335 501.246 559.188 498.574 558.866 495.104L557.891 482.062L591.922 479.521L593.485 500.44L589.792 500.715ZM574.683 485.344L561.898 486.299L562.511 494.503C562.677 496.731 563.399 498.416 564.675 499.559C565.952 500.717 567.588 501.221 569.582 501.072C571.499 500.929 572.966 500.217 573.982 498.934C575 497.668 575.442 495.934 575.309 493.735L574.683 485.344ZM570.445 530.551L569.38 516.294L560.259 513.755L559.914 509.127L594.915 519.582L595.208 523.508L562.151 539.067L561.806 534.463L570.445 530.551ZM573.174 517.374L574.039 528.943L589.522 521.958L573.174 517.374ZM576.15 547.141L562.828 548.136L562.493 543.648L596.523 541.108L597.461 553.659C597.739 557.383 597.006 560.367 595.263 562.613C593.52 564.874 591.083 566.121 587.951 566.355C584.647 566.602 582.022 565.756 580.076 563.817C578.146 561.893 577.037 559.006 576.749 555.158L576.15 547.141ZM579.82 546.867L580.422 554.931C580.602 557.33 581.3 559.127 582.517 560.321C583.75 561.514 585.434 562.03 587.569 561.871C589.594 561.72 591.167 560.96 592.287 559.591C593.407 558.223 593.907 556.423 593.787 554.191L593.166 545.871L579.82 546.867ZM585.247 577.039L585.879 585.5C586.098 589.056 585.394 591.897 583.766 594.024C582.139 596.152 579.798 597.329 576.744 597.557C573.675 597.786 571.153 596.964 569.18 595.09C567.207 593.216 566.059 590.544 565.737 587.074L564.765 574.056L598.795 571.515L599.13 576.003L585.247 577.039ZM581.554 577.315L568.769 578.269L569.382 586.473C569.549 588.701 570.27 590.386 571.546 591.529C572.824 592.687 574.46 593.192 576.454 593.043C578.371 592.9 579.837 592.187 580.854 590.905C581.872 589.638 582.314 587.905 582.181 585.705L581.554 577.315ZM567.22 606.917L566.885 602.43L600.915 599.889L601.25 604.377L567.22 606.917Z" fill="black"/>
<path d="M517.792 501.715L516.566 485.308L506.375 486.069L507.008 494.53C507.226 498.086 506.522 500.927 504.895 503.054C503.267 505.181 500.927 506.359 497.873 506.587C494.803 506.816 492.282 505.994 490.309 504.12C488.335 502.246 487.188 499.574 486.866 496.104L485.891 483.062L519.922 480.521L521.485 501.44L517.792 501.715ZM502.683 486.344L489.898 487.299L490.511 495.503C490.677 497.731 491.399 499.416 492.675 500.559C493.952 501.717 495.588 502.221 497.582 502.072C499.499 501.929 500.966 501.217 501.982 499.934C503 498.668 503.442 496.934 503.309 494.735L502.683 486.344ZM498.445 531.551L497.38 517.294L488.259 514.755L487.914 510.127L522.915 520.582L523.208 524.508L490.151 540.067L489.806 535.463L498.445 531.551ZM501.174 518.374L502.039 529.943L517.522 522.958L501.174 518.374ZM504.15 548.141L490.828 549.136L490.493 544.648L524.523 542.108L525.461 554.659C525.739 558.383 525.006 561.367 523.263 563.613C521.52 565.874 519.083 567.121 515.951 567.355C512.647 567.602 510.022 566.756 508.076 564.817C506.146 562.893 505.037 560.006 504.749 556.158L504.15 548.141ZM507.82 547.867L508.422 555.931C508.602 558.33 509.3 560.127 510.517 561.321C511.75 562.514 513.434 563.03 515.569 562.871C517.594 562.72 519.167 561.96 520.287 560.591C521.407 559.223 521.907 557.423 521.787 555.191L521.166 546.871L507.82 547.867ZM513.247 578.039L513.879 586.5C514.098 590.056 513.394 592.897 511.766 595.024C510.139 597.152 507.798 598.329 504.744 598.557C501.675 598.786 499.153 597.964 497.18 596.09C495.207 594.216 494.059 591.544 493.737 588.074L492.765 575.056L526.795 572.515L527.13 577.003L513.247 578.039ZM509.554 578.315L496.769 579.269L497.382 587.473C497.549 589.701 498.27 591.386 499.546 592.529C500.824 593.687 502.46 594.192 504.454 594.043C506.371 593.9 507.837 593.187 508.854 591.905C509.872 590.638 510.314 588.905 510.181 586.705L509.554 578.315ZM495.22 607.917L494.885 603.43L528.915 600.889L529.25 605.377L495.22 607.917Z" fill="black"/>
<path d="M331.211 519.039C331.211 522.383 330.648 525.305 329.523 527.805C328.398 530.289 326.805 532.188 324.742 533.5C322.68 534.812 320.273 535.469 317.523 535.469C314.836 535.469 312.453 534.812 310.375 533.5C308.297 532.172 306.68 530.289 305.523 527.852C304.383 525.398 303.797 522.562 303.766 519.344V516.883C303.766 513.602 304.336 510.703 305.477 508.188C306.617 505.672 308.227 503.75 310.305 502.422C312.398 501.078 314.789 500.406 317.477 500.406C320.211 500.406 322.617 501.07 324.695 502.398C326.789 503.711 328.398 505.625 329.523 508.141C330.648 510.641 331.211 513.555 331.211 516.883V519.039ZM326.734 516.836C326.734 512.789 325.922 509.688 324.297 507.531C322.672 505.359 320.398 504.273 317.477 504.273C314.633 504.273 312.391 505.359 310.75 507.531C309.125 509.688 308.289 512.688 308.242 516.531V519.039C308.242 522.961 309.062 526.047 310.703 528.297C312.359 530.531 314.633 531.648 317.523 531.648C320.43 531.648 322.68 530.594 324.273 528.484C325.867 526.359 326.688 523.32 326.734 519.367V516.836ZM360.883 504.578H349.914V535H345.438V504.578H334.492V500.875H360.883V504.578ZM385.234 519.227H370.445V531.32H387.625V535H365.945V500.875H387.391V504.578H370.445V515.547H385.234V519.227ZM419.031 500.875V535H414.531V504.578H402.297L401.688 518.102C401.453 522.633 400.984 526.039 400.281 528.32C399.594 530.602 398.578 532.281 397.234 533.359C395.891 534.422 394.094 534.969 391.844 535H390.367V531.32L391.305 531.273C392.758 531.164 393.875 530.695 394.656 529.867C395.438 529.023 396.031 527.688 396.438 525.859C396.844 524.031 397.133 521.219 397.305 517.422L398.008 500.875H419.031ZM431.57 514.797H440.055C443.617 514.844 446.398 515.758 448.398 517.539C450.398 519.32 451.398 521.742 451.398 524.805C451.398 527.883 450.391 530.336 448.375 532.164C446.359 533.992 443.609 534.938 440.125 535H427.07V500.875H431.57V514.797ZM431.57 518.5V531.32H439.797C442.031 531.32 443.766 530.727 445 529.539C446.25 528.352 446.875 526.758 446.875 524.758C446.875 522.836 446.273 521.32 445.07 520.211C443.883 519.102 442.188 518.531 439.984 518.5H431.57ZM331.211 575.039C331.211 578.383 330.648 581.305 329.523 583.805C328.398 586.289 326.805 588.188 324.742 589.5C322.68 590.812 320.273 591.469 317.523 591.469C314.836 591.469 312.453 590.812 310.375 589.5C308.297 588.172 306.68 586.289 305.523 583.852C304.383 581.398 303.797 578.562 303.766 575.344V572.883C303.766 569.602 304.336 566.703 305.477 564.188C306.617 561.672 308.227 559.75 310.305 558.422C312.398 557.078 314.789 556.406 317.477 556.406C320.211 556.406 322.617 557.07 324.695 558.398C326.789 559.711 328.398 561.625 329.523 564.141C330.648 566.641 331.211 569.555 331.211 572.883V575.039ZM326.734 572.836C326.734 568.789 325.922 565.688 324.297 563.531C322.672 561.359 320.398 560.273 317.477 560.273C314.633 560.273 312.391 561.359 310.75 563.531C309.125 565.688 308.289 568.688 308.242 572.531V575.039C308.242 578.961 309.062 582.047 310.703 584.297C312.359 586.531 314.633 587.648 317.523 587.648C320.43 587.648 322.68 586.594 324.273 584.484C325.867 582.359 326.688 579.32 326.734 575.367V572.836ZM360.883 560.578H349.914V591H345.438V560.578H334.492V556.875H360.883V560.578ZM385.234 575.227H370.445V587.32H387.625V591H365.945V556.875H387.391V560.578H370.445V571.547H385.234V575.227ZM419.031 556.875V591H414.531V560.578H402.297L401.688 574.102C401.453 578.633 400.984 582.039 400.281 584.32C399.594 586.602 398.578 588.281 397.234 589.359C395.891 590.422 394.094 590.969 391.844 591H390.367V587.32L391.305 587.273C392.758 587.164 393.875 586.695 394.656 585.867C395.438 585.023 396.031 583.688 396.438 581.859C396.844 580.031 397.133 577.219 397.305 573.422L398.008 556.875H419.031ZM431.57 570.797H440.055C443.617 570.844 446.398 571.758 448.398 573.539C450.398 575.32 451.398 577.742 451.398 580.805C451.398 583.883 450.391 586.336 448.375 588.164C446.359 589.992 443.609 590.938 440.125 591H427.07V556.875H431.57V570.797ZM431.57 574.5V587.32H439.797C442.031 587.32 443.766 586.727 445 585.539C446.25 584.352 446.875 582.758 446.875 580.758C446.875 578.836 446.273 577.32 445.07 576.211C443.883 575.102 442.188 574.531 439.984 574.5H431.57Z" fill="black"/>
<path d="M457 663.679H694.5" stroke="black" stroke-width="25.86"/>
</svg>
