<svg width="694" height="692" viewBox="0 0 694 692" fill="none" xmlns="http://www.w3.org/2000/svg">
<path d="M168 644C110.4 623.2 34.5 669.167 0 692V0H694V92.0004C686.5 106.5 665.6 132.499 642 120.499C612.5 105.499 551.5 37.4994 550 135.499C548.5 233.499 452 196.5 431 196.5C410 196.5 350.5 153 293.5 196.5C236.5 240 210.5 140.5 185.5 144C160.5 147.5 199.5 232.001 168 257.001C136.5 282.001 115 199.001 75.5 211.001C36 223.001 53 285.499 85.5 313.999C118 342.499 197 275.499 210.5 327.499C224 379.499 197 356.001 168 373.501C139 391.001 96.5 325.001 68 389.501C39.5 454.001 132.5 507.5 168 490C203.5 472.5 252.5 507.5 272.5 548.5C292.5 589.5 354 542 371.5 548.5C389 555 420 653.5 325.5 675C231 696.5 240 670 168 644Z" fill="#FFEC00"/>
</svg>
