<svg width="702" height="694" viewBox="0 0 702 694" fill="none" xmlns="http://www.w3.org/2000/svg">
<path d="M176 651C118.4 630.2 35 670.667 0.5 693.5L10 0.000366211H702V99.0004C694.5 113.5 673.6 139.499 650 127.499C620.5 112.499 559.5 44.4994 558 142.499C556.5 240.499 460 203.5 439 203.5C418 203.5 358.5 160 301.5 203.5C244.5 247 218.5 147.5 193.5 151C168.5 154.5 207.5 239.001 176 264.001C144.5 289.001 123 206.001 83.5 218.001C44 230.001 61 292.499 93.5 320.999C126 349.499 205 282.499 218.5 334.499C232 386.499 205 363.001 176 380.501C147 398.001 104.5 332.001 76 396.501C47.5 461.001 140.5 514.5 176 497C211.5 479.5 260.5 514.5 280.5 555.5C300.5 596.5 362 549 379.5 555.5C397 562 428 660.5 333.5 682C239 703.5 248 677 176 651Z" fill="#FFEC00"/>
</svg>
