<svg width="685" height="893" viewBox="0 0 685 893" fill="none" xmlns="http://www.w3.org/2000/svg">
<path d="M136.604 746.623C79.5867 726.189 34.151 870.569 0 893V0H685V71.2239V137.045C677.576 151.289 666.291 176.831 642.93 165.042C613.728 150.306 553.345 83.5033 551.861 179.778C550.376 276.053 454.852 239.705 434.064 239.705C413.277 239.705 354.379 196.971 297.955 239.705C241.532 282.44 215.795 184.691 191.048 188.129C166.301 191.568 204.906 274.581 173.725 299.141C142.543 323.701 121.261 242.162 82.1604 253.951C43.06 265.739 59.888 327.138 92.0592 355.136C124.23 383.135 202.431 317.314 215.795 368.399C229.158 419.483 202.431 396.399 173.725 413.591C145.018 430.783 102.948 365.944 74.7363 429.309C46.5246 492.674 114.988 493.154 136.604 525.583C157.887 557.511 187.088 619.893 206.886 660.172C226.684 700.45 338.046 740.237 355.368 746.623C372.691 753.008 391.499 816.373 297.955 837.494C204.411 858.616 207.876 772.165 136.604 746.623Z" fill="#FFED5C"/>
</svg>
