<svg width="840" height="204" viewBox="0 0 840 204" fill="none" xmlns="http://www.w3.org/2000/svg">
<path d="M41.771 45.5483C41.7839 50.1592 41.0195 54.1905 39.4778 57.6423C37.936 61.0726 35.7456 63.6967 32.9066 65.5147C30.0675 67.3327 26.752 68.2471 22.9599 68.2579C19.2539 68.2685 15.9656 67.3729 13.0949 65.5712C10.2242 63.748 7.98693 61.158 6.38314 57.8014C4.80083 54.4231 3.98194 50.5148 3.92645 46.0764L3.91698 42.6829C3.90435 38.1583 4.67963 34.1592 6.24281 30.6858C7.80599 27.2124 10.0178 24.5559 12.8784 22.7163C15.7604 20.8551 19.0543 19.9192 22.7603 19.9086C26.5308 19.8979 29.8515 20.8041 32.7222 22.6274C35.6145 24.429 37.8411 27.0621 39.4021 30.5266C40.963 33.9695 41.7499 37.9856 41.7627 42.575L41.771 45.5483ZM35.5896 42.5279C35.574 36.9475 34.4417 32.6738 32.1926 29.7068C29.9434 26.7183 26.8043 25.2298 22.7752 25.2413C18.8538 25.2525 15.7661 26.7588 13.5121 29.7601C11.2796 32.7399 10.1384 36.88 10.0886 42.1805L10.0982 45.6387C10.1133 51.0468 11.2564 55.2989 13.5274 58.3951C15.8199 61.4696 18.9591 63.0012 22.9452 62.9899C26.9527 62.9784 30.0513 61.5152 32.2409 58.6002C34.4304 55.6637 35.5499 51.4697 35.5993 46.0184L35.5896 42.5279ZM82.6314 25.4907L67.506 25.5338L67.6231 67.4841L61.4502 67.5017L61.3331 25.5514L46.24 25.5945L46.2258 20.4881L82.6171 20.3842L82.6314 25.4907ZM116.267 45.5943L95.874 45.6525L95.9205 62.3292L119.61 62.2616L119.625 67.3357L89.7294 67.421L89.5981 20.3643L119.17 20.28L119.184 25.3864L95.8176 25.453L95.8598 40.5784L116.253 40.5202L116.267 45.5943ZM162.801 20.1555L162.932 67.2122L156.727 67.2299L156.61 25.2796L139.739 25.3277L138.951 43.9783C138.645 50.2276 138.012 54.9265 137.051 58.075C136.112 61.2234 134.718 63.5436 132.869 65.0356C131.02 66.506 128.545 67.2672 125.442 67.3191L123.406 67.3249L123.392 62.2508L124.684 62.1825C126.688 62.026 128.226 61.3752 129.301 60.2302C130.375 59.0636 131.188 57.2191 131.741 54.6966C132.295 52.1741 132.682 48.2947 132.905 43.0583L133.811 20.2382L162.801 20.1555ZM180.145 39.3037L191.845 39.2703C196.757 39.321 200.596 40.5705 203.361 43.0189C206.126 45.4672 207.514 48.803 207.526 53.026C207.538 57.2706 206.157 60.6573 203.385 63.1861C200.613 65.7149 196.824 67.0293 192.02 67.1292L174.018 67.1805L173.886 20.1238L180.092 20.1061L180.145 39.3037ZM180.16 44.4101L180.209 62.0887L191.553 62.0564C194.634 62.0476 197.023 61.222 198.721 59.5796C200.44 57.9372 201.296 55.737 201.288 52.9791C201.281 50.329 200.445 48.2414 198.782 46.7163C197.14 45.1912 194.8 44.4115 191.762 44.377L180.16 44.4101Z" fill="black"/>
<path d="M294.542 27.3803L271.858 27.8165L272.129 41.9051L283.827 41.6801C288.74 41.6503 292.598 42.8368 295.403 45.2396C298.208 47.6424 299.651 50.9549 299.732 55.1772C299.814 59.421 298.49 62.8298 295.76 65.4037C293.029 67.9776 289.263 69.3538 284.461 69.5323L266.43 69.879L265.523 22.8309L294.443 22.2748L294.542 27.3803ZM272.228 47.0106L272.569 64.6859L283.911 64.4678C286.991 64.4086 289.366 63.544 291.037 61.8741C292.729 60.2038 293.548 57.9899 293.495 55.2325C293.444 52.5828 292.574 50.5091 290.886 49.0115C289.219 47.5135 286.867 46.7722 283.828 46.7875L272.228 47.0106ZM334.148 56.2933L314.437 56.6723L310.247 69.0365L303.849 69.1595L320.908 21.7659L326.336 21.6615L345.242 68.3636L338.876 68.486L334.148 56.2933ZM316.213 51.5308L332.208 51.2232L323.77 29.372L316.213 51.5308ZM387.734 67.5465L381.498 67.6664L381.078 45.9196L357.36 46.3757L357.78 68.1225L351.575 68.2418L350.668 21.1937L356.873 21.0744L357.262 41.3025L380.98 40.8464L380.59 20.6183L386.827 20.4984L387.734 67.5465ZM425.078 54.5449L405.367 54.9239L401.176 67.288L394.778 67.4111L411.837 20.0175L417.266 19.9131L436.172 66.6151L429.806 66.7375L425.078 54.5449ZM407.142 49.7823L423.137 49.4748L414.699 27.6235L407.142 49.7823ZM478.664 65.7981L472.427 65.918L472.008 44.1712L448.29 44.6272L448.709 66.3741L442.505 66.4934L441.598 19.4452L447.802 19.3259L448.192 39.554L471.91 39.098L471.52 18.8699L477.757 18.7499L478.664 65.7981ZM495.64 37.6073L507.338 37.3823C512.251 37.3525 516.11 38.539 518.914 40.9418C521.719 43.3446 523.162 46.6571 523.244 50.8794C523.325 55.1232 522.001 58.532 519.271 61.1059C516.54 63.6798 512.774 65.056 507.972 65.2345L489.973 65.5806L489.066 18.5325L495.27 18.4132L495.64 37.6073ZM495.739 42.7128L496.08 60.3881L507.422 60.17C510.502 60.1108 512.878 59.2462 514.548 57.5763C516.24 55.9059 517.059 53.6921 517.006 50.9347C516.955 48.285 516.085 46.2113 514.397 44.7137C512.73 43.2157 510.378 42.4744 507.339 42.4897L495.739 42.7128ZM535.406 64.707L529.202 64.8263L528.295 17.7782L534.499 17.6589L535.406 64.707Z" fill="black"/>
<path d="M652.217 52.3964C652.4 57.0037 651.785 61.0605 650.372 64.567C648.958 68.0519 646.867 70.7552 644.097 72.6769C641.327 74.5986 638.047 75.635 634.258 75.786C630.555 75.9336 627.236 75.1603 624.301 73.466C621.364 71.7501 619.033 69.2447 617.306 65.9496C615.6 62.6322 614.637 58.7568 614.418 54.3236L614.283 50.9327C614.103 46.4116 614.73 42.3866 616.163 38.8578C617.597 35.3289 619.709 32.5925 622.5 30.6484C625.311 28.6819 628.568 27.6248 632.271 27.4772C636.039 27.3271 639.39 28.1099 642.327 29.8257C645.283 31.5192 647.606 34.0681 649.294 37.4725C650.981 40.8554 651.916 44.8397 652.099 49.4254L652.217 52.3964ZM645.928 49.6067C645.706 44.0306 644.416 39.8017 642.059 36.9199C639.701 34.0166 636.509 32.6452 632.483 32.8057C628.565 32.9619 625.535 34.5813 623.393 37.6639C621.273 40.7242 620.285 44.9037 620.431 50.2025L620.569 53.6579C620.784 59.0617 622.084 63.2686 624.467 66.2787C626.872 69.2664 630.066 70.6809 634.049 70.5222C638.053 70.3626 641.095 68.7858 643.176 65.7918C645.255 62.7763 646.219 58.5439 646.067 53.0944L645.928 49.6067ZM692.308 30.8416L677.194 31.444L678.862 73.3613L672.694 73.6071L671.026 31.6899L655.945 32.291L655.742 27.1886L692.104 25.7392L692.308 30.8416ZM726.664 49.6878L706.287 50.5L706.95 67.1636L730.621 66.2201L730.823 71.2902L700.951 72.4809L699.08 25.4612L728.629 24.2834L728.832 29.3858L705.483 30.3165L706.085 45.4299L726.462 44.6177L726.664 49.6878ZM772.225 22.5457L774.096 69.5654L767.896 69.8125L766.228 27.8953L749.37 28.5672L749.272 47.2341C749.198 53.4904 748.739 58.2095 747.895 61.3914C747.073 64.5724 745.766 66.9426 743.973 68.5019C742.18 70.0397 739.734 70.8919 736.636 71.0585L734.601 71.1396L734.399 66.0695L735.688 65.9534C737.685 65.7229 739.198 65.0157 740.229 63.8317C741.26 62.6262 742.004 60.7529 742.464 58.2117C742.923 55.6705 743.167 51.7793 743.196 46.5383L743.258 23.7003L772.225 22.5457ZM790.265 41.0395L801.956 40.5736C806.867 40.4425 810.749 41.5492 813.603 43.8937C816.456 46.2382 817.967 49.5203 818.135 53.74C818.303 57.9812 817.049 61.4167 814.372 64.0463C811.695 66.6759 807.958 68.1294 803.16 68.4069L785.173 69.1239L783.302 22.1042L789.502 21.8571L790.265 41.0395ZM790.469 46.142L791.172 63.8066L802.507 63.3548C805.585 63.2321 807.942 62.3187 809.578 60.6147C811.235 58.9099 812.009 56.6796 811.899 53.9238C811.794 51.2758 810.882 49.2205 809.163 47.758C807.466 46.2946 805.099 45.6019 802.062 45.6799L790.469 46.142Z" fill="black"/>
</svg>
