<svg width="301" height="301" viewBox="0 0 301 301" fill="none" xmlns="http://www.w3.org/2000/svg">
<path d="M87.4685 131.942C135.961 217.705 32.1683 227.721 0.5 227.721V300.5L300.216 299.911V227.131C286.526 227.131 272.035 218.909 272.035 183.6C272.035 139.464 296.281 131.942 255.211 97.8368C214.142 63.7318 213.647 171.563 172.577 114.889C131.507 58.2152 252.737 43.671 255.211 24.1109C257.686 4.55091 182.473 -5.47986 126.559 4.04938C70.6447 13.5786 38.9765 46.1786 87.4685 131.942Z" fill="#FFED5C"/>
<path d="M124.927 214.262C125.19 210.754 147.9 159.35 160.405 133.842C168.807 137.609 188.659 147.221 200.855 155.534C213.05 163.847 231.341 182.986 238.962 191.516L170.711 251.565C161.863 250.904 154.851 246.477 141.569 236.085C124.966 223.096 124.564 219.115 124.927 214.262Z" fill="#FFED5C"/>
<path d="M205.915 177.414L247.613 102.555C249.486 100.195 253.853 96.4095 256.332 100.151C258.719 103.754 265.638 127.17 269.158 139.685C269.389 140.14 269.508 140.663 269.547 141.072C268.4 143.861 266.385 144.37 265.074 144.272C263.763 144.174 263.523 143.44 263.567 143.086L253.982 107.231C253.49 106.603 252.163 105.815 250.786 107.686C249.409 109.557 223.168 156.576 210.356 179.723L205.915 177.414Z" fill="#008DCB"/>
<path d="M191.507 168.233L210.125 136.272C205.786 134.021 197.411 128.219 198.619 123.023C199.218 120.444 201.061 118.715 203.346 117.949C201.22 112.994 200.645 108.436 202.756 106.848C204.343 105.654 207.136 104.625 210.16 104.111C208.761 99.4017 208.444 94.2351 213.723 85.2815C218.545 77.1052 221.338 71.9268 222.721 69.2789C222.646 68.5615 223.016 67.8204 223.702 67.3642C224.503 66.6904 226.438 66.0294 227.683 67.003C228.929 67.9766 229.816 69.2003 230.104 69.6905L220.159 83.2023C216.908 87.6196 213.189 94.8951 213.103 97.2335C213.064 98.2842 213.349 101.026 213.87 103.763C218.392 103.703 222.56 105.085 223.207 109.055C224.468 116.784 214.601 120.347 212.736 112.173C212.381 110.62 211.9 109.19 211.409 107.797C210.553 106.584 209.08 107.008 207.213 107.181C205.346 107.355 203.87 108.861 203.983 110.706C204.065 112.022 204.84 114.815 205.828 117.505C208.762 117.399 211.928 118.678 214.028 121.527C218.528 127.632 219.991 132.309 213.949 131.076C211.067 130.487 206.887 125.144 204.28 119.955C202.542 120.651 202.501 121.035 201.359 122.633C200.216 124.23 203.973 128.115 204.602 128.877C205.922 130.475 212.265 133.642 212.753 135.2C213.241 136.759 213.411 137.084 212.051 139.488C210.962 141.41 199.583 160.686 194.029 170.084L191.507 168.233Z" fill="#E1305A"/>
<path d="M147.884 160.224C145.152 159.291 139.228 158.375 141.018 163.232C143.256 169.303 209.128 222.896 216.301 223.332C222.04 223.681 218.864 214.837 216.924 210.864" stroke="black" stroke-width="3"/>
<path d="M132.883 193.373C120.55 190.361 118.69 190.55 119.251 194.99C119.812 199.43 180.855 250.16 187.415 248.53C192.663 247.226 190.537 240.852 188.322 236.405" stroke="black" stroke-width="3"/>
<path d="M140.407 176.471C135.161 173.818 125.092 171.899 129.937 177.054C135.992 183.498 201.841 242.945 203.895 235.263C205.538 229.118 202.607 225.362 201.378 224.859" stroke="black" stroke-width="3"/>
</svg>
