<svg width="894" height="201" viewBox="0 0 894 201" fill="none" xmlns="http://www.w3.org/2000/svg">
<path d="M41.9274 70.9475L35.69 71.0006L35.3328 29.0517L12.1284 29.2493L12.4856 71.1982L6.28055 71.251L5.87986 24.1959L41.5267 23.8923L41.9274 70.9475ZM79.1179 58.349L59.4039 58.5169L55.0809 70.8355L48.6819 70.89L66.2501 23.6818L71.6795 23.6355L90.0814 70.5374L83.7147 70.5916L79.1179 58.349ZM61.2349 53.3947L77.2323 53.2584L69.03 31.3181L61.2349 53.3947ZM132.179 23.1204L132.58 70.1755L126.375 70.2284L126.017 28.2795L109.147 28.4231L108.466 47.0778C108.196 53.3287 107.59 58.0312 106.647 61.185C105.726 64.3387 104.345 66.6668 102.505 68.1692C100.664 69.6501 98.1929 70.4253 95.0907 70.4948L93.0547 70.5121L93.0115 65.4382L94.3036 65.3625C96.3061 65.1946 97.8411 64.5352 98.9086 63.3841C99.976 62.2115 100.779 60.3624 101.318 57.8368C101.856 55.3112 102.222 51.4296 102.414 46.1921L103.19 23.3672L132.179 23.1204ZM149.633 42.1701L161.332 42.0705C166.245 42.0933 170.091 43.321 172.869 45.7537C175.648 48.1864 177.055 51.5142 177.091 55.7371C177.127 59.9816 175.767 63.376 173.009 65.9205C170.251 68.465 166.47 69.8008 161.666 69.9279L143.665 70.0811L143.264 23.026L149.469 22.9731L149.633 42.1701ZM149.676 47.2764L149.827 64.9544L161.17 64.8578C164.251 64.8315 166.636 63.9924 168.324 62.3405C170.034 60.6884 170.877 58.4834 170.853 55.7256C170.831 53.0755 169.984 50.9927 168.311 49.4771C166.661 47.9613 164.317 47.1948 161.278 47.1776L149.676 47.2764ZM193.034 22.6022L208.744 60.8651L223.801 22.3402L231.848 22.2717L232.249 69.3268L226.044 69.3797L225.888 51.0553L226.301 31.2717L211.177 69.5063L206.427 69.5467L190.687 31.6719L191.469 51.3484L191.625 69.6727L185.42 69.7256L185.019 22.6704L193.034 22.6022ZM249.463 41.32L261.162 41.2204C266.075 41.2432 269.921 42.4709 272.7 44.9036C275.479 47.3363 276.886 50.6641 276.922 54.887C276.958 59.1315 275.597 62.5259 272.839 65.0704C270.081 67.6149 266.301 68.9507 261.497 69.0778L243.495 69.2311L243.095 22.1759L249.3 22.1231L249.463 41.32ZM249.507 46.4263L249.657 64.1043L261.001 64.0077C264.082 63.9814 266.467 63.1424 268.155 61.4904C269.864 59.8383 270.707 57.6333 270.684 54.8755C270.661 52.2254 269.814 50.1426 268.142 48.627C266.492 47.1112 264.147 46.3447 261.109 46.3275L249.507 46.4263ZM288.935 68.8441L282.73 68.897L282.329 21.8418L288.534 21.789L288.935 68.8441ZM352.828 68.3001L346.59 68.3532L346.233 26.4043L323.029 26.6019L323.386 68.5508L317.181 68.6036L316.78 21.5484L352.427 21.2449L352.828 68.3001ZM390.018 55.7016L370.304 55.8695L365.981 68.1881L359.582 68.2425L377.15 21.0344L382.58 20.9881L400.982 67.89L394.615 67.9442L390.018 55.7016ZM372.135 50.7472L388.133 50.611L379.93 28.6706L372.135 50.7472ZM443.079 20.473L443.48 67.5281L437.275 67.581L436.918 25.6321L420.048 25.7757L419.366 44.4304C419.096 50.6813 418.49 55.3837 417.547 58.5376C416.626 61.6913 415.245 64.0194 413.405 65.5218C411.564 67.0027 409.093 67.7778 405.991 67.8474L403.955 67.8647L403.912 62.7908L405.204 62.7151C407.206 62.5472 408.741 61.8877 409.809 60.7367C410.876 59.564 411.679 57.7149 412.218 55.1894C412.757 52.6638 413.122 48.7822 413.315 43.5447L414.09 20.7198L443.079 20.473ZM460.533 39.5227L472.232 39.4231C477.145 39.4459 480.991 40.6736 483.769 43.1063C486.548 45.539 487.956 48.8668 487.991 53.0897C488.028 57.3341 486.667 60.7286 483.909 63.2731C481.151 65.8176 477.37 67.1534 472.566 67.2804L454.565 67.4337L454.164 20.3786L460.369 20.3257L460.533 39.5227ZM460.576 44.6289L460.727 62.307L472.071 62.2104C475.152 62.1841 477.536 61.345 479.224 59.6931C480.934 58.041 481.777 55.836 481.754 53.0782C481.731 50.4281 480.884 48.3453 479.212 46.8297C477.561 45.3139 475.217 44.5474 472.179 44.5302L460.576 44.6289ZM503.934 19.9548L519.645 58.2177L534.701 19.6928L542.748 19.6243L543.149 66.6794L536.944 66.7323L536.788 48.4079L537.201 28.6243L522.078 66.8588L517.327 66.8993L501.587 29.0245L502.369 48.701L502.525 67.0253L496.32 67.0782L495.919 20.023L503.934 19.9548ZM560.363 38.6726L572.063 38.573C576.976 38.5958 580.821 39.8235 583.6 42.2562C586.379 44.6889 587.786 48.0167 587.822 52.2396C587.858 56.4841 586.497 59.8785 583.739 62.423C580.982 64.9675 577.201 66.3033 572.397 66.4304L554.396 66.5836L553.995 19.5285L560.2 19.4756L560.363 38.6726ZM560.407 43.7789L560.558 61.4569L571.901 61.3603C574.982 61.334 577.367 60.4949 579.055 58.843C580.765 57.1909 581.608 54.9859 581.584 52.2281C581.562 49.578 580.714 47.4952 579.042 45.9796C577.392 44.4638 575.047 43.6973 572.009 43.6801L560.407 43.7789ZM599.835 66.1967L593.63 66.2496L593.229 19.1944L599.434 19.1416L599.835 66.1967Z" fill="black"/>
<path d="M698.656 24.9353L675.975 25.5086L676.33 39.5954L688.026 39.2997C692.939 39.2402 696.805 40.4033 699.623 42.7891C702.442 45.1749 703.905 48.4786 704.012 52.7004C704.119 56.9436 702.815 60.3604 700.1 62.9507C697.385 65.5411 693.626 66.94 688.825 67.1476L670.797 67.6034L669.611 20.5614L698.527 19.8305L698.656 24.9353ZM676.459 44.7002L676.905 62.3732L688.245 62.0865C691.325 62.0087 693.696 61.1297 695.356 59.4497C697.038 57.7692 697.844 55.5504 697.774 52.7934C697.708 50.144 696.826 48.0757 695.128 46.5883C693.453 45.1004 691.096 44.3733 688.058 44.407L676.459 44.7002ZM738.433 53.6083L718.725 54.1066L714.608 66.4959L708.211 66.6576L724.988 19.1616L730.416 19.0244L749.599 65.6113L743.234 65.7722L738.433 53.6083ZM720.47 48.9544L736.463 48.5501L727.895 26.7502L720.47 48.9544ZM761.67 46.8783L762.134 65.2945L755.931 65.4513L754.745 18.4094L772.095 17.9708C777.243 17.8406 781.304 19.0527 784.278 21.607C787.273 24.1608 788.826 27.6023 788.935 31.9317C789.05 36.4981 787.706 40.056 784.904 42.6054C782.123 45.1328 778.072 46.4637 772.752 46.5982L761.67 46.8783ZM761.542 41.8058L772.689 41.524C776.006 41.4402 778.528 40.6005 780.255 39.005C781.982 37.388 782.808 35.1041 782.733 32.1532C782.663 29.3531 781.723 27.1353 779.914 25.4999C778.106 23.8645 775.661 23.0534 772.579 23.0666L761.077 23.3574L761.542 41.8058ZM803.466 36.3815L815.162 36.0859C820.075 36.0263 823.94 37.1895 826.759 39.5753C829.578 41.9611 831.041 45.2648 831.147 49.4865C831.254 53.7298 829.95 57.1466 827.235 59.7369C824.52 62.3272 820.762 63.7262 815.961 63.9338L797.965 64.3887L796.779 17.3468L802.982 17.19L803.466 36.3815ZM803.595 41.4863L804.04 59.1594L815.381 58.8727C818.461 58.7948 820.831 57.9159 822.492 56.2359C824.173 54.5554 824.98 52.3366 824.91 49.5795C824.843 46.9302 823.961 44.8618 822.264 43.3745C820.589 41.8866 818.232 41.1594 815.194 41.1931L803.595 41.4863ZM843.391 63.2404L837.188 63.3972L836.002 16.3553L842.205 16.1985L843.391 63.2404Z" fill="black"/>
</svg>
