<svg width="942" height="293" viewBox="0 0 942 293" fill="none" xmlns="http://www.w3.org/2000/svg">
<path d="M696 47H942V289H696V47Z" fill="#7900B1"/>
<path d="M146.5 98.5262C106.5 64.5262 60.5 110.526 34.5 66.5262L37.5 48H703L700 84.5262C682.667 94.5262 633.2 111.326 574 98.5262C500 82.5262 509.5 223.026 467.5 213.026C425.5 203.026 499.5 126.526 439.5 132.526C379.5 138.526 413.5 116.526 315 98.5262C216.5 80.5262 237 164.526 202.5 181.026C168 197.526 186.5 132.526 146.5 98.5262Z" fill="#A90029"/>
<path d="M146.5 154.526C112.5 122.026 60.5 150.526 0 225.026V287H691.5V225.026C678.167 207.026 646.8 167.726 602 154.526C546 138.027 527.5 225.026 489.5 251.027C451.5 277.028 429.5 201.026 427.5 171.026C425.5 141.026 371 124.526 297 154.526C223 184.527 359 189.026 263 225.026C167 261.026 180.5 187.026 146.5 154.526Z" fill="#7900B1"/>
<path d="M117.028 137.919L39.8818 78.5334L113.475 37.2557L117.028 137.919Z" fill="#9B00E4"/>
<ellipse cx="72.8409" cy="50.733" rx="36.2566" ry="34.5627" transform="rotate(-29.2876 72.8409 50.733)" fill="#A90029"/>
<path d="M61.138 96.0565C60.3411 100.026 55.3802 108.335 62.1879 107.536C70.6976 106.538 120.925 82.8942 121.982 73.9983C122.828 66.8815 117.457 66.4807 115.065 65.8095" stroke="black" stroke-width="2.13393"/>
<path d="M88.0579 115.941C86.0877 116.92 82.6097 119.298 84.459 120.979C86.7707 123.079 124.511 106.817 122.383 102.349C120.68 98.7753 117.188 99.6016 115.655 100.462" stroke="black" stroke-width="2.13393"/>
<path d="M287.206 132.033L307.732 36.866L376.601 85.6197L287.206 132.033Z" fill="#9B00E4"/>
<ellipse cx="346.988" cy="54.7029" rx="36.2566" ry="34.5627" transform="rotate(35.2956 346.988 54.7029)" fill="#A90029"/>
<path d="M301.028 63.5856C297.101 64.5695 287.467 63.6553 291.11 69.4611C295.665 76.7184 338.577 111.937 347.066 109.074C353.857 106.783 351.913 101.759 351.493 99.3108" stroke="black" stroke-width="2.13393"/>
<path d="M294.623 96.4342C292.893 95.075 289.252 92.9545 288.528 95.3459C287.623 98.3352 318.509 125.443 321.631 121.603C324.128 118.532 321.883 115.733 320.448 114.717" stroke="black" stroke-width="2.13393"/>
<path d="M631.798 140.077L585.114 54.6447L669.1 46.513L631.798 140.077Z" fill="#9B00E4"/>
<ellipse cx="626.479" cy="42.4781" rx="36.2566" ry="34.5627" transform="rotate(-5.53019 626.479 42.4781)" fill="#A90029"/>
<path d="M597.509 79.2462C595.181 82.5583 587.292 88.1651 593.845 90.1763C602.036 92.6903 657.533 91.2856 662.084 83.5694C665.725 77.3964 660.97 74.8656 659.052 73.2876" stroke="black" stroke-width="2.13393"/>
<path d="M614.137 108.29C611.939 108.393 607.798 109.169 608.814 111.452C610.083 114.305 651.177 114.625 651.029 109.679C650.911 105.722 647.382 105.072 645.632 105.241" stroke="black" stroke-width="2.13393"/>
<path d="M701.5 44.4999V322.5" stroke="black" stroke-width="25.86"/>
</svg>
