<svg width="234" height="506" viewBox="0 0 234 506" fill="none" xmlns="http://www.w3.org/2000/svg">
<path d="M79.466 114.953C138.426 114.953 185.132 111.458 234 0L233.5 118.5C233.5 119.5 238 228.5 215.977 226.91C172.534 223.773 241.209 162.515 169.5 201C97.7921 239.485 -35.7984 299.383 23.6929 249.901C83.1842 200.42 79.466 196.922 23.6929 164.434C-32.0802 131.946 20.5059 114.953 79.466 114.953Z" fill="#FFED5C"/>
<path d="M162.5 258.5C206.5 279 177 147 233 106V484.5C233 500.167 224.2 522.1 189 484.5C144.999 437.5 162.5 399.5 101 382C39.5002 364.5 118.5 238 162.5 258.5Z" fill="#FFED5C"/>
</svg>
