<svg width="60" height="226" viewBox="0 0 60 226" fill="none" xmlns="http://www.w3.org/2000/svg">
<path d="M26.0973 187.309C30.7082 187.321 34.7353 188.107 38.1787 189.667C41.6006 191.227 44.2128 193.432 46.0153 196.281C47.8179 199.129 48.7144 202.45 48.7046 206.242C48.6951 209.948 47.7818 213.231 45.9645 216.092C44.1258 218.953 41.5237 221.177 38.1584 222.762C34.7717 224.327 30.859 225.124 26.4204 225.156L23.0269 225.148C18.5022 225.136 14.5074 224.339 11.0425 222.757C7.57761 221.176 4.93313 218.95 3.10906 216.079C1.2635 213.187 0.345473 209.888 0.354979 206.183C0.364651 202.412 1.28887 199.096 3.12764 196.235C4.94492 193.353 7.59001 191.14 11.0629 189.598C14.5143 188.055 18.5346 187.29 23.1239 187.302L26.0973 187.309ZM23.0435 193.475C17.463 193.46 13.1832 194.57 10.2041 196.803C7.20347 199.036 5.69798 202.167 5.68764 206.196C5.67758 210.118 7.16711 213.213 10.1562 215.483C13.1238 217.732 17.2577 218.895 22.5579 218.973L26.0161 218.982C31.4241 218.996 35.6824 217.876 38.7908 215.621C41.8778 213.345 43.4264 210.214 43.4366 206.228C43.4469 202.221 42.0005 199.114 39.0974 196.909C36.1728 194.704 31.9849 193.562 26.5339 193.483L23.0435 193.475ZM6.26132 146.342L6.22253 161.468L48.1728 161.575L48.157 167.748L6.20669 167.64L6.16798 182.734L1.06155 182.72L1.1549 146.329L6.26132 146.342ZM59.8684 100.134L59.8526 106.307L48.3147 106.277L48.228 140.051L59.7983 140.08L59.7824 146.286L43.1379 146.275L43.1478 142.429C40.8691 140.398 37.8137 138.785 33.9815 137.59C30.1278 136.374 25.9067 135.609 21.3182 135.295L1.18598 134.209L1.25819 106.059L43.2408 106.167L43.2565 100.026L59.8684 100.134ZM43.1659 135.351L43.2248 112.405L6.34862 112.31L6.30775 128.243L20.1386 128.958C25.546 129.252 30.155 129.985 33.9657 131.158C37.7764 132.31 40.8432 133.708 43.1659 135.351ZM20.5071 86.1031L20.5371 74.4035C20.6143 69.4912 21.8846 65.6592 24.348 62.9076C26.8113 60.156 30.1545 58.7856 34.3775 58.7964C38.6221 58.8073 42.0013 60.2057 44.515 62.9916C47.0288 65.7776 48.3226 69.573 48.3965 74.378L48.3503 92.3798L1.29359 92.2591L1.30951 86.0538L20.5071 86.1031ZM25.6135 86.1162L43.2921 86.1615L43.3212 74.8175C43.3291 71.7364 42.5165 69.3427 40.8834 67.6363C39.2503 65.9084 37.0548 65.0409 34.2969 65.0339C31.6467 65.0271 29.5546 65.8512 28.0206 67.5064C26.4866 69.1399 25.6942 71.4757 25.6433 74.5136L25.6135 86.1162ZM48.4669 46.939L48.4509 53.1443L1.39423 53.0236L1.41015 46.8183L48.4669 46.939ZM19.5147 19.3933L1.50955 8.06765L1.52828 0.763522L24.8246 15.6902L48.5859 0.528715L48.567 7.89749L30.18 19.4207L48.5075 31.1027L48.4887 38.4391L24.8055 23.1236L1.43286 37.9629L1.45152 30.6911L19.5147 19.3933Z" fill="black"/>
</svg>
