<svg width="140" height="874" viewBox="0 0 140 874" fill="none" xmlns="http://www.w3.org/2000/svg">
<path d="M73 831.779V838.016H31.0496L31.0496 861.221H73V867.427H25.9431L25.9431 831.779H73ZM60.7187 794.482L60.7187 814.197L73 818.625V825.024L25.9431 807.054L25.9431 801.625L73 783.623V789.99L60.7187 794.482ZM55.6122 812.322L55.6122 796.324L33.6028 804.34L55.6122 812.322ZM25.9431 741.123H73V747.328H31.0496L31.0496 764.199L49.6978 765.039C55.9462 765.363 60.6433 766.009 63.789 766.978C66.9347 767.927 69.251 769.327 70.7377 771.18C72.2028 773.033 72.9569 775.511 73 778.613V780.65H67.9259L67.8612 779.357C67.7104 777.353 67.064 775.812 65.9221 774.735C64.7586 773.658 62.9164 772.839 60.3955 772.279C57.8746 771.719 53.9963 771.32 48.7605 771.083L25.9431 770.113L25.9431 741.123ZM45.1408 723.832V712.133C45.2054 707.22 46.4659 703.385 48.9221 700.627C51.3784 697.869 54.7181 696.49 58.9411 696.49C63.1857 696.49 66.5685 697.88 69.0894 700.659C71.6103 703.439 72.9138 707.231 73 712.036V730.038H25.9431L25.9431 723.832H45.1408ZM50.2472 723.832H67.9259V712.488C67.9259 709.407 67.1071 707.015 65.4696 705.313C63.8321 703.59 61.6344 702.728 58.8765 702.728C56.2263 702.728 54.1363 703.557 52.6065 705.216C51.0768 706.854 50.2903 709.192 50.2472 712.23V723.832ZM25.9431 680.266L64.3384 664.882L25.9431 649.498L25.9431 641.45H73V647.656H54.675L34.8956 647.074L73 662.523V667.274L34.9925 682.69L54.675 682.076H73V688.281H25.9431L25.9431 680.266ZM45.1408 623.998V612.298C45.2054 607.386 46.4659 603.551 48.9221 600.793C51.3784 598.035 54.7181 596.656 58.9411 596.656C63.1857 596.656 66.5685 598.046 69.0894 600.825C71.6103 603.605 72.9138 607.397 73 612.201V630.203H25.9431V623.998H45.1408ZM50.2472 623.998H67.9259V612.654C67.9259 609.573 67.1071 607.181 65.4696 605.479C63.8321 603.755 61.6344 602.894 58.8765 602.894C56.2263 602.894 54.1363 603.723 52.6065 605.382C51.0768 607.02 50.2903 609.357 50.2472 612.395V623.998ZM73 584.762V590.968H25.9431V584.762H73ZM73 520.867V527.105H31.0496L31.0496 550.31H73V556.515H25.9431L25.9431 520.867H73ZM60.7187 483.571L60.7187 503.285L73 507.713V514.112L25.9431 496.143V490.713L73 472.711V479.078L60.7187 483.571ZM55.6122 501.411V485.413L33.6028 493.428L55.6122 501.411ZM25.9431 430.212H73V436.417H31.0496V453.288L49.6978 454.128C55.9462 454.451 60.6433 455.097 63.789 456.067C66.9347 457.015 69.251 458.416 70.7377 460.269C72.2028 462.121 72.9569 464.599 73 467.702V469.738H67.9259L67.8612 468.445C67.7104 466.442 67.064 464.901 65.9221 463.824C64.7586 462.746 62.9164 461.928 60.3955 461.367C57.8746 460.807 53.9963 460.409 48.7605 460.172L25.9431 459.202L25.9431 430.212ZM45.1408 412.921L45.1408 401.221C45.2054 396.309 46.4659 392.473 48.9221 389.716C51.3784 386.958 54.7181 385.579 58.9411 385.579C63.1857 385.579 66.5685 386.968 69.0894 389.748C71.6103 392.527 72.9138 396.319 73 401.124V419.126H25.9431V412.921H45.1408ZM50.2472 412.921H67.9259V401.577C67.9259 398.496 67.1071 396.104 65.4696 394.402C63.8321 392.678 61.6344 391.816 58.8765 391.816C56.2263 391.816 54.1363 392.646 52.6065 394.305C51.0768 395.942 50.2903 398.28 50.2472 401.318L50.2472 412.921ZM25.9431 369.354L64.3384 353.97L25.9431 338.586V330.539H73V336.744H54.675L34.8956 336.163L73 351.611V356.362L34.9925 371.778L54.675 371.164H73V377.37H25.9431V369.354ZM45.1408 313.087V301.387C45.2054 296.474 46.4659 292.639 48.9221 289.881C51.3784 287.123 54.7181 285.744 58.9411 285.744C63.1857 285.744 66.5685 287.134 69.0894 289.914C71.6103 292.693 72.9138 296.485 73 301.29V319.292H25.9431L25.9431 313.087H45.1408ZM50.2472 313.087H67.9259V301.742C67.9259 298.661 67.1071 296.27 65.4696 294.568C63.8321 292.844 61.6344 291.982 58.8765 291.982C56.2263 291.982 54.1363 292.812 52.6065 294.471C51.0768 296.108 50.2903 298.446 50.2472 301.484V313.087ZM73 273.851L73 280.056H25.9431L25.9431 273.851H73Z" fill="black"/>
<path d="M48.2434 215.712C52.8507 215.53 56.9073 216.146 60.4131 217.561C63.8975 218.976 66.5999 221.068 68.5205 223.839C70.441 226.61 71.476 229.889 71.6255 233.679C71.7716 237.382 70.9968 240.701 69.3013 243.635C67.5842 246.571 65.0778 248.902 61.7821 250.627C58.4639 252.332 54.5882 253.294 50.1548 253.512L46.7639 253.645C42.2427 253.824 38.218 253.195 34.6898 251.761C31.1616 250.326 28.426 248.212 26.483 245.421C24.5177 242.609 23.462 239.352 23.316 235.649C23.1674 231.881 23.9516 228.53 25.6687 225.594C27.3633 222.638 29.9132 220.316 33.3183 218.629C36.7019 216.943 40.6866 216.01 45.2724 215.829L48.2434 215.712ZM45.4511 222C39.8749 222.22 35.6455 223.508 32.7627 225.864C29.8585 228.221 28.4857 231.413 28.6445 235.439C28.7991 239.357 30.4172 242.387 33.499 244.53C36.5583 246.652 40.7374 247.641 46.0362 247.496L49.4917 247.36C54.8956 247.147 59.1031 245.849 62.1141 243.466C65.1028 241.062 66.5186 237.869 66.3616 233.886C66.2036 229.882 64.6281 226.839 61.635 224.758C58.6204 222.677 54.3883 221.712 48.9388 221.862L45.4511 222ZM26.7053 175.613L27.3015 190.727L69.2193 189.074L69.4626 195.242L27.5447 196.895L28.1396 211.976L23.0371 212.178L21.6029 175.815L26.7053 175.613ZM78.3256 127.195L78.5689 133.364L67.0399 133.818L68.371 167.566L79.9323 167.11L80.1768 173.31L63.5466 173.998L63.395 170.155C61.0331 168.222 57.9127 166.738 54.0337 165.705C50.1324 164.652 45.8829 164.065 41.2852 163.944L21.1252 163.704L20.0158 135.576L61.9659 133.921L61.7239 127.785L78.3256 127.195ZM63.1161 163.083L62.2117 140.154L25.3641 141.608L25.992 157.529L39.8407 157.662C45.2556 157.728 49.8914 158.268 53.7479 159.28C57.6037 160.271 60.7264 161.538 63.1161 163.083ZM38.4101 114.829L37.949 103.139C37.8199 98.2275 38.9283 94.3456 41.2739 91.493C43.6196 88.6405 46.9023 87.131 51.1221 86.9645C55.3634 86.7972 58.7983 88.0526 61.4268 90.7305C64.0552 93.4085 65.5072 97.1463 65.7827 101.944L66.4922 119.932L19.4719 121.786L19.2273 115.586L38.4101 114.829ZM43.5125 114.628L61.1774 113.931L60.7304 102.596C60.6089 99.5173 59.6966 97.1598 57.9932 95.5235C56.2891 93.8657 54.0591 93.0912 51.3033 93.1999C48.6552 93.3043 46.5995 94.2156 45.1363 95.9336C43.6723 97.6301 42.9786 99.9971 43.0553 103.034L43.5125 114.628ZM64.7013 74.5262L64.9459 80.7267L17.9255 82.5813L17.681 76.3808L64.7013 74.5262ZM34.6184 48.22L16.1538 37.6601L15.8659 30.3616L39.7682 44.2973L62.8722 28.1518L63.1626 35.5148L45.2755 47.7996L64.0772 58.7021L64.3663 66.0328L40.0612 51.7249L17.332 67.5322L17.0454 60.266L34.6184 48.22Z" fill="black"/>
</svg>
