<svg width="227" height="451" viewBox="0 0 227 451" fill="none" xmlns="http://www.w3.org/2000/svg">
<path d="M115.234 96.3571C117.213 61.2494 38.6009 80.1693 0.5 25V451H64.7623C81.586 433.948 112.858 403.399 103.358 391.764C91.4824 377.219 64.7623 381.733 64.7623 332.582C64.7623 283.431 151.85 295.468 155.809 256.348C159.767 217.228 77.1327 211.21 64.7623 168.077C52.3918 124.945 113.254 131.465 115.234 96.3571Z" fill="#E1305A"/>
<path d="M166.2 43.1939C158.283 12.6 113.492 53.6647 65 0H220.5V218V239C206.975 228.635 148.584 177.606 135.521 141.496C119.192 96.357 174.117 73.7878 166.2 43.1939Z" fill="#008DCB"/>
<path d="M147.396 394.773C165.21 416.84 127.109 444.982 96.9253 451H220.5L220.5 258.354C208.459 253.004 194.404 249.928 194.404 280.422C206.28 307.505 160.757 294.966 129.583 321.548C98.4096 348.129 129.583 372.705 147.396 394.773Z" fill="#FFED5C"/>
<ellipse cx="33.8379" cy="158.46" rx="28.9098" ry="28.0805" transform="rotate(77.0696 33.8379 158.46)" fill="#E1305A"/>
<ellipse cx="38.8399" cy="173.163" rx="7.12845" ry="6.72351" transform="rotate(77.0696 38.8399 173.163)" fill="white"/>
<ellipse cx="25.9977" cy="141.98" rx="7.12845" ry="6.72351" transform="rotate(77.0696 25.9977 141.98)" fill="white"/>
<ellipse cx="48.4024" cy="154.717" rx="7.12845" ry="6.72351" transform="rotate(77.0696 48.4024 154.717)" fill="white"/>
<ellipse cx="46.8379" cy="223.46" rx="28.9098" ry="28.0805" transform="rotate(77.0696 46.8379 223.46)" fill="#E1305A"/>
<ellipse cx="51.8399" cy="238.163" rx="7.12845" ry="6.72351" transform="rotate(77.0696 51.8399 238.163)" fill="white"/>
<ellipse cx="38.9977" cy="206.98" rx="7.12845" ry="6.72351" transform="rotate(77.0696 38.9977 206.98)" fill="white"/>
<ellipse cx="61.4024" cy="219.717" rx="7.12845" ry="6.72351" transform="rotate(77.0696 61.4024 219.717)" fill="white"/>
<ellipse cx="117.838" cy="254.46" rx="28.9098" ry="28.0805" transform="rotate(77.0696 117.838 254.46)" fill="#E1305A"/>
<ellipse cx="122.84" cy="269.163" rx="7.12845" ry="6.72351" transform="rotate(77.0696 122.84 269.163)" fill="white"/>
<ellipse cx="109.998" cy="237.98" rx="7.12845" ry="6.72351" transform="rotate(77.0696 109.998 237.98)" fill="white"/>
<ellipse cx="132.402" cy="250.717" rx="7.12845" ry="6.72351" transform="rotate(77.0696 132.402 250.717)" fill="white"/>
<ellipse cx="33.8374" cy="383.46" rx="28.9098" ry="28.0805" transform="rotate(77.0696 33.8374 383.46)" fill="#E1305A"/>
<ellipse cx="38.8395" cy="398.163" rx="7.12845" ry="6.72351" transform="rotate(77.0696 38.8395 398.163)" fill="white"/>
<ellipse cx="25.9972" cy="366.98" rx="7.12845" ry="6.72351" transform="rotate(77.0696 25.9972 366.98)" fill="white"/>
<ellipse cx="48.402" cy="379.717" rx="7.12845" ry="6.72351" transform="rotate(77.0696 48.402 379.717)" fill="white"/>
<ellipse cx="34.8379" cy="322.46" rx="28.9098" ry="28.0805" transform="rotate(77.0696 34.8379 322.46)" fill="#E1305A"/>
<ellipse cx="39.8399" cy="337.163" rx="7.12845" ry="6.72351" transform="rotate(77.0696 39.8399 337.163)" fill="white"/>
<ellipse cx="26.9977" cy="305.98" rx="7.12845" ry="6.72351" transform="rotate(77.0696 26.9977 305.98)" fill="white"/>
<ellipse cx="49.4024" cy="318.717" rx="7.12845" ry="6.72351" transform="rotate(77.0696 49.4024 318.717)" fill="white"/>
<ellipse cx="22.7154" cy="261.079" rx="16.8445" ry="16.3613" transform="rotate(77.0696 22.7154 261.079)" fill="#E1305A"/>
<ellipse cx="25.6293" cy="269.646" rx="4.15344" ry="3.9175" transform="rotate(77.0696 25.6293 269.646)" fill="white"/>
<ellipse cx="18.1474" cy="251.476" rx="4.15344" ry="3.9175" transform="rotate(77.0696 18.1474 251.476)" fill="white"/>
<ellipse cx="31.2011" cy="258.899" rx="4.15344" ry="3.9175" transform="rotate(77.0696 31.2011 258.899)" fill="white"/>
<ellipse cx="77.4859" cy="275.279" rx="16.8445" ry="16.3613" transform="rotate(-27.4132 77.4859 275.279)" fill="#E1305A"/>
<ellipse cx="85.0522" cy="270.314" rx="4.15344" ry="3.9175" transform="rotate(-27.4132 85.0522 270.314)" fill="white"/>
<ellipse cx="69.3315" cy="282.103" rx="4.15344" ry="3.9175" transform="rotate(-27.4132 69.3315 282.103)" fill="white"/>
<ellipse cx="73.2529" cy="267.608" rx="4.15344" ry="3.9175" transform="rotate(-27.4132 73.2529 267.608)" fill="white"/>
<ellipse cx="74.4859" cy="401.279" rx="16.8445" ry="16.3613" transform="rotate(-27.4132 74.4859 401.279)" fill="#E1305A"/>
<ellipse cx="82.0522" cy="396.315" rx="4.15344" ry="3.9175" transform="rotate(-27.4132 82.0522 396.315)" fill="white"/>
<ellipse cx="66.3315" cy="408.104" rx="4.15344" ry="3.9175" transform="rotate(-27.4132 66.3315 408.104)" fill="white"/>
<ellipse cx="70.2529" cy="393.608" rx="4.15344" ry="3.9175" transform="rotate(-27.4132 70.2529 393.608)" fill="white"/>
<ellipse cx="188.5" cy="424.654" rx="19.5" ry="18.9406" fill="#FFED5C"/>
<ellipse cx="178.084" cy="429.453" rx="4.80822" ry="4.53508" fill="#008DCB"/>
<ellipse cx="193.575" cy="434.255" rx="4.80822" ry="4.53508" fill="#008DCB"/>
<ellipse cx="193.575" cy="413.981" rx="4.80822" ry="4.53508" fill="#008DCB"/>
<ellipse cx="178.5" cy="381.941" rx="19.5" ry="18.9406" fill="#FFED5C"/>
<ellipse cx="168.084" cy="386.74" rx="4.80822" ry="4.53508" fill="#008DCB"/>
<ellipse cx="183.575" cy="391.542" rx="4.80822" ry="4.53508" fill="#008DCB"/>
<ellipse cx="183.575" cy="371.268" rx="4.80822" ry="4.53508" fill="#008DCB"/>
<ellipse cx="194" cy="79.3115" rx="24" ry="23.3115" fill="#008DCB"/>
<ellipse cx="181.177" cy="85.2226" rx="5.91781" ry="5.58164" fill="#FFED5C"/>
<ellipse cx="200.248" cy="91.1308" rx="5.91781" ry="5.58164" fill="#FFED5C"/>
<ellipse cx="200.248" cy="66.1773" rx="5.91781" ry="5.58164" fill="#FFED5C"/>
<ellipse cx="187.738" cy="161.925" rx="24" ry="23.3115" transform="rotate(56.0747 187.738 161.925)" fill="#008DCB"/>
<ellipse cx="175.677" cy="154.584" rx="5.91781" ry="5.58164" transform="rotate(56.0747 175.677 154.584)" fill="#FFED5C"/>
<ellipse cx="181.418" cy="173.705" rx="5.91781" ry="5.58164" transform="rotate(56.0747 181.418 173.705)" fill="#FFED5C"/>
<ellipse cx="202.123" cy="159.779" rx="5.91781" ry="5.58164" transform="rotate(56.0747 202.123 159.779)" fill="#FFED5C"/>
<ellipse cx="194.325" cy="34.0601" rx="24" ry="23.3115" transform="rotate(-29.211 194.325 34.0601)" fill="#008DCB"/>
<ellipse cx="186.017" cy="45.4775" rx="5.91781" ry="5.58164" transform="rotate(-29.211 186.017 45.4775)" fill="#FFED5C"/>
<ellipse cx="205.546" cy="41.3273" rx="5.91781" ry="5.58164" transform="rotate(-29.211 205.546 41.3273)" fill="#FFED5C"/>
<ellipse cx="193.368" cy="19.5471" rx="5.91781" ry="5.58164" transform="rotate(-29.211 193.368 19.5471)" fill="#FFED5C"/>
</svg>
