<svg width="1037" height="568" viewBox="0 0 1037 568" fill="none" xmlns="http://www.w3.org/2000/svg">
<path d="M8 338.026L8 117.026L807 117.026V338.026L8 338.026Z" fill="#7900B1"/>
<path d="M151.5 303.526C75 348.026 43.5 284.526 8.5 326.026V109.527H660.5C664.833 132.861 652.5 184.627 568.5 205.027C463.5 230.527 504.5 154.026 422 154.026C339.5 154.026 504.5 202.027 342.5 246.527C180.5 291.027 263 160.526 228 154.026C193 147.526 228 259.026 151.5 303.526Z" fill="#FFEC00"/>
<path d="M133.5 209.526C115 256.026 71.5 235.026 8.5 177.026V103.527H560.5V142.526C560.5 154.526 545 163.026 493.5 130.526C442 98.0265 420.5 130.526 384.5 130.526C348.5 130.526 367.5 177.026 338.5 209.526C309.5 242.026 275 177.026 266.5 142.526C258 108.026 222 130.526 184.5 130.526C147 130.526 152 163.026 133.5 209.526Z" fill="#A90029"/>
<path d="M0.5 350.526H820V104.526H1" stroke="black" stroke-width="25.86"/>
<path d="M82.771 409.548C82.7839 414.159 82.0195 418.191 80.4778 421.642C78.936 425.073 76.7456 427.697 73.9066 429.515C71.0675 431.333 67.752 432.247 63.9599 432.258C60.2539 432.268 56.9656 431.373 54.0949 429.571C51.2242 427.748 48.9869 425.158 47.3831 421.801C45.8008 418.423 44.9819 414.515 44.9265 410.076L44.917 406.683C44.9044 402.158 45.6796 398.159 47.2428 394.686C48.806 391.212 51.0178 388.556 53.8784 386.716C56.7604 384.855 60.0543 383.919 63.7603 383.909C67.5308 383.898 70.8515 384.804 73.7222 386.627C76.6145 388.429 78.8411 391.062 80.4021 394.527C81.963 397.97 82.7499 401.986 82.7627 406.575L82.771 409.548ZM76.5896 406.528C76.574 400.947 75.4417 396.674 73.1926 393.707C70.9434 390.718 67.8043 389.23 63.7752 389.241C59.8538 389.252 56.7661 390.759 54.5121 393.76C52.2796 396.74 51.1384 400.88 51.0886 406.181L51.0982 409.639C51.1133 415.047 52.2564 419.299 54.5274 422.395C56.8199 425.47 59.9591 427.001 63.9452 426.99C67.9527 426.978 71.0513 425.515 73.2409 422.6C75.4304 419.664 76.5499 415.47 76.5993 410.018L76.5896 406.528ZM123.631 389.491L108.506 389.534L108.623 431.484L102.45 431.502L102.333 389.551L87.24 389.594L87.2258 384.488L123.617 384.384L123.631 389.491ZM157.267 409.594L136.874 409.653L136.921 426.329L160.61 426.262L160.625 431.336L130.729 431.421L130.598 384.364L160.17 384.28L160.184 389.386L136.818 389.453L136.86 404.578L157.253 404.52L157.267 409.594ZM203.801 384.155L203.932 431.212L197.727 431.23L197.61 389.28L180.739 389.328L179.951 407.978C179.645 414.228 179.012 418.926 178.051 422.075C177.112 425.223 175.718 427.544 173.869 429.036C172.02 430.506 169.545 431.267 166.442 431.319L164.406 431.325L164.392 426.251L165.684 426.182C167.688 426.026 169.226 425.375 170.301 424.23C171.375 423.064 172.188 421.219 172.741 418.697C173.295 416.174 173.682 412.295 173.905 407.058L174.811 384.238L203.801 384.155ZM221.145 403.304L232.845 403.27C237.757 403.321 241.596 404.57 244.361 407.019C247.126 409.467 248.514 412.803 248.526 417.026C248.538 421.271 247.157 424.657 244.385 427.186C241.613 429.715 237.824 431.029 233.02 431.129L215.018 431.181L214.886 384.124L221.092 384.106L221.145 403.304ZM221.16 408.41L221.209 426.089L232.553 426.056C235.634 426.048 238.023 425.222 239.721 423.58C241.44 421.937 242.296 419.737 242.288 416.979C242.281 414.329 241.445 412.241 239.782 410.716C238.14 409.191 235.8 408.411 232.762 408.377L221.16 408.41Z" fill="black"/>
<path d="M335.542 391.38L312.858 391.816L313.129 405.905L324.827 405.68C329.74 405.65 333.598 406.837 336.403 409.24C339.208 411.642 340.651 414.955 340.732 419.177C340.814 423.421 339.49 426.83 336.76 429.404C334.029 431.978 330.263 433.354 325.461 433.532L307.43 433.879L306.523 386.831L335.443 386.275L335.542 391.38ZM313.228 411.011L313.569 428.686L324.911 428.468C327.991 428.409 330.366 427.544 332.037 425.874C333.729 424.204 334.548 421.99 334.495 419.232C334.444 416.583 333.574 414.509 331.886 413.012C330.219 411.514 327.867 410.772 324.828 410.788L313.228 411.011ZM375.148 420.293L355.437 420.672L351.247 433.036L344.849 433.16L361.908 385.766L367.336 385.662L386.242 432.364L379.876 432.486L375.148 420.293ZM357.213 415.531L373.208 415.223L364.77 393.372L357.213 415.531ZM428.734 431.547L422.498 431.666L422.078 409.92L398.36 410.376L398.78 432.123L392.575 432.242L391.668 385.194L397.873 385.074L398.262 405.302L421.98 404.846L421.59 384.618L427.827 384.498L428.734 431.547ZM466.078 418.545L446.367 418.924L442.176 431.288L435.778 431.411L452.837 384.017L458.266 383.913L477.172 430.615L470.806 430.738L466.078 418.545ZM448.142 413.782L464.137 413.475L455.699 391.624L448.142 413.782ZM519.664 429.798L513.427 429.918L513.008 408.171L489.29 408.627L489.709 430.374L483.505 430.493L482.598 383.445L488.802 383.326L489.192 403.554L512.91 403.098L512.52 382.87L518.757 382.75L519.664 429.798ZM536.64 401.607L548.338 401.382C553.251 401.353 557.11 402.539 559.914 404.942C562.719 407.345 564.162 410.657 564.244 414.879C564.325 419.123 563.001 422.532 560.271 425.106C557.54 427.68 553.774 429.056 548.972 429.235L530.973 429.581L530.066 382.532L536.27 382.413L536.64 401.607ZM536.739 406.713L537.08 424.388L548.422 424.17C551.502 424.111 553.878 423.246 555.548 421.576C557.24 419.906 558.059 417.692 558.006 414.935C557.955 412.285 557.085 410.211 555.397 408.714C553.73 407.216 551.378 406.474 548.339 406.49L536.739 406.713ZM576.406 428.707L570.202 428.826L569.295 381.778L575.499 381.659L576.406 428.707Z" fill="black"/>
<path d="M86.9274 70.9475L80.69 71.0006L80.3328 29.0517L57.1284 29.2493L57.4856 71.1982L51.2806 71.251L50.8799 24.1959L86.5267 23.8923L86.9274 70.9475ZM124.118 58.349L104.404 58.5169L100.081 70.8355L93.6819 70.89L111.25 23.6818L116.68 23.6355L135.081 70.5374L128.715 70.5916L124.118 58.349ZM106.235 53.3947L122.232 53.2584L114.03 31.3181L106.235 53.3947ZM177.179 23.1204L177.58 70.1755L171.375 70.2284L171.017 28.2795L154.147 28.4231L153.466 47.0778C153.196 53.3287 152.59 58.0312 151.647 61.185C150.726 64.3387 149.345 66.6668 147.505 68.1692C145.664 69.6501 143.193 70.4253 140.091 70.4948L138.055 70.5121L138.011 65.4382L139.304 65.3625C141.306 65.1946 142.841 64.5352 143.909 63.3841C144.976 62.2115 145.779 60.3624 146.318 57.8368C146.856 55.3112 147.222 51.4296 147.414 46.1921L148.19 23.3672L177.179 23.1204ZM194.633 42.1701L206.332 42.0705C211.245 42.0933 215.091 43.321 217.869 45.7537C220.648 48.1864 222.055 51.5142 222.091 55.7371C222.127 59.9816 220.767 63.376 218.009 65.9205C215.251 68.465 211.47 69.8008 206.666 69.9279L188.665 70.0811L188.264 23.026L194.469 22.9731L194.633 42.1701ZM194.676 47.2764L194.827 64.9544L206.17 64.8578C209.251 64.8315 211.636 63.9924 213.324 62.3405C215.034 60.6884 215.877 58.4834 215.853 55.7256C215.831 53.0755 214.984 50.9927 213.311 49.4771C211.661 47.9613 209.317 47.1948 206.278 47.1776L194.676 47.2764ZM238.034 22.6022L253.744 60.8651L268.801 22.3402L276.848 22.2717L277.249 69.3268L271.044 69.3797L270.888 51.0553L271.301 31.2717L256.177 69.5063L251.427 69.5467L235.687 31.6719L236.469 51.3484L236.625 69.6727L230.42 69.7256L230.019 22.6704L238.034 22.6022ZM294.463 41.32L306.162 41.2204C311.075 41.2432 314.921 42.4709 317.7 44.9036C320.479 47.3363 321.886 50.6641 321.922 54.887C321.958 59.1315 320.597 62.5259 317.839 65.0704C315.081 67.6149 311.301 68.9507 306.497 69.0778L288.495 69.2311L288.095 22.1759L294.3 22.1231L294.463 41.32ZM294.507 46.4263L294.657 64.1043L306.001 64.0077C309.082 63.9814 311.467 63.1424 313.155 61.4904C314.864 59.8383 315.707 57.6333 315.684 54.8755C315.661 52.2254 314.814 50.1426 313.142 48.627C311.492 47.1112 309.147 46.3447 306.109 46.3275L294.507 46.4263ZM333.935 68.8441L327.73 68.897L327.329 21.8418L333.534 21.789L333.935 68.8441ZM397.828 68.3001L391.59 68.3532L391.233 26.4043L368.029 26.6019L368.386 68.5508L362.181 68.6036L361.78 21.5484L397.427 21.2449L397.828 68.3001ZM435.018 55.7016L415.304 55.8695L410.981 68.1881L404.582 68.2425L422.15 21.0344L427.58 20.9881L445.982 67.89L439.615 67.9442L435.018 55.7016ZM417.135 50.7472L433.133 50.611L424.93 28.6706L417.135 50.7472ZM488.079 20.473L488.48 67.5281L482.275 67.581L481.918 25.6321L465.048 25.7757L464.366 44.4304C464.096 50.6813 463.49 55.3837 462.547 58.5376C461.626 61.6913 460.245 64.0194 458.405 65.5218C456.564 67.0027 454.093 67.7778 450.991 67.8474L448.955 67.8647L448.912 62.7908L450.204 62.7151C452.206 62.5472 453.741 61.8877 454.809 60.7367C455.876 59.564 456.679 57.7149 457.218 55.1894C457.757 52.6638 458.122 48.7822 458.315 43.5447L459.09 20.7198L488.079 20.473ZM505.533 39.5227L517.232 39.4231C522.145 39.4459 525.991 40.6736 528.769 43.1063C531.548 45.539 532.956 48.8668 532.991 53.0897C533.028 57.3341 531.667 60.7286 528.909 63.2731C526.151 65.8176 522.37 67.1534 517.566 67.2804L499.565 67.4337L499.164 20.3786L505.369 20.3257L505.533 39.5227ZM505.576 44.6289L505.727 62.307L517.071 62.2104C520.152 62.1841 522.536 61.345 524.224 59.6931C525.934 58.041 526.777 55.836 526.754 53.0782C526.731 50.4281 525.884 48.3453 524.212 46.8297C522.561 45.3139 520.217 44.5474 517.179 44.5302L505.576 44.6289ZM548.934 19.9548L564.645 58.2177L579.701 19.6928L587.748 19.6243L588.149 66.6794L581.944 66.7323L581.788 48.4079L582.201 28.6243L567.078 66.8588L562.327 66.8993L546.587 29.0245L547.369 48.701L547.525 67.0253L541.32 67.0782L540.919 20.023L548.934 19.9548ZM605.363 38.6726L617.063 38.573C621.976 38.5958 625.821 39.8235 628.6 42.2562C631.379 44.6889 632.786 48.0167 632.822 52.2396C632.858 56.4841 631.497 59.8785 628.739 62.423C625.982 64.9675 622.201 66.3033 617.397 66.4304L599.396 66.5836L598.995 19.5285L605.2 19.4756L605.363 38.6726ZM605.407 43.7789L605.558 61.4569L616.901 61.3603C619.982 61.334 622.367 60.4949 624.055 58.843C625.765 57.1909 626.608 54.9859 626.584 52.2281C626.562 49.578 625.714 47.4952 624.042 45.9796C622.392 44.4638 620.047 43.6973 617.009 43.6801L605.407 43.7789ZM644.835 66.1967L638.63 66.2496L638.229 19.1944L644.434 19.1416L644.835 66.1967Z" fill="black"/>
<path d="M891.097 302.309C895.708 302.321 899.735 303.107 903.179 304.667C906.601 306.227 909.213 308.432 911.015 311.281C912.818 314.129 913.714 317.45 913.705 321.242C913.695 324.948 912.782 328.231 910.965 331.092C909.126 333.953 906.524 336.177 903.158 337.762C899.772 339.327 895.859 340.124 891.42 340.156L888.027 340.148C883.502 340.136 879.507 339.339 876.042 337.757C872.578 336.176 869.933 333.95 868.109 331.079C866.264 328.187 865.345 324.888 865.355 321.183C865.365 317.412 866.289 314.096 868.128 311.235C869.945 308.353 872.59 306.14 876.063 304.598C879.514 303.055 883.535 302.29 888.124 302.302L891.097 302.309ZM888.043 308.475C882.463 308.46 878.183 309.57 875.204 311.803C872.203 314.036 870.698 317.167 870.688 321.196C870.678 325.118 872.167 328.213 875.156 330.483C878.124 332.732 882.258 333.895 887.558 333.973L891.016 333.982C896.424 333.996 900.682 332.876 903.791 330.621C906.878 328.345 908.426 325.214 908.437 321.228C908.447 317.221 907 314.114 904.097 311.909C901.173 309.704 896.985 308.562 891.534 308.483L888.043 308.475ZM871.261 261.342L871.223 276.468L913.173 276.575L913.157 282.748L871.207 282.64L871.168 297.734L866.062 297.72L866.155 261.329L871.261 261.342ZM924.868 215.134L924.853 221.307L913.315 221.277L913.228 255.051L924.798 255.08L924.782 261.286L908.138 261.275L908.148 257.429C905.869 255.398 902.814 253.785 898.981 252.59C895.128 251.374 890.907 250.609 886.318 250.295L866.186 249.209L866.258 221.059L908.241 221.167L908.257 215.026L924.868 215.134ZM908.166 250.351L908.225 227.405L871.349 227.31L871.308 243.243L885.139 243.958C890.546 244.252 895.155 244.985 898.966 246.158C902.776 247.31 905.843 248.708 908.166 250.351ZM885.507 201.103L885.537 189.404C885.614 184.491 886.885 180.659 889.348 177.908C891.811 175.156 895.154 173.786 899.378 173.796C903.622 173.807 907.001 175.206 909.515 177.992C912.029 180.778 913.323 184.573 913.396 189.378L913.35 207.38L866.294 207.259L866.31 201.054L885.507 201.103ZM890.614 201.116L908.292 201.161L908.321 189.817C908.329 186.736 907.516 184.343 905.883 182.636C904.25 180.908 902.055 180.041 899.297 180.034C896.647 180.027 894.555 180.851 893.021 182.506C891.487 184.14 890.694 186.476 890.643 189.514L890.614 201.116ZM913.467 161.939L913.451 168.144L866.394 168.024L866.41 161.818L913.467 161.939ZM884.515 134.393L866.51 123.068L866.528 115.764L889.825 130.69L913.586 115.529L913.567 122.897L895.18 134.421L913.507 146.103L913.489 153.439L889.806 138.124L866.433 152.963L866.452 145.691L884.515 134.393Z" fill="black"/>
<path d="M693.217 416.396C693.4 421.004 692.785 425.061 691.372 428.567C689.958 432.052 687.867 434.755 685.097 436.677C682.327 438.599 679.047 439.635 675.258 439.786C671.555 439.934 668.236 439.16 665.301 437.466C662.364 435.75 660.033 433.245 658.306 429.95C656.6 426.632 655.637 422.757 655.418 418.324L655.283 414.933C655.103 410.412 655.73 406.387 657.163 402.858C658.597 399.329 660.709 396.592 663.5 394.648C666.311 392.682 669.568 391.625 673.271 391.477C677.039 391.327 680.39 392.11 683.327 393.826C686.283 395.519 688.606 398.068 690.294 401.473C691.981 404.855 692.916 408.84 693.099 413.425L693.217 416.396ZM686.928 413.607C686.706 408.031 685.416 403.802 683.059 400.92C680.701 398.017 677.509 396.645 673.483 396.806C669.565 396.962 666.535 398.581 664.393 401.664C662.273 404.724 661.285 408.904 661.431 414.202L661.569 417.658C661.784 423.062 663.084 427.269 665.467 430.279C667.872 433.266 671.066 434.681 675.049 434.522C679.053 434.363 682.095 432.786 684.176 429.792C686.255 426.776 687.219 422.544 687.067 417.094L686.928 413.607ZM733.308 394.842L718.194 395.444L719.862 437.361L713.694 437.607L712.026 395.69L696.945 396.291L696.742 391.189L733.104 389.739L733.308 394.842ZM767.664 413.688L747.287 414.5L747.95 431.164L771.621 430.22L771.823 435.29L741.951 436.481L740.08 389.461L769.629 388.283L769.832 393.386L746.483 394.316L747.085 409.43L767.462 408.618L767.664 413.688ZM813.225 386.546L815.096 433.565L808.896 433.813L807.228 391.895L790.37 392.567L790.272 411.234C790.198 417.49 789.739 422.21 788.895 425.391C788.073 428.572 786.766 430.943 784.973 432.502C783.18 434.04 780.734 434.892 777.636 435.059L775.601 435.14L775.399 430.069L776.688 429.953C778.685 429.723 780.198 429.016 781.229 427.832C782.26 426.626 783.004 424.753 783.464 422.212C783.923 419.67 784.167 415.779 784.196 410.538L784.258 387.7L813.225 386.546ZM831.265 405.04L842.956 404.574C847.867 404.443 851.749 405.549 854.603 407.894C857.456 410.238 858.967 413.52 859.135 417.74C859.303 421.981 858.049 425.417 855.372 428.046C852.695 430.676 848.958 432.129 844.16 432.407L826.173 433.124L824.302 386.104L830.502 385.857L831.265 405.04ZM831.469 410.142L832.172 427.807L843.507 427.355C846.585 427.232 848.942 426.319 850.578 424.615C852.235 422.91 853.009 420.68 852.899 417.924C852.794 415.276 851.882 413.22 850.163 411.758C848.466 410.295 846.099 409.602 843.062 409.68L831.469 410.142Z" fill="black"/>
<path d="M743.656 24.9353L720.975 25.5086L721.33 39.5954L733.026 39.2997C737.939 39.2402 741.805 40.4033 744.623 42.7891C747.442 45.1749 748.905 48.4786 749.012 52.7004C749.119 56.9436 747.815 60.3604 745.1 62.9507C742.385 65.5411 738.626 66.94 733.825 67.1476L715.797 67.6034L714.611 20.5614L743.527 19.8305L743.656 24.9353ZM721.459 44.7002L721.905 62.3732L733.245 62.0865C736.325 62.0087 738.696 61.1297 740.356 59.4497C742.038 57.7692 742.844 55.5504 742.774 52.7934C742.708 50.144 741.826 48.0757 740.128 46.5883C738.453 45.1004 736.096 44.3733 733.058 44.407L721.459 44.7002ZM783.433 53.6083L763.725 54.1066L759.608 66.4959L753.211 66.6576L769.988 19.1616L775.416 19.0244L794.599 65.6113L788.234 65.7722L783.433 53.6083ZM765.47 48.9544L781.463 48.5501L772.895 26.7502L765.47 48.9544ZM806.67 46.8783L807.134 65.2945L800.931 65.4513L799.745 18.4094L817.095 17.9708C822.243 17.8406 826.304 19.0527 829.278 21.607C832.273 24.1608 833.826 27.6023 833.935 31.9317C834.05 36.4981 832.706 40.056 829.904 42.6054C827.123 45.1328 823.072 46.4637 817.752 46.5982L806.67 46.8783ZM806.542 41.8058L817.689 41.524C821.006 41.4402 823.528 40.6005 825.255 39.005C826.982 37.388 827.808 35.1041 827.733 32.1532C827.663 29.3531 826.723 27.1353 824.914 25.4999C823.106 23.8645 820.661 23.0534 817.579 23.0666L806.077 23.3574L806.542 41.8058ZM848.466 36.3815L860.162 36.0859C865.075 36.0263 868.94 37.1895 871.759 39.5753C874.578 41.9611 876.041 45.2648 876.147 49.4865C876.254 53.7298 874.95 57.1466 872.235 59.7369C869.52 62.3272 865.762 63.7262 860.961 63.9338L842.965 64.3887L841.779 17.3468L847.982 17.19L848.466 36.3815ZM848.595 41.4863L849.04 59.1594L860.381 58.8727C863.461 58.7948 865.831 57.9159 867.492 56.2359C869.173 54.5554 869.98 52.3366 869.91 49.5795C869.843 46.9302 868.961 44.8618 867.264 43.3745C865.589 41.8866 863.232 41.1594 860.194 41.1931L848.595 41.4863ZM888.391 63.2404L882.188 63.3972L881.002 16.3553L887.205 16.1985L888.391 63.2404Z" fill="black"/>
<path d="M597.611 289.201L681.505 154.779L760.093 267.403L597.611 289.201Z" fill="#9B00E4"/>
<ellipse cx="731.781" cy="203.738" rx="59.0101" ry="56.2532" transform="rotate(55.093 731.781 203.738)" fill="#A90029"/>
<path d="M656.515 192.01C649.959 191.352 635.709 184.641 638.088 195.54C641.062 209.165 687.363 286.753 701.941 287.047C713.603 287.283 713.396 278.519 714.102 274.537" stroke="black" stroke-width="3.10914"/>
<path d="M628.591 238.77C626.691 235.735 622.284 230.481 619.857 233.744C616.824 237.823 649.178 296.36 656.076 292.202C661.593 288.875 659.698 283.35 658.061 281.004" stroke="black" stroke-width="3.10914"/>
<path d="M555.841 358.548L435.962 321.543L506.262 238.587L555.841 358.548Z" fill="#9B00E4"/>
<ellipse cx="463.26" cy="273.148" rx="46.7231" ry="44.5402" transform="rotate(-49.7209 463.26 273.148)" fill="#A90029"/>
<path d="M469.52 333.135C470.343 338.287 468.091 350.553 475.953 346.525C485.779 341.491 535.797 290.341 533.071 279.123C530.891 270.149 524.224 272.081 521.033 272.347" stroke="black" stroke-width="3.10914"/>
<path d="M510.967 345.043C509.028 347.112 505.898 351.549 508.888 352.746C512.624 354.242 550.882 317.625 546.303 313.187C542.639 309.637 538.794 312.206 537.329 313.935" stroke="black" stroke-width="3.10914"/>
<ellipse cx="83.2465" cy="161.975" rx="45.2465" ry="43.9486" fill="#A90029"/>
<ellipse cx="56.5961" cy="161.969" rx="11.1567" ry="10.5229" fill="white"/>
<ellipse cx="90.061" cy="189.215" rx="11.1567" ry="10.5229" fill="white"/>
<ellipse cx="101.216" cy="152.071" rx="11.1567" ry="10.5229" fill="white"/>
<ellipse cx="312.259" cy="150.475" rx="28.2592" ry="27.4486" fill="#A90029"/>
<ellipse cx="295.614" cy="150.471" rx="6.96802" ry="6.57219" fill="white"/>
<ellipse cx="316.515" cy="167.488" rx="6.96802" ry="6.57219" fill="white"/>
<ellipse cx="323.482" cy="144.289" rx="6.96802" ry="6.57219" fill="white"/>
<ellipse cx="539.816" cy="135.475" rx="12.8162" ry="12.4486" fill="#A90029"/>
<ellipse cx="532.267" cy="135.473" rx="3.16016" ry="2.98064" fill="white"/>
<ellipse cx="541.746" cy="143.19" rx="3.16016" ry="2.98064" fill="white"/>
<ellipse cx="544.906" cy="132.67" rx="3.16016" ry="2.98064" fill="white"/>
</svg>
