<svg width="761" height="299" viewBox="0 0 761 299" fill="none" xmlns="http://www.w3.org/2000/svg">
<path d="M34.5416 27.3539L11.8577 27.7901L12.1293 41.8787L23.8267 41.6538C28.7396 41.624 32.5984 42.8105 35.4032 45.2132C38.2079 47.616 39.651 50.9286 39.7324 55.1508C39.8142 59.3946 38.4899 62.8035 35.7596 65.3773C33.0292 67.9512 29.2629 69.3274 24.4607 69.506L6.42987 69.8527L5.5228 22.8045L34.4432 22.2484L34.5416 27.3539ZM12.2278 46.9842L12.5685 64.6596L23.9105 64.4415C26.991 64.3822 29.3664 63.5177 31.0367 61.8477C32.7285 60.1774 33.5478 57.9635 33.4947 55.2061C33.4436 52.5564 32.5739 50.4828 30.8857 48.9852C29.219 47.4872 26.8665 46.7458 23.8282 46.7611L12.2278 46.9842ZM74.148 56.2669L54.4369 56.646L50.2467 69.0101L43.8487 69.1332L60.9078 21.7396L66.3364 21.6352L85.242 68.3372L78.8763 68.4596L74.148 56.2669ZM56.2126 51.5044L72.2077 51.1969L63.7698 29.3456L56.2126 51.5044ZM125.507 52.6287C125.022 57.6161 123.254 61.4968 120.204 64.2708C117.176 67.0228 113.098 68.4481 107.971 68.5467C102.413 68.6536 97.9152 66.7466 94.4778 62.826C91.0619 58.9049 89.2896 53.6053 89.1608 46.9272L89.0736 42.4033C88.9893 38.0303 89.6907 34.1701 91.1778 30.8228C92.6864 27.475 94.8562 24.8904 97.6873 23.0688C100.518 21.2257 103.818 20.268 107.588 20.1955C112.586 20.0994 116.62 21.4226 119.69 24.1651C122.759 26.886 124.589 30.7083 125.18 35.6319L118.943 35.7518C118.332 32.0139 117.106 29.3221 115.264 27.6766C113.444 26.0307 110.918 25.2388 107.686 25.301C103.723 25.3772 100.638 26.9019 98.4327 29.8751C96.2488 32.8479 95.2089 37.0379 95.3132 42.445L95.401 47.0012C95.4995 52.1067 96.6441 56.1469 98.8349 59.1218C101.026 62.0966 104.038 63.5472 107.873 63.4735C111.32 63.4072 113.944 62.581 115.745 60.9947C117.567 59.3865 118.743 56.6378 119.271 52.7486L125.507 52.6287ZM168.613 51.7998C168.128 56.7873 166.36 60.668 163.31 63.4419C160.282 66.1939 156.204 67.6192 151.077 67.7178C145.519 67.8247 141.021 65.9178 137.584 61.9971C134.168 58.076 132.396 52.7764 132.267 46.0983L132.18 41.5745C132.095 37.2014 132.797 33.3412 134.284 29.9939C135.792 26.6462 137.962 24.0615 140.793 22.24C143.624 20.3969 146.924 19.4391 150.694 19.3666C155.692 19.2705 159.726 20.5937 162.796 23.3362C165.865 26.0571 167.695 29.8794 168.286 34.8031L162.049 34.923C161.438 31.185 160.212 28.4933 158.37 26.8478C156.55 25.2018 154.024 24.41 150.792 24.4721C146.829 24.5483 143.744 26.073 141.539 29.0463C139.355 32.0191 138.315 36.209 138.419 41.6161L138.507 46.1723C138.605 51.2778 139.75 55.318 141.941 58.2929C144.132 61.2678 147.144 62.7184 150.979 62.6446C154.426 62.5784 157.05 61.7521 158.851 60.1658C160.673 58.5576 161.848 55.8089 162.377 51.9198L168.613 51.7998ZM203.574 44.307L183.184 44.699L183.506 61.3727L207.192 60.9172L207.289 65.9904L177.4 66.5652L176.492 19.517L206.059 18.9485L206.158 24.054L182.795 24.5032L183.087 39.6258L203.476 39.2338L203.574 44.307ZM243.769 18.2234L249.973 18.1041L250.88 65.1522L244.676 65.2715L243.977 29.016L221.507 65.717L215.271 65.8369L214.364 18.7888L220.6 18.6689L221.299 54.9244L243.769 18.2234ZM241.798 6.55955C241.849 9.16615 240.995 11.2837 239.238 12.9122C237.502 14.5188 235.19 15.3498 232.304 15.4053C229.417 15.4608 227.064 14.7087 225.246 13.1489C223.427 11.5892 222.493 9.51679 222.443 6.93173L227.322 6.83791C227.351 8.34586 227.783 9.52281 228.618 10.3688C229.453 11.1932 230.657 11.5902 232.229 11.56C233.737 11.531 234.903 11.0884 235.727 10.2321C236.573 9.37535 236.981 8.18225 236.951 6.65275L241.798 6.55955ZM298.348 64.2395L292.112 64.3594L291.693 42.6126L267.975 43.0686L268.394 64.8155L262.19 64.9348L261.283 17.8866L267.487 17.7673L267.877 37.9954L291.595 37.5394L291.205 17.3113L297.441 17.1914L298.348 64.2395ZM315.325 36.0487L327.022 35.8237C331.935 35.7939 335.794 36.9804 338.599 39.3832C341.404 41.786 342.847 45.0985 342.928 49.3208C343.01 53.5646 341.686 56.9734 338.955 59.5473C336.225 62.1212 332.459 63.4974 327.656 63.6759L309.658 64.022L308.751 16.9739L314.955 16.8546L315.325 36.0487ZM315.423 41.1542L315.764 58.8295L327.106 58.6114C330.187 58.5522 332.562 57.6876 334.232 56.0177C335.924 54.3474 336.744 52.1335 336.69 49.3761C336.639 46.7264 335.77 44.6527 334.081 43.1551C332.415 41.6571 330.062 40.9158 327.024 40.9311L315.423 41.1542ZM355.09 63.1484L348.886 63.2677L347.979 16.2196L354.183 16.1003L355.09 63.1484Z" fill="black"/>
<path d="M489.196 21.5024L466.508 21.5402L466.532 35.6314L478.231 35.6119C483.144 35.6684 486.981 36.9224 489.744 39.3741C492.506 41.8258 493.89 45.1631 493.898 49.3862C493.905 53.6308 492.521 57.0158 489.746 59.5414C486.971 62.0669 483.181 63.3767 478.376 63.4709L460.342 63.501L460.261 16.4442L489.187 16.396L489.196 21.5024ZM466.541 40.7378L466.571 58.4165L477.915 58.3976C480.996 58.3924 483.386 57.5697 485.086 55.9294C486.807 54.289 487.665 52.0898 487.66 49.3319C487.655 46.6818 486.822 44.5932 485.161 43.0661C483.52 41.5391 481.181 40.7565 478.143 40.7185L466.541 40.7378ZM528.288 51.1065L508.574 51.1393L504.167 63.428L497.768 63.4386L515.657 16.3519L521.086 16.3429L539.169 63.3697L532.802 63.3803L528.288 51.1065ZM510.439 46.0297L526.437 46.0031L518.384 24.0071L510.439 46.0297ZM581.669 63.2989L575.431 63.3093L575.394 41.5585L551.671 41.598L551.709 63.3488L545.503 63.3592L545.423 16.3024L551.628 16.292L551.663 36.5239L575.385 36.4844L575.35 16.2525L581.588 16.2422L581.669 63.2989ZM619.235 50.9551L599.52 50.9879L595.113 63.2766L588.714 63.2872L606.603 16.2005L612.032 16.1915L630.115 63.2183L623.748 63.2289L619.235 50.9551ZM601.386 45.8783L617.384 45.8517L609.331 23.8556L601.386 45.8783ZM672.615 63.1475L666.377 63.1579L666.34 41.4071L642.618 41.4466L642.655 63.1974L636.45 63.2077L636.369 16.1509L642.574 16.1406L642.609 36.3724L666.331 36.3329L666.296 16.1011L672.534 16.0907L672.615 63.1475ZM690.084 35.2592L701.784 35.2397C706.696 35.2962 710.534 36.5502 713.296 39.0019C716.058 41.4536 717.443 44.7909 717.45 49.014C717.457 53.2586 716.073 56.6436 713.298 59.1691C710.523 61.6947 706.733 63.0045 701.928 63.0987L683.927 63.1287L683.846 16.0719L690.051 16.0616L690.084 35.2592ZM690.093 40.3656L690.123 58.0442L701.467 58.0254C704.548 58.0202 706.939 57.1975 708.638 55.5571C710.359 53.9168 711.217 51.7176 711.212 48.9597C711.208 46.3095 710.374 44.2209 708.713 42.6939C707.073 41.1669 704.733 40.3843 701.695 40.3463L690.093 40.3656ZM729.367 63.053L723.162 63.0634L723.081 16.0066L729.287 15.9962L729.367 63.053Z" fill="black"/>
<path d="M292.216 148.411C293.051 152.946 293.018 157.049 292.117 160.72C291.213 164.37 289.526 167.343 287.056 169.638C284.587 171.934 281.488 173.425 277.759 174.112C274.114 174.783 270.719 174.489 267.573 173.228C264.423 171.946 261.759 169.797 259.582 166.78C257.422 163.738 255.919 160.039 255.073 155.682L254.458 152.344C253.638 147.895 253.687 143.821 254.605 140.125C255.524 136.428 257.226 133.42 259.712 131.1C262.216 128.754 265.29 127.246 268.935 126.574C272.643 125.891 276.072 126.19 279.222 127.472C282.389 128.729 285.05 130.923 287.204 134.053C289.355 137.162 290.846 140.974 291.677 145.487L292.216 148.411ZM285.595 146.542C284.583 141.054 282.707 137.051 279.964 134.533C277.218 131.993 273.863 131.089 269.901 131.819C266.045 132.529 263.275 134.562 261.593 137.917C259.928 141.248 259.544 145.525 260.441 150.749L261.067 154.15C262.047 159.469 263.931 163.449 266.718 166.09C269.522 168.706 272.884 169.653 276.804 168.931C280.746 168.205 283.533 166.213 285.168 162.954C286.798 159.674 287.151 155.347 286.227 149.975L285.595 146.542ZM328.842 121.387L313.967 124.127L321.568 165.383L315.497 166.502L307.896 125.246L293.053 127.981L292.127 122.959L327.917 116.365L328.842 121.387ZM384.112 165.593L378.041 166.711L375.951 155.364L342.736 161.483L344.832 172.862L338.73 173.987L335.682 157.623L339.465 156.927C341.043 154.314 342.067 151.014 342.537 147.027C343.025 143.016 343.002 138.726 342.467 134.158L339.836 114.169L367.52 109.068L375.127 150.356L381.166 149.244L384.112 165.593ZM346.425 155.644L368.992 151.486L362.311 115.221L346.641 118.108L348.48 131.834C349.184 137.204 349.31 141.869 348.857 145.83C348.425 149.788 347.614 153.059 346.425 155.644ZM390.673 124.324L402.179 122.204C407.022 121.377 411.022 121.922 414.179 123.838C417.336 125.754 419.298 128.788 420.063 132.941C420.832 137.116 420.078 140.694 417.801 143.677C415.525 146.66 412.031 148.629 407.322 149.584L389.618 152.846L381.092 106.568L387.194 105.444L390.673 124.324ZM391.598 129.345L394.801 146.732L405.957 144.676C408.988 144.118 411.191 142.879 412.568 140.96C413.967 139.038 414.416 136.72 413.917 134.008C413.436 131.402 412.242 129.497 410.333 128.293C408.446 127.085 406.004 126.735 403.009 127.243L391.598 129.345ZM434.307 144.613L428.204 145.737L419.678 99.459L425.78 98.3346L434.307 144.613ZM456.065 111.093L463.89 91.3134L471.073 89.99L460.68 115.632L479.949 136.204L472.702 137.539L457.997 121.582L449.881 141.743L442.666 143.073L453.37 116.979L434.489 96.7301L441.641 95.4125L456.065 111.093Z" fill="black"/>
</svg>
