<svg width="996" height="568" viewBox="0 0 996 568" fill="none" xmlns="http://www.w3.org/2000/svg">
<path d="M41.771 409.548C41.7839 414.159 41.0195 418.191 39.4778 421.642C37.936 425.073 35.7456 427.697 32.9066 429.515C30.0675 431.333 26.752 432.247 22.9599 432.258C19.2539 432.268 15.9656 431.373 13.0949 429.571C10.2242 427.748 7.98693 425.158 6.38314 421.801C4.80083 418.423 3.98194 414.515 3.92645 410.076L3.91698 406.683C3.90435 402.158 4.67963 398.159 6.24281 394.686C7.80599 391.212 10.0178 388.556 12.8784 386.716C15.7604 384.855 19.0543 383.919 22.7603 383.909C26.5308 383.898 29.8515 384.804 32.7222 386.627C35.6145 388.429 37.8411 391.062 39.4021 394.527C40.963 397.97 41.7499 401.986 41.7627 406.575L41.771 409.548ZM35.5896 406.528C35.574 400.947 34.4417 396.674 32.1926 393.707C29.9434 390.718 26.8043 389.23 22.7752 389.241C18.8538 389.252 15.7661 390.759 13.5121 393.76C11.2796 396.74 10.1384 400.88 10.0886 406.181L10.0982 409.639C10.1133 415.047 11.2564 419.299 13.5274 422.395C15.8199 425.47 18.9591 427.001 22.9452 426.99C26.9527 426.978 30.0513 425.515 32.2409 422.6C34.4304 419.664 35.5499 415.47 35.5993 410.018L35.5896 406.528ZM82.6314 389.491L67.506 389.534L67.6231 431.484L61.4502 431.502L61.3331 389.551L46.24 389.594L46.2258 384.488L82.6171 384.384L82.6314 389.491ZM116.267 409.594L95.874 409.653L95.9205 426.329L119.61 426.262L119.625 431.336L89.7294 431.421L89.5981 384.364L119.17 384.28L119.184 389.386L95.8176 389.453L95.8598 404.578L116.253 404.52L116.267 409.594ZM162.801 384.155L162.932 431.212L156.727 431.23L156.61 389.28L139.739 389.328L138.951 407.978C138.645 414.228 138.012 418.926 137.051 422.075C136.112 425.223 134.718 427.544 132.869 429.036C131.02 430.506 128.545 431.267 125.442 431.319L123.406 431.325L123.392 426.251L124.684 426.182C126.688 426.026 128.226 425.375 129.301 424.23C130.375 423.064 131.188 421.219 131.741 418.697C132.295 416.174 132.682 412.295 132.905 407.058L133.811 384.238L162.801 384.155ZM180.145 403.304L191.845 403.27C196.757 403.321 200.596 404.57 203.361 407.019C206.126 409.467 207.514 412.803 207.526 417.026C207.538 421.271 206.157 424.657 203.385 427.186C200.613 429.715 196.824 431.029 192.02 431.129L174.018 431.181L173.886 384.124L180.092 384.106L180.145 403.304ZM180.16 408.41L180.209 426.089L191.553 426.056C194.634 426.048 197.023 425.222 198.721 423.58C200.44 421.937 201.296 419.737 201.288 416.979C201.281 414.329 200.445 412.241 198.782 410.716C197.14 409.191 194.8 408.411 191.762 408.377L180.16 408.41Z" fill="black"/>
<path d="M294.542 391.38L271.858 391.816L272.129 405.905L283.827 405.68C288.74 405.65 292.598 406.837 295.403 409.24C298.208 411.642 299.651 414.955 299.732 419.177C299.814 423.421 298.49 426.83 295.76 429.404C293.029 431.978 289.263 433.354 284.461 433.532L266.43 433.879L265.523 386.831L294.443 386.275L294.542 391.38ZM272.228 411.011L272.569 428.686L283.911 428.468C286.991 428.409 289.366 427.544 291.037 425.874C292.729 424.204 293.548 421.99 293.495 419.232C293.444 416.583 292.574 414.509 290.886 413.012C289.219 411.514 286.867 410.772 283.828 410.788L272.228 411.011ZM334.148 420.293L314.437 420.672L310.247 433.036L303.849 433.16L320.908 385.766L326.336 385.662L345.242 432.364L338.876 432.486L334.148 420.293ZM316.213 415.531L332.208 415.223L323.77 393.372L316.213 415.531ZM387.734 431.547L381.498 431.666L381.078 409.92L357.36 410.376L357.78 432.123L351.575 432.242L350.668 385.194L356.873 385.074L357.262 405.302L380.98 404.846L380.59 384.618L386.827 384.498L387.734 431.547ZM425.078 418.545L405.367 418.924L401.176 431.288L394.778 431.411L411.837 384.017L417.266 383.913L436.172 430.615L429.806 430.738L425.078 418.545ZM407.142 413.782L423.137 413.475L414.699 391.624L407.142 413.782ZM478.664 429.798L472.427 429.918L472.008 408.171L448.29 408.627L448.709 430.374L442.505 430.493L441.598 383.445L447.802 383.326L448.192 403.554L471.91 403.098L471.52 382.87L477.757 382.75L478.664 429.798ZM495.64 401.607L507.338 401.382C512.251 401.353 516.11 402.539 518.914 404.942C521.719 407.345 523.162 410.657 523.244 414.879C523.325 419.123 522.001 422.532 519.271 425.106C516.54 427.68 512.774 429.056 507.972 429.235L489.973 429.581L489.066 382.532L495.27 382.413L495.64 401.607ZM495.739 406.713L496.08 424.388L507.422 424.17C510.502 424.111 512.878 423.246 514.548 421.576C516.24 419.906 517.059 417.692 517.006 414.935C516.955 412.285 516.085 410.211 514.397 408.714C512.73 407.216 510.378 406.474 507.339 406.49L495.739 406.713ZM535.406 428.707L529.202 428.826L528.295 381.778L534.499 381.659L535.406 428.707Z" fill="black"/>
<path d="M45.9274 70.9475L39.69 71.0006L39.3328 29.0517L16.1284 29.2493L16.4856 71.1982L10.2806 71.251L9.87986 24.1959L45.5267 23.8923L45.9274 70.9475ZM83.1179 58.349L63.4039 58.5169L59.0809 70.8355L52.6819 70.89L70.2501 23.6818L75.6795 23.6355L94.0814 70.5374L87.7147 70.5916L83.1179 58.349ZM65.2349 53.3947L81.2323 53.2584L73.03 31.3181L65.2349 53.3947ZM136.179 23.1204L136.58 70.1755L130.375 70.2284L130.017 28.2795L113.147 28.4231L112.466 47.0778C112.196 53.3287 111.59 58.0312 110.647 61.185C109.726 64.3387 108.345 66.6668 106.505 68.1692C104.664 69.6501 102.193 70.4253 99.0907 70.4948L97.0547 70.5121L97.0115 65.4382L98.3036 65.3625C100.306 65.1946 101.841 64.5352 102.909 63.3841C103.976 62.2115 104.779 60.3624 105.318 57.8368C105.856 55.3112 106.222 51.4296 106.414 46.1921L107.19 23.3672L136.179 23.1204ZM153.633 42.1701L165.332 42.0705C170.245 42.0933 174.091 43.321 176.869 45.7537C179.648 48.1864 181.055 51.5142 181.091 55.7371C181.127 59.9816 179.767 63.376 177.009 65.9205C174.251 68.465 170.47 69.8008 165.666 69.9279L147.665 70.0811L147.264 23.026L153.469 22.9731L153.633 42.1701ZM153.676 47.2764L153.827 64.9544L165.17 64.8578C168.251 64.8315 170.636 63.9924 172.324 62.3405C174.034 60.6884 174.877 58.4834 174.853 55.7256C174.831 53.0755 173.984 50.9927 172.311 49.4771C170.661 47.9613 168.317 47.1948 165.278 47.1776L153.676 47.2764ZM197.034 22.6022L212.744 60.8651L227.801 22.3402L235.848 22.2717L236.249 69.3268L230.044 69.3797L229.888 51.0553L230.301 31.2717L215.177 69.5063L210.427 69.5467L194.687 31.6719L195.469 51.3484L195.625 69.6727L189.42 69.7256L189.019 22.6704L197.034 22.6022ZM253.463 41.32L265.162 41.2204C270.075 41.2432 273.921 42.4709 276.7 44.9036C279.479 47.3363 280.886 50.6641 280.922 54.887C280.958 59.1315 279.597 62.5259 276.839 65.0704C274.081 67.6149 270.301 68.9507 265.497 69.0778L247.495 69.2311L247.095 22.1759L253.3 22.1231L253.463 41.32ZM253.507 46.4263L253.657 64.1043L265.001 64.0077C268.082 63.9814 270.467 63.1424 272.155 61.4904C273.864 59.8383 274.707 57.6333 274.684 54.8755C274.661 52.2254 273.814 50.1426 272.142 48.627C270.492 47.1112 268.147 46.3447 265.109 46.3275L253.507 46.4263ZM292.935 68.8441L286.73 68.897L286.329 21.8418L292.534 21.789L292.935 68.8441ZM356.828 68.3001L350.59 68.3532L350.233 26.4043L327.029 26.6019L327.386 68.5508L321.181 68.6036L320.78 21.5484L356.427 21.2449L356.828 68.3001ZM394.018 55.7016L374.304 55.8695L369.981 68.1881L363.582 68.2425L381.15 21.0344L386.58 20.9881L404.982 67.89L398.615 67.9442L394.018 55.7016ZM376.135 50.7472L392.133 50.611L383.93 28.6706L376.135 50.7472ZM447.079 20.473L447.48 67.5281L441.275 67.581L440.918 25.6321L424.048 25.7757L423.366 44.4304C423.096 50.6813 422.49 55.3837 421.547 58.5376C420.626 61.6913 419.245 64.0194 417.405 65.5218C415.564 67.0027 413.093 67.7778 409.991 67.8474L407.955 67.8647L407.912 62.7908L409.204 62.7151C411.206 62.5472 412.741 61.8877 413.809 60.7367C414.876 59.564 415.679 57.7149 416.218 55.1894C416.757 52.6638 417.122 48.7822 417.315 43.5447L418.09 20.7198L447.079 20.473ZM464.533 39.5227L476.232 39.4231C481.145 39.4459 484.991 40.6736 487.769 43.1063C490.548 45.539 491.956 48.8668 491.991 53.0897C492.028 57.3341 490.667 60.7286 487.909 63.2731C485.151 65.8176 481.37 67.1534 476.566 67.2804L458.565 67.4337L458.164 20.3786L464.369 20.3257L464.533 39.5227ZM464.576 44.6289L464.727 62.307L476.071 62.2104C479.152 62.1841 481.536 61.345 483.224 59.6931C484.934 58.041 485.777 55.836 485.754 53.0782C485.731 50.4281 484.884 48.3453 483.212 46.8297C481.561 45.3139 479.217 44.5474 476.179 44.5302L464.576 44.6289ZM507.934 19.9548L523.645 58.2177L538.701 19.6928L546.748 19.6243L547.149 66.6794L540.944 66.7323L540.788 48.4079L541.201 28.6243L526.078 66.8588L521.327 66.8993L505.587 29.0245L506.369 48.701L506.525 67.0253L500.32 67.0782L499.919 20.023L507.934 19.9548ZM564.363 38.6726L576.063 38.573C580.976 38.5958 584.821 39.8235 587.6 42.2562C590.379 44.6889 591.786 48.0167 591.822 52.2396C591.858 56.4841 590.497 59.8785 587.739 62.423C584.982 64.9675 581.201 66.3033 576.397 66.4304L558.396 66.5836L557.995 19.5285L564.2 19.4756L564.363 38.6726ZM564.407 43.7789L564.558 61.4569L575.901 61.3603C578.982 61.334 581.367 60.4949 583.055 58.843C584.765 57.1909 585.608 54.9859 585.584 52.2281C585.562 49.578 584.714 47.4952 583.042 45.9796C581.392 44.4638 579.047 43.6973 576.009 43.6801L564.407 43.7789ZM603.835 66.1967L597.63 66.2496L597.229 19.1944L603.434 19.1416L603.835 66.1967Z" fill="black"/>
<path d="M850.097 302.309C854.708 302.321 858.735 303.107 862.179 304.667C865.601 306.227 868.213 308.432 870.015 311.281C871.818 314.129 872.714 317.45 872.705 321.242C872.695 324.948 871.782 328.231 869.965 331.092C868.126 333.953 865.524 336.177 862.158 337.762C858.772 339.327 854.859 340.124 850.42 340.156L847.027 340.148C842.502 340.136 838.507 339.339 835.042 337.757C831.578 336.176 828.933 333.95 827.109 331.079C825.264 328.187 824.345 324.888 824.355 321.183C824.365 317.412 825.289 314.096 827.128 311.235C828.945 308.353 831.59 306.14 835.063 304.598C838.514 303.055 842.535 302.29 847.124 302.302L850.097 302.309ZM847.043 308.475C841.463 308.46 837.183 309.57 834.204 311.803C831.203 314.036 829.698 317.167 829.688 321.196C829.678 325.118 831.167 328.213 834.156 330.483C837.124 332.732 841.258 333.895 846.558 333.973L850.016 333.982C855.424 333.996 859.682 332.876 862.791 330.621C865.878 328.345 867.426 325.214 867.437 321.228C867.447 317.221 866 314.114 863.097 311.909C860.173 309.704 855.985 308.562 850.534 308.483L847.043 308.475ZM830.261 261.342L830.223 276.468L872.173 276.575L872.157 282.748L830.207 282.64L830.168 297.734L825.062 297.72L825.155 261.329L830.261 261.342ZM883.868 215.134L883.853 221.307L872.315 221.277L872.228 255.051L883.798 255.08L883.782 261.286L867.138 261.275L867.148 257.429C864.869 255.398 861.814 253.785 857.981 252.59C854.128 251.374 849.907 250.609 845.318 250.295L825.186 249.209L825.258 221.059L867.241 221.167L867.257 215.026L883.868 215.134ZM867.166 250.351L867.225 227.405L830.349 227.31L830.308 243.243L844.139 243.958C849.546 244.252 854.155 244.985 857.966 246.158C861.776 247.31 864.843 248.708 867.166 250.351ZM844.507 201.103L844.537 189.404C844.614 184.491 845.885 180.659 848.348 177.908C850.811 175.156 854.154 173.786 858.378 173.796C862.622 173.807 866.001 175.206 868.515 177.992C871.029 180.778 872.323 184.573 872.396 189.378L872.35 207.38L825.294 207.259L825.31 201.054L844.507 201.103ZM849.614 201.116L867.292 201.161L867.321 189.817C867.329 186.736 866.516 184.343 864.883 182.636C863.25 180.908 861.055 180.041 858.297 180.034C855.647 180.027 853.555 180.851 852.021 182.506C850.487 184.14 849.694 186.476 849.643 189.514L849.614 201.116ZM872.467 161.939L872.451 168.144L825.394 168.024L825.41 161.818L872.467 161.939ZM843.515 134.393L825.51 123.068L825.528 115.764L848.825 130.69L872.586 115.529L872.567 122.897L854.18 134.421L872.507 146.103L872.489 153.439L848.806 138.124L825.433 152.963L825.452 145.691L843.515 134.393Z" fill="black"/>
<path d="M652.217 416.396C652.4 421.004 651.785 425.061 650.372 428.567C648.958 432.052 646.867 434.755 644.097 436.677C641.327 438.599 638.047 439.635 634.258 439.786C630.555 439.934 627.236 439.16 624.301 437.466C621.364 435.75 619.033 433.245 617.306 429.95C615.6 426.632 614.637 422.757 614.418 418.324L614.283 414.933C614.103 410.412 614.73 406.387 616.163 402.858C617.597 399.329 619.709 396.592 622.5 394.648C625.311 392.682 628.568 391.625 632.271 391.477C636.039 391.327 639.39 392.11 642.327 393.826C645.283 395.519 647.606 398.068 649.294 401.473C650.981 404.855 651.916 408.84 652.099 413.425L652.217 416.396ZM645.928 413.607C645.706 408.031 644.416 403.802 642.059 400.92C639.701 398.017 636.509 396.645 632.483 396.806C628.565 396.962 625.535 398.581 623.393 401.664C621.273 404.724 620.285 408.904 620.431 414.202L620.569 417.658C620.784 423.062 622.084 427.269 624.467 430.279C626.872 433.266 630.066 434.681 634.049 434.522C638.053 434.363 641.095 432.786 643.176 429.792C645.255 426.776 646.219 422.544 646.067 417.094L645.928 413.607ZM692.308 394.842L677.194 395.444L678.862 437.361L672.694 437.607L671.026 395.69L655.945 396.291L655.742 391.189L692.104 389.739L692.308 394.842ZM726.664 413.688L706.287 414.5L706.95 431.164L730.621 430.22L730.823 435.29L700.951 436.481L699.08 389.461L728.629 388.283L728.832 393.386L705.483 394.316L706.085 409.43L726.462 408.618L726.664 413.688ZM772.225 386.546L774.096 433.565L767.896 433.813L766.228 391.895L749.37 392.567L749.272 411.234C749.198 417.49 748.739 422.21 747.895 425.391C747.073 428.572 745.766 430.943 743.973 432.502C742.18 434.04 739.734 434.892 736.636 435.059L734.601 435.14L734.399 430.069L735.688 429.953C737.685 429.723 739.198 429.016 740.229 427.832C741.26 426.626 742.004 424.753 742.464 422.212C742.923 419.67 743.167 415.779 743.196 410.538L743.258 387.7L772.225 386.546ZM790.265 405.04L801.956 404.574C806.867 404.443 810.749 405.549 813.603 407.894C816.456 410.238 817.967 413.52 818.135 417.74C818.303 421.981 817.049 425.417 814.372 428.046C811.695 430.676 807.958 432.129 803.16 432.407L785.173 433.124L783.302 386.104L789.502 385.857L790.265 405.04ZM790.469 410.142L791.172 427.807L802.507 427.355C805.585 427.232 807.942 426.319 809.578 424.615C811.235 422.91 812.009 420.68 811.899 417.924C811.794 415.276 810.882 413.22 809.163 411.758C807.466 410.295 805.099 409.602 802.062 409.68L790.469 410.142Z" fill="black"/>
<path d="M702.656 24.9353L679.975 25.5086L680.33 39.5954L692.026 39.2997C696.939 39.2402 700.805 40.4033 703.623 42.7891C706.442 45.1749 707.905 48.4786 708.012 52.7004C708.119 56.9436 706.815 60.3604 704.1 62.9507C701.385 65.5411 697.626 66.94 692.825 67.1476L674.797 67.6034L673.611 20.5614L702.527 19.8305L702.656 24.9353ZM680.459 44.7002L680.905 62.3732L692.245 62.0865C695.325 62.0087 697.696 61.1297 699.356 59.4497C701.038 57.7692 701.844 55.5504 701.774 52.7934C701.708 50.144 700.826 48.0757 699.128 46.5883C697.453 45.1004 695.096 44.3733 692.058 44.407L680.459 44.7002ZM742.433 53.6083L722.725 54.1066L718.608 66.4959L712.211 66.6576L728.988 19.1616L734.416 19.0244L753.599 65.6113L747.234 65.7722L742.433 53.6083ZM724.47 48.9544L740.463 48.5501L731.895 26.7502L724.47 48.9544ZM765.67 46.8783L766.134 65.2945L759.931 65.4513L758.745 18.4094L776.095 17.9708C781.243 17.8406 785.304 19.0527 788.278 21.607C791.273 24.1608 792.826 27.6023 792.935 31.9317C793.05 36.4981 791.706 40.056 788.904 42.6054C786.123 45.1328 782.072 46.4637 776.752 46.5982L765.67 46.8783ZM765.542 41.8058L776.689 41.524C780.006 41.4402 782.528 40.6005 784.255 39.005C785.982 37.388 786.808 35.1041 786.733 32.1532C786.663 29.3531 785.723 27.1353 783.914 25.4999C782.106 23.8645 779.661 23.0534 776.579 23.0666L765.077 23.3574L765.542 41.8058ZM807.466 36.3815L819.162 36.0859C824.075 36.0263 827.94 37.1895 830.759 39.5753C833.578 41.9611 835.041 45.2648 835.147 49.4865C835.254 53.7298 833.95 57.1466 831.235 59.7369C828.52 62.3272 824.762 63.7262 819.961 63.9338L801.965 64.3887L800.779 17.3468L806.982 17.19L807.466 36.3815ZM807.595 41.4863L808.04 59.1594L819.381 58.8727C822.461 58.7948 824.831 57.9159 826.492 56.2359C828.173 54.5554 828.98 52.3366 828.91 49.5795C828.843 46.9302 827.961 44.8618 826.264 43.3745C824.589 41.8866 822.232 41.1594 819.194 41.1931L807.595 41.4863ZM847.391 63.2404L841.188 63.3972L840.002 16.3553L846.205 16.1985L847.391 63.2404Z" fill="black"/>
</svg>
