<svg width="868" height="898" viewBox="0 0 868 898" fill="none" xmlns="http://www.w3.org/2000/svg">
<path d="M706.798 201.518L668.054 234.572L687.569 282.323L644.109 255.001L605.365 288.055L617.25 238.115L573.79 210.792L624.594 207.25L636.478 157.31L655.993 205.061L706.798 201.518Z" fill="#046E9C"/>
<path d="M840.455 65.7233L801.711 98.7773L821.226 146.528L777.766 119.206L739.023 152.26L750.907 102.32L707.447 74.9976L758.252 71.4551L770.136 21.515L789.651 69.2658L840.455 65.7233Z" fill="#046E9C"/>
<path d="M491.455 654.223L452.711 687.277L472.226 735.028L428.766 707.706L390.023 740.76L401.907 690.82L358.447 663.498L409.252 659.955L421.136 610.015L440.651 657.766L491.455 654.223Z" fill="#046E9C"/>
<path d="M512.673 155.35L489.476 175.14L501.16 203.729L475.14 187.371L451.943 207.161L459.058 177.261L433.038 160.902L463.456 158.782L470.571 128.881L482.255 157.471L512.673 155.35Z" fill="#046E9C"/>
<path d="M748.099 479.75L720.834 503.01L734.567 536.613L703.984 517.386L676.72 540.646L685.083 505.503L654.5 486.276L690.251 483.783L698.614 448.64L712.347 482.243L748.099 479.75Z" fill="#FFED5C"/>
<path d="M719.099 622.75L691.834 646.01L705.567 679.613L674.984 660.386L647.72 683.646L656.083 648.503L625.5 629.276L661.251 626.783L669.614 591.64L683.347 625.243L719.099 622.75Z" fill="#FFED5C"/>
<path d="M809.612 718.947L777.516 746.33L793.682 785.888L757.679 763.254L725.583 790.637L735.428 749.265L699.424 726.63L741.512 723.696L751.357 682.324L767.524 721.882L809.612 718.947Z" fill="#FFED5C"/>
<path d="M110.099 279.25L82.8344 302.51L96.5671 336.113L65.9842 316.886L38.72 340.146L47.0829 305.003L16.5 285.776L52.2515 283.283L60.6144 248.14L74.3471 281.743L110.099 279.25Z" fill="#FFED5C"/>
<path d="M140.739 171.399L106.652 182.465L106.492 218.766L85.5856 189.305L51.4988 200.372L72.6649 171.098L51.7587 141.637L85.7463 153.005L106.912 123.731L106.752 160.031L140.739 171.399Z" fill="#FFED5C"/>
<path d="M762.739 340.399L728.652 351.465L728.492 387.766L707.586 358.305L673.499 369.372L694.665 340.098L673.759 310.637L707.746 322.005L728.912 292.731L728.752 329.031L762.739 340.399Z" fill="#FFED5C"/>
<path d="M681.804 211.734L657.717 232.249L669.811 261.841L642.831 244.929L618.744 265.444L626.156 234.476L599.176 217.563L630.737 215.337L638.15 184.368L650.243 213.96L681.804 211.734Z" fill="#FFF859"/>
<path d="M815.462 75.9389L791.375 96.4544L803.468 126.046L776.488 109.134L752.402 129.649L759.814 98.681L732.834 81.7683L764.395 79.5417L771.807 48.5735L783.901 78.1655L815.462 75.9389Z" fill="#FFF859"/>
<path d="M466.462 664.439L442.375 684.954L454.468 714.546L427.488 697.634L403.402 718.149L410.814 687.181L383.834 670.268L415.395 668.042L422.807 637.074L434.901 666.666L466.462 664.439Z" fill="#FFF859"/>
<path d="M497.709 161.466L483.287 173.749L490.528 191.466L474.375 181.34L459.954 193.623L464.391 175.082L448.238 164.956L467.134 163.623L471.572 145.082L478.812 162.799L497.709 161.466Z" fill="#FFF859"/>
<path d="M730.51 486.939L713.56 501.376L722.071 522.2L703.085 510.299L686.135 524.736L691.351 502.943L672.365 491.041L694.574 489.475L699.79 467.682L708.301 488.506L730.51 486.939Z" fill="#008DCB"/>
<path d="M701.51 629.939L684.56 644.376L693.071 665.2L674.085 653.299L657.135 667.736L662.351 645.943L643.365 634.041L665.574 632.475L670.79 610.682L679.301 631.506L701.51 629.939Z" fill="#008DCB"/>
<path d="M788.907 727.41L768.952 744.406L778.971 768.92L756.62 754.909L736.666 771.905L742.806 746.25L720.455 732.239L746.601 730.394L752.742 704.74L762.76 729.254L788.907 727.41Z" fill="#008DCB"/>
<path d="M92.5104 286.439L75.5604 300.876L84.0708 321.7L65.0848 309.799L48.1347 324.236L53.3507 302.443L34.3646 290.541L56.5743 288.975L61.7903 267.182L70.3007 288.006L92.5104 286.439Z" fill="#008DCB"/>
<path d="M121.739 171.317L100.556 178.175L100.457 200.671L87.4647 182.413L66.2823 189.271L79.4353 171.13L66.4434 152.872L87.5643 159.917L100.717 141.776L100.618 164.272L121.739 171.317Z" fill="#008DCB"/>
<path d="M743.739 340.317L722.556 347.175L722.457 369.671L709.465 351.413L688.282 358.271L701.435 340.13L688.443 321.872L709.564 328.917L722.717 310.776L722.618 333.272L743.739 340.317Z" fill="#008DCB"/>
<path d="M590.455 778.723L551.711 811.777L571.226 859.528L527.766 832.206L489.023 865.26L500.907 815.32L457.447 787.998L508.252 784.455L520.136 734.515L539.651 782.266L590.455 778.723Z" fill="#046E9C"/>
<path d="M565.462 788.939L541.375 809.454L553.468 839.046L526.488 822.134L502.402 842.649L509.814 811.681L482.834 794.768L514.395 792.542L521.807 761.574L533.901 791.166L565.462 788.939Z" fill="#FFF859"/>
</svg>
