<svg width="461" height="463" viewBox="0 0 461 463" fill="none" xmlns="http://www.w3.org/2000/svg">
<path d="M0.5 315.5H294.5V-6.5" stroke="black" stroke-width="25.86"/>
<path d="M460.72 94.232L417.444 108.428V154.369L390.697 117.202L347.42 131.399L374.167 94.232L347.42 57.0652L390.697 71.2616L417.444 34.0948V80.0355L460.72 94.232Z" fill="#9B00E4"/>
<path d="M436.91 94.2342L410.085 103.078V131.697L393.507 108.544L366.682 117.387L383.261 94.2342L366.682 71.0811L393.507 79.9248L410.085 56.7717V85.3905L436.91 94.2342Z" fill="#FFF859"/>
<path d="M460.72 243.503L417.444 257.7V303.641L390.697 266.474L347.42 280.67L374.167 243.503L347.42 206.337L390.697 220.533L417.444 183.366V229.307L460.72 243.503Z" fill="#7900B1"/>
<path d="M460.72 391.728L417.444 405.925V451.865L390.697 414.698L347.42 428.895L374.167 391.728L347.42 354.561L390.697 368.758L417.444 331.591V377.532L460.72 391.728Z" fill="#7900B1"/>
<path d="M314.757 398.986L271.481 413.182V459.123L244.734 421.956L201.457 436.153L228.204 398.986L201.457 361.819L244.734 376.016L271.481 338.849V384.789L314.757 398.986Z" fill="#7900B1"/>
<path d="M153.261 398.986L109.985 413.182L109.985 459.123L83.2381 421.956L39.9614 436.153L66.7079 398.986L39.9614 361.819L83.2381 376.016L109.985 338.849V384.789L153.261 398.986Z" fill="#7900B1"/>
<path d="M436.91 243.494L410.085 252.338V280.956L393.507 257.803L366.682 266.647L383.261 243.494L366.682 220.341L393.507 229.185L410.085 206.031V234.65L436.91 243.494Z" fill="#FFF859"/>
<path d="M437.949 391.73L411.124 400.574V429.193L394.546 406.04L367.722 414.883L384.3 391.73L367.722 368.577L394.546 377.421L411.124 354.268V382.887L437.949 391.73Z" fill="#FFF859"/>
<path d="M290.953 398.992L264.128 407.836V436.454L247.55 413.301L220.725 422.145L237.304 398.992L220.725 375.839L247.55 384.683L264.128 361.529V390.148L290.953 398.992Z" fill="#FFF859"/>
<path d="M129.457 398.992L102.632 407.836L102.632 436.454L86.0538 413.301L59.2294 422.145L75.8078 398.992L59.2294 375.839L86.0538 384.683L102.632 361.529V390.148L129.457 398.992Z" fill="#FFF859"/>
</svg>
