<svg width="433" height="432" viewBox="0 0 433 432" fill="none" xmlns="http://www.w3.org/2000/svg">
<path d="M432.72 63.232L389.444 77.4284V123.369L362.697 86.2023L319.42 100.399L346.167 63.232L319.42 26.0652L362.697 40.2616L389.444 3.0948V49.0355L432.72 63.232Z" fill="#9B00E4"/>
<path d="M408.91 63.2342L382.085 72.0779V100.697L365.507 77.5436L338.682 86.3873L355.261 63.2342L338.682 40.0811L365.507 48.9248L382.085 25.7717V54.3905L408.91 63.2342Z" fill="#FFF859"/>
<path d="M432.72 212.503L389.444 226.7V272.641L362.697 235.474L319.42 249.67L346.167 212.503L319.42 175.337L362.697 189.533L389.444 152.366V198.307L432.72 212.503Z" fill="#7900B1"/>
<path d="M432.72 360.728L389.444 374.925V420.865L362.697 383.698L319.42 397.895L346.167 360.728L319.42 323.561L362.697 337.758L389.444 300.591V346.532L432.72 360.728Z" fill="#7900B1"/>
<path d="M286.757 367.986L243.481 382.182L243.481 428.123L216.734 390.956L173.457 405.153L200.204 367.986L173.457 330.819L216.734 345.016L243.481 307.849V353.789L286.757 367.986Z" fill="#7900B1"/>
<path d="M125.261 367.986L81.9846 382.182L81.9846 428.123L55.2381 390.956L11.9614 405.153L38.7079 367.986L11.9614 330.819L55.2381 345.016L81.9846 307.849V353.789L125.261 367.986Z" fill="#7900B1"/>
<path d="M408.91 212.494L382.085 221.338V249.956L365.507 226.803L338.682 235.647L355.261 212.494L338.682 189.341L365.507 198.185L382.085 175.031V203.65L408.91 212.494Z" fill="#FFF859"/>
<path d="M409.949 360.73L383.124 369.574V398.193L366.546 375.04L339.722 383.883L356.3 360.73L339.722 337.577L366.546 346.421L383.124 323.268V351.887L409.949 360.73Z" fill="#FFF859"/>
<path d="M262.953 367.992L236.128 376.836V405.454L219.55 382.301L192.725 391.145L209.304 367.992L192.725 344.839L219.55 353.683L236.128 330.529V359.148L262.953 367.992Z" fill="#FFF859"/>
<path d="M101.457 367.992L74.6322 376.836L74.6322 405.454L58.0538 382.301L31.2294 391.145L47.8078 367.992L31.2294 344.839L58.0538 353.683L74.6322 330.529V359.148L101.457 367.992Z" fill="#FFF859"/>
</svg>
