<svg width="433" height="432" viewBox="0 0 433 432" fill="none" xmlns="http://www.w3.org/2000/svg">
<path d="M49.6067 118.445L29.9072 129.7L36.8968 141.935L47.0553 136.131C51.3528 133.751 55.308 132.942 58.921 133.707C62.534 134.472 65.3879 136.687 67.4827 140.354C69.5881 144.04 70.0594 147.667 68.8965 151.234C67.7336 154.802 65.0876 157.815 60.9584 160.274L45.2998 169.22L21.9583 128.36L47.0738 114.011L49.6067 118.445ZM39.4298 146.369L48.1989 161.72L58.0487 156.092C60.7239 154.564 62.3944 152.666 63.06 150.4C63.7444 148.123 63.4026 145.787 62.0346 143.393C60.7201 141.091 58.9631 139.688 56.7638 139.183C54.5832 138.667 52.1632 139.144 49.504 140.613L39.4298 146.369ZM98.2224 124.839L81.1046 134.619L83.3519 147.479L77.7957 150.654L70.0566 100.88L74.771 98.1861L113.743 130.116L108.215 133.274L98.2224 124.839ZM80.1992 129.255L94.0899 121.319L76.2132 106.184L80.1992 129.255ZM115.493 107.899L124.631 123.895L119.243 126.973L95.9017 86.1133L110.971 77.5036C115.442 74.949 119.593 74.0914 123.422 74.9309C127.27 75.7597 130.268 78.0543 132.417 81.8148C134.682 85.781 135.186 89.5507 133.927 93.1238C132.676 96.6675 129.74 99.7594 125.119 102.399L115.493 107.899ZM112.976 103.493L122.658 97.9615C125.539 96.3155 127.362 94.3807 128.126 92.1572C128.88 89.915 128.525 87.5123 127.061 84.9492C125.671 82.5171 123.793 81.0096 121.425 80.4268C119.057 79.844 116.52 80.2888 113.813 81.7612L103.823 87.4689L112.976 103.493ZM147.321 78.8454L157.479 73.0415C161.777 70.6606 165.732 69.8525 169.345 70.6171C172.958 71.3817 175.812 73.5975 177.907 77.2644C180.012 80.95 180.484 84.5767 179.321 88.1445C178.158 91.7122 175.512 94.7253 171.383 97.1837L155.752 106.114L132.41 65.2543L137.798 62.176L147.321 78.8454ZM149.854 83.2794L158.623 98.6299L168.473 93.0023C171.148 91.4738 172.818 89.5764 173.484 87.3102C174.169 85.0332 173.827 82.6974 172.459 80.3027C171.144 78.0015 169.387 76.5983 167.188 76.093C165.007 75.577 162.587 76.0538 159.928 77.5235L149.854 83.2794ZM195.207 83.5717L189.819 86.65L166.478 45.7902L171.866 42.7119L195.207 83.5717Z" fill="black"/>
<path d="M80.6067 202.445L60.9072 213.7L67.8968 225.935L78.0553 220.131C82.3528 217.751 86.308 216.942 89.921 217.707C93.534 218.472 96.3879 220.687 98.4827 224.354C100.588 228.04 101.059 231.667 99.8965 235.234C98.7336 238.802 96.0876 241.815 91.9584 244.274L76.2998 253.22L52.9583 212.36L78.0738 198.011L80.6067 202.445ZM70.4298 230.369L79.1989 245.72L89.0487 240.092C91.7239 238.564 93.3944 236.666 94.06 234.4C94.7444 232.123 94.4026 229.787 93.0346 227.393C91.7201 225.091 89.9631 223.688 87.7638 223.183C85.5832 222.667 83.1632 223.144 80.504 224.613L70.4298 230.369ZM129.222 208.839L112.105 218.619L114.352 231.479L108.796 234.654L101.057 184.88L105.771 182.186L144.743 214.116L139.215 217.274L129.222 208.839ZM111.199 213.255L125.09 205.319L107.213 190.184L111.199 213.255ZM146.493 191.899L155.631 207.895L150.243 210.973L126.902 170.113L141.971 161.504C146.442 158.949 150.593 158.091 154.422 158.931C158.27 159.76 161.268 162.054 163.417 165.815C165.682 169.781 166.186 173.551 164.927 177.124C163.676 180.667 160.74 183.759 156.119 186.399L146.493 191.899ZM143.976 187.493L153.658 181.962C156.539 180.315 158.362 178.381 159.126 176.157C159.88 173.915 159.525 171.512 158.061 168.949C156.671 166.517 154.793 165.01 152.425 164.427C150.057 163.844 147.52 164.289 144.813 165.761L134.823 171.469L143.976 187.493ZM178.321 162.845L188.479 157.041C192.777 154.661 196.732 153.852 200.345 154.617C203.958 155.382 206.812 157.598 208.907 161.264C211.012 164.95 211.484 168.577 210.321 172.144C209.158 175.712 206.512 178.725 202.383 181.184L186.752 190.114L163.41 149.254L168.798 146.176L178.321 162.845ZM180.854 167.279L189.623 182.63L199.473 177.002C202.148 175.474 203.818 173.576 204.484 171.31C205.169 169.033 204.827 166.697 203.459 164.303C202.144 162.001 200.387 160.598 198.188 160.093C196.007 159.577 193.587 160.054 190.928 161.524L180.854 167.279ZM226.207 167.572L220.819 170.65L197.478 129.79L202.866 126.712L226.207 167.572Z" fill="black"/>
<path d="M432.72 63.232L389.444 77.4284V123.369L362.697 86.2023L319.42 100.399L346.167 63.232L319.42 26.0652L362.697 40.2616L389.444 3.0948V49.0355L432.72 63.232Z" fill="#9B00E4"/>
<path d="M408.91 63.2342L382.085 72.0779V100.697L365.507 77.5436L338.682 86.3873L355.261 63.2342L338.682 40.0811L365.507 48.9248L382.085 25.7717V54.3905L408.91 63.2342Z" fill="#FFF859"/>
<path d="M432.72 212.503L389.444 226.7V272.641L362.697 235.474L319.42 249.67L346.167 212.503L319.42 175.337L362.697 189.533L389.444 152.366V198.307L432.72 212.503Z" fill="#7900B1"/>
<path d="M432.72 360.728L389.444 374.925V420.865L362.697 383.698L319.42 397.895L346.167 360.728L319.42 323.561L362.697 337.758L389.444 300.591V346.532L432.72 360.728Z" fill="#7900B1"/>
<path d="M286.757 367.986L243.481 382.182L243.481 428.123L216.734 390.956L173.457 405.153L200.204 367.986L173.457 330.819L216.734 345.016L243.481 307.849V353.789L286.757 367.986Z" fill="#7900B1"/>
<path d="M125.261 367.986L81.9846 382.182L81.9846 428.123L55.2381 390.956L11.9614 405.153L38.7079 367.986L11.9614 330.819L55.2381 345.016L81.9846 307.849V353.789L125.261 367.986Z" fill="#7900B1"/>
<path d="M408.91 212.494L382.085 221.338V249.956L365.507 226.803L338.682 235.647L355.261 212.494L338.682 189.341L365.507 198.185L382.085 175.031V203.65L408.91 212.494Z" fill="#FFF859"/>
<path d="M409.949 360.73L383.124 369.574V398.193L366.546 375.04L339.722 383.883L356.3 360.73L339.722 337.577L366.546 346.421L383.124 323.268V351.887L409.949 360.73Z" fill="#FFF859"/>
<path d="M262.953 367.992L236.128 376.836V405.454L219.55 382.301L192.725 391.145L209.304 367.992L192.725 344.839L219.55 353.683L236.128 330.529V359.148L262.953 367.992Z" fill="#FFF859"/>
<path d="M101.457 367.992L74.6322 376.836L74.6322 405.454L58.0538 382.301L31.2294 391.145L47.8078 367.992L31.2294 344.839L58.0538 353.683L74.6322 330.529V359.148L101.457 367.992Z" fill="#FFF859"/>
</svg>
