<svg width="742" height="510" viewBox="0 0 742 510" fill="none" xmlns="http://www.w3.org/2000/svg">
<path d="M611.234 122.071C613.213 86.7478 524.146 103.4 486.045 47.8924V489.431L560.762 485.394C577.586 468.237 608.858 430.997 599.358 419.29C587.482 404.656 560.762 409.197 560.762 359.745C560.762 310.293 647.85 322.403 651.809 283.043C655.767 243.683 573.133 237.628 560.762 194.231C548.392 150.834 609.254 157.394 611.234 122.071Z" fill="#A90029"/>
<path d="M662.2 68.5816C654.283 37.8 609.254 66.5631 560.762 12.5692H729V244.188L718.114 265.886C704.589 255.458 644.584 203.819 631.521 167.486C615.192 122.071 670.117 99.3632 662.2 68.5816Z" fill="#7900B1"/>
<path d="M643.397 422.317C661.21 444.52 623.109 481.357 592.925 487.413H726.526V285.062C714.485 279.679 690.404 276.584 690.404 307.265C702.28 334.514 656.757 321.899 625.583 348.643C594.41 375.388 625.583 400.114 643.397 422.317Z" fill="#FFEC00"/>
<path d="M111.469 313.825C159.961 400.114 48.6269 410.206 16.9586 410.206V482.366L337.105 497V410.206C323.415 410.206 296.035 401.325 296.035 365.8C296.035 321.393 320.281 313.825 279.212 279.511C238.142 245.196 237.647 353.689 196.577 296.668C155.507 239.646 276.737 225.012 279.212 205.332C281.686 185.652 206.473 175.56 150.559 185.148C94.6449 194.735 62.9766 227.535 111.469 313.825Z" fill="#FFEC00"/>
<path d="M485.055 5V491.954" stroke="black" stroke-width="25.86"/>
<path d="M394.646 204.344L394.92 227.031L409.01 226.855L408.869 215.156C408.874 210.243 410.089 206.392 412.511 203.604C414.934 200.816 418.257 199.395 422.48 199.342C426.724 199.289 430.123 200.637 432.677 203.384C435.232 206.132 436.581 209.908 436.725 214.711L436.943 232.744L389.889 233.332L389.54 204.408L394.646 204.344ZM414.116 226.791L431.794 226.57L431.657 215.227C431.62 212.146 430.772 209.765 429.114 208.083C427.456 206.38 425.248 205.546 422.49 205.58C419.84 205.613 417.76 206.469 416.251 208.147C414.741 209.803 413.983 212.151 413.976 215.189L414.116 226.791ZM423.842 164.935L424.08 184.648L436.414 188.922L436.491 195.321L389.221 177.94L389.156 172.511L435.991 153.923L436.068 160.289L423.842 164.935ZM418.951 182.838L418.758 166.841L396.847 175.13L418.951 182.838ZM417.42 141.614L435.84 141.384L435.915 147.589L388.862 148.176L388.652 130.822C388.59 125.673 389.856 121.628 392.449 118.687C395.042 115.724 398.504 114.215 402.835 114.161C407.402 114.104 410.942 115.493 413.454 118.327C415.944 121.141 417.222 125.208 417.286 130.529L417.42 141.614ZM412.346 141.677L412.211 130.528C412.171 127.21 411.365 124.678 409.793 122.93C408.198 121.183 405.926 120.328 402.974 120.365C400.173 120.4 397.943 121.311 396.284 123.099C394.625 124.887 393.782 127.321 393.754 130.403L393.893 141.908L412.346 141.677ZM407.476 99.6876L407.335 87.9889C407.34 83.0759 408.554 79.2252 410.977 76.4368C413.4 73.6485 416.722 72.2279 420.945 72.1752C425.189 72.1222 428.589 73.4696 431.143 76.2174C433.697 78.9651 435.046 82.7407 435.191 87.5441L435.408 105.545L388.355 106.132L388.28 99.9273L407.476 99.6876ZM412.582 99.6238L430.259 99.4031L430.122 88.0599C430.085 84.979 429.238 82.5978 427.58 80.9162C425.921 79.2131 423.713 78.3787 420.956 78.4132C418.306 78.4462 416.226 79.3018 414.716 80.9798C413.206 82.6363 412.448 84.9837 412.442 88.0221L412.582 99.6238ZM434.859 60.107L434.934 66.3119L387.881 66.8994L387.806 60.6945L434.859 60.107Z" fill="black"/>
<path d="M385.591 307.437L385.61 301.199L427.56 301.338L427.632 278.133L385.682 277.994L385.702 271.789L432.758 271.944L432.647 307.592L385.591 307.437ZM432.501 354.487L385.444 354.332L385.464 348.126L427.414 348.265L427.466 331.394L408.821 330.493C402.574 330.149 397.879 329.487 394.736 328.507C391.593 327.548 389.281 326.14 387.8 324.282C386.341 322.425 385.595 319.944 385.561 316.841L385.568 314.805L390.642 314.822L390.702 316.115C390.847 318.119 391.488 319.662 392.627 320.743C393.787 321.824 395.627 322.649 398.146 323.218C400.665 323.786 404.542 324.198 409.777 324.452L432.591 325.497L432.501 354.487ZM385.332 390.238L403.657 390.299L403.691 379.44L385.397 369.651L385.417 363.026L405.421 374.016C407.832 367.948 412.118 364.924 418.28 364.944C422.762 364.959 426.237 366.435 428.705 369.374C431.196 372.334 432.433 376.432 432.416 381.668L432.37 396.631L385.313 396.476L385.332 390.238ZM418.261 371.149C415.417 371.14 413.13 372.016 411.401 373.777C409.672 375.559 408.791 378.034 408.76 381.202L408.731 390.316L427.283 390.377L427.31 381.554C427.321 378.193 426.531 375.615 424.943 373.822C423.354 372.05 421.126 371.159 418.261 371.149ZM406.635 440.889L406.65 435.847L385.19 435.776L385.21 429.571L406.67 429.641L406.686 424.309L385.268 410.922L385.292 403.166L410.064 419.084L432.345 404.549L432.322 411.886L411.857 424.326L411.841 429.659L432.266 429.726L432.247 435.931L411.821 435.864L411.805 440.97L432.192 453.545L432.169 460.849L410.012 446.168L385.109 461.922L385.133 454.198L406.635 440.889Z" fill="black"/>
<path d="M95.6869 63.836L72.9988 63.8753L73.0223 77.9664L84.7218 77.9462C89.6345 78.0023 93.4718 79.2561 96.2338 81.7076C98.9958 84.1591 100.38 87.4963 100.387 91.7194C100.394 95.964 99.0103 99.3491 96.235 101.875C93.4598 104.401 89.6698 105.711 84.8652 105.805L66.8311 105.836L66.7527 58.7796L95.6784 58.7295L95.6869 63.836ZM73.0308 83.0729L73.0602 100.751L84.4043 100.732C87.4854 100.727 89.8756 99.9036 91.575 98.2632C93.296 96.6227 94.1542 94.4235 94.1496 91.6656C94.1452 89.0154 93.3122 86.9268 91.6506 85.3999C90.0105 83.873 87.6714 83.0906 84.6334 83.0528L73.0308 83.0729ZM134.778 93.4374L115.063 93.4715L110.656 105.761L104.257 105.772L122.148 58.6837L127.577 58.6743L145.658 105.7L139.291 105.711L134.778 93.4374ZM116.929 88.3618L132.927 88.3341L124.875 66.3386L116.929 88.3618ZM188.157 105.626L181.92 105.637L181.884 83.8862L158.161 83.9273L158.198 105.678L151.992 105.689L151.914 58.6321L158.119 58.6213L158.153 78.8532L181.875 78.8121L181.841 58.5802L188.079 58.5694L188.157 105.626ZM225.724 93.2798L206.01 93.314L201.602 105.603L195.203 105.614L213.094 58.5261L218.524 58.5167L236.604 105.542L230.237 105.553L225.724 93.2798ZM207.876 88.2043L223.874 88.1766L215.822 66.1811L207.876 88.2043ZM279.104 105.469L272.866 105.479L272.83 83.7287L249.108 83.7697L249.144 105.521L242.939 105.531L242.86 58.4745L249.065 58.4638L249.099 78.6956L272.821 78.6545L272.788 58.4227L279.025 58.4119L279.104 105.469ZM296.574 77.5792L308.274 77.5589C313.187 77.615 317.024 78.8688 319.786 81.3203C322.548 83.7718 323.932 87.1091 323.939 91.3321C323.947 95.5767 322.562 98.9619 319.787 101.488C317.012 104.013 313.222 105.323 308.417 105.418L290.415 105.449L290.337 58.3923L296.542 58.3815L296.574 77.5792ZM296.583 82.6856L296.612 100.364L307.956 100.345C311.037 100.339 313.428 99.5163 315.127 97.8759C316.848 96.2354 317.706 94.0362 317.702 91.2783C317.697 88.6281 316.864 86.5396 315.203 85.0127C313.563 83.4857 311.224 82.7033 308.185 82.6655L296.583 82.6856ZM335.856 105.37L329.651 105.381L329.573 58.3243L335.778 58.3136L335.856 105.37Z" fill="black"/>
<path d="M13 150.329H336.61V486.404" stroke="black" stroke-width="25.86"/>
<path d="M728.505 13.0738H13V496.496H728.505V13.0738Z" stroke="black" stroke-width="25.86"/>
</svg>
