<svg width="441" height="440" viewBox="0 0 441 440" fill="none" xmlns="http://www.w3.org/2000/svg">
<path d="M199.5 417.5C215.5 435 225.5 439.5 225.5 439.5H429.437V116H418.937C417.771 139.334 393.4 201.6 321 166C230.5 121.5 336 318 307 344C278 370 233.501 342 218.501 318C203.501 294 162 265 136.5 318C111 371 156.513 370.483 199.5 417.5Z" fill="#184422"/>
<path d="M434 105H107V438" stroke="black" stroke-width="25.86"/>
<path d="M13.4771 14.9431L28.8611 53.3384L44.2451 14.9431L52.2926 14.9431L52.2926 62H46.0873V43.675L46.669 23.8956L31.2204 62H26.4695L11.0532 23.9925L11.6673 43.675L11.6673 62H5.46196L5.46196 14.9431L13.4771 14.9431ZM99.4464 39.9906C99.4464 44.6015 98.6708 48.6306 97.1194 52.078C95.5681 55.5038 93.3704 58.1217 90.5263 59.9316C87.6822 61.7414 84.3641 62.6464 80.572 62.6464C76.866 62.6464 73.5802 61.7414 70.7146 59.9316C67.8489 58.1001 65.6189 55.5038 64.0245 52.1426C62.4516 48.7599 61.6436 44.8492 61.6005 40.4107V37.0172C61.6005 32.4925 62.387 28.4957 63.9599 25.0267C65.5327 21.5578 67.752 18.9076 70.6176 17.0762C73.5048 15.2232 76.8014 14.2967 80.5073 14.2967C84.2779 14.2967 87.596 15.2125 90.4617 17.0439C93.3488 18.8538 95.5681 21.4932 97.1194 24.9621C98.6708 28.4095 99.4464 32.4279 99.4464 37.0172V39.9906ZM93.2734 36.9526C93.2734 31.3721 92.153 27.0952 89.9122 24.1218C87.6714 21.1269 84.5365 19.6294 80.5073 19.6294C76.5859 19.6294 73.494 21.1269 71.2317 24.1218C68.9909 27.0952 67.8382 31.232 67.7735 36.5324V39.9906C67.7735 45.3987 68.9047 49.654 71.167 52.7567C73.4509 55.8378 76.5859 57.3783 80.572 57.3783C84.5796 57.3783 87.6822 55.924 89.8799 53.0152C92.0776 50.085 93.2088 45.8942 93.2734 40.443V36.9526ZM114.96 43.578L114.96 62H108.754L108.754 14.9431L126.11 14.9431C131.259 14.9431 135.288 16.2574 138.197 18.8861C141.128 21.5147 142.593 24.9944 142.593 29.3252C142.593 33.893 141.16 37.4158 138.294 39.8936C135.45 42.3499 131.367 43.578 126.045 43.578H114.96ZM114.96 38.5039H126.11C129.428 38.5039 131.97 37.7282 133.737 36.1769C135.504 34.604 136.387 32.3417 136.387 29.3898C136.387 26.5888 135.504 24.348 133.737 22.6674C131.97 20.9868 129.546 20.1142 126.465 20.0496L114.96 20.0496V38.5039ZM186.708 39.9906C186.708 44.6015 185.933 48.6306 184.381 52.078C182.83 55.5038 180.632 58.1217 177.788 59.9316C174.944 61.7414 171.626 62.6464 167.834 62.6464C164.128 62.6464 160.842 61.7414 157.977 59.9316C155.111 58.1001 152.881 55.5038 151.287 52.1426C149.714 48.7599 148.906 44.8492 148.863 40.4107V37.0172C148.863 32.4925 149.649 28.4957 151.222 25.0267C152.795 21.5578 155.014 18.9076 157.88 17.0762C160.767 15.2232 164.063 14.2967 167.769 14.2967C171.54 14.2967 174.858 15.2125 177.724 17.0439C180.611 18.8538 182.83 21.4932 184.381 24.9621C185.933 28.4095 186.708 32.4279 186.708 37.0172V39.9906ZM180.535 36.9526C180.535 31.3721 179.415 27.0952 177.174 24.1218C174.933 21.1269 171.799 19.6294 167.769 19.6294C163.848 19.6294 160.756 21.1269 158.494 24.1218C156.253 27.0952 155.1 31.232 155.036 36.5324V39.9906C155.036 45.3987 156.167 49.654 158.429 52.7567C160.713 55.8378 163.848 57.3783 167.834 57.3783C171.842 57.3783 174.944 55.924 177.142 53.0152C179.34 50.085 180.471 45.8942 180.535 40.443V36.9526ZM228.368 40.54H223.326V62H217.121V40.54H211.788L198.473 62H190.716L206.553 37.1788L191.944 14.9431H199.281L211.788 35.3689H217.121V14.9431H223.326V35.3689H228.433L240.94 14.9431L248.244 14.9431L233.636 37.1465L249.473 62H241.748L228.368 40.54ZM282.018 40.2491H261.625V56.9259H285.315V62H255.419V14.9431L284.991 14.9431V20.0496L261.625 20.0496V35.175H282.018V40.2491ZM329.204 62H322.967V40.2491H299.244V62H293.039V14.9431L299.244 14.9431V35.175H322.967V14.9431H329.204V62ZM376.423 39.9906C376.423 44.6015 375.647 48.6306 374.096 52.078C372.544 55.5038 370.347 58.1217 367.503 59.9316C364.658 61.7414 361.34 62.6464 357.548 62.6464C353.842 62.6464 350.556 61.7414 347.691 59.9316C344.825 58.1001 342.595 55.5038 341.001 52.1426C339.428 48.7599 338.62 44.8492 338.577 40.4107V37.0172C338.577 32.4925 339.363 28.4957 340.936 25.0267C342.509 21.5578 344.728 18.9076 347.594 17.0762C350.481 15.2232 353.778 14.2967 357.484 14.2967C361.254 14.2967 364.572 15.2125 367.438 17.0439C370.325 18.8538 372.544 21.4932 374.096 24.9621C375.647 28.4095 376.423 32.4279 376.423 37.0172V39.9906ZM370.25 36.9526C370.25 31.3721 369.129 27.0952 366.888 24.1218C364.648 21.1269 361.513 19.6294 357.484 19.6294C353.562 19.6294 350.47 21.1269 348.208 24.1218C345.967 27.0952 344.814 31.232 344.75 36.5324V39.9906C344.75 45.3987 345.881 49.654 348.143 52.7567C350.427 55.8378 353.562 57.3783 357.548 57.3783C361.556 57.3783 364.658 55.924 366.856 53.0152C369.054 50.085 370.185 45.8942 370.25 40.443V36.9526ZM412.329 40.2491L391.936 40.2491V56.9259L415.626 56.9259V62L385.731 62V14.9431L415.303 14.9431V20.0496L391.936 20.0496V35.175L412.329 35.175V40.2491Z" fill="black"/>
<path d="M44.2627 411.826L44.1299 417.544L65.261 418.034L65.1169 424.238L18.0727 423.148L18.2168 416.944L38.9602 417.425L39.0727 412.578L18.7113 395.651L18.8906 387.929L41.2847 406.422L65.9656 387.695L65.7893 395.288L44.2627 411.826ZM44.9105 346.344C49.5202 346.451 53.5302 347.32 56.9407 348.95C60.3296 350.581 62.8957 352.839 64.6391 355.724C66.3824 358.609 67.2101 361.947 67.1221 365.738C67.036 369.443 66.055 372.707 64.1791 375.53C62.2816 378.353 59.6342 380.522 56.2369 382.038C52.8186 383.532 48.8902 384.249 44.4519 384.189L41.0593 384.111C36.5358 384.006 32.5583 383.127 29.1268 381.474C25.6953 379.822 23.0974 377.542 21.333 374.634C19.5475 371.705 18.6979 368.388 18.7839 364.683C18.8714 360.913 19.8639 357.617 21.7614 354.795C23.6378 351.95 26.3281 349.793 29.8321 348.322C33.3146 346.851 37.3499 346.169 41.938 346.275L44.9105 346.344ZM41.73 352.445C36.1511 352.316 31.8493 353.337 28.8247 355.508C25.7785 357.679 24.2087 360.778 24.1151 364.806C24.0241 368.727 25.4494 371.852 28.391 374.184C31.3115 376.493 35.4205 377.741 40.7179 377.928L44.1752 378.008C49.5818 378.134 53.8623 377.101 57.0167 374.912C60.15 372.7 61.7629 369.601 61.8554 365.616C61.9485 361.61 60.5665 358.474 57.7096 356.21C54.8311 353.945 50.6678 352.717 45.2196 352.526L41.73 352.445ZM46.2827 324.845L46.1499 330.564L67.281 331.054L67.1369 337.258L20.0927 336.168L20.2368 329.964L40.9802 330.445L41.0927 325.598L20.7312 308.671L20.9106 300.949L43.3047 319.442L67.9856 300.714L67.8092 308.307L46.2827 324.845ZM26.9334 261.552L26.5822 276.673L68.5213 277.645L68.378 283.816L26.4389 282.844L26.0884 297.933L20.9834 297.815L21.8283 261.433L26.9334 261.552ZM47.9071 228.449L47.4336 248.837L64.1059 249.223L64.6559 225.539L69.7287 225.657L69.0346 255.544L21.9904 254.454L22.677 224.89L27.782 225.008L27.2395 248.369L42.3609 248.719L42.8344 228.331L47.9071 228.449ZM23.5526 187.184L23.6967 180.98L70.7409 182.07L70.5969 188.274L34.3444 187.434L70.0589 211.44L69.914 217.676L22.8698 216.586L23.0146 210.35L59.2671 211.19L23.5526 187.184ZM11.8157 188.657C14.4221 188.718 16.5015 189.66 18.054 191.485C19.5854 193.288 20.3176 195.632 20.2506 198.519C20.1835 201.405 19.3323 203.724 17.6967 205.475C16.0612 207.226 13.9511 208.071 11.3662 208.011L11.4795 203.132C12.9873 203.167 14.1816 202.786 15.0622 201.987C15.9213 201.188 16.3691 200.002 16.4056 198.43C16.4406 196.922 16.0478 195.738 15.2273 194.879C14.4072 193.998 13.2325 193.539 11.7031 193.504L11.8157 188.657ZM24.7855 134.097L71.8297 135.187L71.6857 141.391L29.7465 140.419L29.3548 157.285L47.9785 158.557C54.2177 159.025 58.8985 159.78 62.0209 160.823C65.1438 161.843 67.4269 163.297 68.8701 165.184C70.2919 167.07 70.9883 169.565 70.9593 172.668L70.912 174.703L65.8393 174.586L65.8047 173.292C65.7004 171.285 65.09 169.73 63.9733 168.626C62.8352 167.522 61.0125 166.661 58.5052 166.043C55.998 165.424 52.13 164.936 46.9012 164.578L24.1124 163.08L24.7855 134.097ZM25.7362 93.1598L25.8803 86.9562L72.9245 88.0463L72.7804 94.25L36.5279 93.4099L72.2424 117.417L72.0976 123.653L25.0534 122.562L25.1982 116.327L61.4507 117.167L25.7362 93.1598Z" fill="black"/>
</svg>
