<svg width="496" height="1099" viewBox="0 0 496 1099" fill="none" xmlns="http://www.w3.org/2000/svg">
<rect x="9" width="468" height="227" fill="#7900B1"/>
<path d="M-17.5 429.5H317V1099" stroke="black" stroke-width="25.86"/>
<path d="M76.3738 340.063L77.7105 316.516L101.796 315.433L102.044 320.954L83.0274 321.809L82.1823 334.691C84.4245 333.231 87.0093 332.435 89.9366 332.304C94.22 332.111 97.6847 333.379 100.331 336.107C102.976 338.813 104.406 342.577 104.623 347.399C104.84 352.242 103.699 356.122 101.198 359.038C98.7186 361.932 95.1326 363.484 90.4402 363.695C86.286 363.882 82.8442 362.883 80.1148 360.697C77.3854 358.512 75.7464 355.394 75.1979 351.342L80.848 351.088C81.3348 353.762 82.3839 355.753 83.9955 357.061C85.6062 358.348 87.6815 358.934 90.2213 358.82C92.998 358.695 95.1294 357.65 96.6157 355.685C98.1234 353.719 98.8024 351.068 98.6526 347.732C98.5115 344.589 97.5375 342.11 95.7305 340.293C93.944 338.454 91.6302 337.598 88.789 337.726C86.1845 337.843 84.1653 338.505 82.7313 339.713L81.2073 341.075L76.3738 340.063ZM152.343 325.81C152.231 323.313 151.227 321.374 149.332 319.992C147.457 318.589 144.873 317.961 141.58 318.109C138.825 318.233 136.545 319.101 134.741 320.713C132.958 322.303 132.116 324.217 132.217 326.456L126.018 326.735C125.906 324.238 126.483 321.969 127.75 319.928C129.039 317.885 130.885 316.26 133.29 315.052C135.694 313.823 138.38 313.141 141.351 313.007C146.603 312.771 150.735 313.772 153.747 316.009C156.758 318.224 158.358 321.431 158.546 325.628C158.644 327.802 158.066 329.812 156.811 331.659C155.557 333.505 153.758 334.999 151.416 336.139C157.03 337.742 159.961 341.287 160.208 346.776C160.397 350.995 158.976 354.413 155.945 357.029C152.913 359.646 148.771 361.072 143.52 361.308C140.398 361.449 137.533 361.028 134.922 360.045C132.332 359.04 130.28 357.547 128.768 355.566C127.256 353.585 126.436 351.185 126.31 348.365L132.509 348.086C132.62 350.562 133.692 352.584 135.725 354.153C137.757 355.701 140.28 356.407 143.293 356.272C146.673 356.12 149.328 355.213 151.259 353.552C153.212 351.89 154.13 349.767 154.014 347.184C153.767 341.674 150.229 339.018 143.401 339.217L137.59 339.479L137.36 334.377L143.14 334.117C146.279 333.912 148.626 333.094 150.179 331.666C151.733 330.237 152.454 328.285 152.343 325.81ZM169.029 359.514L166.919 312.505L182.287 311.814C187.388 311.585 191.267 312.467 193.923 314.461C196.601 316.454 198.032 319.517 198.218 323.65C198.317 325.846 197.78 327.822 196.608 329.578C195.435 331.313 193.793 332.692 191.682 333.714C194.254 334.31 196.316 335.576 197.87 337.512C199.444 339.426 200.293 341.76 200.416 344.515C200.606 348.734 199.388 352.11 196.763 354.644C194.137 357.178 190.328 358.557 185.334 358.781L169.029 359.514ZM174.241 337.248L175.001 354.167L185.236 353.706C188.12 353.577 190.357 352.732 191.948 351.172C193.559 349.59 194.306 347.486 194.188 344.86C193.934 339.199 190.729 336.507 184.573 336.784L174.241 337.248ZM174.018 332.276L183.381 331.855C186.093 331.733 188.226 330.958 189.779 329.529C191.354 328.1 192.09 326.223 191.985 323.898C191.869 321.315 191.032 319.476 189.473 318.382C187.913 317.266 185.594 316.777 182.516 316.915L173.347 317.327L174.018 332.276ZM235.823 334.738L215.45 335.654L216.198 352.314L239.865 351.25L240.092 356.319L210.227 357.662L208.116 310.653L237.659 309.324L237.888 314.426L214.544 315.475L215.223 330.585L235.596 329.669L235.823 334.738ZM211.905 302.815C211.862 301.846 212.116 301.026 212.668 300.354C213.241 299.66 214.109 299.286 215.271 299.234C216.433 299.182 217.331 299.476 217.964 300.116C218.595 300.735 218.933 301.528 218.976 302.497C219.02 303.466 218.755 304.286 218.181 304.959C217.607 305.632 216.739 305.994 215.577 306.047C214.415 306.099 213.518 305.816 212.886 305.197C212.276 304.578 211.949 303.783 211.905 302.815ZM225.792 302.255C225.748 301.287 226.002 300.456 226.553 299.762C227.126 299.068 227.993 298.695 229.156 298.642C230.318 298.59 231.216 298.884 231.848 299.524C232.481 300.164 232.819 300.969 232.862 301.937C232.906 302.906 232.641 303.727 232.067 304.399C231.493 305.072 230.625 305.435 229.463 305.487C228.301 305.539 227.404 305.256 226.772 304.637C226.162 304.018 225.835 303.224 225.792 302.255ZM270.383 320.503C270.271 318.006 269.267 316.067 267.372 314.685C265.497 313.281 262.913 312.653 259.62 312.801C256.865 312.925 254.585 313.794 252.781 315.406C250.998 316.996 250.156 318.91 250.257 321.149L244.058 321.427C243.946 318.931 244.523 316.662 245.79 314.62C247.079 312.578 248.926 310.953 251.33 309.745C253.734 308.515 256.42 307.834 259.391 307.7C264.643 307.464 268.775 308.465 271.787 310.702C274.798 312.917 276.398 316.123 276.586 320.321C276.684 322.495 276.106 324.505 274.851 326.352C273.597 328.198 271.798 329.692 269.456 330.832C275.071 332.435 278.001 335.98 278.248 341.469C278.437 345.688 277.016 349.105 273.985 351.722C270.953 354.339 266.812 355.765 261.56 356.001C258.438 356.141 255.573 355.72 252.962 354.738C250.372 353.733 248.321 352.24 246.808 350.259C245.296 348.278 244.476 345.877 244.35 343.058L250.549 342.779C250.66 345.254 251.732 347.277 253.765 348.846C255.797 350.394 258.32 351.1 261.333 350.964C264.713 350.812 267.368 349.906 269.299 348.245C271.252 346.582 272.17 344.46 272.054 341.877C271.807 336.367 268.269 333.711 261.441 333.91L255.63 334.171L255.401 329.07L261.18 328.81C264.32 328.604 266.666 327.787 268.22 326.359C269.773 324.93 270.494 322.978 270.383 320.503ZM329.882 363.832L323.716 364.109L323.198 352.583L289.459 354.1L289.977 365.658L283.778 365.937L283 349.311L286.842 349.138C288.763 346.766 290.229 343.637 291.241 339.752C292.273 335.845 292.837 331.593 292.933 326.994L293.063 306.833L321.184 305.569L323.067 347.509L329.202 347.234L329.882 363.832ZM293.912 348.82L316.836 347.79L315.182 310.95L299.265 311.666L299.207 325.515C299.17 330.93 298.656 335.569 297.664 339.431C296.695 343.292 295.444 346.422 293.912 348.82Z" fill="black"/>
<path d="M401.343 611.963L424.799 614.433L424.721 638.543L419.194 638.524L419.256 619.488L406.43 618.024C407.78 620.334 408.45 622.954 408.44 625.884C408.426 630.172 406.993 633.571 404.141 636.083C401.31 638.595 397.482 639.842 392.656 639.826C387.808 639.81 383.988 638.483 381.195 635.845C378.424 633.229 377.046 629.573 377.061 624.876C377.075 620.717 378.239 617.327 380.553 614.706C382.867 612.085 386.06 610.599 390.134 610.246L390.115 615.902C387.421 616.259 385.382 617.211 383.998 618.758C382.635 620.305 381.95 622.349 381.942 624.892C381.933 627.671 382.874 629.85 384.765 631.43C386.655 633.03 389.271 633.836 392.61 633.847C395.756 633.858 398.28 633.004 400.181 631.287C402.104 629.591 403.071 627.321 403.08 624.477C403.088 621.87 402.524 619.821 401.387 618.33L400.099 616.743L401.343 611.963ZM411.922 688.531C414.421 688.539 416.406 687.63 417.877 685.803C419.37 683.998 420.121 681.448 420.132 678.151C420.141 675.393 419.384 673.074 417.86 671.195C416.358 669.337 414.486 668.404 412.245 668.397L412.266 662.192C414.765 662.2 417.003 662.886 418.981 664.25C420.959 665.635 422.493 667.558 423.584 670.018C424.697 672.478 425.248 675.195 425.238 678.168C425.221 683.425 424.023 687.504 421.644 690.405C419.286 693.306 416.006 694.75 411.804 694.736C409.628 694.729 407.648 694.054 405.864 692.712C404.08 691.371 402.675 689.502 401.649 687.107C399.778 692.638 396.095 695.395 390.601 695.377C386.378 695.363 383.032 693.779 380.565 690.625C378.097 687.471 376.872 683.265 376.889 678.008C376.899 674.884 377.458 672.042 378.565 669.481C379.694 666.943 381.284 664.966 383.335 663.55C385.387 662.135 387.824 661.432 390.646 661.441L390.626 667.647C388.148 667.639 386.077 668.612 384.411 670.567C382.767 672.522 381.941 675.008 381.931 678.025C381.92 681.408 382.698 684.103 384.264 686.112C385.83 688.143 387.906 689.162 390.492 689.171C396.007 689.189 398.83 685.783 398.96 678.954L398.979 673.136L404.085 673.153L404.067 678.938C404.121 682.084 404.824 684.467 406.177 686.088C407.529 687.708 409.444 688.523 411.922 688.531ZM377.453 703.575L424.509 703.73L424.459 719.114C424.443 724.221 423.374 728.052 421.255 730.609C419.135 733.188 416.006 734.47 411.87 734.457C409.672 734.449 407.724 733.818 406.026 732.563C404.349 731.308 403.051 729.601 402.132 727.443C401.413 729.983 400.049 731.983 398.04 733.441C396.053 734.921 393.681 735.657 390.923 735.648C386.7 735.634 383.386 734.255 380.982 731.51C378.577 728.766 377.383 724.895 377.4 719.896L377.453 703.575ZM399.442 709.853L382.506 709.797L382.473 720.042C382.464 722.929 383.2 725.205 384.681 726.869C386.184 728.554 388.25 729.401 390.878 729.41C396.545 729.429 399.388 726.357 399.408 720.195L399.442 709.853ZM404.419 709.869L404.388 719.242C404.38 721.957 405.051 724.124 406.403 725.745C407.756 727.387 409.595 728.211 411.922 728.219C414.508 728.228 416.385 727.48 417.553 725.975C418.743 724.471 419.343 722.178 419.353 719.097L419.383 709.919L404.419 709.869ZM398.983 771.484L399.049 751.091L382.373 751.036L382.296 774.726L377.222 774.709L377.319 744.814L424.375 744.969L424.279 774.541L419.173 774.525L419.249 751.158L404.123 751.108L404.057 771.501L398.983 771.484ZM432.022 749.132C432.991 749.135 433.798 749.428 434.443 750.012C435.109 750.618 435.44 751.502 435.436 752.666C435.432 753.829 435.095 754.712 434.425 755.313C433.777 755.914 432.968 756.213 431.999 756.21C431.029 756.206 430.222 755.902 429.578 755.297C428.933 754.691 428.613 753.807 428.617 752.643C428.62 751.48 428.946 750.597 429.595 749.996C430.243 749.417 431.052 749.128 432.022 749.132ZM431.912 763.029C432.881 763.032 433.699 763.325 434.365 763.909C435.031 764.515 435.362 765.399 435.359 766.563C435.355 767.726 435.018 768.609 434.348 769.21C433.678 769.811 432.858 770.11 431.889 770.107C430.919 770.103 430.112 769.799 429.468 769.194C428.823 768.588 428.503 767.704 428.507 766.54C428.511 765.377 428.837 764.494 429.485 763.893C430.133 763.314 430.942 763.025 431.912 763.029ZM411.538 806.689C414.038 806.698 416.023 805.789 417.494 803.962C418.986 802.157 419.738 799.606 419.749 796.31C419.758 793.552 419 791.233 417.477 789.354C415.974 787.496 414.103 786.563 411.862 786.556L411.882 780.35C414.382 780.359 416.62 781.045 418.598 782.409C420.576 783.794 422.11 785.717 423.201 788.177C424.313 790.637 424.865 793.353 424.855 796.327C424.838 801.584 423.64 805.663 421.26 808.564C418.902 811.465 415.623 812.908 411.421 812.894C409.245 812.887 407.265 812.213 405.481 810.871C403.697 809.529 402.292 807.661 401.265 805.266C399.394 810.797 395.712 813.554 390.217 813.535C385.994 813.521 382.649 811.937 380.182 808.784C377.714 805.63 376.489 801.424 376.506 796.167C376.516 793.043 377.075 790.2 378.182 787.64C379.31 785.101 380.9 783.124 382.952 781.709C385.003 780.294 387.44 779.591 390.263 779.6L390.243 785.805C387.765 785.797 385.693 786.771 384.028 788.726C382.384 790.681 381.557 793.167 381.548 796.183C381.537 799.566 382.314 802.262 383.881 804.271C385.447 806.302 387.523 807.321 390.108 807.33C395.624 807.348 398.447 803.942 398.577 797.112L398.596 791.295L403.702 791.312L403.683 797.097C403.738 800.243 404.441 802.626 405.793 804.247C407.145 805.867 409.06 806.681 411.538 806.689ZM365.394 864.033L365.414 857.86L376.952 857.898L377.061 824.125L365.491 824.087L365.511 817.881L382.156 817.904L382.143 821.75C384.421 823.783 387.475 825.398 391.306 826.596C395.159 827.815 399.38 828.583 403.968 828.9L424.099 830.001L424.008 858.151L382.026 858.012L382.006 864.153L365.394 864.033ZM382.12 828.828L382.046 851.775L418.922 851.896L418.974 835.963L405.143 835.239C399.736 834.941 395.128 834.204 391.318 833.028C387.508 831.873 384.442 830.473 382.12 828.828Z" fill="black"/>
<path d="M401.811 309.073L401.878 303.353L380.742 303.106L380.815 296.901L427.869 297.452L427.796 303.657L407.048 303.414L406.992 308.261L427.546 324.954L427.456 332.678L404.851 314.442L380.387 333.451L380.476 325.857L401.811 309.073ZM399.876 355.529L427.057 366.675L426.973 373.882L387.967 356.779C385.481 355.63 383.716 354.564 382.672 353.582C381.649 352.6 380.865 351.449 380.32 350.128C379.797 348.829 379.547 347.2 379.57 345.239C379.59 343.537 379.699 342.45 379.899 341.978L384.809 342.23L384.645 345.169C384.618 347.431 385.687 349.125 387.85 350.249L389.521 351.077L392.383 352.338L427.408 336.717L427.327 343.666L399.876 355.529ZM398.18 387.184L379.759 386.968L379.832 380.763L426.886 381.315L426.682 398.669C426.622 403.818 425.26 407.832 422.598 410.71C419.935 413.609 416.438 415.033 412.108 414.982C407.54 414.929 404.035 413.455 401.591 410.56C399.168 407.688 397.988 403.591 398.05 398.269L398.18 387.184ZM403.254 387.244L403.123 398.393C403.084 401.711 403.83 404.262 405.36 406.047C406.913 407.832 409.164 408.742 412.116 408.777C414.917 408.81 417.168 407.953 418.869 406.206C420.57 404.459 421.471 402.045 421.572 398.965L421.707 387.46L403.254 387.244ZM400.926 458.97C396.316 458.916 392.296 458.093 388.867 456.502C385.459 454.91 382.867 452.682 381.091 449.817C379.315 446.952 378.449 443.623 378.493 439.831C378.537 436.126 379.48 432.851 381.323 430.007C383.188 427.163 385.81 424.963 389.19 423.408C392.591 421.875 396.511 421.113 400.95 421.122L404.343 421.162C408.867 421.215 412.855 422.048 416.305 423.661C419.755 425.275 422.379 427.525 424.177 430.412C425.996 433.321 426.884 436.628 426.84 440.334C426.796 444.104 425.841 447.411 423.977 450.255C422.133 453.121 419.468 455.309 415.981 456.82C412.515 458.33 408.488 459.059 403.899 459.005L400.926 458.97ZM404.036 452.833C409.616 452.899 413.906 451.828 416.906 449.623C419.927 447.417 421.461 444.3 421.508 440.271C421.554 436.35 420.093 433.241 417.125 430.943C414.178 428.668 410.055 427.467 404.755 427.34L401.297 427.299C395.89 427.236 391.621 428.317 388.492 430.543C385.385 432.791 383.808 435.907 383.761 439.893C383.714 443.9 385.132 447.02 388.014 449.252C390.919 451.484 395.096 452.664 400.546 452.792L404.036 452.833ZM397.157 474.44L378.736 474.224L378.809 468.019L425.863 468.571L425.659 485.925C425.599 491.075 424.237 495.088 421.575 497.966C418.912 500.865 415.415 502.289 411.085 502.238C406.518 502.185 403.012 500.711 400.568 497.816C398.145 494.944 396.965 490.847 397.027 485.525L397.157 474.44ZM402.231 474.5L402.1 485.649C402.061 488.967 402.807 491.518 404.338 493.303C405.89 495.088 408.141 495.998 411.093 496.033C413.894 496.066 416.145 495.209 417.846 493.462C419.547 491.715 420.448 489.301 420.549 486.221L420.684 474.716L402.231 474.5ZM419.886 542.776L420.063 527.651L378.116 527.16L378.188 520.987L420.136 521.479L420.313 506.387L425.419 506.447L424.992 542.836L419.886 542.776Z" fill="black"/>
<path d="M-20 239.5L495 239.5" stroke="black" stroke-width="25.86"/>
</svg>
