<svg width="961" height="982" viewBox="0 0 961 982" fill="none" xmlns="http://www.w3.org/2000/svg">
<path d="M620.466 429.953C679.426 429.953 734.136 416.458 783.004 305V429.953C783.004 446.446 791.822 541.91 756.977 541.91C713.421 541.91 782.208 477.515 710.5 516C638.792 554.485 505.201 614.383 564.692 564.901C624.184 515.42 620.466 511.921 564.692 479.434C508.919 446.946 561.505 429.953 620.466 429.953Z" fill="#FFEC00"/>
<path d="M13.4722 654.184C12.7945 649.941 12.8926 645.913 13.4722 642.5L13.4722 654.184C16.3022 671.903 32.66 693.373 83.9722 689.5C163.472 683.5 139.473 715.5 174.973 745C210.473 774.5 204.473 704 268.973 689.5C333.473 675 356 736 356 765C356 788.2 322.5 902 308.5 926.5H13.4722L13.4722 654.184Z" fill="#A90029"/>
<path d="M457 758.5C392.5 717.5 374 845 330 924.5H711C705 897.166 667.6 782.099 630 758.5C583 729.001 598 694 557 679C516 664 521.5 799.5 457 758.5Z" fill="#7900B1"/>
<path d="M703.5 573.5C747.5 594 718 462 774 421V799.5C774 815.167 765.2 837.1 730 799.5C685.999 752.5 703.5 714.5 642 697C580.5 679.5 659.5 553 703.5 573.5Z" fill="#FFEC00"/>
<path d="M388 370C294.5 396.5 405.5 308.5 358.5 244H608V126.5H781V176.5C763.5 172.5 717.9 166.9 675.5 176.5C622.5 188.5 675.5 208.5 675.5 244C675.5 279.5 640 311.5 655 370C670 428.5 552 408 546.5 370C541 332 481.5 343.5 388 370Z" fill="#7900B1"/>
<path d="M288.5 470C262 481.5 300 538.999 222 573.499C172.003 580.704 190.471 581.501 239 619.499C255.667 631.333 293.1 626.4 309.5 598C330 562.5 365 566 435.5 598C506 630 488.5 539.5 476.5 510C464.5 480.5 409 501 365 510C321 519 315 458.5 288.5 470Z" fill="#A90029"/>
<path d="M14 135.153C13.9985 135.1 13.9985 135.049 14 135L14 135.153C14.3508 147.925 99.7276 260 155 260C210.5 260 260 277 207.5 309.5C155 342 151.5 345.5 207.5 395C263.5 444.5 201.5 457 134 418.5C66.4999 380 14.0002 392.5 14.0001 351.5L14 254L14 135.153Z" fill="#FFEC00"/>
<path d="M103.542 59.3539L80.8577 59.7901L81.1293 73.8787L92.8267 73.6537C97.7396 73.6239 101.598 74.8104 104.403 77.2132C107.208 79.616 108.651 82.9285 108.732 87.1508C108.814 91.3946 107.49 94.8034 104.76 97.3773C102.029 99.9512 98.2629 101.327 93.4607 101.506L75.4299 101.853L74.5228 54.8045L103.443 54.2484L103.542 59.3539ZM81.2278 78.9842L81.5685 96.6595L92.9105 96.4414C95.991 96.3822 98.3664 95.5176 100.037 93.8477C101.729 92.1773 102.548 89.9635 102.495 87.2061C102.444 84.5564 101.574 82.4827 99.8857 80.9851C98.219 79.4871 95.8665 78.7458 92.8282 78.7611L81.2278 78.9842ZM143.148 88.2669L123.437 88.6459L119.247 101.01L112.849 101.133L129.908 53.7395L135.336 53.6351L154.242 100.337L147.876 100.46L143.148 88.2669ZM125.213 83.5044L141.208 83.1968L132.77 61.3456L125.213 83.5044ZM194.507 84.6287C194.022 89.6161 192.254 93.4968 189.204 96.2707C186.176 99.0228 182.098 100.448 176.971 100.547C171.413 100.654 166.915 98.7466 163.478 94.8259C160.062 90.9048 158.29 85.6052 158.161 78.9272L158.074 74.4033C157.989 70.0302 158.691 66.17 160.178 62.8227C161.686 59.475 163.856 56.8903 166.687 55.0688C169.518 53.2257 172.818 52.2679 176.588 52.1954C181.586 52.0993 185.62 53.4225 188.69 56.165C191.759 58.886 193.589 62.7082 194.18 67.6319L187.943 67.7518C187.332 64.0138 186.106 61.3221 184.264 59.6766C182.444 58.0307 179.918 57.2388 176.686 57.3009C172.723 57.3771 169.638 58.9019 167.433 61.8751C165.249 64.8479 164.209 69.0379 164.313 74.4449L164.401 79.0011C164.499 84.1066 165.644 88.1468 167.835 91.1217C170.026 94.0966 173.038 95.5472 176.873 95.4735C180.32 95.4072 182.944 94.5809 184.745 92.9947C186.567 91.3865 187.743 88.6378 188.271 84.7486L194.507 84.6287ZM237.613 83.7998C237.128 88.7872 235.36 92.6679 232.31 95.4419C229.282 98.1939 225.204 99.6192 220.077 99.7178C214.519 99.8246 210.021 97.9177 206.584 93.997C203.168 90.076 201.396 84.7764 201.267 78.0983L201.18 73.5744C201.095 69.2014 201.797 65.3412 203.284 61.9939C204.792 58.6461 206.962 56.0615 209.793 54.2399C212.624 52.3968 215.924 51.439 219.694 51.3666C224.692 51.2704 228.726 52.5936 231.796 55.3361C234.865 58.0571 236.695 61.8794 237.286 66.803L231.049 66.9229C230.438 63.1849 229.212 60.4932 227.37 58.8477C225.55 57.2018 223.024 56.4099 219.792 56.472C215.829 56.5483 212.744 58.073 210.539 61.0462C208.355 64.019 207.315 68.209 207.419 73.6161L207.507 78.1722C207.605 83.2777 208.75 87.3179 210.941 90.2928C213.132 93.2677 216.144 94.7183 219.979 94.6446C223.426 94.5783 226.05 93.752 227.851 92.1658C229.673 90.5576 230.848 87.8089 231.377 83.9197L237.613 83.7998ZM272.574 76.3069L252.184 76.699L252.506 93.3726L276.192 92.9172L276.289 97.9904L246.4 98.5651L245.492 51.517L275.059 50.9485L275.158 56.054L251.795 56.5032L252.087 71.6258L272.476 71.2337L272.574 76.3069ZM312.769 50.2234L318.973 50.1041L319.88 97.1522L313.676 97.2715L312.977 61.016L290.507 97.717L284.271 97.8369L283.364 50.7888L289.6 50.6689L290.299 86.9243L312.769 50.2234ZM310.798 38.5595C310.849 41.1661 309.995 43.2837 308.238 44.9122C306.502 46.5187 304.19 47.3497 301.304 47.4052C298.417 47.4607 296.064 46.7086 294.246 45.1489C292.427 43.5891 291.493 41.5167 291.443 38.9317L296.322 38.8379C296.351 40.3458 296.783 41.5228 297.618 42.3687C298.453 43.1931 299.657 43.5902 301.229 43.56C302.737 43.531 303.903 43.0883 304.727 42.232C305.573 41.3753 305.981 40.1822 305.951 38.6527L310.798 38.5595ZM367.348 96.2394L361.112 96.3594L360.693 74.6125L336.975 75.0686L337.394 96.8154L331.19 96.9347L330.283 49.8866L336.487 49.7673L336.877 69.9954L360.595 69.5393L360.205 49.3112L366.441 49.1913L367.348 96.2394ZM384.325 68.0486L396.022 67.8237C400.935 67.7939 404.794 68.9804 407.599 71.3832C410.404 73.7859 411.847 77.0985 411.928 81.3207C412.01 85.5646 410.686 88.9734 407.955 91.5473C405.225 94.1211 401.459 95.4973 396.656 95.6759L378.658 96.022L377.751 48.9738L383.955 48.8545L384.325 68.0486ZM384.423 73.1541L384.764 90.8295L396.106 90.6114C399.187 90.5522 401.562 89.6876 403.232 88.0176C404.924 86.3473 405.744 84.1334 405.69 81.376C405.639 78.7263 404.77 76.6527 403.081 75.1551C401.415 73.6571 399.062 72.9157 396.024 72.9311L384.423 73.1541ZM424.09 95.1484L417.886 95.2677L416.979 48.2195L423.183 48.1002L424.09 95.1484Z" fill="black"/>
<path d="M894 831.779V838.016H852.05V861.221H894V867.427H846.943V831.779H894ZM881.719 794.482V814.197L894 818.625V825.024L846.943 807.054V801.625L894 783.623V789.99L881.719 794.482ZM876.612 812.322V796.324L854.603 804.34L876.612 812.322ZM846.943 741.123H894V747.328H852.05V764.199L870.698 765.039C876.946 765.363 881.643 766.009 884.789 766.978C887.935 767.927 890.251 769.327 891.738 771.18C893.203 773.033 893.957 775.511 894 778.613V780.65H888.926L888.861 779.357C888.71 777.353 888.064 775.812 886.922 774.735C885.759 773.658 883.916 772.839 881.395 772.279C878.875 771.719 874.996 771.32 869.761 771.083L846.943 770.113V741.123ZM866.141 723.832V712.133C866.205 707.22 867.466 703.385 869.922 700.627C872.378 697.869 875.718 696.49 879.941 696.49C884.186 696.49 887.568 697.88 890.089 700.659C892.61 703.439 893.914 707.231 894 712.036V730.038H846.943V723.832H866.141ZM871.247 723.832H888.926V712.488C888.926 709.407 888.107 707.015 886.47 705.313C884.832 703.59 882.634 702.728 879.876 702.728C877.226 702.728 875.136 703.557 873.607 705.216C872.077 706.854 871.29 709.192 871.247 712.23V723.832ZM846.943 680.266L885.338 664.882L846.943 649.498V641.45H894V647.656H875.675L855.896 647.074L894 662.523V667.274L855.993 682.69L875.675 682.076H894V688.281H846.943V680.266ZM866.141 623.998V612.298C866.205 607.386 867.466 603.551 869.922 600.793C872.378 598.035 875.718 596.656 879.941 596.656C884.186 596.656 887.568 598.046 890.089 600.825C892.61 603.605 893.914 607.397 894 612.201V630.203H846.943V623.998H866.141ZM871.247 623.998H888.926V612.654C888.926 609.573 888.107 607.181 886.47 605.479C884.832 603.755 882.634 602.894 879.876 602.894C877.226 602.894 875.136 603.723 873.607 605.382C872.077 607.02 871.29 609.357 871.247 612.395V623.998ZM894 584.762V590.968H846.943V584.762H894ZM894 520.867L894 527.105H852.05L852.05 550.31H894V556.515H846.943L846.943 520.867H894ZM881.719 483.571V503.285L894 507.713V514.112L846.943 496.143V490.713L894 472.711V479.078L881.719 483.571ZM876.612 501.411V485.413L854.603 493.428L876.612 501.411ZM846.943 430.212H894V436.417H852.05V453.288L870.698 454.128C876.946 454.451 881.643 455.097 884.789 456.067C887.935 457.015 890.251 458.416 891.738 460.269C893.203 462.121 893.957 464.599 894 467.702V469.738H888.926L888.861 468.445C888.71 466.442 888.064 464.901 886.922 463.824C885.759 462.746 883.916 461.928 881.395 461.367C878.875 460.807 874.996 460.409 869.761 460.172L846.943 459.202V430.212ZM866.141 412.921V401.221C866.205 396.309 867.466 392.473 869.922 389.716C872.378 386.958 875.718 385.579 879.941 385.579C884.186 385.579 887.568 386.968 890.089 389.748C892.61 392.527 893.914 396.319 894 401.124V419.126H846.943V412.921H866.141ZM871.247 412.921H888.926V401.577C888.926 398.496 888.107 396.104 886.47 394.402C884.832 392.678 882.634 391.816 879.876 391.816C877.226 391.816 875.136 392.646 873.607 394.305C872.077 395.942 871.29 398.28 871.247 401.318V412.921ZM846.943 369.354L885.338 353.97L846.943 338.586V330.539H894V336.744H875.675L855.896 336.163L894 351.611V356.362L855.993 371.778L875.675 371.164H894V377.37H846.943V369.354ZM866.141 313.087V301.387C866.205 296.474 867.466 292.639 869.922 289.881C872.378 287.123 875.718 285.744 879.941 285.744C884.186 285.744 887.568 287.134 890.089 289.914C892.61 292.693 893.914 296.485 894 301.29V319.292H846.943V313.087H866.141ZM871.247 313.087H888.926V301.742C888.926 298.661 888.107 296.27 886.47 294.568C884.832 292.844 882.634 291.982 879.876 291.982C877.226 291.982 875.136 292.812 873.607 294.471C872.077 296.108 871.29 298.446 871.247 301.484V313.087ZM894 273.851V280.056H846.943V273.851H894Z" fill="black"/>
<path d="M558.196 53.5024L535.508 53.5402L535.532 67.6313L547.231 67.6119C552.144 67.6683 555.981 68.9224 558.744 71.3741C561.506 73.8257 562.89 77.1631 562.898 81.3861C562.905 85.6307 561.521 89.0158 558.746 91.5413C555.971 94.0668 552.181 95.3767 547.376 95.4709L529.342 95.5009L529.261 48.4441L558.187 48.396L558.196 53.5024ZM535.541 72.7378L535.571 90.4164L546.915 90.3975C549.996 90.3924 552.386 89.5697 554.086 87.9293C555.807 86.2889 556.665 84.0898 556.66 81.3319C556.655 78.6817 555.822 76.5931 554.161 75.0661C552.52 73.539 550.181 72.7565 547.143 72.7185L535.541 72.7378ZM597.288 83.1064L577.574 83.1393L573.167 95.4279L566.768 95.4386L584.657 48.3519L590.086 48.3428L608.169 95.3697L601.802 95.3803L597.288 83.1064ZM579.439 78.0297L595.437 78.0031L587.384 56.007L579.439 78.0297ZM650.669 95.2989L644.431 95.3093L644.394 73.5584L620.671 73.5979L620.709 95.3488L614.503 95.3591L614.423 48.3023L620.628 48.292L620.663 68.5238L644.385 68.4843L644.35 48.2525L650.588 48.2421L650.669 95.2989ZM688.235 82.955L668.52 82.9878L664.113 95.2765L657.714 95.2872L675.603 48.2005L681.032 48.1914L699.115 95.2182L692.748 95.2288L688.235 82.955ZM670.386 77.8783L686.384 77.8516L678.331 55.8556L670.386 77.8783ZM741.615 95.1475L735.377 95.1579L735.34 73.407L711.618 73.4465L711.655 95.1974L705.45 95.2077L705.369 48.1509L711.574 48.1406L711.609 68.3724L735.331 68.3329L735.296 48.1011L741.534 48.0907L741.615 95.1475ZM759.084 67.2591L770.784 67.2397C775.696 67.2961 779.534 68.5502 782.296 71.0018C785.058 73.4535 786.443 76.7909 786.45 81.0139C786.457 85.2585 785.073 88.6436 782.298 91.1691C779.523 93.6946 775.733 95.0045 770.928 95.0987L752.927 95.1286L752.846 48.0718L759.051 48.0615L759.084 67.2591ZM759.093 72.3656L759.123 90.0442L770.467 90.0253C773.548 90.0202 775.939 89.1974 777.638 87.5571C779.359 85.9167 780.217 83.7176 780.212 80.9597C780.208 78.3095 779.374 76.2209 777.713 74.6939C776.073 73.1668 773.733 72.3843 770.695 72.3463L759.093 72.3656ZM798.367 95.053L792.162 95.0633L792.081 48.0065L798.287 47.9962L798.367 95.053Z" fill="black"/>
<path d="M361.216 180.411C362.051 184.946 362.018 189.049 361.117 192.72C360.213 196.37 358.526 199.343 356.056 201.638C353.587 203.934 350.488 205.425 346.759 206.112C343.114 206.783 339.719 206.489 336.573 205.228C333.423 203.946 330.759 201.797 328.582 198.78C326.422 195.738 324.919 192.039 324.073 187.682L323.458 184.344C322.638 179.895 322.687 175.821 323.605 172.125C324.524 168.428 326.226 165.42 328.712 163.1C331.216 160.754 334.29 159.246 337.935 158.574C341.643 157.891 345.072 158.19 348.222 159.472C351.389 160.729 354.05 162.923 356.204 166.053C358.355 169.162 359.846 172.974 360.677 177.487L361.216 180.411ZM354.595 178.542C353.583 173.054 351.707 169.051 348.964 166.533C346.218 163.993 342.863 163.089 338.901 163.819C335.045 164.529 332.275 166.562 330.593 169.917C328.928 173.247 328.544 177.525 329.441 182.749L330.067 186.15C331.047 191.469 332.931 195.449 335.718 198.09C338.522 200.706 341.884 201.653 345.804 200.931C349.746 200.205 352.533 198.212 354.168 194.954C355.798 191.674 356.151 187.347 355.227 181.975L354.595 178.542ZM397.842 153.387L382.967 156.127L390.568 197.383L384.497 198.502L376.896 157.246L362.053 159.98L361.127 154.959L396.917 148.365L397.842 153.387ZM453.112 197.593L447.041 198.711L444.951 187.364L411.736 193.483L413.832 204.862L407.73 205.986L404.682 189.623L408.465 188.927C410.043 186.314 411.067 183.014 411.537 179.027C412.025 175.016 412.002 170.726 411.467 166.158L408.836 146.169L436.52 141.068L444.127 182.356L450.166 181.244L453.112 197.593ZM415.425 187.644L437.992 183.486L431.311 147.221L415.641 150.107L417.48 163.834C418.184 169.203 418.31 173.869 417.857 177.83C417.425 181.788 416.614 185.059 415.425 187.644ZM459.673 156.324L471.179 154.204C476.022 153.377 480.022 153.922 483.179 155.838C486.336 157.754 488.298 160.788 489.063 164.941C489.832 169.116 489.078 172.694 486.801 175.677C484.525 178.66 481.031 180.629 476.322 181.584L458.618 184.846L450.092 138.568L456.194 137.444L459.673 156.324ZM460.598 161.345L463.801 178.731L474.957 176.676C477.988 176.118 480.191 174.879 481.568 172.96C482.967 171.038 483.416 168.72 482.917 166.008C482.436 163.402 481.242 161.497 479.333 160.293C477.446 159.085 475.004 158.735 472.009 159.243L460.598 161.345ZM503.307 176.613L497.204 177.737L488.678 131.459L494.78 130.335L503.307 176.613ZM525.065 143.093L532.89 123.313L540.073 121.99L529.68 147.632L548.949 168.204L541.702 169.539L526.997 153.582L518.881 173.743L511.666 175.072L522.37 148.979L503.489 128.73L510.641 127.412L525.065 143.093Z" fill="black"/>
<path d="M869.243 215.712C873.85 215.53 877.907 216.146 881.413 217.561C884.897 218.976 887.6 221.068 889.52 223.839C891.441 226.61 892.476 229.889 892.625 233.679C892.771 237.382 891.996 240.701 890.301 243.635C888.584 246.571 886.077 248.902 882.782 250.627C879.464 252.332 875.588 253.294 871.154 253.512L867.764 253.645C863.242 253.824 859.218 253.195 855.689 251.76C852.161 250.326 849.426 248.212 847.483 245.421C845.517 242.609 844.462 239.352 844.316 235.649C844.167 231.881 844.951 228.529 846.668 225.594C848.363 222.638 850.913 220.316 854.318 218.629C857.702 216.943 861.686 216.01 866.272 215.829L869.243 215.712ZM866.451 222C860.875 222.22 856.645 223.508 853.762 225.864C850.858 228.221 849.485 231.413 849.644 235.439C849.799 239.357 851.417 242.387 854.499 244.53C857.558 246.652 861.737 247.641 867.036 247.496L870.491 247.36C875.895 247.147 880.103 245.849 883.114 243.466C886.102 241.062 887.518 237.869 887.361 233.886C887.203 229.882 885.628 226.839 882.635 224.757C879.62 222.677 875.388 221.712 869.938 221.862L866.451 222ZM847.705 175.613L848.301 190.727L890.219 189.074L890.462 195.242L848.544 196.895L849.139 211.976L844.037 212.178L842.603 175.814L847.705 175.613ZM899.325 127.195L899.569 133.363L888.04 133.818L889.371 167.566L900.932 167.11L901.176 173.31L884.546 173.998L884.395 170.155C882.033 168.222 878.912 166.738 875.033 165.705C871.132 164.652 866.883 164.065 862.285 163.944L842.125 163.704L841.015 135.576L882.966 133.921L882.724 127.785L899.325 127.195ZM884.116 163.083L883.211 140.154L846.364 141.607L846.992 157.528L860.84 157.661C866.255 157.728 870.891 158.268 874.748 159.28C878.603 160.271 881.726 161.538 884.116 163.083ZM859.41 114.829L858.949 103.139C858.82 98.2275 859.928 94.3456 862.274 91.493C864.619 88.6404 867.902 87.1309 872.122 86.9645C876.363 86.7972 879.798 88.0525 882.426 90.7305C885.055 93.4084 886.507 97.1462 886.782 101.944L887.492 119.932L840.472 121.786L840.227 115.586L859.41 114.829ZM864.512 114.628L882.177 113.931L881.73 102.596C881.609 99.5173 880.696 97.1598 878.993 95.5235C877.289 93.8657 875.059 93.0911 872.303 93.1998C869.655 93.3042 867.599 94.2155 866.136 95.9336C864.672 97.6301 863.978 99.997 864.055 103.034L864.512 114.628ZM885.701 74.5261L885.945 80.7266L838.925 82.5812L838.681 76.3807L885.701 74.5261ZM855.618 48.2199L837.153 37.66L836.866 30.3615L860.768 44.2972L883.872 28.1517L884.162 35.5148L866.275 47.7996L885.077 58.702L885.366 66.0328L861.061 51.7249L838.332 67.5321L838.045 60.2659L855.618 48.2199Z" fill="black"/>
<path d="M0.5 132.5H286V245H603.5V132.5H787.5V982" stroke="black" stroke-width="25.86"/>
</svg>
