<svg width="761" height="774" viewBox="0 0 761 774" fill="none" xmlns="http://www.w3.org/2000/svg">
<path d="M605.466 294.953C664.426 294.953 711.132 281.458 760 170V294.953C760 311.446 749.5 406.91 741.977 406.91C698.421 406.91 767.209 342.515 695.5 381C623.792 419.485 490.202 479.383 549.693 429.901C609.184 380.42 605.466 376.921 549.693 344.434C493.92 311.946 546.506 294.953 605.466 294.953Z" fill="#FFED5C"/>
<path d="M0.99904 520.876C0.182927 516.016 0.342865 511.364 0.999039 507.5L0.99904 520.876C3.91417 538.236 19.2826 558.25 68.9718 554.5C148.472 548.5 124.472 580.5 159.972 610C195.472 639.5 189.472 569 253.972 554.5C318.472 540 341 601 341 630C341 653.2 307.5 749 293.5 773.5H0.999075L0.99904 520.876Z" fill="#E1305A"/>
<path d="M442 623.5C377.5 582.5 363 692.5 319 772H700C694 744.666 652.6 647.099 615 623.5C568 594.001 583 559 542 544C501 529 506.5 664.5 442 623.5Z" fill="#008DCB"/>
<path d="M688.5 438.5C732.5 459 704 327 760 286V664.5C760 680.167 750.2 702.1 715 664.5C671 617.5 688.5 579.5 627 562C565.5 544.5 644.5 418 688.5 438.5Z" fill="#FFED5C"/>
<path d="M373 235C279.5 261.5 390.5 179.5 343.5 115L600 115.999L600.5 8.99988L761 9L760.5 41.5004C743 37.5004 702.9 31.9003 660.5 41.5003C607.5 53.5003 660.5 73.5003 660.5 109C660.5 144.5 625 176.5 640 235C655 293.5 537 273 531.5 235C526 197 466.5 208.5 373 235Z" fill="#008DCB"/>
<path d="M1.00108 0.152688C0.999643 0.100103 0.99964 0.0492023 1.00108 0L1.00108 0.152688C1.34899 12.9202 86.0124 124.953 140.823 124.953C195.859 124.953 244.946 141.946 192.884 174.434C140.823 206.922 137.352 210.42 192.884 259.901C248.416 309.383 186.934 321.878 119.998 283.393C53.0623 244.907 1.00124 257.402 1.00118 216.418L1.00112 118.955L1.00108 0.152688Z" fill="#FFED5C"/>
</svg>
