<svg width="294" height="111" viewBox="0 0 294 111" fill="none" xmlns="http://www.w3.org/2000/svg">
<g filter="url(#filter0_i)">
<rect width="294" height="111" rx="47" fill="url(#paint0_linear)" fill-opacity="0.9"/>
</g>
<g filter="url(#filter1_i)">
<path d="M114.164 60.0195C114.164 61.6914 113.883 63.1523 113.32 64.4023C112.758 65.6445 111.961 66.5938 110.93 67.25C109.898 67.9062 108.695 68.2344 107.32 68.2344C105.977 68.2344 104.785 67.9062 103.746 67.25C102.707 66.5859 101.898 65.6445 101.32 64.4258C100.75 63.1992 100.457 61.7812 100.441 60.1719V58.9414C100.441 57.3008 100.727 55.8516 101.297 54.5938C101.867 53.3359 102.672 52.375 103.711 51.7109C104.758 51.0391 105.953 50.7031 107.297 50.7031C108.664 50.7031 109.867 51.0352 110.906 51.6992C111.953 52.3555 112.758 53.3125 113.32 54.5703C113.883 55.8203 114.164 57.2773 114.164 58.9414V60.0195ZM111.926 58.918C111.926 56.8945 111.52 55.3438 110.707 54.2656C109.895 53.1797 108.758 52.6367 107.297 52.6367C105.875 52.6367 104.754 53.1797 103.934 54.2656C103.121 55.3438 102.703 56.8438 102.68 58.7656V60.0195C102.68 61.9805 103.09 63.5234 103.91 64.6484C104.738 65.7656 105.875 66.3242 107.32 66.3242C108.773 66.3242 109.898 65.7969 110.695 64.7422C111.492 63.6797 111.902 62.1602 111.926 60.1836V58.918ZM117.609 50.9375H119.871V66.1602H128.285V50.9375H130.535V66.1133H132.328L132.117 72.1133H130.09V68H117.609V50.9375ZM144.738 60.1133H137.344V66.1602H145.934V68H135.094V50.9375H145.816V52.7891H137.344V58.2734H144.738V60.1133ZM161.848 68H159.586V60.1133H150.984V68H148.734V50.9375H150.984V58.2734H159.586V50.9375H161.848V68ZM170.273 60.3359H168.199V68H165.949V50.9375H168.199V58.4609H169.957L175.922 50.9375H178.723L172.207 59.2109L179.203 68H176.449L170.273 60.3359ZM190.688 63.5469H183.539L181.934 68H179.613L186.129 50.9375H188.098L194.625 68H192.316L190.688 63.5469ZM184.219 61.6953H190.02L187.113 53.7148L184.219 61.6953Z" fill="#272727"/>
</g>
<defs>
<filter id="filter0_i" x="0" y="0" width="294" height="115" filterUnits="userSpaceOnUse" color-interpolation-filters="sRGB">
<feFlood flood-opacity="0" result="BackgroundImageFix"/>
<feBlend mode="normal" in="SourceGraphic" in2="BackgroundImageFix" result="shape"/>
<feColorMatrix in="SourceAlpha" type="matrix" values="0 0 0 0 0 0 0 0 0 0 0 0 0 0 0 0 0 0 127 0" result="hardAlpha"/>
<feOffset dy="4"/>
<feGaussianBlur stdDeviation="2"/>
<feComposite in2="hardAlpha" operator="arithmetic" k2="-1" k3="1"/>
<feColorMatrix type="matrix" values="0 0 0 0 0 0 0 0 0 0 0 0 0 0 0 0 0 0 0.06 0"/>
<feBlend mode="normal" in2="shape" result="effect1_innerShadow"/>
</filter>
<filter id="filter1_i" x="100.441" y="50.7031" width="94.1836" height="25.4102" filterUnits="userSpaceOnUse" color-interpolation-filters="sRGB">
<feFlood flood-opacity="0" result="BackgroundImageFix"/>
<feBlend mode="normal" in="SourceGraphic" in2="BackgroundImageFix" result="shape"/>
<feColorMatrix in="SourceAlpha" type="matrix" values="0 0 0 0 0 0 0 0 0 0 0 0 0 0 0 0 0 0 127 0" result="hardAlpha"/>
<feOffset dy="4"/>
<feGaussianBlur stdDeviation="2"/>
<feComposite in2="hardAlpha" operator="arithmetic" k2="-1" k3="1"/>
<feColorMatrix type="matrix" values="0 0 0 0 0 0 0 0 0 0 0 0 0 0 0 0 0 0 0.25 0"/>
<feBlend mode="normal" in2="shape" result="effect1_innerShadow"/>
</filter>
<linearGradient id="paint0_linear" x1="-144.5" y1="241" x2="294" y2="56" gradientUnits="userSpaceOnUse">
<stop offset="0.208333" stop-color="white"/>
<stop offset="0.348958" stop-color="#DFD3F3"/>
</linearGradient>
</defs>
</svg>
