<svg width="294" height="111" viewBox="0 0 294 111" fill="none" xmlns="http://www.w3.org/2000/svg">
<g filter="url(#filter0_i)">
<rect width="294" height="111" rx="47" fill="url(#paint0_linear)" fill-opacity="0.9"/>
</g>
<g filter="url(#filter1_i)">
<path d="M117.016 65H114.754V49.7891H106.34V65H104.09V47.9375H117.016V65ZM134.02 47.9375V65H131.77V49.7891H125.652L125.348 56.5508C125.23 58.8164 124.996 60.5195 124.645 61.6602C124.301 62.8008 123.793 63.6406 123.121 64.1797C122.449 64.7109 121.551 64.9844 120.426 65H119.688V63.1602L120.156 63.1367C120.883 63.082 121.441 62.8477 121.832 62.4336C122.223 62.0117 122.52 61.3438 122.723 60.4297C122.926 59.5156 123.07 58.1094 123.156 56.2109L123.508 47.9375H134.02ZM156.684 57.0195C156.684 58.6914 156.402 60.1523 155.84 61.4023C155.277 62.6445 154.48 63.5938 153.449 64.25C152.418 64.9062 151.215 65.2344 149.84 65.2344C148.543 65.2344 147.379 64.9219 146.348 64.2969C145.324 63.6719 144.52 62.7773 143.934 61.6133C143.355 60.4492 143.035 59.0898 142.973 57.5352H140.523V65H138.273V47.9375H140.523V55.7656H142.961C142.984 54.1562 143.277 52.7461 143.84 51.5352C144.402 50.3164 145.203 49.375 146.242 48.7109C147.281 48.0391 148.473 47.7031 149.816 47.7031C151.184 47.7031 152.387 48.0352 153.426 48.6992C154.473 49.3555 155.277 50.3125 155.84 51.5703C156.402 52.8203 156.684 54.2773 156.684 55.9414V57.0195ZM154.445 55.918C154.445 53.8945 154.039 52.3438 153.227 51.2656C152.414 50.1797 151.277 49.6367 149.816 49.6367C148.395 49.6367 147.273 50.1797 146.453 51.2656C145.641 52.3438 145.223 53.8438 145.199 55.7656V57.0195C145.199 58.9805 145.609 60.5234 146.43 61.6484C147.258 62.7656 148.395 63.3242 149.84 63.3242C151.293 63.3242 152.418 62.7969 153.215 61.7422C154.012 60.6797 154.422 59.1602 154.445 57.1836V55.918ZM172.129 59.5859C171.918 61.3906 171.25 62.7852 170.125 63.7695C169.008 64.7461 167.52 65.2344 165.66 65.2344C163.645 65.2344 162.027 64.5117 160.809 63.0664C159.598 61.6211 158.992 59.6875 158.992 57.2656V55.625C158.992 54.0391 159.273 52.6445 159.836 51.4414C160.406 50.2383 161.211 49.3164 162.25 48.6758C163.289 48.0273 164.492 47.7031 165.859 47.7031C167.672 47.7031 169.125 48.2109 170.219 49.2266C171.312 50.2344 171.949 51.6328 172.129 53.4219H169.867C169.672 52.0625 169.246 51.0781 168.59 50.4688C167.941 49.8594 167.031 49.5547 165.859 49.5547C164.422 49.5547 163.293 50.0859 162.473 51.1484C161.66 52.2109 161.254 53.7227 161.254 55.6836V57.3359C161.254 59.1875 161.641 60.6602 162.414 61.7539C163.188 62.8477 164.27 63.3945 165.66 63.3945C166.91 63.3945 167.867 63.1133 168.531 62.5508C169.203 61.9805 169.648 60.9922 169.867 59.5859H172.129ZM177.566 54.8984H181.809C183.59 54.9219 184.98 55.3789 185.98 56.2695C186.98 57.1602 187.48 58.3711 187.48 59.9023C187.48 61.4414 186.977 62.668 185.969 63.582C184.961 64.4961 183.586 64.9688 181.844 65H175.316V47.9375H177.566V54.8984ZM177.566 56.75V63.1602H181.68C182.797 63.1602 183.664 62.8633 184.281 62.2695C184.906 61.6758 185.219 60.8789 185.219 59.8789C185.219 58.918 184.918 58.1602 184.316 57.6055C183.723 57.0508 182.875 56.7656 181.773 56.75H177.566ZM191.793 65H189.543V47.9375H191.793V65Z" fill="#272727"/>
</g>
<defs>
<filter id="filter0_i" x="0" y="0" width="294" height="115" filterUnits="userSpaceOnUse" color-interpolation-filters="sRGB">
<feFlood flood-opacity="0" result="BackgroundImageFix"/>
<feBlend mode="normal" in="SourceGraphic" in2="BackgroundImageFix" result="shape"/>
<feColorMatrix in="SourceAlpha" type="matrix" values="0 0 0 0 0 0 0 0 0 0 0 0 0 0 0 0 0 0 127 0" result="hardAlpha"/>
<feOffset dy="4"/>
<feGaussianBlur stdDeviation="2"/>
<feComposite in2="hardAlpha" operator="arithmetic" k2="-1" k3="1"/>
<feColorMatrix type="matrix" values="0 0 0 0 0 0 0 0 0 0 0 0 0 0 0 0 0 0 0.06 0"/>
<feBlend mode="normal" in2="shape" result="effect1_innerShadow"/>
</filter>
<filter id="filter1_i" x="104.09" y="47.7031" width="87.7031" height="21.5312" filterUnits="userSpaceOnUse" color-interpolation-filters="sRGB">
<feFlood flood-opacity="0" result="BackgroundImageFix"/>
<feBlend mode="normal" in="SourceGraphic" in2="BackgroundImageFix" result="shape"/>
<feColorMatrix in="SourceAlpha" type="matrix" values="0 0 0 0 0 0 0 0 0 0 0 0 0 0 0 0 0 0 127 0" result="hardAlpha"/>
<feOffset dy="4"/>
<feGaussianBlur stdDeviation="2"/>
<feComposite in2="hardAlpha" operator="arithmetic" k2="-1" k3="1"/>
<feColorMatrix type="matrix" values="0 0 0 0 0 0 0 0 0 0 0 0 0 0 0 0 0 0 0.25 0"/>
<feBlend mode="normal" in2="shape" result="effect1_innerShadow"/>
</filter>
<linearGradient id="paint0_linear" x1="-144.5" y1="241" x2="294" y2="56" gradientUnits="userSpaceOnUse">
<stop offset="0.208333" stop-color="white"/>
<stop offset="0.348958" stop-color="#DFD3F3"/>
</linearGradient>
</defs>
</svg>
