<svg width="294" height="111" viewBox="0 0 294 111" fill="none" xmlns="http://www.w3.org/2000/svg">
<g filter="url(#filter0_i)">
<rect width="294" height="111" rx="47" fill="url(#paint0_linear)" fill-opacity="0.9"/>
</g>
<g filter="url(#filter1_i)">
<path d="M128.965 60.5859C128.754 62.3906 128.086 63.7852 126.961 64.7695C125.844 65.7461 124.355 66.2344 122.496 66.2344C120.48 66.2344 118.863 65.5117 117.645 64.0664C116.434 62.6211 115.828 60.6875 115.828 58.2656V56.625C115.828 55.0391 116.109 53.6445 116.672 52.4414C117.242 51.2383 118.047 50.3164 119.086 49.6758C120.125 49.0273 121.328 48.7031 122.695 48.7031C124.508 48.7031 125.961 49.2109 127.055 50.2266C128.148 51.2344 128.785 52.6328 128.965 54.4219H126.703C126.508 53.0625 126.082 52.0781 125.426 51.4688C124.777 50.8594 123.867 50.5547 122.695 50.5547C121.258 50.5547 120.129 51.0859 119.309 52.1484C118.496 53.2109 118.09 54.7227 118.09 56.6836V58.3359C118.09 60.1875 118.477 61.6602 119.25 62.7539C120.023 63.8477 121.105 64.3945 122.496 64.3945C123.746 64.3945 124.703 64.1133 125.367 63.5508C126.039 62.9805 126.484 61.9922 126.703 60.5859H128.965ZM141.691 58.1133H134.297V64.1602H142.887V66H132.047V48.9375H142.77V50.7891H134.297V56.2734H141.691V58.1133ZM154.441 53.5195C154.441 52.6133 154.109 51.8945 153.445 51.3633C152.789 50.8242 151.863 50.5547 150.668 50.5547C149.668 50.5547 148.828 50.832 148.148 51.3867C147.477 51.9336 147.141 52.6133 147.141 53.4258H144.891C144.891 52.5195 145.137 51.707 145.629 50.9883C146.129 50.2695 146.824 49.7109 147.715 49.3125C148.605 48.9062 149.59 48.7031 150.668 48.7031C152.574 48.7031 154.055 49.1328 155.109 49.9922C156.164 50.8438 156.691 52.0312 156.691 53.5547C156.691 54.3438 156.449 55.0625 155.965 55.7109C155.48 56.3594 154.805 56.8711 153.938 57.2461C155.945 57.918 156.949 59.25 156.949 61.2422C156.949 62.7734 156.379 63.9883 155.238 64.8867C154.098 65.7852 152.574 66.2344 150.668 66.2344C149.535 66.2344 148.504 66.0352 147.574 65.6367C146.652 65.2305 145.934 64.6562 145.418 63.9141C144.902 63.1719 144.645 62.2891 144.645 61.2656H146.895C146.895 62.1641 147.25 62.9141 147.961 63.5156C148.672 64.1094 149.574 64.4062 150.668 64.4062C151.895 64.4062 152.871 64.1211 153.598 63.5508C154.332 62.9805 154.699 62.2266 154.699 61.2891C154.699 59.2891 153.461 58.2695 150.984 58.2305H148.875V56.3789H150.973C152.113 56.3555 152.977 56.0977 153.562 55.6055C154.148 55.1133 154.441 54.418 154.441 53.5195ZM173.062 58.0195C173.062 59.6914 172.781 61.1523 172.219 62.4023C171.656 63.6445 170.859 64.5938 169.828 65.25C168.797 65.9062 167.594 66.2344 166.219 66.2344C164.875 66.2344 163.684 65.9062 162.645 65.25C161.605 64.5859 160.797 63.6445 160.219 62.4258C159.648 61.1992 159.355 59.7812 159.34 58.1719V56.9414C159.34 55.3008 159.625 53.8516 160.195 52.5938C160.766 51.3359 161.57 50.375 162.609 49.7109C163.656 49.0391 164.852 48.7031 166.195 48.7031C167.562 48.7031 168.766 49.0352 169.805 49.6992C170.852 50.3555 171.656 51.3125 172.219 52.5703C172.781 53.8203 173.062 55.2773 173.062 56.9414V58.0195ZM170.824 56.918C170.824 54.8945 170.418 53.3438 169.605 52.2656C168.793 51.1797 167.656 50.6367 166.195 50.6367C164.773 50.6367 163.652 51.1797 162.832 52.2656C162.02 53.3438 161.602 54.8438 161.578 56.7656V58.0195C161.578 59.9805 161.988 61.5234 162.809 62.6484C163.637 63.7656 164.773 64.3242 166.219 64.3242C167.672 64.3242 168.797 63.7969 169.594 62.7422C170.391 61.6797 170.801 60.1602 170.824 58.1836V56.918ZM189.551 66H187.289V58.1133H178.688V66H176.438V48.9375H178.688V56.2734H187.289V48.9375H189.551V66Z" fill="#272727"/>
</g>
<defs>
<filter id="filter0_i" x="0" y="0" width="294" height="115" filterUnits="userSpaceOnUse" color-interpolation-filters="sRGB">
<feFlood flood-opacity="0" result="BackgroundImageFix"/>
<feBlend mode="normal" in="SourceGraphic" in2="BackgroundImageFix" result="shape"/>
<feColorMatrix in="SourceAlpha" type="matrix" values="0 0 0 0 0 0 0 0 0 0 0 0 0 0 0 0 0 0 127 0" result="hardAlpha"/>
<feOffset dy="4"/>
<feGaussianBlur stdDeviation="2"/>
<feComposite in2="hardAlpha" operator="arithmetic" k2="-1" k3="1"/>
<feColorMatrix type="matrix" values="0 0 0 0 0 0 0 0 0 0 0 0 0 0 0 0 0 0 0.06 0"/>
<feBlend mode="normal" in2="shape" result="effect1_innerShadow"/>
</filter>
<filter id="filter1_i" x="115.828" y="48.7031" width="73.7227" height="21.5312" filterUnits="userSpaceOnUse" color-interpolation-filters="sRGB">
<feFlood flood-opacity="0" result="BackgroundImageFix"/>
<feBlend mode="normal" in="SourceGraphic" in2="BackgroundImageFix" result="shape"/>
<feColorMatrix in="SourceAlpha" type="matrix" values="0 0 0 0 0 0 0 0 0 0 0 0 0 0 0 0 0 0 127 0" result="hardAlpha"/>
<feOffset dy="4"/>
<feGaussianBlur stdDeviation="2"/>
<feComposite in2="hardAlpha" operator="arithmetic" k2="-1" k3="1"/>
<feColorMatrix type="matrix" values="0 0 0 0 0 0 0 0 0 0 0 0 0 0 0 0 0 0 0.25 0"/>
<feBlend mode="normal" in2="shape" result="effect1_innerShadow"/>
</filter>
<linearGradient id="paint0_linear" x1="-144.5" y1="241" x2="294" y2="56" gradientUnits="userSpaceOnUse">
<stop offset="0.208333" stop-color="white"/>
<stop offset="0.348958" stop-color="#DFD3F3"/>
</linearGradient>
</defs>
</svg>
