<svg width="294" height="111" viewBox="0 0 294 111" fill="none" xmlns="http://www.w3.org/2000/svg">
<g filter="url(#filter0_i)">
<rect width="294" height="111" rx="47" fill="url(#paint0_linear)" fill-opacity="0.9"/>
</g>
<g filter="url(#filter1_i)">
<path d="M122.965 60.5859C122.754 62.3906 122.086 63.7852 120.961 64.7695C119.844 65.7461 118.355 66.2344 116.496 66.2344C114.48 66.2344 112.863 65.5117 111.645 64.0664C110.434 62.6211 109.828 60.6875 109.828 58.2656V56.625C109.828 55.0391 110.109 53.6445 110.672 52.4414C111.242 51.2383 112.047 50.3164 113.086 49.6758C114.125 49.0273 115.328 48.7031 116.695 48.7031C118.508 48.7031 119.961 49.2109 121.055 50.2266C122.148 51.2344 122.785 52.6328 122.965 54.4219H120.703C120.508 53.0625 120.082 52.0781 119.426 51.4688C118.777 50.8594 117.867 50.5547 116.695 50.5547C115.258 50.5547 114.129 51.0859 113.309 52.1484C112.496 53.2109 112.09 54.7227 112.09 56.6836V58.3359C112.09 60.1875 112.477 61.6602 113.25 62.7539C114.023 63.8477 115.105 64.3945 116.496 64.3945C117.746 64.3945 118.703 64.1133 119.367 63.5508C120.039 62.9805 120.484 61.9922 120.703 60.5859H122.965ZM135.691 58.1133H128.297V64.1602H136.887V66H126.047V48.9375H136.77V50.7891H128.297V56.2734H135.691V58.1133ZM148.441 53.5195C148.441 52.6133 148.109 51.8945 147.445 51.3633C146.789 50.8242 145.863 50.5547 144.668 50.5547C143.668 50.5547 142.828 50.832 142.148 51.3867C141.477 51.9336 141.141 52.6133 141.141 53.4258H138.891C138.891 52.5195 139.137 51.707 139.629 50.9883C140.129 50.2695 140.824 49.7109 141.715 49.3125C142.605 48.9062 143.59 48.7031 144.668 48.7031C146.574 48.7031 148.055 49.1328 149.109 49.9922C150.164 50.8438 150.691 52.0312 150.691 53.5547C150.691 54.3438 150.449 55.0625 149.965 55.7109C149.48 56.3594 148.805 56.8711 147.938 57.2461C149.945 57.918 150.949 59.25 150.949 61.2422C150.949 62.7734 150.379 63.9883 149.238 64.8867C148.098 65.7852 146.574 66.2344 144.668 66.2344C143.535 66.2344 142.504 66.0352 141.574 65.6367C140.652 65.2305 139.934 64.6562 139.418 63.9141C138.902 63.1719 138.645 62.2891 138.645 61.2656H140.895C140.895 62.1641 141.25 62.9141 141.961 63.5156C142.672 64.1094 143.574 64.4062 144.668 64.4062C145.895 64.4062 146.871 64.1211 147.598 63.5508C148.332 62.9805 148.699 62.2266 148.699 61.2891C148.699 59.2891 147.461 58.2695 144.984 58.2305H142.875V56.3789H144.973C146.113 56.3555 146.977 56.0977 147.562 55.6055C148.148 55.1133 148.441 54.418 148.441 53.5195ZM167.062 58.0195C167.062 59.6914 166.781 61.1523 166.219 62.4023C165.656 63.6445 164.859 64.5938 163.828 65.25C162.797 65.9062 161.594 66.2344 160.219 66.2344C158.875 66.2344 157.684 65.9062 156.645 65.25C155.605 64.5859 154.797 63.6445 154.219 62.4258C153.648 61.1992 153.355 59.7812 153.34 58.1719V56.9414C153.34 55.3008 153.625 53.8516 154.195 52.5938C154.766 51.3359 155.57 50.375 156.609 49.7109C157.656 49.0391 158.852 48.7031 160.195 48.7031C161.562 48.7031 162.766 49.0352 163.805 49.6992C164.852 50.3555 165.656 51.3125 166.219 52.5703C166.781 53.8203 167.062 55.2773 167.062 56.9414V58.0195ZM164.824 56.918C164.824 54.8945 164.418 53.3438 163.605 52.2656C162.793 51.1797 161.656 50.6367 160.195 50.6367C158.773 50.6367 157.652 51.1797 156.832 52.2656C156.02 53.3438 155.602 54.8438 155.578 56.7656V58.0195C155.578 59.9805 155.988 61.5234 156.809 62.6484C157.637 63.7656 158.773 64.3242 160.219 64.3242C161.672 64.3242 162.797 63.7969 163.594 62.7422C164.391 61.6797 164.801 60.1602 164.824 58.1836V56.918ZM183.551 66H181.289V58.1133H172.688V66H170.438V48.9375H172.688V56.2734H181.289V48.9375H183.551V66Z" fill="#272727"/>
</g>
<defs>
<filter id="filter0_i" x="0" y="0" width="294" height="115" filterUnits="userSpaceOnUse" color-interpolation-filters="sRGB">
<feFlood flood-opacity="0" result="BackgroundImageFix"/>
<feBlend mode="normal" in="SourceGraphic" in2="BackgroundImageFix" result="shape"/>
<feColorMatrix in="SourceAlpha" type="matrix" values="0 0 0 0 0 0 0 0 0 0 0 0 0 0 0 0 0 0 127 0" result="hardAlpha"/>
<feOffset dy="4"/>
<feGaussianBlur stdDeviation="2"/>
<feComposite in2="hardAlpha" operator="arithmetic" k2="-1" k3="1"/>
<feColorMatrix type="matrix" values="0 0 0 0 0 0 0 0 0 0 0 0 0 0 0 0 0 0 0.06 0"/>
<feBlend mode="normal" in2="shape" result="effect1_innerShadow"/>
</filter>
<filter id="filter1_i" x="109.828" y="48.7031" width="73.7227" height="21.5312" filterUnits="userSpaceOnUse" color-interpolation-filters="sRGB">
<feFlood flood-opacity="0" result="BackgroundImageFix"/>
<feBlend mode="normal" in="SourceGraphic" in2="BackgroundImageFix" result="shape"/>
<feColorMatrix in="SourceAlpha" type="matrix" values="0 0 0 0 0 0 0 0 0 0 0 0 0 0 0 0 0 0 127 0" result="hardAlpha"/>
<feOffset dy="4"/>
<feGaussianBlur stdDeviation="2"/>
<feComposite in2="hardAlpha" operator="arithmetic" k2="-1" k3="1"/>
<feColorMatrix type="matrix" values="0 0 0 0 0 0 0 0 0 0 0 0 0 0 0 0 0 0 0.25 0"/>
<feBlend mode="normal" in2="shape" result="effect1_innerShadow"/>
</filter>
<linearGradient id="paint0_linear" x1="-144.5" y1="241" x2="294" y2="56" gradientUnits="userSpaceOnUse">
<stop offset="0.208333" stop-color="white"/>
<stop offset="0.348958" stop-color="#DFD3F3"/>
</linearGradient>
</defs>
</svg>
