<svg width="606" height="111" viewBox="0 0 606 111" fill="none" xmlns="http://www.w3.org/2000/svg">
<g filter="url(#filter0_i)">
<rect x="90" width="294" height="111" rx="47" fill="url(#paint0_linear)" fill-opacity="0.9"/>
</g>
<g filter="url(#filter1_i)">
<path d="M159.344 60.3203V67H157.094V49.9375H163.387C165.254 49.9375 166.715 50.4141 167.77 51.3672C168.832 52.3203 169.363 53.582 169.363 55.1523C169.363 56.8086 168.844 58.0859 167.805 58.9844C166.773 59.875 165.293 60.3203 163.363 60.3203H159.344ZM159.344 58.4805H163.387C164.59 58.4805 165.512 58.1992 166.152 57.6367C166.793 57.0664 167.113 56.2461 167.113 55.1758C167.113 54.1602 166.793 53.3477 166.152 52.7383C165.512 52.1289 164.633 51.8125 163.516 51.7891H159.344V58.4805ZM180.039 62.5469H172.891L171.285 67H168.965L175.48 49.9375H177.449L183.977 67H181.668L180.039 62.5469ZM173.57 60.6953H179.371L176.465 52.7148L173.57 60.6953ZM195.027 54.5195C195.027 53.6133 194.695 52.8945 194.031 52.3633C193.375 51.8242 192.449 51.5547 191.254 51.5547C190.254 51.5547 189.414 51.832 188.734 52.3867C188.062 52.9336 187.727 53.6133 187.727 54.4258H185.477C185.477 53.5195 185.723 52.707 186.215 51.9883C186.715 51.2695 187.41 50.7109 188.301 50.3125C189.191 49.9062 190.176 49.7031 191.254 49.7031C193.16 49.7031 194.641 50.1328 195.695 50.9922C196.75 51.8438 197.277 53.0312 197.277 54.5547C197.277 55.3438 197.035 56.0625 196.551 56.7109C196.066 57.3594 195.391 57.8711 194.523 58.2461C196.531 58.918 197.535 60.25 197.535 62.2422C197.535 63.7734 196.965 64.9883 195.824 65.8867C194.684 66.7852 193.16 67.2344 191.254 67.2344C190.121 67.2344 189.09 67.0352 188.16 66.6367C187.238 66.2305 186.52 65.6562 186.004 64.9141C185.488 64.1719 185.23 63.2891 185.23 62.2656H187.48C187.48 63.1641 187.836 63.9141 188.547 64.5156C189.258 65.1094 190.16 65.4062 191.254 65.4062C192.48 65.4062 193.457 65.1211 194.184 64.5508C194.918 63.9805 195.285 63.2266 195.285 62.2891C195.285 60.2891 194.047 59.2695 191.57 59.2305H189.461V57.3789H191.559C192.699 57.3555 193.562 57.0977 194.148 56.6055C194.734 56.1133 195.027 55.418 195.027 54.5195ZM203.43 49.9375L209.008 63.8594L214.586 49.9375H217.504V67H215.254V60.3555L215.465 53.1836L209.863 67H208.141L202.551 53.2188L202.773 60.3555V67H200.523V49.9375H203.43ZM231.121 59.1133H223.727V65.1602H232.316V67H221.477V49.9375H232.199V51.7891H223.727V57.2734H231.121V59.1133ZM237.461 49.9375V65.1602H243.332V49.9375H245.57V65.1602H251.406V49.9375H253.656V65.2305H255.379L255.168 71.1133H253.234V67H235.199V49.9375H237.461ZM268.012 59.1133H260.617V65.1602H269.207V67H258.367V49.9375H269.09V51.7891H260.617V57.2734H268.012V59.1133ZM285.121 67H282.859V59.1133H274.258V67H272.008V49.9375H274.258V57.2734H282.859V49.9375H285.121V67ZM299.875 49.9375H302.125V67H299.875V53.8516L291.473 67H289.211V49.9375H291.473V63.0859L299.875 49.9375ZM315.871 59.1133H308.477V65.1602H317.066V67H306.227V49.9375H316.949V51.7891H308.477V57.2734H315.871V59.1133Z" fill="#272727"/>
</g>
<defs>
<filter id="filter0_i" x="90" y="0" width="294" height="115" filterUnits="userSpaceOnUse" color-interpolation-filters="sRGB">
<feFlood flood-opacity="0" result="BackgroundImageFix"/>
<feBlend mode="normal" in="SourceGraphic" in2="BackgroundImageFix" result="shape"/>
<feColorMatrix in="SourceAlpha" type="matrix" values="0 0 0 0 0 0 0 0 0 0 0 0 0 0 0 0 0 0 127 0" result="hardAlpha"/>
<feOffset dy="4"/>
<feGaussianBlur stdDeviation="2"/>
<feComposite in2="hardAlpha" operator="arithmetic" k2="-1" k3="1"/>
<feColorMatrix type="matrix" values="0 0 0 0 0 0 0 0 0 0 0 0 0 0 0 0 0 0 0.06 0"/>
<feBlend mode="normal" in2="shape" result="effect1_innerShadow"/>
</filter>
<filter id="filter1_i" x="157.094" y="49.7031" width="159.973" height="25.4102" filterUnits="userSpaceOnUse" color-interpolation-filters="sRGB">
<feFlood flood-opacity="0" result="BackgroundImageFix"/>
<feBlend mode="normal" in="SourceGraphic" in2="BackgroundImageFix" result="shape"/>
<feColorMatrix in="SourceAlpha" type="matrix" values="0 0 0 0 0 0 0 0 0 0 0 0 0 0 0 0 0 0 127 0" result="hardAlpha"/>
<feOffset dy="4"/>
<feGaussianBlur stdDeviation="2"/>
<feComposite in2="hardAlpha" operator="arithmetic" k2="-1" k3="1"/>
<feColorMatrix type="matrix" values="0 0 0 0 0 0 0 0 0 0 0 0 0 0 0 0 0 0 0.25 0"/>
<feBlend mode="normal" in2="shape" result="effect1_innerShadow"/>
</filter>
<linearGradient id="paint0_linear" x1="-54.5" y1="241" x2="384" y2="56" gradientUnits="userSpaceOnUse">
<stop offset="0.208333" stop-color="white"/>
<stop offset="0.348958" stop-color="#DFD3F3"/>
</linearGradient>
</defs>
</svg>
