<svg width="294" height="111" viewBox="0 0 294 111" fill="none" xmlns="http://www.w3.org/2000/svg">
<g filter="url(#filter0_i)">
<rect width="294" height="111" rx="47" fill="url(#paint0_linear)" fill-opacity="0.9"/>
</g>
<g filter="url(#filter1_i)">
<path d="M92.9648 58.8398L96.8906 48.9375H99.5039L93.4688 63.1523C93.0625 64.0586 92.6836 64.7031 92.332 65.0859C91.9805 65.4609 91.5664 65.75 91.0898 65.9531C90.6211 66.1484 90.0312 66.2461 89.3203 66.2461C88.7031 66.2461 88.3086 66.2109 88.1367 66.1406L88.207 64.3594L89.2734 64.4062C90.0938 64.4062 90.7031 64.0117 91.1016 63.2227L91.3945 62.6133L91.8398 61.5703L86.0273 48.9375H88.5469L92.9648 58.8398ZM116.59 70.1836H114.352V66H102.105V70.1953H99.8555L99.8438 64.1602H101.238C101.973 63.332 102.555 62.2227 102.984 60.832C103.422 59.4336 103.695 57.9023 103.805 56.2383L104.18 48.9375H114.387V64.1602H116.613L116.59 70.1836ZM103.805 64.1602H112.125V50.7891H106.348L106.102 55.8047C106 57.7656 105.738 59.4375 105.316 60.8203C104.902 62.2031 104.398 63.3164 103.805 64.1602ZM132.129 58.0195C132.129 59.6914 131.848 61.1523 131.285 62.4023C130.723 63.6445 129.926 64.5938 128.895 65.25C127.863 65.9062 126.66 66.2344 125.285 66.2344C123.941 66.2344 122.75 65.9062 121.711 65.25C120.672 64.5859 119.863 63.6445 119.285 62.4258C118.715 61.1992 118.422 59.7812 118.406 58.1719V56.9414C118.406 55.3008 118.691 53.8516 119.262 52.5938C119.832 51.3359 120.637 50.375 121.676 49.7109C122.723 49.0391 123.918 48.7031 125.262 48.7031C126.629 48.7031 127.832 49.0352 128.871 49.6992C129.918 50.3555 130.723 51.3125 131.285 52.5703C131.848 53.8203 132.129 55.2773 132.129 56.9414V58.0195ZM129.891 56.918C129.891 54.8945 129.484 53.3438 128.672 52.2656C127.859 51.1797 126.723 50.6367 125.262 50.6367C123.84 50.6367 122.719 51.1797 121.898 52.2656C121.086 53.3438 120.668 54.8438 120.645 56.7656V58.0195C120.645 59.9805 121.055 61.5234 121.875 62.6484C122.703 63.7656 123.84 64.3242 125.285 64.3242C126.738 64.3242 127.863 63.7969 128.66 62.7422C129.457 61.6797 129.867 60.1602 129.891 58.1836V56.918ZM145.91 50.7891H137.684V55.8984H141.926C143.707 55.9219 145.098 56.3789 146.098 57.2695C147.098 58.1602 147.598 59.3711 147.598 60.9023C147.598 62.4414 147.094 63.668 146.086 64.582C145.078 65.4961 143.703 65.9688 141.961 66H135.422V48.9375H145.91V50.7891ZM137.684 57.75V64.1602H141.797C142.914 64.1602 143.781 63.8633 144.398 63.2695C145.023 62.6758 145.336 61.8789 145.336 60.8789C145.336 59.918 145.035 59.1602 144.434 58.6055C143.84 58.0508 142.992 57.7656 141.891 57.75H137.684ZM163.195 60.5859C162.984 62.3906 162.316 63.7852 161.191 64.7695C160.074 65.7461 158.586 66.2344 156.727 66.2344C154.711 66.2344 153.094 65.5117 151.875 64.0664C150.664 62.6211 150.059 60.6875 150.059 58.2656V56.625C150.059 55.0391 150.34 53.6445 150.902 52.4414C151.473 51.2383 152.277 50.3164 153.316 49.6758C154.355 49.0273 155.559 48.7031 156.926 48.7031C158.738 48.7031 160.191 49.2109 161.285 50.2266C162.379 51.2344 163.016 52.6328 163.195 54.4219H160.934C160.738 53.0625 160.312 52.0781 159.656 51.4688C159.008 50.8594 158.098 50.5547 156.926 50.5547C155.488 50.5547 154.359 51.0859 153.539 52.1484C152.727 53.2109 152.32 54.7227 152.32 56.6836V58.3359C152.32 60.1875 152.707 61.6602 153.48 62.7539C154.254 63.8477 155.336 64.3945 156.727 64.3945C157.977 64.3945 158.934 64.1133 159.598 63.5508C160.27 62.9805 160.715 61.9922 160.934 60.5859H163.195ZM177.715 50.7891H172.23V66H169.992V50.7891H164.52V48.9375H177.715V50.7891ZM180.246 66V48.9375H185.824C187.676 48.9375 189.066 49.3203 189.996 50.0859C190.934 50.8516 191.402 51.9844 191.402 53.4844C191.402 54.2812 191.176 54.9883 190.723 55.6055C190.27 56.2148 189.652 56.6875 188.871 57.0234C189.793 57.2812 190.52 57.7734 191.051 58.5C191.59 59.2188 191.859 60.0781 191.859 61.0781C191.859 62.6094 191.363 63.8125 190.371 64.6875C189.379 65.5625 187.977 66 186.164 66H180.246ZM182.496 58.0195V64.1602H186.211C187.258 64.1602 188.082 63.8906 188.684 63.3516C189.293 62.8047 189.598 62.0547 189.598 61.1016C189.598 59.0469 188.48 58.0195 186.246 58.0195H182.496ZM182.496 56.2148H185.895C186.879 56.2148 187.664 55.9688 188.25 55.4766C188.844 54.9844 189.141 54.3164 189.141 53.4727C189.141 52.5352 188.867 51.8555 188.32 51.4336C187.773 51.0039 186.941 50.7891 185.824 50.7891H182.496V56.2148ZM204.621 61.5469H197.473L195.867 66H193.547L200.062 48.9375H202.031L208.559 66H206.25L204.621 61.5469ZM198.152 59.6953H203.953L201.047 51.7148L198.152 59.6953Z" fill="#272727"/>
</g>
<defs>
<filter id="filter0_i" x="0" y="0" width="294" height="115" filterUnits="userSpaceOnUse" color-interpolation-filters="sRGB">
<feFlood flood-opacity="0" result="BackgroundImageFix"/>
<feBlend mode="normal" in="SourceGraphic" in2="BackgroundImageFix" result="shape"/>
<feColorMatrix in="SourceAlpha" type="matrix" values="0 0 0 0 0 0 0 0 0 0 0 0 0 0 0 0 0 0 127 0" result="hardAlpha"/>
<feOffset dy="4"/>
<feGaussianBlur stdDeviation="2"/>
<feComposite in2="hardAlpha" operator="arithmetic" k2="-1" k3="1"/>
<feColorMatrix type="matrix" values="0 0 0 0 0 0 0 0 0 0 0 0 0 0 0 0 0 0 0.06 0"/>
<feBlend mode="normal" in2="shape" result="effect1_innerShadow"/>
</filter>
<filter id="filter1_i" x="86.0273" y="48.7031" width="122.531" height="25.4922" filterUnits="userSpaceOnUse" color-interpolation-filters="sRGB">
<feFlood flood-opacity="0" result="BackgroundImageFix"/>
<feBlend mode="normal" in="SourceGraphic" in2="BackgroundImageFix" result="shape"/>
<feColorMatrix in="SourceAlpha" type="matrix" values="0 0 0 0 0 0 0 0 0 0 0 0 0 0 0 0 0 0 127 0" result="hardAlpha"/>
<feOffset dy="4"/>
<feGaussianBlur stdDeviation="2"/>
<feComposite in2="hardAlpha" operator="arithmetic" k2="-1" k3="1"/>
<feColorMatrix type="matrix" values="0 0 0 0 0 0 0 0 0 0 0 0 0 0 0 0 0 0 0.25 0"/>
<feBlend mode="normal" in2="shape" result="effect1_innerShadow"/>
</filter>
<linearGradient id="paint0_linear" x1="-144.5" y1="241" x2="294" y2="56" gradientUnits="userSpaceOnUse">
<stop offset="0.208333" stop-color="white"/>
<stop offset="0.348958" stop-color="#DFD3F3"/>
</linearGradient>
</defs>
</svg>
