<svg width="294" height="111" viewBox="0 0 294 111" fill="none" xmlns="http://www.w3.org/2000/svg">
<g filter="url(#filter0_i)">
<rect width="294" height="111" rx="47" fill="url(#paint0_linear)" fill-opacity="0.9"/>
</g>
<g filter="url(#filter1_i)">
<path d="M60.1289 52.5195C60.1289 51.6133 59.7969 50.8945 59.1328 50.3633C58.4766 49.8242 57.5508 49.5547 56.3555 49.5547C55.3555 49.5547 54.5156 49.832 53.8359 50.3867C53.1641 50.9336 52.8281 51.6133 52.8281 52.4258H50.5781C50.5781 51.5195 50.8242 50.707 51.3164 49.9883C51.8164 49.2695 52.5117 48.7109 53.4023 48.3125C54.293 47.9062 55.2773 47.7031 56.3555 47.7031C58.2617 47.7031 59.7422 48.1328 60.7969 48.9922C61.8516 49.8438 62.3789 51.0312 62.3789 52.5547C62.3789 53.3438 62.1367 54.0625 61.6523 54.7109C61.168 55.3594 60.4922 55.8711 59.625 56.2461C61.6328 56.918 62.6367 58.25 62.6367 60.2422C62.6367 61.7734 62.0664 62.9883 60.9258 63.8867C59.7852 64.7852 58.2617 65.2344 56.3555 65.2344C55.2227 65.2344 54.1914 65.0352 53.2617 64.6367C52.3398 64.2305 51.6211 63.6562 51.1055 62.9141C50.5898 62.1719 50.332 61.2891 50.332 60.2656H52.582C52.582 61.1641 52.9375 61.9141 53.6484 62.5156C54.3594 63.1094 55.2617 63.4062 56.3555 63.4062C57.582 63.4062 58.5586 63.1211 59.2852 62.5508C60.0195 61.9805 60.3867 61.2266 60.3867 60.2891C60.3867 58.2891 59.1484 57.2695 56.6719 57.2305H54.5625V55.3789H56.6602C57.8008 55.3555 58.6641 55.0977 59.25 54.6055C59.8359 54.1133 60.1289 53.418 60.1289 52.5195ZM75.0469 60.5469H67.8984L66.293 65H63.9727L70.4883 47.9375H72.457L78.9844 65H76.6758L75.0469 60.5469ZM68.5781 58.6953H74.3789L71.4727 50.7148L68.5781 58.6953ZM91.6875 49.7891H83.4609V54.8984H87.7031C89.4844 54.9219 90.875 55.3789 91.875 56.2695C92.875 57.1602 93.375 58.3711 93.375 59.9023C93.375 61.4414 92.8711 62.668 91.8633 63.582C90.8555 64.4961 89.4805 64.9688 87.7383 65H81.1992V47.9375H91.6875V49.7891ZM83.4609 56.75V63.1602H87.5742C88.6914 63.1602 89.5586 62.8633 90.1758 62.2695C90.8008 61.6758 91.1133 60.8789 91.1133 59.8789C91.1133 58.918 90.8125 58.1602 90.2109 57.6055C89.6172 57.0508 88.7695 56.7656 87.668 56.75H83.4609ZM98.6719 58.3203V65H96.4219V47.9375H102.715C104.582 47.9375 106.043 48.4141 107.098 49.3672C108.16 50.3203 108.691 51.582 108.691 53.1523C108.691 54.8086 108.172 56.0859 107.133 56.9844C106.102 57.875 104.621 58.3203 102.691 58.3203H98.6719ZM98.6719 56.4805H102.715C103.918 56.4805 104.84 56.1992 105.48 55.6367C106.121 55.0664 106.441 54.2461 106.441 53.1758C106.441 52.1602 106.121 51.3477 105.48 50.7383C104.84 50.1289 103.961 49.8125 102.844 49.7891H98.6719V56.4805ZM124.688 57.0195C124.688 58.6914 124.406 60.1523 123.844 61.4023C123.281 62.6445 122.484 63.5938 121.453 64.25C120.422 64.9062 119.219 65.2344 117.844 65.2344C116.5 65.2344 115.309 64.9062 114.27 64.25C113.23 63.5859 112.422 62.6445 111.844 61.4258C111.273 60.1992 110.98 58.7812 110.965 57.1719V55.9414C110.965 54.3008 111.25 52.8516 111.82 51.5938C112.391 50.3359 113.195 49.375 114.234 48.7109C115.281 48.0391 116.477 47.7031 117.82 47.7031C119.188 47.7031 120.391 48.0352 121.43 48.6992C122.477 49.3555 123.281 50.3125 123.844 51.5703C124.406 52.8203 124.688 54.2773 124.688 55.9414V57.0195ZM122.449 55.918C122.449 53.8945 122.043 52.3438 121.23 51.2656C120.418 50.1797 119.281 49.6367 117.82 49.6367C116.398 49.6367 115.277 50.1797 114.457 51.2656C113.645 52.3438 113.227 53.8438 113.203 55.7656V57.0195C113.203 58.9805 113.613 60.5234 114.434 61.6484C115.262 62.7656 116.398 63.3242 117.844 63.3242C119.297 63.3242 120.422 62.7969 121.219 61.7422C122.016 60.6797 122.426 59.1602 122.449 57.1836V55.918ZM141.176 65H138.914V57.1133H130.312V65H128.062V47.9375H130.312V55.2734H138.914V47.9375H141.176V65ZM155.93 47.9375H158.18V65H155.93V51.8516L147.527 65H145.266V47.9375H147.527V61.0859L155.93 47.9375ZM164.531 58.3203V65H162.281V47.9375H168.574C170.441 47.9375 171.902 48.4141 172.957 49.3672C174.02 50.3203 174.551 51.582 174.551 53.1523C174.551 54.8086 174.031 56.0859 172.992 56.9844C171.961 57.875 170.48 58.3203 168.551 58.3203H164.531ZM164.531 56.4805H168.574C169.777 56.4805 170.699 56.1992 171.34 55.6367C171.98 55.0664 172.301 54.2461 172.301 53.1758C172.301 52.1602 171.98 51.3477 171.34 50.7383C170.699 50.1289 169.82 49.8125 168.703 49.7891H164.531V56.4805ZM190.547 57.0195C190.547 58.6914 190.266 60.1523 189.703 61.4023C189.141 62.6445 188.344 63.5938 187.312 64.25C186.281 64.9062 185.078 65.2344 183.703 65.2344C182.359 65.2344 181.168 64.9062 180.129 64.25C179.09 63.5859 178.281 62.6445 177.703 61.4258C177.133 60.1992 176.84 58.7812 176.824 57.1719V55.9414C176.824 54.3008 177.109 52.8516 177.68 51.5938C178.25 50.3359 179.055 49.375 180.094 48.7109C181.141 48.0391 182.336 47.7031 183.68 47.7031C185.047 47.7031 186.25 48.0352 187.289 48.6992C188.336 49.3555 189.141 50.3125 189.703 51.5703C190.266 52.8203 190.547 54.2773 190.547 55.9414V57.0195ZM188.309 55.918C188.309 53.8945 187.902 52.3438 187.09 51.2656C186.277 50.1797 185.141 49.6367 183.68 49.6367C182.258 49.6367 181.137 50.1797 180.316 51.2656C179.504 52.3438 179.086 53.8438 179.062 55.7656V57.0195C179.062 58.9805 179.473 60.5234 180.293 61.6484C181.121 62.7656 182.258 63.3242 183.703 63.3242C185.156 63.3242 186.281 62.7969 187.078 61.7422C187.875 60.6797 188.285 59.1602 188.309 57.1836V55.918ZM193.922 65V47.9375H199.5C201.352 47.9375 202.742 48.3203 203.672 49.0859C204.609 49.8516 205.078 50.9844 205.078 52.4844C205.078 53.2812 204.852 53.9883 204.398 54.6055C203.945 55.2148 203.328 55.6875 202.547 56.0234C203.469 56.2812 204.195 56.7734 204.727 57.5C205.266 58.2188 205.535 59.0781 205.535 60.0781C205.535 61.6094 205.039 62.8125 204.047 63.6875C203.055 64.5625 201.652 65 199.84 65H193.922ZM196.172 57.0195V63.1602H199.887C200.934 63.1602 201.758 62.8906 202.359 62.3516C202.969 61.8047 203.273 61.0547 203.273 60.1016C203.273 58.0469 202.156 57.0195 199.922 57.0195H196.172ZM196.172 55.2148H199.57C200.555 55.2148 201.34 54.9688 201.926 54.4766C202.52 53.9844 202.816 53.3164 202.816 52.4727C202.816 51.5352 202.543 50.8555 201.996 50.4336C201.449 50.0039 200.617 49.7891 199.5 49.7891H196.172V55.2148ZM218.297 60.5469H211.148L209.543 65H207.223L213.738 47.9375H215.707L222.234 65H219.926L218.297 60.5469ZM211.828 58.6953H217.629L214.723 50.7148L211.828 58.6953ZM234.797 49.7891H229.312V65H227.074V49.7891H221.602V47.9375H234.797V49.7891ZM239.695 54.8984H243.938C245.719 54.9219 247.109 55.3789 248.109 56.2695C249.109 57.1602 249.609 58.3711 249.609 59.9023C249.609 61.4414 249.105 62.668 248.098 63.582C247.09 64.4961 245.715 64.9688 243.973 65H237.445V47.9375H239.695V54.8984ZM239.695 56.75V63.1602H243.809C244.926 63.1602 245.793 62.8633 246.41 62.2695C247.035 61.6758 247.348 60.8789 247.348 59.8789C247.348 58.918 247.047 58.1602 246.445 57.6055C245.852 57.0508 245.004 56.7656 243.902 56.75H239.695Z" fill="#272727"/>
</g>
<defs>
<filter id="filter0_i" x="0" y="0" width="294" height="115" filterUnits="userSpaceOnUse" color-interpolation-filters="sRGB">
<feFlood flood-opacity="0" result="BackgroundImageFix"/>
<feBlend mode="normal" in="SourceGraphic" in2="BackgroundImageFix" result="shape"/>
<feColorMatrix in="SourceAlpha" type="matrix" values="0 0 0 0 0 0 0 0 0 0 0 0 0 0 0 0 0 0 127 0" result="hardAlpha"/>
<feOffset dy="4"/>
<feGaussianBlur stdDeviation="2"/>
<feComposite in2="hardAlpha" operator="arithmetic" k2="-1" k3="1"/>
<feColorMatrix type="matrix" values="0 0 0 0 0 0 0 0 0 0 0 0 0 0 0 0 0 0 0.06 0"/>
<feBlend mode="normal" in2="shape" result="effect1_innerShadow"/>
</filter>
<filter id="filter1_i" x="50.332" y="47.7031" width="199.277" height="21.5312" filterUnits="userSpaceOnUse" color-interpolation-filters="sRGB">
<feFlood flood-opacity="0" result="BackgroundImageFix"/>
<feBlend mode="normal" in="SourceGraphic" in2="BackgroundImageFix" result="shape"/>
<feColorMatrix in="SourceAlpha" type="matrix" values="0 0 0 0 0 0 0 0 0 0 0 0 0 0 0 0 0 0 127 0" result="hardAlpha"/>
<feOffset dy="4"/>
<feGaussianBlur stdDeviation="2"/>
<feComposite in2="hardAlpha" operator="arithmetic" k2="-1" k3="1"/>
<feColorMatrix type="matrix" values="0 0 0 0 0 0 0 0 0 0 0 0 0 0 0 0 0 0 0.25 0"/>
<feBlend mode="normal" in2="shape" result="effect1_innerShadow"/>
</filter>
<linearGradient id="paint0_linear" x1="-144.5" y1="241" x2="294" y2="56" gradientUnits="userSpaceOnUse">
<stop offset="0.208333" stop-color="white"/>
<stop offset="0.348958" stop-color="#DFD3F3"/>
</linearGradient>
</defs>
</svg>
