<svg width="62" height="339" viewBox="0 0 62 339" fill="none" xmlns="http://www.w3.org/2000/svg">
<path d="M33.2627 325.826L33.1299 331.544L54.261 332.034L54.1169 338.238L7.07269 337.148L7.21676 330.944L27.9602 331.425L28.0727 326.578L7.71125 309.651L7.89059 301.929L30.2847 320.422L54.9656 301.695L54.7893 309.288L33.2627 325.826ZM33.9105 260.344C38.5202 260.451 42.5302 261.32 45.9407 262.95C49.3296 264.581 51.8957 266.839 53.6391 269.724C55.3824 272.609 56.2101 275.947 56.1221 279.738C56.036 283.443 55.055 286.707 53.1791 289.53C51.2816 292.353 48.6342 294.522 45.2369 296.038C41.8186 297.532 37.8902 298.249 33.4519 298.189L30.0593 298.111C25.5358 298.006 21.5583 297.127 18.1268 295.474C14.6953 293.822 12.0974 291.542 10.333 288.634C8.54755 285.705 7.69785 282.388 7.78389 278.683C7.87144 274.913 8.86394 271.617 10.7614 268.795C12.6378 265.95 15.3281 263.793 18.8321 262.322C22.3146 260.851 26.3499 260.169 30.938 260.275L33.9105 260.344ZM30.73 266.445C25.1511 266.316 20.8493 267.337 17.8247 269.508C14.7785 271.679 13.2087 274.778 13.1151 278.806C13.0241 282.727 14.4494 285.852 17.391 288.184C20.3115 290.493 24.4205 291.741 29.7179 291.928L33.1752 292.008C38.5818 292.134 42.8623 291.101 46.0167 288.912C49.15 286.7 50.7629 283.601 50.8554 279.616C50.9485 275.61 49.5665 272.474 46.7096 270.21C43.8311 267.945 39.6678 266.717 34.2196 266.526L30.73 266.445ZM35.2827 238.845L35.1499 244.564L56.281 245.054L56.1369 251.258L9.09268 250.168L9.23675 243.964L29.9802 244.445L30.0927 239.598L9.73124 222.671L9.91058 214.949L32.3047 233.442L56.9856 214.714L56.8092 222.307L35.2827 238.845ZM15.9334 175.552L15.5822 190.673L57.5213 191.645L57.378 197.816L15.4389 196.844L15.0884 211.933L9.98337 211.815L10.8283 175.433L15.9334 175.552ZM36.9071 142.449L36.4336 162.837L53.1059 163.223L53.6559 139.539L58.7287 139.657L58.0346 169.544L10.9904 168.454L11.677 138.89L16.782 139.008L16.2395 162.369L31.3609 162.719L31.8344 142.331L36.9071 142.449ZM12.5526 101.184L12.6967 94.9799L59.7409 96.0701L59.5969 102.274L23.3444 101.434L59.0589 125.44L58.914 131.676L11.8698 130.586L12.0146 124.35L48.2671 125.19L12.5526 101.184ZM0.815674 102.657C3.42206 102.718 5.50149 103.66 7.05396 105.485C8.58539 107.288 9.31759 109.632 9.25056 112.519C9.18352 115.405 8.33225 117.724 6.69674 119.475C5.06123 121.226 2.95105 122.071 0.366203 122.011L0.479509 117.132C1.98734 117.167 3.18156 116.786 4.06219 115.987C4.92127 115.188 5.36908 114.002 5.40559 112.43C5.44061 110.922 5.04784 109.738 4.22727 108.879C3.4072 107.998 2.23249 107.539 0.703119 107.504L0.815674 102.657ZM13.7855 48.0973L60.8297 49.1874L60.6857 55.3911L18.7465 54.4192L18.3548 71.2854L36.9785 72.5574C43.2177 73.0253 47.8985 73.7803 51.0209 74.8225C54.1438 75.8432 56.4269 77.2969 57.8701 79.1839C59.2919 81.0703 59.9883 83.5649 59.9593 86.6677L59.912 88.7033L54.8393 88.5857L54.8047 87.2918C54.7004 85.285 54.09 83.7299 52.9733 82.6265C51.8352 81.5225 50.0125 80.6613 47.5052 80.0428C44.998 79.4244 41.13 78.936 35.9012 78.5778L13.1124 77.0799L13.7855 48.0973ZM14.7362 7.15983L14.8803 0.956198L61.9245 2.04633L61.7804 8.24996L25.5279 7.4099L61.2424 31.4166L61.0976 37.6526L14.0534 36.5624L14.1982 30.3265L50.4507 31.1666L14.7362 7.15983Z" fill="black"/>
</svg>
