<svg width="411" height="49" viewBox="0 0 411 49" fill="none" xmlns="http://www.w3.org/2000/svg">
<path d="M8.47714 0.943132L23.8611 39.3384L39.2451 0.943132L47.2926 0.943132L47.2926 48H41.0873V29.675L41.669 9.89557L26.2204 48H21.4695L6.05319 9.99253L6.66726 29.675L6.66726 48H0.461958L0.461958 0.943132L8.47714 0.943132ZM94.4464 25.9906C94.4464 30.6015 93.6708 34.6306 92.1194 38.078C90.5681 41.5038 88.3704 44.1217 85.5263 45.9316C82.6822 47.7414 79.3641 48.6464 75.572 48.6464C71.866 48.6464 68.5802 47.7414 65.7146 45.9316C62.8489 44.1001 60.6189 41.5038 59.0245 38.1426C57.4516 34.7599 56.6436 30.8492 56.6005 26.4107V23.0172C56.6005 18.4925 57.387 14.4957 58.9599 11.0267C60.5327 7.55781 62.752 4.90763 65.6176 3.0762C68.5048 1.22323 71.8014 0.296746 75.5073 0.296746C79.2779 0.296746 82.596 1.21246 85.4617 3.04388C88.3488 4.85376 90.5681 7.49317 92.1194 10.9621C93.6708 14.4095 94.4464 18.4279 94.4464 23.0172V25.9906ZM88.2734 22.9526C88.2734 17.3721 87.153 13.0952 84.9122 10.1218C82.6714 7.12689 79.5365 5.62943 75.5073 5.62943C71.5859 5.62943 68.494 7.12689 66.2317 10.1218C63.9909 13.0952 62.8382 17.232 62.7735 22.5324V25.9906C62.7735 31.3987 63.9047 35.654 66.167 38.7567C68.4509 41.8378 71.5859 43.3783 75.572 43.3783C79.5796 43.3783 82.6822 41.924 84.8799 39.0152C87.0776 36.085 88.2088 31.8942 88.2734 26.443V22.9526ZM109.96 29.578L109.96 48H103.754L103.754 0.943132L121.11 0.943132C126.259 0.943132 130.288 2.25745 133.197 4.88608C136.128 7.51472 137.593 10.9944 137.593 15.3252C137.593 19.893 136.16 23.4158 133.294 25.8936C130.45 28.3499 126.367 29.578 121.045 29.578H109.96ZM109.96 24.5039H121.11C124.428 24.5039 126.97 23.7282 128.737 22.1769C130.504 20.604 131.387 18.3417 131.387 15.3898C131.387 12.5888 130.504 10.348 128.737 8.66744C126.97 6.98684 124.546 6.11422 121.465 6.04958L109.96 6.04958V24.5039ZM181.708 25.9906C181.708 30.6015 180.933 34.6306 179.381 38.078C177.83 41.5038 175.632 44.1217 172.788 45.9316C169.944 47.7414 166.626 48.6464 162.834 48.6464C159.128 48.6464 155.842 47.7414 152.977 45.9316C150.111 44.1001 147.881 41.5038 146.287 38.1426C144.714 34.7599 143.906 30.8492 143.863 26.4107V23.0172C143.863 18.4925 144.649 14.4957 146.222 11.0267C147.795 7.55781 150.014 4.90763 152.88 3.0762C155.767 1.22323 159.063 0.296746 162.769 0.296746C166.54 0.296746 169.858 1.21246 172.724 3.04388C175.611 4.85376 177.83 7.49317 179.381 10.9621C180.933 14.4095 181.708 18.4279 181.708 23.0172V25.9906ZM175.535 22.9526C175.535 17.3721 174.415 13.0952 172.174 10.1218C169.933 7.12689 166.799 5.62943 162.769 5.62943C158.848 5.62943 155.756 7.12689 153.494 10.1218C151.253 13.0952 150.1 17.232 150.036 22.5324V25.9906C150.036 31.3987 151.167 35.654 153.429 38.7567C155.713 41.8378 158.848 43.3783 162.834 43.3783C166.842 43.3783 169.944 41.924 172.142 39.0152C174.34 36.085 175.471 31.8942 175.535 26.443V22.9526ZM223.368 26.54H218.326V48H212.121V26.54H206.788L193.473 48H185.716L201.553 23.1788L186.944 0.943132H194.281L206.788 21.3689H212.121V0.943132H218.326V21.3689H223.433L235.94 0.943132L243.244 0.943132L228.636 23.1465L244.473 48H236.748L223.368 26.54ZM277.018 26.2491H256.625V42.9259H280.315V48H250.419V0.943132L279.991 0.943132V6.04958L256.625 6.04958V21.175H277.018V26.2491ZM324.204 48H317.967V26.2491H294.244V48H288.039V0.943132L294.244 0.943132V21.175H317.967V0.943132H324.204V48ZM371.423 25.9906C371.423 30.6015 370.647 34.6306 369.096 38.078C367.544 41.5038 365.347 44.1217 362.503 45.9316C359.658 47.7414 356.34 48.6464 352.548 48.6464C348.842 48.6464 345.556 47.7414 342.691 45.9316C339.825 44.1001 337.595 41.5038 336.001 38.1426C334.428 34.7599 333.62 30.8492 333.577 26.4107V23.0172C333.577 18.4925 334.363 14.4957 335.936 11.0267C337.509 7.55781 339.728 4.90763 342.594 3.0762C345.481 1.22323 348.778 0.296746 352.484 0.296746C356.254 0.296746 359.572 1.21246 362.438 3.04388C365.325 4.85376 367.544 7.49317 369.096 10.9621C370.647 14.4095 371.423 18.4279 371.423 23.0172V25.9906ZM365.25 22.9526C365.25 17.3721 364.129 13.0952 361.888 10.1218C359.648 7.12689 356.513 5.62943 352.484 5.62943C348.562 5.62943 345.47 7.12689 343.208 10.1218C340.967 13.0952 339.814 17.232 339.75 22.5324V25.9906C339.75 31.3987 340.881 35.654 343.143 38.7567C345.427 41.8378 348.562 43.3783 352.548 43.3783C356.556 43.3783 359.658 41.924 361.856 39.0152C364.054 36.085 365.185 31.8942 365.25 26.443V22.9526ZM407.329 26.2491L386.936 26.2491V42.9259L410.626 42.9259V48L380.731 48V0.943132L410.303 0.943132V6.04958L386.936 6.04958V21.175L407.329 21.175V26.2491Z" fill="black"/>
</svg>
