<svg width="272" height="755" viewBox="0 0 272 755" fill="none" xmlns="http://www.w3.org/2000/svg">
<path d="M259 13V742H136.748H13V13H259Z" stroke="black" stroke-width="25.86"/>
<path d="M13 255H257.5" stroke="black" stroke-width="25.86"/>
<path d="M118 566C72.5 580.5 105.5 638 26.5 633V731.5H247V546C244.5 522.833 244.3 480.6 221.5 495C193 513 240.5 633 180.5 633C120.5 633 163.5 551.5 118 566Z" fill="#FFEC00"/>
<path d="M118 450.5C98.5 431 159 342 154 267.5H247V428C240.5 435.167 231.8 450.5 207 450.5C176 450.5 180.5 495 161.5 539.5C142.5 584 137.5 470 118 450.5Z" fill="#FFEC00"/>
<path d="M87.5 324C76.3 296.8 44.8333 286 30.5 284H25.5V505.5C28.6667 538 20.9 586.3 36.5 583.5C56 580 87.5 516 93.5 489.5C99.5 463 71.5 446 59 422C46.5 398 101.5 358 87.5 324Z" fill="#A90029"/>
<path d="M28 28H246V242H28V28Z" fill="#7900B1"/>
<ellipse cx="60.2627" cy="486.497" rx="28.9098" ry="28.0805" transform="rotate(77.0696 60.2627 486.497)" fill="#A90029"/>
<ellipse cx="65.2646" cy="501.2" rx="7.12845" ry="6.72351" transform="rotate(77.0696 65.2646 501.2)" fill="white"/>
<ellipse cx="52.4226" cy="470.017" rx="7.12845" ry="6.72351" transform="rotate(77.0696 52.4226 470.017)" fill="white"/>
<ellipse cx="74.8271" cy="482.755" rx="7.12845" ry="6.72351" transform="rotate(77.0696 74.8271 482.755)" fill="white"/>
<ellipse cx="49.7355" cy="531.768" rx="17.0569" ry="16.5676" transform="rotate(-47.617 49.7355 531.768)" fill="#A90029"/>
<ellipse cx="55.1884" cy="524.405" rx="4.2058" ry="3.96689" transform="rotate(-47.617 55.1884 524.405)" fill="white"/>
<ellipse cx="44.3715" cy="541.105" rx="4.2058" ry="3.96689" transform="rotate(-47.617 44.3715 541.105)" fill="white"/>
<ellipse cx="43.029" cy="525.959" rx="4.2058" ry="3.96689" transform="rotate(-47.617 43.029 525.959)" fill="white"/>
<ellipse cx="46.0766" cy="438.099" rx="12.2717" ry="11.9196" transform="rotate(-47.617 46.0766 438.099)" fill="#A90029"/>
<ellipse cx="49.9995" cy="432.802" rx="3.02589" ry="2.854" transform="rotate(-47.617 49.9995 432.802)" fill="white"/>
<ellipse cx="42.2176" cy="444.816" rx="3.02589" ry="2.854" transform="rotate(-47.617 42.2176 444.816)" fill="white"/>
<ellipse cx="41.2516" cy="433.919" rx="3.02589" ry="2.854" transform="rotate(-47.617 41.2516 433.919)" fill="white"/>
<ellipse cx="42.0351" cy="396.421" rx="15.039" ry="14.6076" transform="rotate(95.7261 42.0351 396.421)" fill="#A90029"/>
<ellipse cx="42.0537" cy="404.499" rx="3.70825" ry="3.4976" transform="rotate(95.7261 42.0537 404.499)" fill="white"/>
<ellipse cx="40.9143" cy="386.992" rx="3.70825" ry="3.4976" transform="rotate(95.7261 40.9143 386.992)" fill="white"/>
<ellipse cx="49.8376" cy="397" rx="3.70825" ry="3.4976" transform="rotate(95.7261 49.8376 397)" fill="white"/>
<ellipse cx="50.1982" cy="367.051" rx="12.1226" ry="11.7748" transform="rotate(27.5959 50.1982 367.051)" fill="#A90029"/>
<ellipse cx="56.2468" cy="369.461" rx="2.98913" ry="2.81932" transform="rotate(27.5959 56.2468 369.461)" fill="white"/>
<ellipse cx="42.8089" cy="365.058" rx="2.98913" ry="2.81932" transform="rotate(27.5959 42.8089 365.058)" fill="white"/>
<ellipse cx="52.9745" cy="361.388" rx="2.98913" ry="2.81932" transform="rotate(27.5959 52.9745 361.388)" fill="white"/>
<ellipse cx="49.1982" cy="312.051" rx="12.1226" ry="11.7748" transform="rotate(27.5959 49.1982 312.051)" fill="#A90029"/>
<ellipse cx="55.2468" cy="314.461" rx="2.98913" ry="2.81932" transform="rotate(27.5959 55.2468 314.461)" fill="white"/>
<ellipse cx="41.8089" cy="310.058" rx="2.98913" ry="2.81932" transform="rotate(27.5959 41.8089 310.058)" fill="white"/>
<ellipse cx="51.9745" cy="306.388" rx="2.98913" ry="2.81932" transform="rotate(27.5959 51.9745 306.388)" fill="white"/>
<ellipse cx="66.5" cy="692.186" rx="27.5" ry="26.7111" fill="#FFEC00"/>
<ellipse cx="51.8106" cy="698.954" rx="6.78082" ry="6.39563" fill="#9B00E4"/>
<ellipse cx="73.6569" cy="705.725" rx="6.78082" ry="6.39563" fill="#9B00E4"/>
<ellipse cx="73.6569" cy="677.134" rx="6.78082" ry="6.39563" fill="#9B00E4"/>
<ellipse cx="121.5" cy="686.711" rx="27.5" ry="26.7111" fill="#FFEC00"/>
<ellipse cx="106.811" cy="693.479" rx="6.78082" ry="6.39563" fill="#9B00E4"/>
<ellipse cx="128.657" cy="700.25" rx="6.78082" ry="6.39563" fill="#9B00E4"/>
<ellipse cx="128.657" cy="671.659" rx="6.78082" ry="6.39563" fill="#9B00E4"/>
<ellipse cx="92.5" cy="641.711" rx="27.5" ry="26.7111" fill="#FFEC00"/>
<ellipse cx="77.8106" cy="648.479" rx="6.78082" ry="6.39563" fill="#9B00E4"/>
<ellipse cx="99.6569" cy="655.25" rx="6.78082" ry="6.39563" fill="#9B00E4"/>
<ellipse cx="99.6569" cy="626.659" rx="6.78082" ry="6.39563" fill="#9B00E4"/>
<ellipse cx="200.5" cy="687.396" rx="38.5" ry="37.3956" fill="#FFEC00"/>
<ellipse cx="179.934" cy="696.87" rx="9.49315" ry="8.95388" fill="#9B00E4"/>
<ellipse cx="210.52" cy="706.349" rx="9.49315" ry="8.95388" fill="#9B00E4"/>
<ellipse cx="210.52" cy="666.324" rx="9.49315" ry="8.95388" fill="#9B00E4"/>
<ellipse cx="169" cy="660.312" rx="24" ry="23.3115" fill="#FFEC00"/>
<ellipse cx="156.18" cy="666.218" rx="5.91781" ry="5.58164" fill="#9B00E4"/>
<ellipse cx="175.246" cy="672.126" rx="5.91781" ry="5.58164" fill="#9B00E4"/>
<ellipse cx="175.246" cy="647.176" rx="5.91781" ry="5.58164" fill="#9B00E4"/>
<ellipse cx="186" cy="326.197" rx="28" ry="27.1968" fill="#FFEC00"/>
<ellipse cx="171.044" cy="333.087" rx="6.90411" ry="6.51191" fill="#9B00E4"/>
<ellipse cx="193.287" cy="339.982" rx="6.90411" ry="6.51191" fill="#9B00E4"/>
<ellipse cx="193.287" cy="310.871" rx="6.90411" ry="6.51191" fill="#9B00E4"/>
<ellipse cx="211" cy="403.197" rx="28" ry="27.1968" fill="#FFEC00"/>
<ellipse cx="196.044" cy="410.087" rx="6.90411" ry="6.51191" fill="#9B00E4"/>
<ellipse cx="218.287" cy="416.982" rx="6.90411" ry="6.51191" fill="#9B00E4"/>
<ellipse cx="218.287" cy="387.871" rx="6.90411" ry="6.51191" fill="#9B00E4"/>
</svg>
