<svg width="391" height="91" viewBox="0 0 391 91" fill="none" xmlns="http://www.w3.org/2000/svg">
<path d="M92 45.5264C92 70.103 71.4051 90.0264 46 90.0264C20.5949 90.0264 0 70.103 0 45.5264C0 20.9497 20.5949 1.02637 46 1.02637C71.4051 1.02637 92 20.9497 92 45.5264Z" fill="#E1305A"/>
<ellipse cx="26.5" cy="57.0264" rx="11.5" ry="11" fill="white"/>
<ellipse cx="42" cy="20.5264" rx="11" ry="11.5" fill="white"/>
<ellipse cx="64" cy="53.5264" rx="11" ry="10.5" fill="white"/>
<path d="M390.922 44.669C390.922 69.3244 370.345 89.3116 344.961 89.3116C319.577 89.3116 299 69.3244 299 44.669C299 20.0136 319.577 0.0263672 344.961 0.0263672C370.345 0.0263672 390.922 20.0136 390.922 44.669Z" fill="#E1305A"/>
<ellipse cx="325.43" cy="55.9882" rx="11.3329" ry="10.6891" fill="white"/>
<ellipse cx="340.552" cy="19.5161" rx="11.3329" ry="10.6891" fill="white"/>
<ellipse cx="363.214" cy="52.2187" rx="11.3329" ry="10.6891" fill="white"/>
<ellipse cx="194.961" cy="45.669" rx="45.9611" ry="44.6426" fill="#008DCB"/>
<ellipse cx="170.405" cy="56.9882" rx="11.3329" ry="10.6891" fill="#FFED5C"/>
<ellipse cx="206.926" cy="68.3036" rx="11.3329" ry="10.6891" fill="#FFED5C"/>
<ellipse cx="206.926" cy="20.5161" rx="11.3329" ry="10.6891" fill="#FFED5C"/>
</svg>
