<svg width="209" height="376" viewBox="0 0 209 376" fill="none" xmlns="http://www.w3.org/2000/svg">
<path d="M48.6801 358.953C44.8499 353.141 18.2773 245.164 7.02731 190.091C24.7415 185.834 67.4585 176.888 96.6126 175.166C125.767 173.443 177.556 181.309 199.807 185.457L165.497 362.034C150.837 371.695 134.502 373.238 101.133 373.018C59.4214 372.744 53.979 366.994 48.6801 358.953Z" fill="#E1305A"/>
<path d="M131.001 203.323L105.813 35.6514C105.894 29.6894 108.157 18.481 116.564 21.3441C124.66 24.1018 163.808 52.4151 184.452 67.7642C185.364 68.1984 186.181 68.8728 186.737 69.4668C188.314 75.2223 185.772 78.455 183.6 79.8861C181.428 81.3173 180.166 80.4588 179.806 79.8507L121.443 35.2757C119.914 34.8867 116.882 35.2575 116.987 39.8528C117.092 44.4481 132.834 149.824 140.749 201.572L131.001 203.323Z" fill="#008DCB"/>
<path d="M97.3309 206.349L87.8534 133.778C78.3353 135.497 58.2016 136.534 53.8118 126.933C51.6338 122.17 52.429 117.235 55.0825 113.272C45.7624 108.079 39.3501 101.635 40.7375 96.5956C41.7805 92.8072 44.9102 87.8177 49.0262 83.3558C41.1415 77.6714 34.3982 69.9618 31.8432 49.5541C29.51 30.9179 27.6255 19.4287 26.5894 13.6099C25.6046 12.5769 25.2891 10.9679 25.8119 9.42426C26.2524 7.40001 28.484 4.02533 31.6118 4.04485C34.7395 4.06438 37.6088 4.90847 38.6525 5.32808L39.4107 38.5163C39.6586 49.3662 42.6282 65.2595 45.3208 69.0262C46.5306 70.7187 50.2914 74.6701 54.4171 78.3269C61.4275 72.7652 69.6276 69.8919 75.4402 75.3267C86.7598 85.9105 75.6112 103.42 62.8082 92.8721C60.3749 90.8673 57.892 89.2097 55.4388 87.6213C52.6314 86.7557 50.8364 89.2001 48.1217 91.7295C45.407 94.2589 44.9157 98.4032 47.3245 101.155C49.0423 103.118 53.6345 106.555 58.4341 109.575C62.9012 105.862 69.4069 104.038 76.14 105.962C90.5703 110.085 98.5169 115.641 87.5618 121.013C82.3352 123.576 69.3285 120.26 58.9715 115.284C57.0895 118.475 57.4907 119.127 57.632 123.01C57.7732 126.893 68.3554 128.438 70.2608 128.871C74.2612 129.778 88.0259 127.069 90.6748 128.921C93.3236 130.773 93.9822 131.076 94.7574 136.486C95.3776 140.813 100.856 184.765 103.518 206.2L97.3309 206.349Z" fill="#FFEC00"/>
<path d="M19.3085 246.563C13.9013 248.406 3.51487 254.132 12.1903 259.575C23.0347 266.38 191.012 270.691 202.776 262.701C212.187 256.309 196.519 246.297 188.676 242.417" stroke="black" stroke-width="3.10914"/>
<path d="M35.886 316.62C12.9256 326.813 10.2406 329.356 16.4875 335.633C22.7344 341.911 179.684 347.574 187.989 337.09C194.633 328.703 183.597 321.288 174.751 317.001" stroke="black" stroke-width="3.10914"/>
<path d="M27.2406 281.051C15.8151 283.239 -2.27733 292.407 11.5439 294.624C28.8205 297.396 203.837 310.905 197.768 296.389C192.912 284.776 183.781 282.437 181.247 283.136" stroke="black" stroke-width="3.10914"/>
</svg>
