<svg width="209" height="376" viewBox="0 0 209 376" fill="none" xmlns="http://www.w3.org/2000/svg">
<path d="M48.6798 358.953C44.8497 353.141 18.277 245.164 7.02706 190.091C24.7413 185.834 67.4582 176.888 96.6123 175.166C125.766 173.443 177.556 181.309 199.806 185.457L165.496 362.034C150.837 371.695 134.501 373.238 101.132 373.018C59.4211 372.744 53.9787 366.994 48.6798 358.953Z" fill="#A90029"/>
<path d="M131.001 203.323L105.813 35.6515C105.894 29.6894 108.157 18.4811 116.564 21.3442C124.66 24.1018 163.808 52.4151 184.452 67.7642C185.364 68.1985 186.181 68.8728 186.737 69.4668C188.314 75.2224 185.772 78.455 183.6 79.8862C181.428 81.3174 180.166 80.4589 179.806 79.8508L121.443 35.2758C119.914 34.8868 116.882 35.2576 116.987 39.8528C117.092 44.4481 132.834 149.824 140.749 201.572L131.001 203.323Z" fill="#9B00E4"/>
<path d="M97.3307 206.349L87.8531 133.778C78.335 135.497 58.2014 136.534 53.8115 126.933C51.6336 122.17 52.4287 117.235 55.0822 113.272C45.7622 108.079 39.3499 101.635 40.7373 96.5956C41.7802 92.8072 44.91 87.8177 49.026 83.3558C41.1413 77.6714 34.3979 69.9618 31.843 49.5541C29.5098 30.9179 27.6253 19.4287 26.5892 13.6099C25.6043 12.5769 25.2889 10.9679 25.8116 9.42426C26.2522 7.40001 28.4837 4.02533 31.6115 4.04485C34.7393 4.06438 37.6086 4.90847 38.6523 5.32808L39.4105 38.5163C39.6583 49.3662 42.628 65.2595 45.3206 69.0262C46.5304 70.7187 50.2912 74.6701 54.4168 78.3269C61.4272 72.7652 69.6273 69.8919 75.4399 75.3267C86.7596 85.9105 75.611 103.42 62.808 92.8721C60.3747 90.8673 57.8917 89.2097 55.4386 87.6213C52.6311 86.7557 50.8362 89.2001 48.1215 91.7295C45.4068 94.2589 44.9154 98.4032 47.3242 101.155C49.0421 103.118 53.6343 106.555 58.4338 109.575C62.901 105.862 69.4066 104.038 76.1398 105.962C90.5701 110.085 98.5167 115.641 87.5615 121.013C82.335 123.576 69.3283 120.26 58.9713 115.284C57.0893 118.475 57.4905 119.127 57.6317 123.01C57.773 126.893 68.3551 128.438 70.2606 128.871C74.261 129.778 88.0257 127.069 90.6745 128.921C93.3234 130.773 93.982 131.076 94.7572 136.486C95.3774 140.813 100.856 184.765 103.518 206.2L97.3307 206.349Z" fill="#FFEC00"/>
<path d="M19.3085 246.563C13.9013 248.406 3.51487 254.132 12.1903 259.575C23.0347 266.38 191.012 270.691 202.776 262.701C212.187 256.309 196.519 246.297 188.676 242.417" stroke="black" stroke-width="3.10914"/>
<path d="M35.8859 316.62C12.9255 326.813 10.2405 329.356 16.4874 335.633C22.7343 341.911 179.683 347.574 187.989 337.09C194.633 328.704 183.597 321.288 174.75 317.001" stroke="black" stroke-width="3.10914"/>
<path d="M27.2407 281.051C15.8152 283.239 -2.2772 292.407 11.544 294.624C28.8206 297.396 203.837 310.905 197.768 296.389C192.913 284.776 183.781 282.437 181.247 283.136" stroke="black" stroke-width="3.10914"/>
</svg>
