<svg width="495" height="949" viewBox="0 0 495 949" fill="none" xmlns="http://www.w3.org/2000/svg">
<path d="M219.359 257L160 127.662H291L219.359 257Z" fill="#008DCB"/>
<path d="M175.484 164.76C171.39 169.198 158.362 176.161 168.187 179.966C180.468 184.721 266.437 190.427 274.625 179.966C281.175 171.597 274.206 167.296 271.477 164.76" stroke="black" stroke-width="3.10914"/>
<path d="M202.469 663.128L38.1421 643.375L117.764 513.479L202.469 663.128Z" fill="#008DCB"/>
<path d="M84.3381 650.569C86.2506 657.326 85.2369 674.477 94.9806 667.047C107.16 657.759 165.07 575.983 159.673 561.506C155.356 549.925 146.856 554.221 142.683 555.385" stroke="black" stroke-width="2.5456"/>
<path d="M141.015 656.198C138.785 659.484 135.359 666.273 139.5 667.136C144.677 668.215 189.373 609.054 182.611 604.211C177.202 600.337 172.532 604.781 170.874 607.487" stroke="black" stroke-width="2.5456"/>
<path d="M60.3259 440.316L85.2441 335.696L163.204 396.714L60.3259 440.316Z" fill="#008DCB"/>
<path d="M77.1795 364.986C72.6761 365.72 61.6791 363.796 65.7543 370.636C70.8482 379.187 119.352 422.626 129.097 420.214C136.893 418.284 134.749 412.479 134.306 409.698" stroke="black" stroke-width="3.10914"/>
<path d="M69.3494 401.158C67.393 399.474 63.2643 396.76 62.4004 399.369C61.3207 402.631 96.2034 435.866 99.8302 431.859C102.732 428.654 100.209 425.311 98.5845 424.039" stroke="black" stroke-width="3.10914"/>
<path d="M35.3259 853.316L60.2441 748.696L138.204 809.714L35.3259 853.316Z" fill="#008DCB"/>
<path d="M52.1795 777.986C47.6761 778.72 36.6791 776.796 40.7543 783.636C45.8482 792.187 94.3518 835.626 104.097 833.214C111.893 831.284 109.749 825.479 109.306 822.698" stroke="black" stroke-width="3.10914"/>
<path d="M44.3494 814.158C42.393 812.474 38.2643 809.76 37.4004 812.369C36.3207 815.631 71.2034 848.866 74.8302 844.859C77.7316 841.654 75.2087 838.311 73.5845 837.039" stroke="black" stroke-width="3.10914"/>
<path d="M121.571 266.731L24.7026 220.01L100.985 156.907L121.571 266.731Z" fill="#008DCB"/>
<path d="M51.5899 234.153C51.3439 238.709 47.1118 249.04 54.6654 246.523C64.1075 243.376 116.916 205.287 116.645 195.251C116.428 187.223 110.298 188.075 107.487 187.913" stroke="black" stroke-width="3.10914"/>
<path d="M85.2489 249.54C83.186 251.091 79.6514 254.543 82.0157 255.945C84.9711 257.698 124.898 230.732 121.76 226.332C119.25 222.812 115.444 224.561 113.855 225.876" stroke="black" stroke-width="3.10914"/>
<path d="M486.571 771.731L389.703 725.01L465.985 661.906L486.571 771.731Z" fill="#008DCB"/>
<path d="M416.589 739.153C416.343 743.709 412.111 754.04 419.665 751.522C429.107 748.375 481.916 710.287 481.644 700.251C481.427 692.223 475.298 693.075 472.487 692.913" stroke="black" stroke-width="3.10914"/>
<path d="M450.249 754.539C448.186 756.09 444.651 759.543 447.016 760.945C449.971 762.697 489.898 735.731 486.76 731.331C484.25 727.812 480.444 729.561 478.855 730.876" stroke="black" stroke-width="3.10914"/>
<path d="M70.6692 87.2846L87.3252 30.3933L128.527 66.1725L70.6692 87.2846Z" fill="#008DCB"/>
<path d="M82.0632 46.2904C79.5635 46.5681 73.5639 45.1999 75.6151 49.0798C78.179 53.9296 103.659 79.2044 109.091 78.1504C113.437 77.3072 112.42 74.0513 112.254 72.5082" stroke="black" stroke-width="1.71374"/>
<path d="M76.7366 65.9821C75.707 65.0004 73.5104 63.3903 72.9616 64.8025C72.2756 66.5678 90.5442 85.8425 92.6532 83.739C94.3404 82.0562 93.0455 80.1447 92.1871 79.3993" stroke="black" stroke-width="1.71374"/>
<path d="M328.33 168.584L347.441 0.670654L480.583 81.1326L328.33 168.584Z" fill="#008DCB"/>
<path d="M340.393 47.884C333.507 49.8802 315.988 48.9556 323.637 58.8565C333.199 71.2326 417.068 129.835 431.815 124.232C443.613 119.749 439.172 111.098 437.956 106.844" stroke="black" stroke-width="3.10914"/>
<path d="M335.011 105.792C331.641 103.535 324.687 100.081 323.833 104.315C322.764 109.608 383.459 154.864 388.36 147.929C392.28 142.381 387.713 137.641 384.939 135.965" stroke="black" stroke-width="3.10914"/>
<path d="M199.33 904.584L218.441 736.671L351.583 817.133L199.33 904.584Z" fill="#008DCB"/>
<path d="M211.393 783.884C204.507 785.88 186.988 784.955 194.637 794.856C204.199 807.233 288.068 865.835 302.815 860.232C314.613 855.749 310.172 847.098 308.956 842.844" stroke="black" stroke-width="3.10914"/>
<path d="M206.011 841.792C202.641 839.535 195.687 836.081 194.833 840.315C193.764 845.608 254.459 890.864 259.36 883.929C263.28 878.381 258.713 873.641 255.939 871.965" stroke="black" stroke-width="3.10914"/>
<path d="M308.266 686.543L190 428.854H451L308.266 686.543Z" fill="#008DCB"/>
<path d="M220.85 502.766C212.694 511.608 186.737 525.482 206.312 533.061C230.78 542.535 402.062 553.904 418.374 533.061C431.424 516.387 417.54 507.818 412.103 502.766" stroke="black" stroke-width="3.10914"/>
<path d="M263.37 590.584C256.573 590.268 243.591 591.342 246.038 598.163C249.097 606.689 375.519 619.005 376.538 604.794C377.354 593.426 366.683 590.584 361.245 590.584" stroke="black" stroke-width="3.10914"/>
</svg>
