<svg width="495" height="949" viewBox="0 0 495 949" fill="none" xmlns="http://www.w3.org/2000/svg">
<path d="M219.359 257L160 127.662H291L219.359 257Z" fill="#9B00E4"/>
<path d="M175.484 164.76C171.391 169.198 158.362 176.161 168.187 179.966C180.468 184.721 266.437 190.427 274.625 179.966C281.175 171.597 274.206 167.296 271.477 164.76" stroke="black" stroke-width="3.10914"/>
<path d="M202.469 663.128L38.1419 643.375L117.764 513.479L202.469 663.128Z" fill="#9B00E4"/>
<path d="M84.3381 650.569C86.2506 657.326 85.2369 674.477 94.9806 667.047C107.16 657.759 165.07 575.983 159.673 561.506C155.356 549.925 146.856 554.221 142.683 555.386" stroke="black" stroke-width="2.5456"/>
<path d="M141.015 656.198C138.785 659.484 135.359 666.273 139.5 667.136C144.677 668.215 189.373 609.054 182.611 604.211C177.202 600.337 172.532 604.781 170.874 607.487" stroke="black" stroke-width="2.5456"/>
<path d="M60.3258 440.316L85.244 335.696L163.204 396.714L60.3258 440.316Z" fill="#9B00E4"/>
<path d="M77.1796 364.986C72.6761 365.72 61.6792 363.796 65.7543 370.636C70.8483 379.187 119.352 422.626 129.097 420.214C136.893 418.284 134.749 412.479 134.306 409.698" stroke="black" stroke-width="3.10914"/>
<path d="M69.3496 401.158C67.3932 399.474 63.2644 396.76 62.4006 399.369C61.3209 402.631 96.2036 435.866 99.8304 431.859C102.732 428.654 100.209 425.311 98.5847 424.039" stroke="black" stroke-width="3.10914"/>
<path d="M35.3258 853.316L60.244 748.696L138.204 809.714L35.3258 853.316Z" fill="#9B00E4"/>
<path d="M52.1796 777.986C47.6761 778.72 36.6792 776.796 40.7543 783.636C45.8483 792.187 94.3519 835.626 104.097 833.214C111.893 831.284 109.749 825.479 109.306 822.698" stroke="black" stroke-width="3.10914"/>
<path d="M44.3496 814.158C42.3932 812.474 38.2644 809.76 37.4006 812.369C36.3209 815.631 71.2036 848.866 74.8304 844.859C77.7318 841.654 75.2088 838.311 73.5847 837.039" stroke="black" stroke-width="3.10914"/>
<path d="M121.571 266.731L24.7028 220.01L100.985 156.907L121.571 266.731Z" fill="#9B00E4"/>
<path d="M51.5897 234.153C51.3438 238.709 47.1116 249.04 54.6653 246.523C64.1073 243.376 116.916 205.287 116.645 195.251C116.427 187.223 110.298 188.075 107.487 187.913" stroke="black" stroke-width="3.10914"/>
<path d="M85.2489 249.54C83.186 251.091 79.6514 254.543 82.0157 255.945C84.9711 257.698 124.898 230.732 121.76 226.332C119.25 222.812 115.444 224.561 113.855 225.876" stroke="black" stroke-width="3.10914"/>
<path d="M486.571 771.731L389.703 725.01L465.985 661.906L486.571 771.731Z" fill="#9B00E4"/>
<path d="M416.59 739.153C416.344 743.709 412.112 754.04 419.665 751.522C429.107 748.375 481.916 710.287 481.645 700.251C481.427 692.223 475.298 693.075 472.487 692.913" stroke="black" stroke-width="3.10914"/>
<path d="M450.249 754.539C448.186 756.09 444.651 759.543 447.016 760.945C449.971 762.697 489.898 735.731 486.76 731.331C484.25 727.812 480.444 729.561 478.855 730.876" stroke="black" stroke-width="3.10914"/>
<path d="M70.6693 87.2846L87.3253 30.3933L128.527 66.1725L70.6693 87.2846Z" fill="#9B00E4"/>
<path d="M82.0632 46.2902C79.5635 46.568 73.564 45.1998 75.6151 49.0797C78.179 53.9295 103.659 79.2043 109.091 78.1503C113.437 77.3071 112.42 74.0511 112.254 72.5081" stroke="black" stroke-width="1.71374"/>
<path d="M76.7367 65.9821C75.707 65.0004 73.5105 63.3903 72.9617 64.8025C72.2757 66.5678 90.5443 85.8425 92.6533 83.739C94.3405 82.0562 93.0456 80.1447 92.1872 79.3993" stroke="black" stroke-width="1.71374"/>
<path d="M328.33 168.584L347.441 0.670654L480.584 81.1326L328.33 168.584Z" fill="#9B00E4"/>
<path d="M340.393 47.8839C333.507 49.8801 315.988 48.9554 323.637 58.8564C333.199 71.2325 417.069 129.835 431.815 124.232C443.613 119.749 439.172 111.098 437.956 106.844" stroke="black" stroke-width="3.10914"/>
<path d="M335.011 105.792C331.641 103.535 324.687 100.081 323.833 104.315C322.764 109.608 383.458 154.864 388.359 147.929C392.28 142.381 387.713 137.641 384.939 135.965" stroke="black" stroke-width="3.10914"/>
<path d="M199.33 904.584L218.441 736.671L351.584 817.133L199.33 904.584Z" fill="#9B00E4"/>
<path d="M211.393 783.884C204.507 785.88 186.988 784.955 194.637 794.856C204.199 807.233 288.069 865.835 302.815 860.232C314.613 855.749 310.172 847.098 308.956 842.844" stroke="black" stroke-width="3.10914"/>
<path d="M206.011 841.792C202.641 839.535 195.687 836.081 194.833 840.315C193.764 845.608 254.458 890.864 259.359 883.929C263.28 878.381 258.713 873.641 255.939 871.965" stroke="black" stroke-width="3.10914"/>
<path d="M308.266 686.543L190 428.854H451L308.266 686.543Z" fill="#9B00E4"/>
<path d="M220.85 502.766C212.694 511.608 186.737 525.482 206.312 533.061C230.78 542.535 402.062 553.904 418.374 533.061C431.424 516.387 417.54 507.818 412.103 502.766" stroke="black" stroke-width="3.10914"/>
<path d="M263.37 590.584C256.574 590.268 243.592 591.342 246.038 598.163C249.097 606.689 375.519 619.005 376.538 604.794C377.354 593.426 366.683 590.584 361.245 590.584" stroke="black" stroke-width="3.10914"/>
</svg>
