<svg width="454" height="501" viewBox="0 0 454 501" fill="none" xmlns="http://www.w3.org/2000/svg">
<path d="M121.444 392.719C119.635 385.639 130.264 269.387 137.97 210.881C157.007 212.726 202.461 218.486 231.982 226.766C261.502 235.046 310.199 260.596 330.858 272.337L236.308 435.802C218.451 440.366 201.712 436.3 168.675 424.648C127.378 410.084 123.947 402.514 121.444 392.719Z" fill="#FFED5C"/>
<path d="M256.45 266.485L288.906 91.4705C291.029 85.582 297.116 75.2353 304.477 80.9568C311.566 86.4675 340.712 127.977 355.938 150.282C356.694 151.025 357.274 151.974 357.622 152.754C357.215 159.006 353.585 161.343 350.939 162.019C348.294 162.695 347.335 161.41 347.187 160.684L304.545 96.4534C303.161 95.5433 300.025 94.8723 298.554 99.4682C297.084 104.064 276.599 214.025 266.723 268.088L256.45 266.485Z" fill="#008DCB"/>
<path d="M221.999 257.965L237.46 182.704C227.426 181.148 207.091 175.279 206.025 164.248C205.496 158.775 207.976 154.15 211.967 151.127C204.498 142.781 200.343 134.189 203.446 129.663C205.779 126.261 210.594 122.382 216.208 119.365C210.331 111.023 206.281 101.062 210.738 79.9353C214.809 60.6428 216.875 48.5961 217.841 42.4669C217.217 41.1044 217.456 39.3997 218.503 38.047C219.634 36.1893 223.005 33.6051 226.102 34.6962C229.199 35.7873 231.757 37.608 232.649 38.382L222.03 71.5752C218.558 82.4268 216.059 99.2155 217.441 103.876C218.061 105.97 220.439 111.18 223.28 116.222C232.142 113.105 241.264 113.063 245.17 120.448C252.776 134.829 235.714 148.385 226.623 133.531C224.895 130.708 222.999 128.212 221.109 125.795C218.62 123.974 216.001 125.785 212.441 127.365C208.88 128.944 206.973 132.889 208.42 136.445C209.452 138.981 212.831 143.966 216.559 148.607C222.264 146.453 229.345 146.872 235.367 151.088C248.274 160.124 254.256 168.36 241.544 169.937C235.48 170.69 223.709 162.942 215.137 154.456C212.176 156.977 212.35 157.762 211.16 161.664C209.97 165.565 219.941 170.724 221.684 171.806C225.343 174.078 239.93 176.105 241.924 178.851C243.918 181.596 244.467 182.123 243.383 187.757C242.516 192.263 232.893 237.755 228.19 259.938L221.999 257.965Z" fill="#E1305A"/>
<path d="M130.811 271.118C124.814 271.094 112.545 273.218 119.289 281.592C127.719 292.06 292.929 353.894 307.34 349.996C318.869 346.878 306.752 331.574 300.299 325.037" stroke="black" stroke-width="6.23184"/>
<path d="M123.259 346.323C96.9821 348.57 93.4463 350.174 97.4944 358.543C101.542 366.913 255.346 426.31 267.18 418.752C276.647 412.707 268.236 401.566 260.926 394.282" stroke="black" stroke-width="6.23184"/>
<path d="M126.865 308.061C114.778 306.317 93.683 309.215 106.638 316.151C122.832 324.822 291.877 398.195 290.828 381.711C289.989 368.523 281.729 363.073 278.975 362.898" stroke="black" stroke-width="6.23184"/>
</svg>
