<svg width="306" height="359" viewBox="0 0 306 359" fill="none" xmlns="http://www.w3.org/2000/svg">
<path d="M150.472 290.39C147.567 286.686 123.634 215.388 112.979 178.893C124.682 175.036 152.976 166.624 172.531 163.837C192.086 161.05 227.433 163.463 242.662 165.018L229.383 285.952C220.041 293.281 209.116 295.233 186.612 296.946C158.482 299.087 154.492 295.515 150.472 290.39Z" fill="#FFED5C"/>
<path d="M197.274 180.896L170.945 69.2835C170.667 65.2603 171.567 57.5791 177.393 59.0402C183.005 60.4474 210.971 77.3485 225.741 86.5432C226.38 86.785 226.969 87.1939 227.377 87.5633C228.761 91.3548 227.228 93.6755 225.844 94.7613C224.46 95.8471 223.561 95.3389 223.284 94.949L181.46 68.1585C180.407 67.9816 178.384 68.4006 178.711 71.4922C179.038 74.5838 195.525 144.733 203.747 179.172L197.274 180.896Z" fill="#008DCB"/>
<path d="M174.749 184.824L164.313 136.437C157.994 138.126 144.481 139.948 140.986 133.722C139.253 130.632 139.513 127.261 141.081 124.442C134.509 121.462 129.828 117.476 130.482 114.002C130.973 111.39 132.805 107.852 135.33 104.615C129.699 101.224 124.723 96.4031 121.863 82.79C119.251 70.3585 117.34 62.7194 116.317 58.8551C115.596 58.2138 115.293 57.1468 115.56 56.0772C115.744 54.6882 117.06 52.2891 119.169 52.1278C121.278 51.9665 123.259 52.3754 123.986 52.6001L126.348 74.928C127.12 82.2275 130.008 92.7746 132.033 95.1634C132.943 96.2367 135.699 98.6904 138.683 100.925C143.099 96.7853 148.466 94.3913 152.687 97.7304C160.907 104.233 154.369 116.657 145.151 110.261C143.399 109.046 141.633 108.067 139.89 107.133C137.95 106.706 136.876 108.454 135.188 110.31C133.499 112.166 133.399 114.987 135.176 116.708C136.443 117.935 139.73 119.996 143.134 121.764C145.938 119.012 150.221 117.42 154.867 118.341C164.823 120.315 170.49 123.617 163.405 127.849C160.025 129.868 151.073 128.358 143.814 125.582C142.724 127.837 143.031 128.255 143.342 130.864C143.654 133.473 150.873 133.925 152.182 134.11C154.929 134.499 164.056 131.905 165.944 133.005C167.833 134.106 168.294 134.274 169.118 137.877C169.777 140.759 175.921 170.079 178.911 184.379L174.749 184.824Z" fill="#E1305A"/>
<path d="M124.406 216.266C120.864 217.81 114.182 222.249 120.333 225.434C128.022 229.416 241.486 222.954 248.97 216.912C254.957 212.079 243.838 206.204 238.335 204.026" stroke="black" stroke-width="4.01488"/>
<path d="M139.489 262.566C124.581 270.717 122.913 272.58 127.474 276.463C132.035 280.346 238.141 275.41 243.155 267.881C247.165 261.857 239.313 257.474 233.111 255.078" stroke="black" stroke-width="4.01488"/>
<path d="M131.676 239.071C124.097 241.182 112.413 248.37 121.853 249.095C133.653 250 252.375 249.345 247.474 239.899C243.554 232.342 237.268 231.274 235.599 231.886" stroke="black" stroke-width="4.01488"/>
</svg>
