<svg width="546" height="121" viewBox="0 0 546 121" fill="none" xmlns="http://www.w3.org/2000/svg">
<path d="M118.5 93.5265C100 140.026 63.5 122.999 0.5 64.9991V1.47266L423.967 1.1054C430.884 -0.107439 438.238 -0.395531 446.412 1.08593L545.5 1V26.5265C545.5 38.5265 530 47.0265 478.5 14.5265C466.323 6.84195 455.823 2.79139 446.412 1.08593L423.967 1.1054C405.17 4.40133 389.594 14.5265 369.5 14.5265C333.5 14.5265 352.5 61.0265 323.5 93.5265C294.5 126.026 260 61.0265 251.5 26.5265C243 -7.97352 207 14.5265 169.5 14.5265C132 14.5265 137 47.0265 118.5 93.5265Z" fill="#E1305A"/>
<ellipse cx="68.2465" cy="45.9749" rx="45.2465" ry="43.9486" fill="#E1305A"/>
<ellipse cx="41.5961" cy="45.9692" rx="11.1567" ry="10.5229" fill="white"/>
<ellipse cx="75.061" cy="73.2153" rx="11.1567" ry="10.5229" fill="white"/>
<ellipse cx="86.2162" cy="36.0707" rx="11.1567" ry="10.5229" fill="white"/>
<ellipse cx="297.259" cy="34.4749" rx="28.2592" ry="27.4486" fill="#E1305A"/>
<ellipse cx="280.614" cy="34.4714" rx="6.96802" ry="6.57219" fill="white"/>
<ellipse cx="301.515" cy="51.4882" rx="6.96802" ry="6.57219" fill="white"/>
<ellipse cx="308.482" cy="28.2891" rx="6.96802" ry="6.57219" fill="white"/>
<ellipse cx="524.816" cy="19.4749" rx="12.8162" ry="12.4486" fill="#E1305A"/>
<ellipse cx="517.267" cy="19.4734" rx="3.16016" ry="2.98064" fill="white"/>
<ellipse cx="526.746" cy="27.1904" rx="3.16016" ry="2.98064" fill="white"/>
<ellipse cx="529.906" cy="16.6698" rx="3.16016" ry="2.98064" fill="white"/>
</svg>
