<svg width="140" height="150" viewBox="0 0 140 150" fill="none" xmlns="http://www.w3.org/2000/svg">
<path d="M91.4966 136.053C89.1255 135.224 57.8639 110.068 42.5796 96.7326C46.7291 91.6332 57.0244 79.7153 65.0103 72.8385C72.9963 65.9618 89.5745 56.8799 96.8653 53.1986L125.681 111.363C123.591 117.343 119.242 121.362 109.622 128.604C97.597 137.657 94.777 137.2 91.4966 136.053Z" fill="#A90029"/>
<path d="M81.0407 73.3874L37.1072 30.804C35.8252 29.076 34.0207 25.3653 37.059 24.3462C39.9853 23.3646 57.4136 22.9161 66.6958 22.7996C67.0524 22.7245 67.4346 22.739 67.7241 22.7877C69.4365 24.0934 69.415 25.5772 69.1054 26.4633C68.7957 27.3493 68.2456 27.3794 68.0092 27.2837L41.5088 27.2742C40.9849 27.4975 40.1962 28.2677 41.2323 29.5629C42.2685 30.8582 69.8538 57.6395 83.4536 70.7508L81.0407 73.3874Z" fill="#9B00E4"/>
<path d="M72.0438 81.6265L53.4374 62.8839C51.0833 65.4607 45.535 70.1661 42.1738 68.3731C40.5062 67.4835 39.6538 65.8936 39.5475 64.176C35.7371 64.7269 32.4869 64.2821 31.7816 62.5327C31.2514 61.2177 31.0568 59.1012 31.2607 56.9202C27.7544 57.0158 24.1322 56.2805 18.9315 50.9858C14.1822 46.1506 11.1264 43.2674 9.55525 41.8251C9.04659 41.7444 8.60385 41.3519 8.41585 40.7946C8.09907 40.1175 8.00039 38.6609 8.90189 37.9818C9.8034 37.3026 10.8113 36.9166 11.2025 36.8085L18.6858 46.1627C21.1323 49.2209 25.4636 53.1298 27.0607 53.6209C27.7782 53.8415 29.7221 54.1517 31.7061 54.2974C32.4995 51.1672 34.2228 48.5478 37.0799 48.8342C42.6442 49.3921 43.2795 56.8557 37.2976 56.6328C36.1606 56.5904 35.0855 56.6585 34.034 56.7399C33.0392 57.1062 33.0595 58.2004 32.8345 59.5203C32.6095 60.8402 33.3759 62.1366 34.6693 62.3986C35.5917 62.5855 37.6617 62.5663 39.6996 62.3818C40.1682 60.3388 41.6349 58.3912 43.9876 57.469C49.0297 55.4926 52.5257 55.3467 50.5592 59.2861C49.621 61.1655 45.1639 63.0617 41.1036 63.9018C41.2622 65.2291 41.5202 65.3284 42.4107 66.4113C43.3013 67.4942 46.6752 65.6207 47.3164 65.3276C48.6627 64.7122 52.018 60.9215 53.1833 60.8729C54.3487 60.8242 54.604 60.7671 56.0106 62.1491C57.1359 63.2547 68.3298 74.6632 73.7861 80.2293L72.0438 81.6265Z" fill="#FFEC00"/>
<path d="M58.4663 110.243C57.3187 111.956 55.5929 115.872 59.2732 115.535C63.8737 115.112 113.003 79.5743 114.628 74.7068C115.929 70.8129 109.242 71.3707 106.143 71.9751" stroke="black" stroke-width="0.901734"/>
<path d="M78.5599 126.711C74.2051 134.662 73.9916 135.979 77.1579 136.412C80.3241 136.845 126.586 104.109 126.673 99.2835C126.743 95.4231 121.954 95.712 118.478 96.4191" stroke="black" stroke-width="0.901734"/>
<path d="M68.2932 118.401C65.4945 121.529 62.3117 128.12 66.7619 125.73C72.3248 122.743 125.487 88.3026 120.568 85.4672C116.633 83.199 113.501 84.5272 112.927 85.2823" stroke="black" stroke-width="0.901734"/>
</svg>
