<svg width="109" height="150" viewBox="0 0 109 150" fill="none" xmlns="http://www.w3.org/2000/svg">
<path d="M15.6617 126.728C15.0204 124.3 18.3539 84.3118 20.842 64.1811C27.3905 64.7629 43.0299 66.6177 53.1995 69.3825C63.3691 72.1473 80.1775 80.7956 87.3106 84.7742L55.2615 141.221C49.1361 142.839 43.3715 141.487 31.9837 137.573C17.749 132.681 16.549 130.088 15.6617 126.728Z" fill="#A90029"/>
<path d="M61.7225 82.9705L72.3969 22.7248C73.1105 20.695 75.1741 17.1218 77.72 19.0682C80.172 20.9429 90.3041 35.1304 95.599 42.7551C95.861 43.0086 96.063 43.3332 96.1847 43.6004C96.0621 45.7503 94.8207 46.5635 93.9132 46.8032C93.0058 47.0428 92.6727 46.604 92.6196 46.3546L77.7862 24.3945C77.3079 24.0855 76.228 23.8635 75.7353 25.4473C75.2425 27.0311 68.5039 64.8832 65.258 83.493L61.7225 82.9705Z" fill="#9B00E4"/>
<path d="M49.858 80.1311L54.9652 54.2197C51.5121 53.7126 44.5065 51.7512 44.1096 47.9624C43.9127 46.0827 44.7524 44.4861 46.1159 43.436C43.5255 40.5878 42.0737 37.6461 43.128 36.082C43.9206 34.9063 45.565 33.5598 47.4861 32.5072C45.4433 29.6559 44.0239 26.2433 45.4978 18.9694C46.8437 12.3269 47.521 8.1805 47.836 6.07113C47.618 5.60452 47.6952 5.01791 48.0516 4.55008C48.4352 3.90843 49.5866 3.01092 50.6542 3.37743C51.7217 3.74394 52.606 4.36274 52.9147 4.62633L49.3559 16.0647C48.1924 19.8042 47.3797 25.5818 47.8673 27.1799C48.0864 27.8979 48.9181 29.6821 49.9085 31.4074C52.9461 30.3116 56.0813 30.2723 57.4441 32.7998C60.0981 37.722 54.2706 42.4282 51.1051 37.3476C50.5035 36.3819 49.845 35.5294 49.1887 34.7038C48.328 34.0848 47.4329 34.7144 46.2134 35.2672C44.9939 35.82 44.3491 37.1809 44.8564 38.3992C45.2182 39.2681 46.3933 40.9723 47.6875 42.5573C49.6425 41.8013 52.0775 41.9257 54.159 43.3584C58.6202 46.4287 60.6989 49.2433 56.334 49.8203C54.2515 50.0956 50.1844 47.4651 47.2145 44.5717C46.2038 45.4464 46.2659 45.7157 45.8675 47.06C45.4692 48.4043 48.9107 50.1503 49.5127 50.5173C50.7765 51.288 55.7961 51.9448 56.489 52.883C57.1819 53.8212 57.3723 54.0008 57.0151 55.9401C56.7294 57.4915 53.5468 73.1545 51.9912 80.7921L49.858 80.1311Z" fill="#FFEC00"/>
<path d="M18.5459 84.9092C16.4845 84.9174 12.2733 85.6811 14.6143 88.541C17.5406 92.1158 74.497 112.915 79.4397 111.536C83.394 110.432 79.1871 105.205 76.9508 102.976" stroke="black" stroke-width="0.901734"/>
<path d="M16.1564 110.779C7.13068 111.623 5.91979 112.184 7.33422 115.05C8.74865 117.916 61.7777 137.909 65.8244 135.279C69.0618 133.174 66.1402 129.368 63.6077 126.885" stroke="black" stroke-width="0.901734"/>
<path d="M17.2914 97.6188C13.132 97.0524 5.88922 98.1067 10.3613 100.455C15.9514 103.391 74.2575 128.146 73.8516 122.483C73.5269 117.952 70.6728 116.102 69.7257 116.049" stroke="black" stroke-width="0.901734"/>
</svg>
