<svg width="135" height="121" viewBox="0 0 135 121" fill="none" xmlns="http://www.w3.org/2000/svg">
<path d="M90.9653 103.27C88.9843 102.884 61.2273 86.4817 47.5372 77.6384C50.2493 73.1054 57.063 62.4423 62.6212 56.054C68.1793 49.6656 80.3159 40.534 85.6894 36.7667L115.304 79.6986C114.331 84.6951 111.336 88.3918 104.521 95.2592C96.0011 103.843 93.7059 103.804 90.9653 103.27Z" fill="#FFEC00"/>
<path d="M75.4279 54.6448L35.5868 25.8442C34.3682 24.6178 32.5059 21.8749 34.8044 20.7145C37.0183 19.5969 50.8255 17.2325 58.1932 16.0705C58.4681 15.9697 58.7737 15.9372 59.0095 15.9425C60.5217 16.7836 60.6755 17.966 60.5313 18.7062C60.3871 19.4464 59.9532 19.5338 59.7542 19.4849L38.6802 22.5303C38.2893 22.7681 37.7509 23.4715 38.724 24.3821C39.6972 25.2926 64.718 43.4111 77.0429 52.2703L75.4279 54.6448Z" fill="#9B00E4"/>
<path d="M69.2268 62.2354L52.2719 49.475C50.6969 51.7953 46.8269 56.1761 43.9476 55.1375C42.5191 54.6222 41.6581 53.4562 41.3756 52.1026C38.4092 52.9796 35.7734 53.0004 35.011 51.6906C34.4379 50.7059 34.0393 49.0453 33.9502 47.2875C31.1731 47.7674 28.208 47.6001 23.4625 43.9889C19.1289 40.6911 16.3667 38.7505 14.9512 37.7845C14.5375 37.7789 14.1402 37.5178 13.9265 37.0964C13.5966 36.5944 13.3503 35.4475 13.9889 34.8036C14.6276 34.1597 15.3846 33.7366 15.6832 33.6056L22.7115 40.1819C25.0092 42.3319 28.9038 44.9413 30.2303 45.1478C30.8263 45.2406 32.4078 45.2633 34.0023 45.1506C34.2726 42.5701 35.3411 40.2886 37.6461 40.1873C42.135 39.9899 43.5 45.8516 38.7175 46.3635C37.8086 46.4608 36.9615 46.6388 36.1348 46.8246C35.3859 47.2306 35.528 48.0983 35.5012 49.1738C35.4744 50.2493 36.2331 51.1919 37.2918 51.2512C38.0469 51.2936 39.6906 51.0399 41.2899 50.6584C41.4272 48.9798 42.3692 47.2621 44.1337 46.2577C47.9155 44.1053 50.6786 43.5865 49.5687 46.9456C49.0392 48.5482 45.7134 50.5695 42.5815 51.7053C42.8605 52.7424 43.0771 52.7917 43.91 53.5502C44.7429 54.3087 47.21 52.4303 47.6861 52.1234C48.6858 51.4789 50.9172 48.078 51.8382 47.9051C52.7593 47.7322 52.9558 47.6574 54.2335 48.5943C55.2557 49.3438 65.4713 57.1262 70.4513 60.9237L69.2268 62.2354Z" fill="#A90029"/>
<path d="M61.724 86.5497C61.0086 88.0435 60.0875 91.3567 62.9752 90.6641C66.5847 89.7984 101.558 55.8791 102.29 51.8213C102.875 48.5751 97.6224 49.789 95.2276 50.6266" stroke="black" stroke-width="1.72115"/>
<path d="M79.6003 97.3297C77.0534 104.154 77.0353 105.226 79.603 105.205C82.1707 105.185 115.186 73.8243 114.7 69.977C114.311 66.8991 110.536 67.6806 107.853 68.6433" stroke="black" stroke-width="1.72115"/>
<path d="M70.4773 91.904C68.6122 94.7144 66.8406 100.322 70.104 97.9091C74.1834 94.8929 112.49 61.3815 108.252 59.6935C104.861 58.3432 102.524 59.7601 102.155 60.4267" stroke="black" stroke-width="1.72115"/>
</svg>
