<svg width="108" height="125" viewBox="0 0 108 125" fill="none" xmlns="http://www.w3.org/2000/svg">
<path d="M13.7278 90.2238C13.8783 88.2112 26.9078 58.72 34.0821 44.086C38.9023 46.247 50.2918 51.7613 57.2887 56.5307C64.2855 61.3002 74.7793 72.2803 79.1516 77.1742L39.9948 111.626C34.9186 111.246 30.8957 108.706 23.2755 102.744C13.7502 95.2921 13.5195 93.0082 13.7278 90.2238Z" fill="#FFEC00"/>
<path d="M60.192 69.0834L84.1143 26.1355C85.1891 24.7814 87.6943 22.6098 89.1166 24.7562C90.4865 26.8235 94.4561 40.2574 96.4753 47.4376C96.6077 47.6989 96.6759 47.9985 96.6982 48.2333C96.0406 49.8338 94.8845 50.1254 94.1324 50.0692C93.3804 50.0129 93.2427 49.5922 93.2678 49.3889L87.7686 28.8184C87.4865 28.4581 86.7248 28.006 85.9348 29.0794C85.1448 30.1527 70.0902 57.1283 62.7397 70.4083L60.192 69.0834Z" fill="#9B00E4"/>
<path d="M51.9256 63.8166L62.6066 45.4805C60.1174 44.1888 55.3123 40.8601 56.0056 37.8787C56.3496 36.3996 57.4064 35.4076 58.7175 34.9682C57.4981 32.1252 57.1679 29.5101 58.3792 28.5992C59.2897 27.9144 60.892 27.3236 62.6272 27.0286C61.8244 24.3271 61.6424 21.3629 64.6713 16.2261C67.4373 11.5352 69.0401 8.56423 69.8332 7.0451C69.7901 6.63353 70.0027 6.20833 70.3962 5.94662C70.8559 5.56005 71.966 5.18079 72.6804 5.73938C73.3949 6.29796 73.9039 7.00002 74.0691 7.28122L68.3637 15.0332C66.4985 17.5675 64.3645 21.7415 64.3152 23.0831C64.2931 23.6859 64.4563 25.2591 64.7554 26.8294C67.3498 26.7947 69.741 27.5879 70.1124 29.8651C70.8356 34.2997 65.1747 36.3437 64.1047 31.6545C63.9013 30.7632 63.6251 29.9429 63.3434 29.1437C62.8524 28.4477 62.0073 28.6908 60.9361 28.7904C59.8649 28.8901 59.018 29.7542 59.0833 30.8126C59.13 31.5674 59.575 33.17 60.1416 34.7134C61.8247 34.6526 63.6412 35.3863 64.8458 37.0207C67.4275 40.5235 68.2672 43.2066 64.801 42.4989C63.1473 42.1613 60.7494 39.0959 59.2536 36.119C58.2564 36.5179 58.2329 36.7387 57.5775 37.655C56.9221 38.5712 59.0772 40.8006 59.438 41.2374C60.1954 42.1544 63.8348 43.971 64.1146 44.8654C64.3945 45.7598 64.4919 45.9461 63.7116 47.325C63.0873 48.4282 56.5585 59.487 53.3721 64.8785L51.9256 63.8166Z" fill="#A90029"/>
<path d="M26.8986 59.2211C25.331 58.6862 21.9325 58.1605 22.9595 60.9469C24.2432 64.4298 62.035 95.1775 66.1506 95.4276C69.4431 95.6277 67.6208 90.5539 66.5077 88.274" stroke="black" stroke-width="1.72115"/>
<path d="M18.2925 78.2399C11.2166 76.5119 10.1498 76.6199 10.4716 79.1674C10.7934 81.7149 45.8145 110.819 49.5781 109.884C52.589 109.136 51.3695 105.479 50.0984 102.928" stroke="black" stroke-width="1.72115"/>
<path d="M22.6093 68.5427C19.5994 67.0207 13.8225 65.9198 16.602 68.8773C20.0764 72.5743 57.8546 106.68 59.0332 102.273C59.976 98.7473 58.2944 96.5928 57.589 96.3042" stroke="black" stroke-width="1.72115"/>
</svg>
