<svg width="229" height="238" viewBox="0 0 229 238" fill="none" xmlns="http://www.w3.org/2000/svg">
<path d="M24.0845 169.909C24.7212 165.937 55.5459 109.554 72.2496 81.6955C81.4597 86.796 103.154 99.6585 116.249 110.305C129.344 120.951 148.342 144.518 156.204 154.971L72.6589 216.82C62.6414 215.214 55.0783 209.496 40.945 196.377C23.2784 179.978 23.2037 175.404 24.0845 169.909Z" fill="#A90029"/>
<path d="M119.912 135.728L174.627 54.449C176.989 51.9401 182.329 48.0477 184.793 52.549C187.167 56.8846 192.796 84.2301 195.602 98.8287C195.821 99.3698 195.906 99.9762 195.911 100.446C194.336 103.514 191.991 103.9 190.507 103.662C189.023 103.424 188.82 102.565 188.904 102.166L181.435 60.3902C180.935 59.6275 179.498 58.6018 177.749 60.6009C176 62.6 141.575 113.647 124.749 138.787L119.912 135.728Z" fill="#9B00E4"/>
<path d="M104.383 123.874L128.672 89.2506C123.945 86.2677 114.961 78.8508 116.838 73.0461C117.769 70.1663 120.035 68.3736 122.712 67.7208C120.768 61.8702 120.551 56.6213 123.109 55.0154C125.032 53.8082 128.314 52.9038 131.809 52.6091C130.668 47.1092 130.804 41.1918 137.681 31.4985C143.962 22.6466 147.643 17.0153 149.473 14.1314C149.457 13.3068 149.95 12.4981 150.776 12.0443C151.754 11.3538 154.022 10.7868 155.347 12.016C156.672 13.2453 157.565 14.7249 157.846 15.3111L145.215 29.749C141.085 34.4691 136.147 42.4006 135.824 45.0567C135.678 46.2501 135.739 49.4019 136.069 52.5705C141.227 52.937 145.843 54.9136 146.199 59.4983C146.891 68.4267 135.305 71.5361 133.967 62.0438C133.713 60.2398 133.302 58.5642 132.877 56.9298C132.018 55.4651 130.299 55.8061 128.155 55.8242C126.011 55.8424 124.184 57.4165 124.136 59.5294C124.102 61.0362 124.717 64.2937 125.583 67.4539C128.936 67.6155 132.42 69.3775 134.539 72.8256C139.078 80.2153 140.295 85.6847 133.53 83.6976C130.303 82.7495 126.055 76.2594 123.584 70.0964C121.537 70.7212 121.453 71.1559 119.997 72.8655C118.542 74.5752 122.448 79.3644 123.091 80.2924C124.442 82.2406 131.364 86.459 131.77 88.2822C132.176 90.1054 132.338 90.4917 130.557 93.0993C129.132 95.1854 114.31 116.053 107.078 126.225L104.383 123.874Z" fill="#FFEC00"/>
<path d="M55.4395 110.554C52.4161 109.228 45.7551 107.614 47.327 113.32C49.2919 120.452 119.186 187.858 127.318 189.045C133.823 189.995 131.055 179.613 129.227 174.899" stroke="black" stroke-width="1.44404"/>
<path d="M35.1567 146.878C21.3942 142.259 19.2574 142.295 19.469 147.408C19.6806 152.521 84.3482 216.198 91.9795 214.973C98.0845 213.993 96.2763 206.525 94.18 201.245" stroke="black" stroke-width="1.44404"/>
<path d="M45.3567 128.348C39.6344 124.82 28.3463 121.664 33.3701 128.004C39.6498 135.929 108.954 210.002 112.034 201.447C114.498 194.603 111.52 190.042 110.167 189.351" stroke="black" stroke-width="1.44404"/>
</svg>
