<svg width="294" height="111" viewBox="0 0 294 111" fill="none" xmlns="http://www.w3.org/2000/svg">
<g filter="url(#filter0_i)">
<rect width="294" height="111" rx="47" fill="url(#paint0_linear)" fill-opacity="0.9"/>
</g>
<g filter="url(#filter1_i)">
<path d="M62.418 67H60.1562V59.1133H51.5547V67H49.3047V49.9375H51.5547V57.2734H60.1562V49.9375H62.418V67ZM79.5391 59.0195C79.5391 60.6914 79.2578 62.1523 78.6953 63.4023C78.1328 64.6445 77.3359 65.5938 76.3047 66.25C75.2734 66.9062 74.0703 67.2344 72.6953 67.2344C71.3516 67.2344 70.1602 66.9062 69.1211 66.25C68.082 65.5859 67.2734 64.6445 66.6953 63.4258C66.125 62.1992 65.832 60.7812 65.8164 59.1719V57.9414C65.8164 56.3008 66.1016 54.8516 66.6719 53.5938C67.2422 52.3359 68.0469 51.375 69.0859 50.7109C70.1328 50.0391 71.3281 49.7031 72.6719 49.7031C74.0391 49.7031 75.2422 50.0352 76.2812 50.6992C77.3281 51.3555 78.1328 52.3125 78.6953 53.5703C79.2578 54.8203 79.5391 56.2773 79.5391 57.9414V59.0195ZM77.3008 57.918C77.3008 55.8945 76.8945 54.3438 76.082 53.2656C75.2695 52.1797 74.1328 51.6367 72.6719 51.6367C71.25 51.6367 70.1289 52.1797 69.3086 53.2656C68.4961 54.3438 68.0781 55.8438 68.0547 57.7656V59.0195C68.0547 60.9805 68.4648 62.5234 69.2852 63.6484C70.1133 64.7656 71.25 65.3242 72.6953 65.3242C74.1484 65.3242 75.2734 64.7969 76.0703 63.7422C76.8672 62.6797 77.2773 61.1602 77.3008 59.1836V57.918ZM95.2773 49.9375V67H93.0156V59.9336C92.1953 60.168 91.4492 60.332 90.7773 60.4258C90.1055 60.5117 89.3398 60.5547 88.4805 60.5547C86.5352 60.5547 85.0898 60.1328 84.1445 59.2891C83.1992 58.4453 82.7148 57.1523 82.6914 55.4102V49.9375H84.9531V55.3516C84.9609 56.5391 85.2305 57.3945 85.7617 57.918C86.3008 58.4414 87.207 58.7031 88.4805 58.7031C89.9648 58.7031 91.4766 58.4922 93.0156 58.0703V49.9375H95.2773ZM112.457 67H110.195V59.1133H101.594V67H99.3438V49.9375H101.594V57.2734H110.195V49.9375H112.457V67ZM129.578 59.0195C129.578 60.6914 129.297 62.1523 128.734 63.4023C128.172 64.6445 127.375 65.5938 126.344 66.25C125.312 66.9062 124.109 67.2344 122.734 67.2344C121.391 67.2344 120.199 66.9062 119.16 66.25C118.121 65.5859 117.312 64.6445 116.734 63.4258C116.164 62.1992 115.871 60.7812 115.855 59.1719V57.9414C115.855 56.3008 116.141 54.8516 116.711 53.5938C117.281 52.3359 118.086 51.375 119.125 50.7109C120.172 50.0391 121.367 49.7031 122.711 49.7031C124.078 49.7031 125.281 50.0352 126.32 50.6992C127.367 51.3555 128.172 52.3125 128.734 53.5703C129.297 54.8203 129.578 56.2773 129.578 57.9414V59.0195ZM127.34 57.918C127.34 55.8945 126.934 54.3438 126.121 53.2656C125.309 52.1797 124.172 51.6367 122.711 51.6367C121.289 51.6367 120.168 52.1797 119.348 53.2656C118.535 54.3438 118.117 55.8438 118.094 57.7656V59.0195C118.094 60.9805 118.504 62.5234 119.324 63.6484C120.152 64.7656 121.289 65.3242 122.734 65.3242C124.188 65.3242 125.312 64.7969 126.109 63.7422C126.906 62.6797 127.316 61.1602 127.34 59.1836V57.918ZM143.711 49.9375H145.961V67H143.711V53.8516L135.309 67H133.047V49.9375H135.309V63.0859L143.711 49.9375ZM143.078 45.6953C143.078 46.6406 142.754 47.4023 142.105 47.9805C141.465 48.5508 140.621 48.8359 139.574 48.8359C138.527 48.8359 137.68 48.5469 137.031 47.9688C136.383 47.3906 136.059 46.6328 136.059 45.6953H137.828C137.828 46.2422 137.977 46.6719 138.273 46.9844C138.57 47.2891 139.004 47.4414 139.574 47.4414C140.121 47.4414 140.547 47.2891 140.852 46.9844C141.164 46.6797 141.32 46.25 141.32 45.6953H143.078ZM158.266 60.3203V67H156.016V49.9375H162.309C164.176 49.9375 165.637 50.4141 166.691 51.3672C167.754 52.3203 168.285 53.582 168.285 55.1523C168.285 56.8086 167.766 58.0859 166.727 58.9844C165.695 59.875 164.215 60.3203 162.285 60.3203H158.266ZM158.266 58.4805H162.309C163.512 58.4805 164.434 58.1992 165.074 57.6367C165.715 57.0664 166.035 56.2461 166.035 55.1758C166.035 54.1602 165.715 53.3477 165.074 52.7383C164.434 52.1289 163.555 51.8125 162.438 51.7891H158.266V58.4805ZM180.801 59.1133H173.406V65.1602H181.996V67H171.156V49.9375H181.879V51.7891H173.406V57.2734H180.801V59.1133ZM196.785 59.2188H194.957V67H192.707V59.2188H190.773L185.945 67H183.133L188.875 58L183.578 49.9375H186.238L190.773 57.3438H192.707V49.9375H194.957V57.3438H196.809L201.344 49.9375H203.992L198.695 57.9883L204.438 67H201.637L196.785 59.2188ZM217.352 49.9375H219.602V67H217.352V53.8516L208.949 67H206.688V49.9375H208.949V63.0859L217.352 49.9375ZM226.609 49.9375L232.188 63.8594L237.766 49.9375H240.684V67H238.434V60.3555L238.645 53.1836L233.043 67H231.32L225.73 53.2188L225.953 60.3555V67H223.703V49.9375H226.609Z" fill="#272727"/>
</g>
<defs>
<filter id="filter0_i" x="0" y="0" width="294" height="115" filterUnits="userSpaceOnUse" color-interpolation-filters="sRGB">
<feFlood flood-opacity="0" result="BackgroundImageFix"/>
<feBlend mode="normal" in="SourceGraphic" in2="BackgroundImageFix" result="shape"/>
<feColorMatrix in="SourceAlpha" type="matrix" values="0 0 0 0 0 0 0 0 0 0 0 0 0 0 0 0 0 0 127 0" result="hardAlpha"/>
<feOffset dy="4"/>
<feGaussianBlur stdDeviation="2"/>
<feComposite in2="hardAlpha" operator="arithmetic" k2="-1" k3="1"/>
<feColorMatrix type="matrix" values="0 0 0 0 0 0 0 0 0 0 0 0 0 0 0 0 0 0 0.06 0"/>
<feBlend mode="normal" in2="shape" result="effect1_innerShadow"/>
</filter>
<filter id="filter1_i" x="49.3047" y="45.6953" width="191.379" height="25.5391" filterUnits="userSpaceOnUse" color-interpolation-filters="sRGB">
<feFlood flood-opacity="0" result="BackgroundImageFix"/>
<feBlend mode="normal" in="SourceGraphic" in2="BackgroundImageFix" result="shape"/>
<feColorMatrix in="SourceAlpha" type="matrix" values="0 0 0 0 0 0 0 0 0 0 0 0 0 0 0 0 0 0 127 0" result="hardAlpha"/>
<feOffset dy="4"/>
<feGaussianBlur stdDeviation="2"/>
<feComposite in2="hardAlpha" operator="arithmetic" k2="-1" k3="1"/>
<feColorMatrix type="matrix" values="0 0 0 0 0 0 0 0 0 0 0 0 0 0 0 0 0 0 0.25 0"/>
<feBlend mode="normal" in2="shape" result="effect1_innerShadow"/>
</filter>
<linearGradient id="paint0_linear" x1="-144.5" y1="241" x2="294" y2="56" gradientUnits="userSpaceOnUse">
<stop offset="0.208333" stop-color="white"/>
<stop offset="0.348958" stop-color="#DFD3F3"/>
</linearGradient>
</defs>
</svg>
