<svg width="318" height="235" viewBox="0 0 318 235" fill="none" xmlns="http://www.w3.org/2000/svg">
<path d="M288.792 25.7154L287.566 9.30803L277.375 10.0688L278.008 18.5296C278.226 22.0857 277.522 24.9272 275.895 27.0543C274.267 29.1813 271.927 30.3588 268.873 30.5868C265.803 30.816 263.282 29.9936 261.309 28.1197C259.335 26.2458 258.188 23.5738 257.866 20.1037L256.891 7.06197L290.922 4.52148L292.485 25.4397L288.792 25.7154ZM273.683 10.3445L260.898 11.2989L261.511 19.5026C261.677 21.7308 262.399 23.4161 263.675 24.5586C264.952 25.7168 266.588 26.2214 268.582 26.0725C270.499 25.9294 271.966 25.2167 272.982 23.9343C274 22.6675 274.442 20.9345 274.309 18.7351L273.683 10.3445ZM269.445 55.551L268.38 41.2939L259.259 38.7549L258.914 34.1272L293.915 44.5817L294.208 48.5082L261.151 64.0671L260.806 59.4628L269.445 55.551ZM272.174 42.3738L273.039 53.9431L288.522 46.9585L272.174 42.3738ZM275.15 72.1411L261.828 73.1356L261.493 68.6481L295.523 66.1076L296.461 78.6586C296.739 82.3826 296.006 85.3673 294.263 87.6127C292.52 89.8737 290.083 91.1211 286.951 91.3549C283.647 91.6015 281.022 90.7556 279.076 88.817C277.146 86.8928 276.037 84.0064 275.749 80.1578L275.15 72.1411ZM278.82 71.8671L279.422 79.9306C279.602 82.3301 280.3 84.1269 281.517 85.3208C282.75 86.5136 284.434 87.0303 286.569 86.8709C288.594 86.7197 290.167 85.9599 291.287 84.5915C292.407 83.2231 292.907 81.423 292.787 79.1914L292.166 70.8708L278.82 71.8671ZM284.247 102.039L284.879 110.5C285.098 114.056 284.394 116.897 282.766 119.024C281.139 121.152 278.798 122.329 275.744 122.557C272.675 122.786 270.153 121.964 268.18 120.09C266.207 118.216 265.059 115.544 264.737 112.074L263.765 99.0555L297.795 96.5151L298.13 101.003L284.247 102.039ZM280.554 102.315L267.769 103.269L268.382 111.473C268.549 113.701 269.27 115.386 270.546 116.529C271.824 117.687 273.46 118.192 275.454 118.043C277.371 117.9 278.837 117.187 279.854 115.905C280.872 114.638 281.314 112.905 281.181 110.705L280.554 102.315ZM266.22 131.917L265.885 127.43L299.915 124.889L300.25 129.377L266.22 131.917Z" fill="black"/>
<path d="M216.792 26.7154L215.566 10.308L205.375 11.0688L206.008 19.5296C206.226 23.0857 205.522 25.9272 203.895 28.0543C202.267 30.1813 199.927 31.3588 196.873 31.5868C193.803 31.816 191.282 30.9936 189.309 29.1197C187.335 27.2458 186.188 24.5738 185.866 21.1037L184.891 8.06197L218.922 5.52148L220.485 26.4397L216.792 26.7154ZM201.683 11.3445L188.898 12.2989L189.511 20.5026C189.677 22.7308 190.399 24.4161 191.675 25.5586C192.952 26.7168 194.588 27.2214 196.582 27.0725C198.499 26.9294 199.966 26.2167 200.982 24.9343C202 23.6675 202.442 21.9345 202.309 19.7351L201.683 11.3445ZM197.445 56.551L196.38 42.2939L187.259 39.7549L186.914 35.1272L221.915 45.5817L222.208 49.5082L189.151 65.0671L188.806 60.4628L197.445 56.551ZM200.174 43.3738L201.039 54.9431L216.522 47.9585L200.174 43.3738ZM203.15 73.1411L189.828 74.1356L189.493 69.6481L223.523 67.1076L224.461 79.6586C224.739 83.3826 224.006 86.3673 222.263 88.6127C220.52 90.8737 218.083 92.1211 214.951 92.3549C211.647 92.6015 209.022 91.7556 207.076 89.817C205.146 87.8928 204.037 85.0064 203.749 81.1578L203.15 73.1411ZM206.82 72.8671L207.422 80.9306C207.602 83.3301 208.3 85.1269 209.517 86.3208C210.75 87.5136 212.434 88.0303 214.569 87.8709C216.594 87.7197 218.167 86.9599 219.287 85.5915C220.407 84.2231 220.907 82.423 220.787 80.1914L220.166 71.8708L206.82 72.8671ZM212.247 103.039L212.879 111.5C213.098 115.056 212.394 117.897 210.766 120.024C209.139 122.152 206.798 123.329 203.744 123.557C200.675 123.786 198.153 122.964 196.18 121.09C194.207 119.216 193.059 116.544 192.737 113.074L191.765 100.056L225.795 97.5151L226.13 102.003L212.247 103.039ZM208.554 103.315L195.769 104.269L196.382 112.473C196.549 114.701 197.27 116.386 198.546 117.529C199.824 118.687 201.46 119.192 203.454 119.043C205.371 118.9 206.837 118.187 207.854 116.905C208.872 115.638 209.314 113.905 209.181 111.705L208.554 103.315ZM194.22 132.917L193.885 128.43L227.915 125.889L228.25 130.377L194.22 132.917Z" fill="black"/>
<path d="M30.2109 44.0391C30.2109 47.3828 29.6484 50.3047 28.5234 52.8047C27.3984 55.2891 25.8047 57.1875 23.7422 58.5C21.6797 59.8125 19.2734 60.4688 16.5234 60.4688C13.8359 60.4688 11.4531 59.8125 9.375 58.5C7.29688 57.1719 5.67969 55.2891 4.52344 52.8516C3.38281 50.3984 2.79688 47.5625 2.76562 44.3438V41.8828C2.76562 38.6016 3.33594 35.7031 4.47656 33.1875C5.61719 30.6719 7.22656 28.75 9.30469 27.4219C11.3984 26.0781 13.7891 25.4062 16.4766 25.4062C19.2109 25.4062 21.6172 26.0703 23.6953 27.3984C25.7891 28.7109 27.3984 30.625 28.5234 33.1406C29.6484 35.6406 30.2109 38.5547 30.2109 41.8828V44.0391ZM25.7344 41.8359C25.7344 37.7891 24.9219 34.6875 23.2969 32.5312C21.6719 30.3594 19.3984 29.2734 16.4766 29.2734C13.6328 29.2734 11.3906 30.3594 9.75 32.5312C8.125 34.6875 7.28906 37.6875 7.24219 41.5312V44.0391C7.24219 47.9609 8.0625 51.0469 9.70312 53.2969C11.3594 55.5312 13.6328 56.6484 16.5234 56.6484C19.4297 56.6484 21.6797 55.5938 23.2734 53.4844C24.8672 51.3594 25.6875 48.3203 25.7344 44.3672V41.8359ZM59.8828 29.5781H48.9141V60H44.4375V29.5781H33.4922V25.875H59.8828V29.5781ZM84.2344 44.2266H69.4453V56.3203H86.625V60H64.9453V25.875H86.3906V29.5781H69.4453V40.5469H84.2344V44.2266ZM118.031 25.875V60H113.531V29.5781H101.297L100.688 43.1016C100.453 47.6328 99.9844 51.0391 99.2812 53.3203C98.5938 55.6016 97.5781 57.2812 96.2344 58.3594C94.8906 59.4219 93.0938 59.9688 90.8438 60H89.3672V56.3203L90.3047 56.2734C91.7578 56.1641 92.875 55.6953 93.6562 54.8672C94.4375 54.0234 95.0312 52.6875 95.4375 50.8594C95.8438 49.0312 96.1328 46.2188 96.3047 42.4219L97.0078 25.875H118.031ZM130.57 39.7969H139.055C142.617 39.8438 145.398 40.7578 147.398 42.5391C149.398 44.3203 150.398 46.7422 150.398 49.8047C150.398 52.8828 149.391 55.3359 147.375 57.1641C145.359 58.9922 142.609 59.9375 139.125 60H126.07V25.875H130.57V39.7969ZM130.57 43.5V56.3203H138.797C141.031 56.3203 142.766 55.7266 144 54.5391C145.25 53.3516 145.875 51.7578 145.875 49.7578C145.875 47.8359 145.273 46.3203 144.07 45.2109C142.883 44.1016 141.188 43.5312 138.984 43.5H130.57ZM30.2109 100.039C30.2109 103.383 29.6484 106.305 28.5234 108.805C27.3984 111.289 25.8047 113.188 23.7422 114.5C21.6797 115.812 19.2734 116.469 16.5234 116.469C13.8359 116.469 11.4531 115.812 9.375 114.5C7.29688 113.172 5.67969 111.289 4.52344 108.852C3.38281 106.398 2.79688 103.562 2.76562 100.344V97.8828C2.76562 94.6016 3.33594 91.7031 4.47656 89.1875C5.61719 86.6719 7.22656 84.75 9.30469 83.4219C11.3984 82.0781 13.7891 81.4062 16.4766 81.4062C19.2109 81.4062 21.6172 82.0703 23.6953 83.3984C25.7891 84.7109 27.3984 86.625 28.5234 89.1406C29.6484 91.6406 30.2109 94.5547 30.2109 97.8828V100.039ZM25.7344 97.8359C25.7344 93.7891 24.9219 90.6875 23.2969 88.5312C21.6719 86.3594 19.3984 85.2734 16.4766 85.2734C13.6328 85.2734 11.3906 86.3594 9.75 88.5312C8.125 90.6875 7.28906 93.6875 7.24219 97.5312V100.039C7.24219 103.961 8.0625 107.047 9.70312 109.297C11.3594 111.531 13.6328 112.648 16.5234 112.648C19.4297 112.648 21.6797 111.594 23.2734 109.484C24.8672 107.359 25.6875 104.32 25.7344 100.367V97.8359ZM59.8828 85.5781H48.9141V116H44.4375V85.5781H33.4922V81.875H59.8828V85.5781ZM84.2344 100.227H69.4453V112.32H86.625V116H64.9453V81.875H86.3906V85.5781H69.4453V96.5469H84.2344V100.227ZM118.031 81.875V116H113.531V85.5781H101.297L100.688 99.1016C100.453 103.633 99.9844 107.039 99.2812 109.32C98.5938 111.602 97.5781 113.281 96.2344 114.359C94.8906 115.422 93.0938 115.969 90.8438 116H89.3672V112.32L90.3047 112.273C91.7578 112.164 92.875 111.695 93.6562 110.867C94.4375 110.023 95.0312 108.688 95.4375 106.859C95.8438 105.031 96.1328 102.219 96.3047 98.4219L97.0078 81.875H118.031ZM130.57 95.7969H139.055C142.617 95.8438 145.398 96.7578 147.398 98.5391C149.398 100.32 150.398 102.742 150.398 105.805C150.398 108.883 149.391 111.336 147.375 113.164C145.359 114.992 142.609 115.938 139.125 116H126.07V81.875H130.57V95.7969ZM130.57 99.5V112.32H138.797C141.031 112.32 142.766 111.727 144 110.539C145.25 109.352 145.875 107.758 145.875 105.758C145.875 103.836 145.273 102.32 144.07 101.211C142.883 100.102 141.188 99.5312 138.984 99.5H130.57Z" fill="black"/>
</svg>
