<svg width="550" height="451" viewBox="0 0 550 451" fill="none" xmlns="http://www.w3.org/2000/svg">
<g filter="url(#filter0_d)">
<rect x="3" y="1" width="542" height="443" rx="41" fill="#E2D7F4" fill-opacity="0.95"/>
</g>
<rect x="215" y="148" width="118" height="118" rx="20" fill="white"/>
<path d="M201.18 298V280.938H206.758C208.609 280.938 210 281.32 210.93 282.086C211.867 282.852 212.336 283.984 212.336 285.484C212.336 286.281 212.109 286.988 211.656 287.605C211.203 288.215 210.586 288.688 209.805 289.023C210.727 289.281 211.453 289.773 211.984 290.5C212.523 291.219 212.793 292.078 212.793 293.078C212.793 294.609 212.297 295.812 211.305 296.688C210.312 297.562 208.91 298 207.098 298H201.18ZM203.43 290.02V296.16H207.145C208.191 296.16 209.016 295.891 209.617 295.352C210.227 294.805 210.531 294.055 210.531 293.102C210.531 291.047 209.414 290.02 207.18 290.02H203.43ZM203.43 288.215H206.828C207.812 288.215 208.598 287.969 209.184 287.477C209.777 286.984 210.074 286.316 210.074 285.473C210.074 284.535 209.801 283.855 209.254 283.434C208.707 283.004 207.875 282.789 206.758 282.789H203.43V288.215ZM221.055 298.234C219.336 298.234 217.938 297.672 216.859 296.547C215.781 295.414 215.242 293.902 215.242 292.012V291.613C215.242 290.355 215.48 289.234 215.957 288.25C216.441 287.258 217.113 286.484 217.973 285.93C218.84 285.367 219.777 285.086 220.785 285.086C222.434 285.086 223.715 285.629 224.629 286.715C225.543 287.801 226 289.355 226 291.379V292.281H217.41C217.441 293.531 217.805 294.543 218.5 295.316C219.203 296.082 220.094 296.465 221.172 296.465C221.938 296.465 222.586 296.309 223.117 295.996C223.648 295.684 224.113 295.27 224.512 294.754L225.836 295.785C224.773 297.418 223.18 298.234 221.055 298.234ZM220.785 286.867C219.91 286.867 219.176 287.188 218.582 287.828C217.988 288.461 217.621 289.352 217.48 290.5H223.832V290.336C223.77 289.234 223.473 288.383 222.941 287.781C222.41 287.172 221.691 286.867 220.785 286.867ZM238.914 285.32V298H236.734V287.113H232.422L232.164 291.859C232.023 294.039 231.656 295.598 231.062 296.535C230.477 297.473 229.543 297.961 228.262 298H227.395V296.09L228.016 296.043C228.719 295.965 229.223 295.559 229.527 294.824C229.832 294.09 230.027 292.73 230.113 290.746L230.348 285.32H238.914ZM250.598 285.32H252.766V298H250.598V288.754L244.75 298H242.582V285.32H244.75V294.578L250.598 285.32ZM260.195 292.598H258.613V298H256.434V285.32H258.613V290.688H260.031L264.297 285.32H266.922L261.906 291.414L267.344 298H264.59L260.195 292.598ZM268.375 291.543C268.375 290.301 268.617 289.184 269.102 288.191C269.594 287.199 270.273 286.434 271.141 285.895C272.016 285.355 273.012 285.086 274.129 285.086C275.855 285.086 277.25 285.684 278.312 286.879C279.383 288.074 279.918 289.664 279.918 291.648V291.801C279.918 293.035 279.68 294.145 279.203 295.129C278.734 296.105 278.059 296.867 277.176 297.414C276.301 297.961 275.293 298.234 274.152 298.234C272.434 298.234 271.039 297.637 269.969 296.441C268.906 295.246 268.375 293.664 268.375 291.695V291.543ZM270.555 291.801C270.555 293.207 270.879 294.336 271.527 295.188C272.184 296.039 273.059 296.465 274.152 296.465C275.254 296.465 276.129 296.035 276.777 295.176C277.426 294.309 277.75 293.098 277.75 291.543C277.75 290.152 277.418 289.027 276.754 288.168C276.098 287.301 275.223 286.867 274.129 286.867C273.059 286.867 272.195 287.293 271.539 288.145C270.883 288.996 270.555 290.215 270.555 291.801ZM292.844 285.32V298H290.664V287.113H286.352L286.094 291.859C285.953 294.039 285.586 295.598 284.992 296.535C284.406 297.473 283.473 297.961 282.191 298H281.324V296.09L281.945 296.043C282.648 295.965 283.152 295.559 283.457 294.824C283.762 294.09 283.957 292.73 284.043 290.746L284.277 285.32H292.844ZM301.586 298.234C299.867 298.234 298.469 297.672 297.391 296.547C296.312 295.414 295.773 293.902 295.773 292.012V291.613C295.773 290.355 296.012 289.234 296.488 288.25C296.973 287.258 297.645 286.484 298.504 285.93C299.371 285.367 300.309 285.086 301.316 285.086C302.965 285.086 304.246 285.629 305.16 286.715C306.074 287.801 306.531 289.355 306.531 291.379V292.281H297.941C297.973 293.531 298.336 294.543 299.031 295.316C299.734 296.082 300.625 296.465 301.703 296.465C302.469 296.465 303.117 296.309 303.648 295.996C304.18 295.684 304.645 295.27 305.043 294.754L306.367 295.785C305.305 297.418 303.711 298.234 301.586 298.234ZM301.316 286.867C300.441 286.867 299.707 287.188 299.113 287.828C298.52 288.461 298.152 289.352 298.012 290.5H304.363V290.336C304.301 289.234 304.004 288.383 303.473 287.781C302.941 287.172 302.223 286.867 301.316 286.867ZM319.422 298H317.254V287.113H311.418V298H309.238V285.32H319.422V298ZM333.262 298H331.094V292.586H325.27V298H323.09V285.32H325.27V290.816H331.094V285.32H333.262V298ZM336.18 291.543C336.18 290.301 336.422 289.184 336.906 288.191C337.398 287.199 338.078 286.434 338.945 285.895C339.82 285.355 340.816 285.086 341.934 285.086C343.66 285.086 345.055 285.684 346.117 286.879C347.188 288.074 347.723 289.664 347.723 291.648V291.801C347.723 293.035 347.484 294.145 347.008 295.129C346.539 296.105 345.863 296.867 344.98 297.414C344.105 297.961 343.098 298.234 341.957 298.234C340.238 298.234 338.844 297.637 337.773 296.441C336.711 295.246 336.18 293.664 336.18 291.695V291.543ZM338.359 291.801C338.359 293.207 338.684 294.336 339.332 295.188C339.988 296.039 340.863 296.465 341.957 296.465C343.059 296.465 343.934 296.035 344.582 295.176C345.23 294.309 345.555 293.098 345.555 291.543C345.555 290.152 345.223 289.027 344.559 288.168C343.902 287.301 343.027 286.867 341.934 286.867C340.863 286.867 340 287.293 339.344 288.145C338.688 288.996 338.359 290.215 338.359 291.801Z" fill="black"/>
<path d="M253.656 213.812C251.302 216.125 248.552 217.281 245.406 217.281C241.385 217.281 238.167 215.906 235.75 213.156C233.333 210.385 232.125 206.656 232.125 201.969C232.125 198.99 232.771 196.26 234.062 193.781C235.375 191.281 237.198 189.344 239.531 187.969C241.865 186.573 244.49 185.875 247.406 185.875C250.406 185.875 253.073 186.625 255.406 188.125C257.74 189.625 259.552 191.781 260.844 194.594C262.135 197.406 262.792 200.625 262.812 204.25V207.594C262.812 215.177 260.927 221.135 257.156 225.469C253.385 229.802 248.042 232.115 241.125 232.406L238.906 232.438V224.906L240.906 224.875C248.76 224.521 253.01 220.833 253.656 213.812ZM247.625 210.375C249.083 210.375 250.333 210 251.375 209.25C252.438 208.5 253.24 207.594 253.781 206.531V202.812C253.781 199.75 253.198 197.375 252.031 195.688C250.865 194 249.302 193.156 247.344 193.156C245.531 193.156 244.042 193.99 242.875 195.656C241.708 197.302 241.125 199.375 241.125 201.875C241.125 204.354 241.688 206.396 242.812 208C243.958 209.583 245.562 210.375 247.625 210.375ZM272 243.406L267.281 240.938L268.406 238.906C269.802 236.365 270.521 233.833 270.562 231.312V224.312H278.188L278.156 230.562C278.135 232.875 277.552 235.208 276.406 237.562C275.26 239.917 273.792 241.865 272 243.406ZM286.25 209.625L288.875 186.5H314.375V194.031H296.281L295.156 203.812C297.302 202.667 299.583 202.094 302 202.094C306.333 202.094 309.729 203.438 312.188 206.125C314.646 208.812 315.875 212.573 315.875 217.406C315.875 220.344 315.25 222.979 314 225.312C312.771 227.625 311 229.427 308.688 230.719C306.375 231.99 303.646 232.625 300.5 232.625C297.75 232.625 295.198 232.073 292.844 230.969C290.49 229.844 288.625 228.271 287.25 226.25C285.896 224.229 285.177 221.927 285.094 219.344H294.031C294.219 221.24 294.875 222.719 296 223.781C297.146 224.823 298.635 225.344 300.469 225.344C302.51 225.344 304.083 224.615 305.188 223.156C306.292 221.677 306.844 219.594 306.844 216.906C306.844 214.323 306.208 212.344 304.938 210.969C303.667 209.594 301.865 208.906 299.531 208.906C297.385 208.906 295.646 209.469 294.312 210.594L293.438 211.406L286.25 209.625Z" fill="black"/>
<g filter="url(#filter1_i)">
<path d="M47.1055 44.0195C47.1055 45.6914 46.8242 47.1523 46.2617 48.4023C45.6992 49.6445 44.9023 50.5938 43.8711 51.25C42.8398 51.9062 41.6367 52.2344 40.2617 52.2344C38.918 52.2344 37.7266 51.9062 36.6875 51.25C35.6484 50.5859 34.8398 49.6445 34.2617 48.4258C33.6914 47.1992 33.3984 45.7812 33.3828 44.1719V42.9414C33.3828 41.3008 33.668 39.8516 34.2383 38.5938C34.8086 37.3359 35.6133 36.375 36.6523 35.7109C37.6992 35.0391 38.8945 34.7031 40.2383 34.7031C41.6055 34.7031 42.8086 35.0352 43.8477 35.6992C44.8945 36.3555 45.6992 37.3125 46.2617 38.5703C46.8242 39.8203 47.1055 41.2773 47.1055 42.9414V44.0195ZM44.8672 42.918C44.8672 40.8945 44.4609 39.3438 43.6484 38.2656C42.8359 37.1797 41.6992 36.6367 40.2383 36.6367C38.8164 36.6367 37.6953 37.1797 36.875 38.2656C36.0625 39.3438 35.6445 40.8438 35.6211 42.7656V44.0195C35.6211 45.9805 36.0312 47.5234 36.8516 48.6484C37.6797 49.7656 38.8164 50.3242 40.2617 50.3242C41.7148 50.3242 42.8398 49.7969 43.6367 48.7422C44.4336 47.6797 44.8438 46.1602 44.8672 44.1836V42.918ZM50.5508 34.9375H52.8125V50.1602H61.2266V34.9375H63.4766V50.1133H65.2695L65.0586 56.1133H63.0312V52H50.5508V34.9375ZM77.6797 44.1133H70.2852V50.1602H78.875V52H68.0352V34.9375H78.7578V36.7891H70.2852V42.2734H77.6797V44.1133ZM94.7891 52H92.5273V44.1133H83.9258V52H81.6758V34.9375H83.9258V42.2734H92.5273V34.9375H94.7891V52ZM103.215 44.3359H101.141V52H98.8906V34.9375H101.141V42.4609H102.898L108.863 34.9375H111.664L105.148 43.2109L112.145 52H109.391L103.215 44.3359ZM123.629 47.5469H116.48L114.875 52H112.555L119.07 34.9375H121.039L127.566 52H125.258L123.629 47.5469ZM117.16 45.6953H122.961L120.055 37.7148L117.16 45.6953Z" fill="black"/>
</g>
<defs>
<filter id="filter0_d" x="0" y="0" width="550" height="451" filterUnits="userSpaceOnUse" color-interpolation-filters="sRGB">
<feFlood flood-opacity="0" result="BackgroundImageFix"/>
<feColorMatrix in="SourceAlpha" type="matrix" values="0 0 0 0 0 0 0 0 0 0 0 0 0 0 0 0 0 0 127 0"/>
<feMorphology radius="1" operator="dilate" in="SourceAlpha" result="effect1_dropShadow"/>
<feOffset dx="1" dy="3"/>
<feGaussianBlur stdDeviation="1.5"/>
<feColorMatrix type="matrix" values="0 0 0 0 0 0 0 0 0 0 0 0 0 0 0 0 0 0 0.1 0"/>
<feBlend mode="normal" in2="BackgroundImageFix" result="effect1_dropShadow"/>
<feBlend mode="normal" in="SourceGraphic" in2="effect1_dropShadow" result="shape"/>
</filter>
<filter id="filter1_i" x="33.3828" y="34.7031" width="94.1836" height="25.4102" filterUnits="userSpaceOnUse" color-interpolation-filters="sRGB">
<feFlood flood-opacity="0" result="BackgroundImageFix"/>
<feBlend mode="normal" in="SourceGraphic" in2="BackgroundImageFix" result="shape"/>
<feColorMatrix in="SourceAlpha" type="matrix" values="0 0 0 0 0 0 0 0 0 0 0 0 0 0 0 0 0 0 127 0" result="hardAlpha"/>
<feOffset dy="4"/>
<feGaussianBlur stdDeviation="2"/>
<feComposite in2="hardAlpha" operator="arithmetic" k2="-1" k3="1"/>
<feColorMatrix type="matrix" values="0 0 0 0 0 0 0 0 0 0 0 0 0 0 0 0 0 0 0.25 0"/>
<feBlend mode="normal" in2="shape" result="effect1_innerShadow"/>
</filter>
</defs>
</svg>
