<svg width="71" height="300" viewBox="0 0 71 300" fill="none" xmlns="http://www.w3.org/2000/svg">
<path d="M64 40C52.8 12.8 21.3333 2 7 0H2V221.5C5.16667 254 -2.6 302.3 13 299.5C32.5 296 64 232 70 205.5C76 179 48 162 35.5 138C23 114 78 74 64 40Z" fill="#E1305A"/>
<ellipse cx="34.7627" cy="200.497" rx="28.9098" ry="28.0805" transform="rotate(77.0696 34.7627 200.497)" fill="#E1305A"/>
<ellipse cx="39.7646" cy="215.2" rx="7.12845" ry="6.72351" transform="rotate(77.0696 39.7646 215.2)" fill="white"/>
<ellipse cx="26.9226" cy="184.017" rx="7.12845" ry="6.72351" transform="rotate(77.0696 26.9226 184.017)" fill="white"/>
<ellipse cx="49.3271" cy="196.755" rx="7.12845" ry="6.72351" transform="rotate(77.0696 49.3271 196.755)" fill="white"/>
<ellipse cx="24.2355" cy="245.768" rx="17.0569" ry="16.5676" transform="rotate(-47.617 24.2355 245.768)" fill="#E1305A"/>
<ellipse cx="29.6884" cy="238.405" rx="4.2058" ry="3.96689" transform="rotate(-47.617 29.6884 238.405)" fill="white"/>
<ellipse cx="18.8716" cy="255.105" rx="4.2058" ry="3.96689" transform="rotate(-47.617 18.8716 255.105)" fill="white"/>
<ellipse cx="17.529" cy="239.959" rx="4.2058" ry="3.96689" transform="rotate(-47.617 17.529 239.959)" fill="white"/>
<ellipse cx="20.5766" cy="152.099" rx="12.2717" ry="11.9196" transform="rotate(-47.617 20.5766 152.099)" fill="#E1305A"/>
<ellipse cx="24.4995" cy="146.802" rx="3.02589" ry="2.854" transform="rotate(-47.617 24.4995 146.802)" fill="white"/>
<ellipse cx="16.7176" cy="158.816" rx="3.02589" ry="2.854" transform="rotate(-47.617 16.7176 158.816)" fill="white"/>
<ellipse cx="15.7515" cy="147.919" rx="3.02589" ry="2.854" transform="rotate(-47.617 15.7515 147.919)" fill="white"/>
<ellipse cx="19.3249" cy="108.622" rx="11.5592" ry="11.2276" transform="rotate(95.7261 19.3249 108.622)" fill="#E1305A"/>
<ellipse cx="19.3393" cy="114.831" rx="2.85021" ry="2.6883" transform="rotate(95.7261 19.3393 114.831)" fill="white"/>
<ellipse cx="18.4635" cy="101.375" rx="2.85021" ry="2.6883" transform="rotate(95.7261 18.4635 101.375)" fill="white"/>
<ellipse cx="25.3221" cy="109.067" rx="2.85021" ry="2.6883" transform="rotate(95.7261 25.3221 109.067)" fill="white"/>
<ellipse cx="24.6982" cy="81.0508" rx="12.1226" ry="11.7748" transform="rotate(27.5959 24.6982 81.0508)" fill="#E1305A"/>
<ellipse cx="30.7468" cy="83.4614" rx="2.98913" ry="2.81932" transform="rotate(27.5959 30.7468 83.4614)" fill="white"/>
<ellipse cx="17.3088" cy="79.0579" rx="2.98913" ry="2.81932" transform="rotate(27.5959 17.3088 79.0579)" fill="white"/>
<ellipse cx="27.4745" cy="75.3881" rx="2.98913" ry="2.81932" transform="rotate(27.5959 27.4745 75.3881)" fill="white"/>
<ellipse cx="23.6982" cy="26.0508" rx="12.1226" ry="11.7748" transform="rotate(27.5959 23.6982 26.0508)" fill="#E1305A"/>
<ellipse cx="29.7468" cy="28.4614" rx="2.98913" ry="2.81932" transform="rotate(27.5959 29.7468 28.4614)" fill="white"/>
<ellipse cx="16.3088" cy="24.0579" rx="2.98913" ry="2.81932" transform="rotate(27.5959 16.3088 24.0579)" fill="white"/>
<ellipse cx="26.4745" cy="20.3881" rx="2.98913" ry="2.81932" transform="rotate(27.5959 26.4745 20.3881)" fill="white"/>
</svg>
