<svg width="123" height="331" viewBox="0 0 123 331" fill="none" xmlns="http://www.w3.org/2000/svg">
<path d="M123 11V216C121.833 218.667 117.7 225.5 110.5 231.5C101.5 239 86 233.5 77.5 238.5C69 243.5 65 263.5 60 284C55 304.5 45 335 35 330.5C25 326 14 251.5 13 246.5C12 241.5 0.499998 229 0.499998 224C0.499998 219 -1 211 22.5 135.5C46 60 86.5 15.5 100.5 4.49998C111.7 -4.30002 120.167 5.16664 123 11Z" fill="#FFED5C"/>
<ellipse cx="64" cy="116.197" rx="28" ry="27.1968" fill="#FFED5C"/>
<ellipse cx="49.0435" cy="123.087" rx="6.90411" ry="6.51191" fill="#008DCB"/>
<ellipse cx="71.287" cy="129.982" rx="6.90411" ry="6.51191" fill="#008DCB"/>
<ellipse cx="71.287" cy="100.871" rx="6.90411" ry="6.51191" fill="#008DCB"/>
<ellipse cx="87.5" cy="59.9406" rx="19.5" ry="18.9406" fill="#FFED5C"/>
<ellipse cx="77.0839" cy="64.7394" rx="4.80822" ry="4.53508" fill="#008DCB"/>
<ellipse cx="92.5749" cy="69.5408" rx="4.80822" ry="4.53508" fill="#008DCB"/>
<ellipse cx="92.5749" cy="49.2674" rx="4.80822" ry="4.53508" fill="#008DCB"/>
<ellipse cx="81" cy="176.197" rx="28" ry="27.1968" fill="#FFED5C"/>
<ellipse cx="66.0435" cy="183.087" rx="6.90411" ry="6.51191" fill="#008DCB"/>
<ellipse cx="88.287" cy="189.982" rx="6.90411" ry="6.51191" fill="#008DCB"/>
<ellipse cx="88.287" cy="160.871" rx="6.90411" ry="6.51191" fill="#008DCB"/>
<ellipse cx="36" cy="204.197" rx="28" ry="27.1968" fill="#FFED5C"/>
<ellipse cx="21.0435" cy="211.087" rx="6.90411" ry="6.51191" fill="#008DCB"/>
<ellipse cx="43.287" cy="217.982" rx="6.90411" ry="6.51191" fill="#008DCB"/>
<ellipse cx="43.287" cy="188.871" rx="6.90411" ry="6.51191" fill="#008DCB"/>
</svg>
