<svg width="150" height="239" viewBox="0 0 150 239" fill="none" xmlns="http://www.w3.org/2000/svg">
<path d="M95.1998 43.1939C87.2827 12.6 48.9921 53.6647 0.5 0H149.5V216.5V238.5C135.975 228.135 77.5843 177.606 64.5211 141.496C48.1922 96.357 103.117 73.7878 95.1998 43.1939Z" fill="#008DCB"/>
<ellipse cx="108" cy="82.3115" rx="24" ry="23.3115" fill="#008DCB"/>
<ellipse cx="95.1768" cy="88.2227" rx="5.91781" ry="5.58164" fill="#FFED5C"/>
<ellipse cx="114.248" cy="94.1308" rx="5.91781" ry="5.58164" fill="#FFED5C"/>
<ellipse cx="114.248" cy="69.1773" rx="5.91781" ry="5.58164" fill="#FFED5C"/>
<ellipse cx="107.738" cy="159.925" rx="24" ry="23.3115" transform="rotate(56.0747 107.738 159.925)" fill="#008DCB"/>
<ellipse cx="95.6762" cy="152.584" rx="5.91781" ry="5.58164" transform="rotate(56.0747 95.6762 152.584)" fill="#FFED5C"/>
<ellipse cx="101.417" cy="171.705" rx="5.91781" ry="5.58164" transform="rotate(56.0747 101.417 171.705)" fill="#FFED5C"/>
<ellipse cx="122.123" cy="157.779" rx="5.91781" ry="5.58164" transform="rotate(56.0747 122.123 157.779)" fill="#FFED5C"/>
<ellipse cx="115.98" cy="31.7836" rx="17.8045" ry="17.2938" transform="rotate(-29.211 115.98 31.7836)" fill="#008DCB"/>
<ellipse cx="109.817" cy="40.2537" rx="4.39016" ry="4.14077" transform="rotate(-29.211 109.817 40.2537)" fill="#FFED5C"/>
<ellipse cx="124.305" cy="37.1748" rx="4.39016" ry="4.14077" transform="rotate(-29.211 124.305 37.1748)" fill="#FFED5C"/>
<ellipse cx="115.27" cy="21.0171" rx="4.39016" ry="4.14077" transform="rotate(-29.211 115.27 21.0171)" fill="#FFED5C"/>
</svg>
