<svg width="155" height="429" viewBox="0 0 155 429" fill="none" xmlns="http://www.w3.org/2000/svg">
<path d="M114.234 74.3571C116.213 39.2494 38.1009 55.8001 2.01017e-05 0.630859L0 429H66C82.8238 411.948 111.858 381.399 102.358 369.764C90.4824 355.219 63.7622 359.733 63.7622 310.582C63.7622 261.431 150.85 273.468 154.809 234.348C158.767 195.228 76.1327 189.21 63.7622 146.077C51.3918 102.945 112.254 109.465 114.234 74.3571Z" fill="#E1305A"/>
<ellipse cx="36.1062" cy="140.587" rx="22.3044" ry="21.6646" transform="rotate(77.0696 36.1062 140.587)" fill="#E1305A"/>
<ellipse cx="39.9652" cy="151.93" rx="5.49971" ry="5.18729" transform="rotate(77.0696 39.9652 151.93)" fill="white"/>
<ellipse cx="30.0575" cy="127.872" rx="5.49971" ry="5.18729" transform="rotate(77.0696 30.0575 127.872)" fill="white"/>
<ellipse cx="47.3429" cy="137.699" rx="5.49971" ry="5.18729" transform="rotate(77.0696 47.3429 137.699)" fill="white"/>
<ellipse cx="45.8379" cy="201.46" rx="28.9098" ry="28.0805" transform="rotate(77.0696 45.8379 201.46)" fill="#E1305A"/>
<ellipse cx="50.8398" cy="216.163" rx="7.12845" ry="6.72351" transform="rotate(77.0696 50.8398 216.163)" fill="white"/>
<ellipse cx="37.9978" cy="184.98" rx="7.12845" ry="6.72351" transform="rotate(77.0696 37.9978 184.98)" fill="white"/>
<ellipse cx="60.4023" cy="197.717" rx="7.12845" ry="6.72351" transform="rotate(77.0696 60.4023 197.717)" fill="white"/>
<ellipse cx="116.838" cy="232.46" rx="28.9098" ry="28.0805" transform="rotate(77.0696 116.838 232.46)" fill="#E1305A"/>
<ellipse cx="121.84" cy="247.163" rx="7.12845" ry="6.72351" transform="rotate(77.0696 121.84 247.163)" fill="white"/>
<ellipse cx="108.998" cy="215.98" rx="7.12845" ry="6.72351" transform="rotate(77.0696 108.998 215.98)" fill="white"/>
<ellipse cx="131.402" cy="228.717" rx="7.12845" ry="6.72351" transform="rotate(77.0696 131.402 228.717)" fill="white"/>
<ellipse cx="34.8379" cy="386.46" rx="28.9098" ry="28.0805" transform="rotate(77.0696 34.8379 386.46)" fill="#E1305A"/>
<ellipse cx="39.8398" cy="401.163" rx="7.12845" ry="6.72351" transform="rotate(77.0696 39.8398 401.163)" fill="white"/>
<ellipse cx="26.9978" cy="369.98" rx="7.12845" ry="6.72351" transform="rotate(77.0696 26.9978 369.98)" fill="white"/>
<ellipse cx="49.4023" cy="382.717" rx="7.12845" ry="6.72351" transform="rotate(77.0696 49.4023 382.717)" fill="white"/>
<ellipse cx="33.8379" cy="300.46" rx="28.9098" ry="28.0805" transform="rotate(77.0696 33.8379 300.46)" fill="#E1305A"/>
<ellipse cx="38.8398" cy="315.163" rx="7.12845" ry="6.72351" transform="rotate(77.0696 38.8398 315.163)" fill="white"/>
<ellipse cx="25.9978" cy="283.98" rx="7.12845" ry="6.72351" transform="rotate(77.0696 25.9978 283.98)" fill="white"/>
<ellipse cx="48.4023" cy="296.717" rx="7.12845" ry="6.72351" transform="rotate(77.0696 48.4023 296.717)" fill="white"/>
<ellipse cx="21.7154" cy="239.079" rx="16.8445" ry="16.3613" transform="rotate(77.0696 21.7154 239.079)" fill="#E1305A"/>
<ellipse cx="24.6295" cy="247.646" rx="4.15344" ry="3.9175" transform="rotate(77.0696 24.6295 247.646)" fill="white"/>
<ellipse cx="17.1472" cy="229.477" rx="4.15344" ry="3.9175" transform="rotate(77.0696 17.1472 229.477)" fill="white"/>
<ellipse cx="30.2012" cy="236.899" rx="4.15344" ry="3.9175" transform="rotate(77.0696 30.2012 236.899)" fill="white"/>
<ellipse cx="76.4859" cy="253.279" rx="16.8445" ry="16.3613" transform="rotate(-27.4132 76.4859 253.279)" fill="#E1305A"/>
<ellipse cx="84.0521" cy="248.314" rx="4.15344" ry="3.9175" transform="rotate(-27.4132 84.0521 248.314)" fill="white"/>
<ellipse cx="68.3314" cy="260.103" rx="4.15344" ry="3.9175" transform="rotate(-27.4132 68.3314 260.103)" fill="white"/>
<ellipse cx="72.253" cy="245.608" rx="4.15344" ry="3.9175" transform="rotate(-27.4132 72.253 245.608)" fill="white"/>
<ellipse cx="80.4859" cy="389.279" rx="16.8445" ry="16.3613" transform="rotate(-27.4132 80.4859 389.279)" fill="#E1305A"/>
<ellipse cx="88.0521" cy="384.314" rx="4.15344" ry="3.9175" transform="rotate(-27.4132 88.0521 384.314)" fill="white"/>
<ellipse cx="72.3314" cy="396.103" rx="4.15344" ry="3.9175" transform="rotate(-27.4132 72.3314 396.103)" fill="white"/>
<ellipse cx="76.253" cy="381.608" rx="4.15344" ry="3.9175" transform="rotate(-27.4132 76.253 381.608)" fill="white"/>
</svg>
