<svg width="124" height="201" viewBox="0 0 124 201" fill="none" xmlns="http://www.w3.org/2000/svg">
<path d="M50.3967 144.773C68.2101 166.84 30.1838 194.982 0 201H123.5V4.99997C111.459 -0.349779 95.5957 -5.92146 89 25.5002C83.5957 39.5785 63.7568 44.9664 32.5833 71.548C1.40987 98.1296 32.5833 122.705 50.3967 144.773Z" fill="#FFED5C"/>
<ellipse cx="91.5" cy="174.654" rx="19.5" ry="18.9406" fill="#FFED5C"/>
<ellipse cx="81.084" cy="179.453" rx="4.80822" ry="4.53508" fill="#008DCB"/>
<ellipse cx="96.5748" cy="184.255" rx="4.80822" ry="4.53508" fill="#008DCB"/>
<ellipse cx="96.5748" cy="163.981" rx="4.80822" ry="4.53508" fill="#008DCB"/>
<ellipse cx="81.5" cy="131.941" rx="19.5" ry="18.9406" fill="#FFED5C"/>
<ellipse cx="71.084" cy="136.74" rx="4.80822" ry="4.53508" fill="#008DCB"/>
<ellipse cx="86.5748" cy="141.542" rx="4.80822" ry="4.53508" fill="#008DCB"/>
<ellipse cx="86.5748" cy="121.268" rx="4.80822" ry="4.53508" fill="#008DCB"/>
</svg>
