<svg width="211" height="179" viewBox="0 0 211 179" fill="none" xmlns="http://www.w3.org/2000/svg">
<path d="M-6.10352e-05 137.5V7.5L0 0H211V136.5C204.667 129.333 203 114.5 185 112.5C162.5 110 156.5 187 96.9999 178C37.4999 169 107 56.5 80.9999 37C54.9999 17.5 62.9999 85.5 36.9999 136.5C16.1999 177.3 5.16661 154.5 -6.10352e-05 137.5Z" fill="#E1305A"/>
<ellipse cx="146.838" cy="82.4602" rx="28.9098" ry="28.0805" transform="rotate(77.0696 146.838 82.4602)" fill="#E1305A"/>
<ellipse cx="151.839" cy="97.1632" rx="7.12845" ry="6.72351" transform="rotate(77.0696 151.839 97.1632)" fill="white"/>
<ellipse cx="138.997" cy="65.9802" rx="7.12845" ry="6.72351" transform="rotate(77.0696 138.997 65.9802)" fill="white"/>
<ellipse cx="161.402" cy="78.7175" rx="7.12845" ry="6.72351" transform="rotate(77.0696 161.402 78.7175)" fill="white"/>
<ellipse cx="157.838" cy="38.4602" rx="28.9098" ry="28.0805" transform="rotate(77.0696 157.838 38.4602)" fill="#E1305A"/>
<ellipse cx="162.839" cy="53.1632" rx="7.12845" ry="6.72351" transform="rotate(77.0696 162.839 53.1632)" fill="white"/>
<ellipse cx="149.997" cy="21.9802" rx="7.12845" ry="6.72351" transform="rotate(77.0696 149.997 21.9802)" fill="white"/>
<ellipse cx="172.402" cy="34.7175" rx="7.12845" ry="6.72351" transform="rotate(77.0696 172.402 34.7175)" fill="white"/>
<ellipse cx="30.8036" cy="57.352" rx="25.4633" ry="24.7329" transform="rotate(77.0696 30.8036 57.352)" fill="#E1305A"/>
<ellipse cx="35.2091" cy="70.302" rx="6.27862" ry="5.92195" transform="rotate(77.0696 35.2091 70.302)" fill="white"/>
<ellipse cx="23.898" cy="42.8365" rx="6.27862" ry="5.92195" transform="rotate(77.0696 23.898 42.8365)" fill="white"/>
<ellipse cx="43.6316" cy="54.0553" rx="6.27862" ry="5.92195" transform="rotate(77.0696 43.6316 54.0553)" fill="white"/>
<ellipse cx="104.035" cy="100.421" rx="15.039" ry="14.6076" transform="rotate(95.7261 104.035 100.421)" fill="#E1305A"/>
<ellipse cx="104.054" cy="108.499" rx="3.70825" ry="3.4976" transform="rotate(95.7261 104.054 108.499)" fill="white"/>
<ellipse cx="102.914" cy="90.9929" rx="3.70825" ry="3.4976" transform="rotate(95.7261 102.914 90.9929)" fill="white"/>
<ellipse cx="111.838" cy="101" rx="3.70825" ry="3.4976" transform="rotate(95.7261 111.838 101)" fill="white"/>
<ellipse cx="108.035" cy="55.4215" rx="15.039" ry="14.6076" transform="rotate(95.7261 108.035 55.4215)" fill="#E1305A"/>
<ellipse cx="108.054" cy="63.4995" rx="3.70825" ry="3.4976" transform="rotate(95.7261 108.054 63.4995)" fill="white"/>
<ellipse cx="106.914" cy="45.9929" rx="3.70825" ry="3.4976" transform="rotate(95.7261 106.914 45.9929)" fill="white"/>
<ellipse cx="115.838" cy="56.0004" rx="3.70825" ry="3.4976" transform="rotate(95.7261 115.838 56.0004)" fill="white"/>
<ellipse cx="119.035" cy="27.4215" rx="15.039" ry="14.6076" transform="rotate(95.7261 119.035 27.4215)" fill="#E1305A"/>
<ellipse cx="119.054" cy="35.4995" rx="3.70825" ry="3.4976" transform="rotate(95.7261 119.054 35.4995)" fill="white"/>
<ellipse cx="117.914" cy="17.9929" rx="3.70825" ry="3.4976" transform="rotate(95.7261 117.914 17.9929)" fill="white"/>
<ellipse cx="126.838" cy="28.0004" rx="3.70825" ry="3.4976" transform="rotate(95.7261 126.838 28.0004)" fill="white"/>
<ellipse cx="186.035" cy="88.4215" rx="15.039" ry="14.6076" transform="rotate(95.7261 186.035 88.4215)" fill="#E1305A"/>
<ellipse cx="186.054" cy="96.4995" rx="3.70825" ry="3.4976" transform="rotate(95.7261 186.054 96.4995)" fill="white"/>
<ellipse cx="184.914" cy="78.9929" rx="3.70825" ry="3.4976" transform="rotate(95.7261 184.914 78.9929)" fill="white"/>
<ellipse cx="193.838" cy="89.0004" rx="3.70825" ry="3.4976" transform="rotate(95.7261 193.838 89.0004)" fill="white"/>
<ellipse cx="17.0352" cy="84.4215" rx="15.039" ry="14.6076" transform="rotate(95.7261 17.0352 84.4215)" fill="#E1305A"/>
<ellipse cx="17.0538" cy="92.4995" rx="3.70825" ry="3.4976" transform="rotate(95.7261 17.0538 92.4995)" fill="white"/>
<ellipse cx="15.9145" cy="74.9929" rx="3.70825" ry="3.4976" transform="rotate(95.7261 15.9145 74.9929)" fill="white"/>
<ellipse cx="24.8377" cy="85.0004" rx="3.70825" ry="3.4976" transform="rotate(95.7261 24.8377 85.0004)" fill="white"/>
<ellipse cx="44.0352" cy="22.4215" rx="15.039" ry="14.6076" transform="rotate(95.7261 44.0352 22.4215)" fill="#E1305A"/>
<ellipse cx="44.0538" cy="30.4995" rx="3.70825" ry="3.4976" transform="rotate(95.7261 44.0538 30.4995)" fill="white"/>
<ellipse cx="42.9145" cy="12.9929" rx="3.70825" ry="3.4976" transform="rotate(95.7261 42.9145 12.9929)" fill="white"/>
<ellipse cx="51.8377" cy="23.0004" rx="3.70825" ry="3.4976" transform="rotate(95.7261 51.8377 23.0004)" fill="white"/>
</svg>
