<svg width="211" height="240" viewBox="0 0 211 240" fill="none" xmlns="http://www.w3.org/2000/svg">
<path d="M0 240V142.5H27.5C35.5 142.5 55.4894 142.325 59.5 115.5C63.5106 88.6746 115.02 23.609 124.5 119.5C129.281 167.857 176.247 138.62 184 125.5C190.5 114.5 187.5 27 188 20C188.5 13 196 5.00003 203.5 1.50003C209.5 -1.29997 210.5 2.6667 211 5.00003V240H0Z" fill="#FFED5C"/>
<ellipse cx="41" cy="199.686" rx="27.5" ry="26.7111" fill="#FFED5C"/>
<ellipse cx="26.3105" cy="206.454" rx="6.78082" ry="6.39563" fill="#008DCB"/>
<ellipse cx="48.1569" cy="213.225" rx="6.78082" ry="6.39563" fill="#008DCB"/>
<ellipse cx="48.1569" cy="184.634" rx="6.78082" ry="6.39563" fill="#008DCB"/>
<ellipse cx="96" cy="194.211" rx="27.5" ry="26.7111" fill="#FFED5C"/>
<ellipse cx="81.3105" cy="200.979" rx="6.78082" ry="6.39563" fill="#008DCB"/>
<ellipse cx="103.157" cy="207.75" rx="6.78082" ry="6.39563" fill="#008DCB"/>
<ellipse cx="103.157" cy="179.159" rx="6.78082" ry="6.39563" fill="#008DCB"/>
<ellipse cx="74.5" cy="150.826" rx="23.5" ry="22.8259" fill="#FFED5C"/>
<ellipse cx="61.9472" cy="156.609" rx="5.79452" ry="5.46535" fill="#008DCB"/>
<ellipse cx="80.6159" cy="162.395" rx="5.79452" ry="5.46535" fill="#008DCB"/>
<ellipse cx="80.6159" cy="137.963" rx="5.79452" ry="5.46535" fill="#008DCB"/>
<ellipse cx="164" cy="199.225" rx="27" ry="26.2255" fill="#FFED5C"/>
<ellipse cx="149.577" cy="205.87" rx="6.65753" ry="6.27934" fill="#008DCB"/>
<ellipse cx="171.027" cy="212.518" rx="6.65753" ry="6.27934" fill="#008DCB"/>
<ellipse cx="171.027" cy="184.448" rx="6.65753" ry="6.27934" fill="#008DCB"/>
<ellipse cx="136.75" cy="174.368" rx="17.25" ry="16.7552" fill="#FFED5C"/>
<ellipse cx="127.536" cy="178.613" rx="4.25342" ry="4.0118" fill="#008DCB"/>
<ellipse cx="141.239" cy="182.86" rx="4.25342" ry="4.0118" fill="#008DCB"/>
<ellipse cx="141.239" cy="164.926" rx="4.25342" ry="4.0118" fill="#008DCB"/>
</svg>
