<svg width="550" height="415" viewBox="0 0 550 415" fill="none" xmlns="http://www.w3.org/2000/svg">
<g filter="url(#filter0_d)">
<rect x="3" y="1" width="542" height="407" rx="41" fill="#E2D7F4" fill-opacity="0.95"/>
</g>
<g filter="url(#filter1_i)">
<path d="M57.5156 52H55.2539V36.7891H46.8398V52H44.5898V34.9375H57.5156V52ZM74.5195 34.9375V52H72.2695V36.7891H66.1523L65.8477 43.5508C65.7305 45.8164 65.4961 47.5195 65.1445 48.6602C64.8008 49.8008 64.293 50.6406 63.6211 51.1797C62.9492 51.7109 62.0508 51.9844 60.9258 52H60.1875V50.1602L60.6562 50.1367C61.3828 50.082 61.9414 49.8477 62.332 49.4336C62.7227 49.0117 63.0195 48.3438 63.2227 47.4297C63.4258 46.5156 63.5703 45.1094 63.6562 43.2109L64.0078 34.9375H74.5195ZM97.1836 44.0195C97.1836 45.6914 96.9023 47.1523 96.3398 48.4023C95.7773 49.6445 94.9805 50.5938 93.9492 51.25C92.918 51.9062 91.7148 52.2344 90.3398 52.2344C89.043 52.2344 87.8789 51.9219 86.8477 51.2969C85.8242 50.6719 85.0195 49.7773 84.4336 48.6133C83.8555 47.4492 83.5352 46.0898 83.4727 44.5352H81.0234V52H78.7734V34.9375H81.0234V42.7656H83.4609C83.4844 41.1562 83.7773 39.7461 84.3398 38.5352C84.9023 37.3164 85.7031 36.375 86.7422 35.7109C87.7812 35.0391 88.9727 34.7031 90.3164 34.7031C91.6836 34.7031 92.8867 35.0352 93.9258 35.6992C94.9727 36.3555 95.7773 37.3125 96.3398 38.5703C96.9023 39.8203 97.1836 41.2773 97.1836 42.9414V44.0195ZM94.9453 42.918C94.9453 40.8945 94.5391 39.3438 93.7266 38.2656C92.9141 37.1797 91.7773 36.6367 90.3164 36.6367C88.8945 36.6367 87.7734 37.1797 86.9531 38.2656C86.1406 39.3438 85.7227 40.8438 85.6992 42.7656V44.0195C85.6992 45.9805 86.1094 47.5234 86.9297 48.6484C87.7578 49.7656 88.8945 50.3242 90.3398 50.3242C91.793 50.3242 92.918 49.7969 93.7148 48.7422C94.5117 47.6797 94.9219 46.1602 94.9453 44.1836V42.918ZM112.629 46.5859C112.418 48.3906 111.75 49.7852 110.625 50.7695C109.508 51.7461 108.02 52.2344 106.16 52.2344C104.145 52.2344 102.527 51.5117 101.309 50.0664C100.098 48.6211 99.4922 46.6875 99.4922 44.2656V42.625C99.4922 41.0391 99.7734 39.6445 100.336 38.4414C100.906 37.2383 101.711 36.3164 102.75 35.6758C103.789 35.0273 104.992 34.7031 106.359 34.7031C108.172 34.7031 109.625 35.2109 110.719 36.2266C111.812 37.2344 112.449 38.6328 112.629 40.4219H110.367C110.172 39.0625 109.746 38.0781 109.09 37.4688C108.441 36.8594 107.531 36.5547 106.359 36.5547C104.922 36.5547 103.793 37.0859 102.973 38.1484C102.16 39.2109 101.754 40.7227 101.754 42.6836V44.3359C101.754 46.1875 102.141 47.6602 102.914 48.7539C103.688 49.8477 104.77 50.3945 106.16 50.3945C107.41 50.3945 108.367 50.1133 109.031 49.5508C109.703 48.9805 110.148 47.9922 110.367 46.5859H112.629ZM118.066 41.8984H122.309C124.09 41.9219 125.48 42.3789 126.48 43.2695C127.48 44.1602 127.98 45.3711 127.98 46.9023C127.98 48.4414 127.477 49.668 126.469 50.582C125.461 51.4961 124.086 51.9688 122.344 52H115.816V34.9375H118.066V41.8984ZM118.066 43.75V50.1602H122.18C123.297 50.1602 124.164 49.8633 124.781 49.2695C125.406 48.6758 125.719 47.8789 125.719 46.8789C125.719 45.918 125.418 45.1602 124.816 44.6055C124.223 44.0508 123.375 43.7656 122.273 43.75H118.066ZM132.293 52H130.043V34.9375H132.293V52Z" fill="black"/>
</g>
<path d="M105.438 135.184H103.199V131H90.9531V135.195H88.7031L88.6914 129.16H90.0859C90.8203 128.332 91.4023 127.223 91.832 125.832C92.2695 124.434 92.543 122.902 92.6523 121.238L93.0273 113.938H103.234V129.16H105.461L105.438 135.184ZM92.6523 129.16H100.973V115.789H95.1953L94.9492 120.805C94.8477 122.766 94.5859 124.438 94.1641 125.82C93.75 127.203 93.2461 128.316 92.6523 129.16ZM107.219 124.543C107.219 123.301 107.461 122.184 107.945 121.191C108.438 120.199 109.117 119.434 109.984 118.895C110.859 118.355 111.855 118.086 112.973 118.086C114.699 118.086 116.094 118.684 117.156 119.879C118.227 121.074 118.762 122.664 118.762 124.648V124.801C118.762 126.035 118.523 127.145 118.047 128.129C117.578 129.105 116.902 129.867 116.02 130.414C115.145 130.961 114.137 131.234 112.996 131.234C111.277 131.234 109.883 130.637 108.812 129.441C107.75 128.246 107.219 126.664 107.219 124.695V124.543ZM109.398 124.801C109.398 126.207 109.723 127.336 110.371 128.188C111.027 129.039 111.902 129.465 112.996 129.465C114.098 129.465 114.973 129.035 115.621 128.176C116.27 127.309 116.594 126.098 116.594 124.543C116.594 123.152 116.262 122.027 115.598 121.168C114.941 120.301 114.066 119.867 112.973 119.867C111.902 119.867 111.039 120.293 110.383 121.145C109.727 121.996 109.398 123.215 109.398 124.801ZM126.566 129.465C127.34 129.465 128.016 129.23 128.594 128.762C129.172 128.293 129.492 127.707 129.555 127.004H131.605C131.566 127.73 131.316 128.422 130.855 129.078C130.395 129.734 129.777 130.258 129.004 130.648C128.238 131.039 127.426 131.234 126.566 131.234C124.84 131.234 123.465 130.66 122.441 129.512C121.426 128.355 120.918 126.777 120.918 124.777V124.414C120.918 123.18 121.145 122.082 121.598 121.121C122.051 120.16 122.699 119.414 123.543 118.883C124.395 118.352 125.398 118.086 126.555 118.086C127.977 118.086 129.156 118.512 130.094 119.363C131.039 120.215 131.543 121.32 131.605 122.68H129.555C129.492 121.859 129.18 121.188 128.617 120.664C128.062 120.133 127.375 119.867 126.555 119.867C125.453 119.867 124.598 120.266 123.988 121.062C123.387 121.852 123.086 122.996 123.086 124.496V124.906C123.086 126.367 123.387 127.492 123.988 128.281C124.59 129.07 125.449 129.465 126.566 129.465ZM143.465 120.078H139.211V131H137.043V120.078H132.871V118.32H143.465V120.078ZM149.863 127.824L152.816 118.32H155.137L150.039 132.957C149.25 135.066 147.996 136.121 146.277 136.121L145.867 136.086L145.059 135.934V134.176L145.645 134.223C146.379 134.223 146.949 134.074 147.355 133.777C147.77 133.48 148.109 132.938 148.375 132.148L148.855 130.859L144.332 118.32H146.699L149.863 127.824ZM167.453 131H165.285V120.113H159.449V131H157.27V118.32H167.453V131ZM181.293 131H179.125V125.586H173.301V131H171.121V118.32H173.301V123.816H179.125V118.32H181.293V131ZM187.152 122.691H190.445C191.883 122.707 193.02 123.082 193.855 123.816C194.691 124.551 195.109 125.547 195.109 126.805C195.109 128.07 194.68 129.086 193.82 129.852C192.961 130.617 191.805 131 190.352 131H184.984V118.32H187.152V122.691ZM199.633 131H197.453V118.32H199.633V131ZM187.152 124.461V129.23H190.375C191.188 129.23 191.816 129.023 192.262 128.609C192.707 128.188 192.93 127.613 192.93 126.887C192.93 126.184 192.711 125.609 192.273 125.164C191.844 124.711 191.238 124.477 190.457 124.461H187.152ZM208.68 131.234C206.961 131.234 205.562 130.672 204.484 129.547C203.406 128.414 202.867 126.902 202.867 125.012V124.613C202.867 123.355 203.105 122.234 203.582 121.25C204.066 120.258 204.738 119.484 205.598 118.93C206.465 118.367 207.402 118.086 208.41 118.086C210.059 118.086 211.34 118.629 212.254 119.715C213.168 120.801 213.625 122.355 213.625 124.379V125.281H205.035C205.066 126.531 205.43 127.543 206.125 128.316C206.828 129.082 207.719 129.465 208.797 129.465C209.562 129.465 210.211 129.309 210.742 128.996C211.273 128.684 211.738 128.27 212.137 127.754L213.461 128.785C212.398 130.418 210.805 131.234 208.68 131.234ZM208.41 119.867C207.535 119.867 206.801 120.188 206.207 120.828C205.613 121.461 205.246 122.352 205.105 123.5H211.457V123.336C211.395 122.234 211.098 121.383 210.566 120.781C210.035 120.172 209.316 119.867 208.41 119.867ZM222.285 118.32H224.465V129.23H230.301V118.32H232.469V129.23H233.98L233.77 134.762H231.824V131H222.285V118.32ZM241.586 131.234C239.867 131.234 238.469 130.672 237.391 129.547C236.312 128.414 235.773 126.902 235.773 125.012V124.613C235.773 123.355 236.012 122.234 236.488 121.25C236.973 120.258 237.645 119.484 238.504 118.93C239.371 118.367 240.309 118.086 241.316 118.086C242.965 118.086 244.246 118.629 245.16 119.715C246.074 120.801 246.531 122.355 246.531 124.379V125.281H237.941C237.973 126.531 238.336 127.543 239.031 128.316C239.734 129.082 240.625 129.465 241.703 129.465C242.469 129.465 243.117 129.309 243.648 128.996C244.18 128.684 244.645 128.27 245.043 127.754L246.367 128.785C245.305 130.418 243.711 131.234 241.586 131.234ZM241.316 119.867C240.441 119.867 239.707 120.188 239.113 120.828C238.52 121.461 238.152 122.352 238.012 123.5H244.363V123.336C244.301 122.234 244.004 121.383 243.473 120.781C242.941 120.172 242.223 119.867 241.316 119.867ZM259.41 131H257.242V125.586H251.418V131H249.238V118.32H251.418V123.816H257.242V118.32H259.41V131ZM265.27 122.691H268.562C270 122.707 271.137 123.082 271.973 123.816C272.809 124.551 273.227 125.547 273.227 126.805C273.227 128.07 272.797 129.086 271.938 129.852C271.078 130.617 269.922 131 268.469 131H263.102V118.32H265.27V122.691ZM277.75 131H275.57V118.32H277.75V131ZM265.27 124.461V129.23H268.492C269.305 129.23 269.934 129.023 270.379 128.609C270.824 128.188 271.047 127.613 271.047 126.887C271.047 126.184 270.828 125.609 270.391 125.164C269.961 124.711 269.355 124.477 268.574 124.461H265.27Z" fill="black"/>
<path d="M103.59 193.02C103.59 194.691 103.309 196.152 102.746 197.402C102.184 198.645 101.387 199.594 100.355 200.25C99.3242 200.906 98.1211 201.234 96.7461 201.234C95.4023 201.234 94.2109 200.906 93.1719 200.25C92.1328 199.586 91.3242 198.645 90.7461 197.426C90.1758 196.199 89.8828 194.781 89.8672 193.172V191.941C89.8672 190.301 90.1523 188.852 90.7227 187.594C91.293 186.336 92.0977 185.375 93.1367 184.711C94.1836 184.039 95.3789 183.703 96.7227 183.703C98.0898 183.703 99.293 184.035 100.332 184.699C101.379 185.355 102.184 186.312 102.746 187.57C103.309 188.82 103.59 190.277 103.59 191.941V193.02ZM101.352 191.918C101.352 189.895 100.945 188.344 100.133 187.266C99.3203 186.18 98.1836 185.637 96.7227 185.637C95.3008 185.637 94.1797 186.18 93.3594 187.266C92.5469 188.344 92.1289 189.844 92.1055 191.766V193.02C92.1055 194.98 92.5156 196.523 93.3359 197.648C94.1641 198.766 95.3008 199.324 96.7461 199.324C98.1992 199.324 99.3242 198.797 100.121 197.742C100.918 196.68 101.328 195.16 101.352 193.184V191.918ZM116.047 190.078H111.793V201H109.625V190.078H105.453V188.32H116.047V190.078ZM127.59 188.32V201H125.41V190.113H121.098L120.84 194.859C120.699 197.039 120.332 198.598 119.738 199.535C119.152 200.473 118.219 200.961 116.938 201H116.07V199.09L116.691 199.043C117.395 198.965 117.898 198.559 118.203 197.824C118.508 197.09 118.703 195.73 118.789 193.746L119.023 188.32H127.59ZM139.273 188.32H141.441V201H139.273V191.754L133.426 201H131.258V188.32H133.426V197.578L139.273 188.32ZM154.496 201H152.316V196.406C151.363 196.656 150.387 196.781 149.387 196.781C147.801 196.781 146.59 196.375 145.754 195.562C144.926 194.75 144.504 193.594 144.488 192.094V188.309H146.656V192.164C146.695 194.055 147.605 195 149.387 195C150.387 195 151.363 194.875 152.316 194.625V188.32H154.496V201ZM168.336 201H166.168V195.586H160.344V201H158.164V188.32H160.344V193.816H166.168V188.32H168.336V201ZM174.195 192.691H177.488C178.926 192.707 180.062 193.082 180.898 193.816C181.734 194.551 182.152 195.547 182.152 196.805C182.152 198.07 181.723 199.086 180.863 199.852C180.004 200.617 178.848 201 177.395 201H172.027V188.32H174.195V192.691ZM186.676 201H184.496V188.32H186.676V201ZM174.195 194.461V199.23H177.418C178.23 199.23 178.859 199.023 179.305 198.609C179.75 198.188 179.973 197.613 179.973 196.887C179.973 196.184 179.754 195.609 179.316 195.164C178.887 194.711 178.281 194.477 177.5 194.461H174.195ZM198.664 188.32H200.832V201H198.664V191.754L192.816 201H190.648V188.32H192.816V197.578L198.664 188.32ZM199.25 183.703C199.25 184.648 198.926 185.41 198.277 185.988C197.637 186.559 196.793 186.844 195.746 186.844C194.699 186.844 193.852 186.555 193.203 185.977C192.555 185.398 192.23 184.641 192.23 183.703H194C194 184.25 194.148 184.68 194.445 184.992C194.742 185.297 195.176 185.449 195.746 185.449C196.293 185.449 196.719 185.297 197.023 184.992C197.336 184.688 197.492 184.258 197.492 183.703H199.25ZM215.352 199.465C216.125 199.465 216.801 199.23 217.379 198.762C217.957 198.293 218.277 197.707 218.34 197.004H220.391C220.352 197.73 220.102 198.422 219.641 199.078C219.18 199.734 218.562 200.258 217.789 200.648C217.023 201.039 216.211 201.234 215.352 201.234C213.625 201.234 212.25 200.66 211.227 199.512C210.211 198.355 209.703 196.777 209.703 194.777V194.414C209.703 193.18 209.93 192.082 210.383 191.121C210.836 190.16 211.484 189.414 212.328 188.883C213.18 188.352 214.184 188.086 215.34 188.086C216.762 188.086 217.941 188.512 218.879 189.363C219.824 190.215 220.328 191.32 220.391 192.68H218.34C218.277 191.859 217.965 191.188 217.402 190.664C216.848 190.133 216.16 189.867 215.34 189.867C214.238 189.867 213.383 190.266 212.773 191.062C212.172 191.852 211.871 192.996 211.871 194.496V194.906C211.871 196.367 212.172 197.492 212.773 198.281C213.375 199.07 214.234 199.465 215.352 199.465ZM228.09 201.234C226.371 201.234 224.973 200.672 223.895 199.547C222.816 198.414 222.277 196.902 222.277 195.012V194.613C222.277 193.355 222.516 192.234 222.992 191.25C223.477 190.258 224.148 189.484 225.008 188.93C225.875 188.367 226.812 188.086 227.82 188.086C229.469 188.086 230.75 188.629 231.664 189.715C232.578 190.801 233.035 192.355 233.035 194.379V195.281H224.445C224.477 196.531 224.84 197.543 225.535 198.316C226.238 199.082 227.129 199.465 228.207 199.465C228.973 199.465 229.621 199.309 230.152 198.996C230.684 198.684 231.148 198.27 231.547 197.754L232.871 198.785C231.809 200.418 230.215 201.234 228.09 201.234ZM227.82 189.867C226.945 189.867 226.211 190.188 225.617 190.828C225.023 191.461 224.656 192.352 224.516 193.5H230.867V193.336C230.805 192.234 230.508 191.383 229.977 190.781C229.445 190.172 228.727 189.867 227.82 189.867ZM246.266 194.801C246.266 196.73 245.824 198.285 244.941 199.465C244.059 200.645 242.863 201.234 241.355 201.234C239.816 201.234 238.605 200.746 237.723 199.77V205.875H235.555V188.32H237.535L237.641 189.727C238.523 188.633 239.75 188.086 241.32 188.086C242.844 188.086 244.047 188.66 244.93 189.809C245.82 190.957 246.266 192.555 246.266 194.602V194.801ZM244.098 194.555C244.098 193.125 243.793 191.996 243.184 191.168C242.574 190.34 241.738 189.926 240.676 189.926C239.363 189.926 238.379 190.508 237.723 191.672V197.73C238.371 198.887 239.363 199.465 240.699 199.465C241.738 199.465 242.562 199.055 243.172 198.234C243.789 197.406 244.098 196.18 244.098 194.555ZM249.23 201V188.32H254.176C255.863 188.32 257.156 188.617 258.055 189.211C258.961 189.797 259.414 190.66 259.414 191.801C259.414 192.387 259.238 192.918 258.887 193.395C258.535 193.863 258.016 194.223 257.328 194.473C258.094 194.652 258.707 195.004 259.168 195.527C259.637 196.051 259.871 196.676 259.871 197.402C259.871 198.566 259.441 199.457 258.582 200.074C257.73 200.691 256.523 201 254.961 201H249.23ZM251.398 195.434V199.254H254.984C255.891 199.254 256.566 199.086 257.012 198.75C257.465 198.414 257.691 197.941 257.691 197.332C257.691 196.066 256.762 195.434 254.902 195.434H251.398ZM251.398 193.699H254.199C256.23 193.699 257.246 193.105 257.246 191.918C257.246 190.73 256.285 190.117 254.363 190.078H251.398V193.699ZM270.945 188.32H273.113V201H270.945V191.754L265.098 201H262.93V188.32H265.098V197.578L270.945 188.32ZM281.68 199.465C282.453 199.465 283.129 199.23 283.707 198.762C284.285 198.293 284.605 197.707 284.668 197.004H286.719C286.68 197.73 286.43 198.422 285.969 199.078C285.508 199.734 284.891 200.258 284.117 200.648C283.352 201.039 282.539 201.234 281.68 201.234C279.953 201.234 278.578 200.66 277.555 199.512C276.539 198.355 276.031 196.777 276.031 194.777V194.414C276.031 193.18 276.258 192.082 276.711 191.121C277.164 190.16 277.812 189.414 278.656 188.883C279.508 188.352 280.512 188.086 281.668 188.086C283.09 188.086 284.27 188.512 285.207 189.363C286.152 190.215 286.656 191.32 286.719 192.68H284.668C284.605 191.859 284.293 191.188 283.73 190.664C283.176 190.133 282.488 189.867 281.668 189.867C280.566 189.867 279.711 190.266 279.102 191.062C278.5 191.852 278.199 192.996 278.199 194.496V194.906C278.199 196.367 278.5 197.492 279.102 198.281C279.703 199.07 280.562 199.465 281.68 199.465Z" fill="black"/>
<path d="M92.625 328.32V335H90.375V317.938H96.668C98.5352 317.938 99.9961 318.414 101.051 319.367C102.113 320.32 102.645 321.582 102.645 323.152C102.645 324.809 102.125 326.086 101.086 326.984C100.055 327.875 98.5742 328.32 96.6445 328.32H92.625ZM92.625 326.48H96.668C97.8711 326.48 98.793 326.199 99.4336 325.637C100.074 325.066 100.395 324.246 100.395 323.176C100.395 322.16 100.074 321.348 99.4336 320.738C98.793 320.129 97.9141 319.812 96.7969 319.789H92.625V326.48ZM112.863 335C112.738 334.75 112.637 334.305 112.559 333.664C111.551 334.711 110.348 335.234 108.949 335.234C107.699 335.234 106.672 334.883 105.867 334.18C105.07 333.469 104.672 332.57 104.672 331.484C104.672 330.164 105.172 329.141 106.172 328.414C107.18 327.68 108.594 327.312 110.414 327.312H112.523V326.316C112.523 325.559 112.297 324.957 111.844 324.512C111.391 324.059 110.723 323.832 109.84 323.832C109.066 323.832 108.418 324.027 107.895 324.418C107.371 324.809 107.109 325.281 107.109 325.836H104.93C104.93 325.203 105.152 324.594 105.598 324.008C106.051 323.414 106.66 322.945 107.426 322.602C108.199 322.258 109.047 322.086 109.969 322.086C111.43 322.086 112.574 322.453 113.402 323.188C114.23 323.914 114.66 324.918 114.691 326.199V332.035C114.691 333.199 114.84 334.125 115.137 334.812V335H112.863ZM109.266 333.348C109.945 333.348 110.59 333.172 111.199 332.82C111.809 332.469 112.25 332.012 112.523 331.449V328.848H110.824C108.168 328.848 106.84 329.625 106.84 331.18C106.84 331.859 107.066 332.391 107.52 332.773C107.973 333.156 108.555 333.348 109.266 333.348ZM125.062 325.789C125.062 325.195 124.836 324.727 124.383 324.383C123.93 324.031 123.309 323.855 122.52 323.855C121.754 323.855 121.113 324.055 120.598 324.453C120.09 324.852 119.836 325.32 119.836 325.859H117.68C117.68 324.758 118.141 323.855 119.062 323.152C119.984 322.449 121.137 322.098 122.52 322.098C124.004 322.098 125.16 322.418 125.988 323.059C126.816 323.691 127.23 324.598 127.23 325.777C127.23 326.348 127.059 326.871 126.715 327.348C126.371 327.824 125.883 328.203 125.25 328.484C126.727 328.984 127.465 329.969 127.465 331.438C127.465 332.602 127.016 333.523 126.117 334.203C125.219 334.883 124.02 335.223 122.52 335.223C121.059 335.223 119.852 334.867 118.898 334.156C117.953 333.438 117.48 332.469 117.48 331.25H119.637C119.637 331.867 119.91 332.398 120.457 332.844C121.012 333.281 121.699 333.5 122.52 333.5C123.348 333.5 124.016 333.309 124.523 332.926C125.031 332.543 125.285 332.047 125.285 331.438C125.285 330.727 125.07 330.219 124.641 329.914C124.219 329.602 123.559 329.445 122.66 329.445H120.492V327.617H122.848C124.324 327.578 125.062 326.969 125.062 325.789ZM130.477 335V322.32H135.422C137.109 322.32 138.402 322.617 139.301 323.211C140.207 323.797 140.66 324.66 140.66 325.801C140.66 326.387 140.484 326.918 140.133 327.395C139.781 327.863 139.262 328.223 138.574 328.473C139.34 328.652 139.953 329.004 140.414 329.527C140.883 330.051 141.117 330.676 141.117 331.402C141.117 332.566 140.688 333.457 139.828 334.074C138.977 334.691 137.77 335 136.207 335H130.477ZM132.645 329.434V333.254H136.23C137.137 333.254 137.812 333.086 138.258 332.75C138.711 332.414 138.938 331.941 138.938 331.332C138.938 330.066 138.008 329.434 136.148 329.434H132.645ZM132.645 327.699H135.445C137.477 327.699 138.492 327.105 138.492 325.918C138.492 324.73 137.531 324.117 135.609 324.078H132.645V327.699ZM154.383 322.32V335H152.203V324.113H147.891L147.633 328.859C147.492 331.039 147.125 332.598 146.531 333.535C145.945 334.473 145.012 334.961 143.73 335H142.863V333.09L143.484 333.043C144.188 332.965 144.691 332.559 144.996 331.824C145.301 331.09 145.496 329.73 145.582 327.746L145.816 322.32H154.383ZM163.125 335.234C161.406 335.234 160.008 334.672 158.93 333.547C157.852 332.414 157.312 330.902 157.312 329.012V328.613C157.312 327.355 157.551 326.234 158.027 325.25C158.512 324.258 159.184 323.484 160.043 322.93C160.91 322.367 161.848 322.086 162.855 322.086C164.504 322.086 165.785 322.629 166.699 323.715C167.613 324.801 168.07 326.355 168.07 328.379V329.281H159.48C159.512 330.531 159.875 331.543 160.57 332.316C161.273 333.082 162.164 333.465 163.242 333.465C164.008 333.465 164.656 333.309 165.188 332.996C165.719 332.684 166.184 332.27 166.582 331.754L167.906 332.785C166.844 334.418 165.25 335.234 163.125 335.234ZM162.855 323.867C161.98 323.867 161.246 324.188 160.652 324.828C160.059 325.461 159.691 326.352 159.551 327.5H165.902V327.336C165.84 326.234 165.543 325.383 165.012 324.781C164.48 324.172 163.762 323.867 162.855 323.867ZM180.164 335H177.984V330.406C177.031 330.656 176.055 330.781 175.055 330.781C173.469 330.781 172.258 330.375 171.422 329.562C170.594 328.75 170.172 327.594 170.156 326.094V322.309H172.324V326.164C172.363 328.055 173.273 329 175.055 329C176.055 329 177.031 328.875 177.984 328.625V322.32H180.164V335ZM188.906 335.234C187.188 335.234 185.789 334.672 184.711 333.547C183.633 332.414 183.094 330.902 183.094 329.012V328.613C183.094 327.355 183.332 326.234 183.809 325.25C184.293 324.258 184.965 323.484 185.824 322.93C186.691 322.367 187.629 322.086 188.637 322.086C190.285 322.086 191.566 322.629 192.48 323.715C193.395 324.801 193.852 326.355 193.852 328.379V329.281H185.262C185.293 330.531 185.656 331.543 186.352 332.316C187.055 333.082 187.945 333.465 189.023 333.465C189.789 333.465 190.438 333.309 190.969 332.996C191.5 332.684 191.965 332.27 192.363 331.754L193.688 332.785C192.625 334.418 191.031 335.234 188.906 335.234ZM188.637 323.867C187.762 323.867 187.027 324.188 186.434 324.828C185.84 325.461 185.473 326.352 185.332 327.5H191.684V327.336C191.621 326.234 191.324 325.383 190.793 324.781C190.262 324.172 189.543 323.867 188.637 323.867ZM206.73 335H204.562V329.586H198.738V335H196.559V322.32H198.738V327.816H204.562V322.32H206.73V335ZM218.426 322.32H220.594V335H218.426V325.754L212.578 335H210.41V322.32H212.578V331.578L218.426 322.32ZM233.766 322.32V335H231.586V330.066H228.316L225.328 335H222.984L226.172 329.738C225.359 329.441 224.734 328.984 224.297 328.367C223.867 327.742 223.652 327.016 223.652 326.188C223.652 325.031 224.086 324.102 224.953 323.398C225.82 322.688 226.98 322.328 228.434 322.32H233.766ZM225.832 326.211C225.832 326.828 226.043 327.328 226.465 327.711C226.887 328.086 227.445 328.277 228.141 328.285H231.586V324.078H228.469C227.664 324.078 227.023 324.277 226.547 324.676C226.07 325.066 225.832 325.578 225.832 326.211Z" fill="black"/>
<path d="M100.449 253.789H92.2227V258.898H96.4648C98.2461 258.922 99.6367 259.379 100.637 260.27C101.637 261.16 102.137 262.371 102.137 263.902C102.137 265.441 101.633 266.668 100.625 267.582C99.6172 268.496 98.2422 268.969 96.5 269H89.9609V251.938H100.449V253.789ZM92.2227 260.75V267.16H96.3359C97.4531 267.16 98.3203 266.863 98.9375 266.27C99.5625 265.676 99.875 264.879 99.875 263.879C99.875 262.918 99.5742 262.16 98.9727 261.605C98.3789 261.051 97.5312 260.766 96.4297 260.75H92.2227ZM110.105 269.234C108.387 269.234 106.988 268.672 105.91 267.547C104.832 266.414 104.293 264.902 104.293 263.012V262.613C104.293 261.355 104.531 260.234 105.008 259.25C105.492 258.258 106.164 257.484 107.023 256.93C107.891 256.367 108.828 256.086 109.836 256.086C111.484 256.086 112.766 256.629 113.68 257.715C114.594 258.801 115.051 260.355 115.051 262.379V263.281H106.461C106.492 264.531 106.855 265.543 107.551 266.316C108.254 267.082 109.145 267.465 110.223 267.465C110.988 267.465 111.637 267.309 112.168 266.996C112.699 266.684 113.164 266.27 113.562 265.754L114.887 266.785C113.824 268.418 112.23 269.234 110.105 269.234ZM109.836 257.867C108.961 257.867 108.227 258.188 107.633 258.828C107.039 259.461 106.672 260.352 106.531 261.5H112.883V261.336C112.82 260.234 112.523 259.383 111.992 258.781C111.461 258.172 110.742 257.867 109.836 257.867ZM124.543 259.789C124.543 259.195 124.316 258.727 123.863 258.383C123.41 258.031 122.789 257.855 122 257.855C121.234 257.855 120.594 258.055 120.078 258.453C119.57 258.852 119.316 259.32 119.316 259.859H117.16C117.16 258.758 117.621 257.855 118.543 257.152C119.465 256.449 120.617 256.098 122 256.098C123.484 256.098 124.641 256.418 125.469 257.059C126.297 257.691 126.711 258.598 126.711 259.777C126.711 260.348 126.539 260.871 126.195 261.348C125.852 261.824 125.363 262.203 124.73 262.484C126.207 262.984 126.945 263.969 126.945 265.438C126.945 266.602 126.496 267.523 125.598 268.203C124.699 268.883 123.5 269.223 122 269.223C120.539 269.223 119.332 268.867 118.379 268.156C117.434 267.438 116.961 266.469 116.961 265.25H119.117C119.117 265.867 119.391 266.398 119.938 266.844C120.492 267.281 121.18 267.5 122 267.5C122.828 267.5 123.496 267.309 124.004 266.926C124.512 266.543 124.766 266.047 124.766 265.438C124.766 264.727 124.551 264.219 124.121 263.914C123.699 263.602 123.039 263.445 122.141 263.445H119.973V261.617H122.328C123.805 261.578 124.543 260.969 124.543 259.789ZM129.184 262.543C129.184 261.301 129.426 260.184 129.91 259.191C130.402 258.199 131.082 257.434 131.949 256.895C132.824 256.355 133.82 256.086 134.938 256.086C136.664 256.086 138.059 256.684 139.121 257.879C140.191 259.074 140.727 260.664 140.727 262.648V262.801C140.727 264.035 140.488 265.145 140.012 266.129C139.543 267.105 138.867 267.867 137.984 268.414C137.109 268.961 136.102 269.234 134.961 269.234C133.242 269.234 131.848 268.637 130.777 267.441C129.715 266.246 129.184 264.664 129.184 262.695V262.543ZM131.363 262.801C131.363 264.207 131.688 265.336 132.336 266.188C132.992 267.039 133.867 267.465 134.961 267.465C136.062 267.465 136.938 267.035 137.586 266.176C138.234 265.309 138.559 264.098 138.559 262.543C138.559 261.152 138.227 260.027 137.562 259.168C136.906 258.301 136.031 257.867 134.938 257.867C133.867 257.867 133.004 258.293 132.348 259.145C131.691 259.996 131.363 261.215 131.363 262.801ZM153.816 269H151.648V258.113H145.812V269H143.633V256.32H153.816V269ZM165.125 269C165 268.75 164.898 268.305 164.82 267.664C163.812 268.711 162.609 269.234 161.211 269.234C159.961 269.234 158.934 268.883 158.129 268.18C157.332 267.469 156.934 266.57 156.934 265.484C156.934 264.164 157.434 263.141 158.434 262.414C159.441 261.68 160.855 261.312 162.676 261.312H164.785V260.316C164.785 259.559 164.559 258.957 164.105 258.512C163.652 258.059 162.984 257.832 162.102 257.832C161.328 257.832 160.68 258.027 160.156 258.418C159.633 258.809 159.371 259.281 159.371 259.836H157.191C157.191 259.203 157.414 258.594 157.859 258.008C158.312 257.414 158.922 256.945 159.688 256.602C160.461 256.258 161.309 256.086 162.23 256.086C163.691 256.086 164.836 256.453 165.664 257.188C166.492 257.914 166.922 258.918 166.953 260.199V266.035C166.953 267.199 167.102 268.125 167.398 268.812V269H165.125ZM161.527 267.348C162.207 267.348 162.852 267.172 163.461 266.82C164.07 266.469 164.512 266.012 164.785 265.449V262.848H163.086C160.43 262.848 159.102 263.625 159.102 265.18C159.102 265.859 159.328 266.391 159.781 266.773C160.234 267.156 160.816 267.348 161.527 267.348ZM175.438 267.465C176.211 267.465 176.887 267.23 177.465 266.762C178.043 266.293 178.363 265.707 178.426 265.004H180.477C180.438 265.73 180.188 266.422 179.727 267.078C179.266 267.734 178.648 268.258 177.875 268.648C177.109 269.039 176.297 269.234 175.438 269.234C173.711 269.234 172.336 268.66 171.312 267.512C170.297 266.355 169.789 264.777 169.789 262.777V262.414C169.789 261.18 170.016 260.082 170.469 259.121C170.922 258.16 171.57 257.414 172.414 256.883C173.266 256.352 174.27 256.086 175.426 256.086C176.848 256.086 178.027 256.512 178.965 257.363C179.91 258.215 180.414 259.32 180.477 260.68H178.426C178.363 259.859 178.051 259.188 177.488 258.664C176.934 258.133 176.246 257.867 175.426 257.867C174.324 257.867 173.469 258.266 172.859 259.062C172.258 259.852 171.957 260.996 171.957 262.496V262.906C171.957 264.367 172.258 265.492 172.859 266.281C173.461 267.07 174.32 267.465 175.438 267.465ZM193.273 269H191.105V263.586H185.281V269H183.102V256.32H185.281V261.816H191.105V256.32H193.273V269ZM196.191 262.543C196.191 261.301 196.434 260.184 196.918 259.191C197.41 258.199 198.09 257.434 198.957 256.895C199.832 256.355 200.828 256.086 201.945 256.086C203.672 256.086 205.066 256.684 206.129 257.879C207.199 259.074 207.734 260.664 207.734 262.648V262.801C207.734 264.035 207.496 265.145 207.02 266.129C206.551 267.105 205.875 267.867 204.992 268.414C204.117 268.961 203.109 269.234 201.969 269.234C200.25 269.234 198.855 268.637 197.785 267.441C196.723 266.246 196.191 264.664 196.191 262.695V262.543ZM198.371 262.801C198.371 264.207 198.695 265.336 199.344 266.188C200 267.039 200.875 267.465 201.969 267.465C203.07 267.465 203.945 267.035 204.594 266.176C205.242 265.309 205.566 264.098 205.566 262.543C205.566 261.152 205.234 260.027 204.57 259.168C203.914 258.301 203.039 257.867 201.945 257.867C200.875 257.867 200.012 258.293 199.355 259.145C198.699 259.996 198.371 261.215 198.371 262.801ZM215.539 267.465C216.312 267.465 216.988 267.23 217.566 266.762C218.145 266.293 218.465 265.707 218.527 265.004H220.578C220.539 265.73 220.289 266.422 219.828 267.078C219.367 267.734 218.75 268.258 217.977 268.648C217.211 269.039 216.398 269.234 215.539 269.234C213.812 269.234 212.438 268.66 211.414 267.512C210.398 266.355 209.891 264.777 209.891 262.777V262.414C209.891 261.18 210.117 260.082 210.57 259.121C211.023 258.16 211.672 257.414 212.516 256.883C213.367 256.352 214.371 256.086 215.527 256.086C216.949 256.086 218.129 256.512 219.066 257.363C220.012 258.215 220.516 259.32 220.578 260.68H218.527C218.465 259.859 218.152 259.188 217.59 258.664C217.035 258.133 216.348 257.867 215.527 257.867C214.426 257.867 213.57 258.266 212.961 259.062C212.359 259.852 212.059 260.996 212.059 262.496V262.906C212.059 264.367 212.359 265.492 212.961 266.281C213.562 267.07 214.422 267.465 215.539 267.465ZM232.438 258.078H228.184V269H226.016V258.078H221.844V256.32H232.438V258.078ZM236.914 260.691H240.207C241.645 260.707 242.781 261.082 243.617 261.816C244.453 262.551 244.871 263.547 244.871 264.805C244.871 266.07 244.441 267.086 243.582 267.852C242.723 268.617 241.566 269 240.113 269H234.746V256.32H236.914V260.691ZM236.914 262.461V267.23H240.137C240.949 267.23 241.578 267.023 242.023 266.609C242.469 266.188 242.691 265.613 242.691 264.887C242.691 264.184 242.473 263.609 242.035 263.164C241.605 262.711 241 262.477 240.219 262.461H236.914Z" fill="black"/>
<defs>
<filter id="filter0_d" x="0" y="0" width="550" height="415" filterUnits="userSpaceOnUse" color-interpolation-filters="sRGB">
<feFlood flood-opacity="0" result="BackgroundImageFix"/>
<feColorMatrix in="SourceAlpha" type="matrix" values="0 0 0 0 0 0 0 0 0 0 0 0 0 0 0 0 0 0 127 0"/>
<feMorphology radius="1" operator="dilate" in="SourceAlpha" result="effect1_dropShadow"/>
<feOffset dx="1" dy="3"/>
<feGaussianBlur stdDeviation="1.5"/>
<feColorMatrix type="matrix" values="0 0 0 0 0 0 0 0 0 0 0 0 0 0 0 0 0 0 0.1 0"/>
<feBlend mode="normal" in2="BackgroundImageFix" result="effect1_dropShadow"/>
<feBlend mode="normal" in="SourceGraphic" in2="effect1_dropShadow" result="shape"/>
</filter>
<filter id="filter1_i" x="44.5898" y="34.7031" width="87.7031" height="21.5312" filterUnits="userSpaceOnUse" color-interpolation-filters="sRGB">
<feFlood flood-opacity="0" result="BackgroundImageFix"/>
<feBlend mode="normal" in="SourceGraphic" in2="BackgroundImageFix" result="shape"/>
<feColorMatrix in="SourceAlpha" type="matrix" values="0 0 0 0 0 0 0 0 0 0 0 0 0 0 0 0 0 0 127 0" result="hardAlpha"/>
<feOffset dy="4"/>
<feGaussianBlur stdDeviation="2"/>
<feComposite in2="hardAlpha" operator="arithmetic" k2="-1" k3="1"/>
<feColorMatrix type="matrix" values="0 0 0 0 0 0 0 0 0 0 0 0 0 0 0 0 0 0 0.25 0"/>
<feBlend mode="normal" in2="shape" result="effect1_innerShadow"/>
</filter>
</defs>
</svg>
