<svg width="387" height="486" viewBox="0 0 387 486" fill="none" xmlns="http://www.w3.org/2000/svg">
<path d="M333.644 194.92L333.919 217.607L348.01 217.432L347.868 205.733C347.873 200.82 349.086 196.97 351.509 194.182C353.932 191.393 357.254 189.973 361.477 189.921C365.721 189.868 369.121 191.216 371.675 193.964C374.229 196.712 375.579 200.487 375.723 205.291L375.942 223.323L328.889 223.907L328.538 194.984L333.644 194.92ZM353.116 217.369L370.793 217.149L370.655 205.806C370.618 202.725 369.77 200.344 368.112 198.662C366.454 196.959 364.246 196.124 361.488 196.159C358.838 196.191 356.758 197.047 355.249 198.725C353.739 200.381 352.981 202.729 352.975 205.767L353.116 217.369ZM362.837 155.513L363.076 175.227L375.41 179.502L375.488 185.9L328.217 168.516L328.151 163.087L374.985 144.503L375.063 150.869L362.837 155.513ZM357.947 173.416L357.753 157.419L335.843 165.707L357.947 173.416ZM356.413 132.192L374.833 131.964L374.909 138.168L327.855 138.752L327.645 121.398C327.582 116.249 328.847 112.204 331.441 109.263C334.033 106.3 337.495 104.792 341.825 104.738C346.393 104.681 349.933 106.07 352.445 108.905C354.936 111.718 356.213 115.786 356.278 121.107L356.413 132.192ZM351.339 132.255L351.204 121.106C351.163 117.788 350.357 115.255 348.784 113.508C347.19 111.761 344.917 110.905 341.965 110.942C339.165 110.977 336.935 111.888 335.276 113.676C333.617 115.463 332.774 117.898 332.746 120.979L332.886 132.484L351.339 132.255ZM346.466 90.265L346.324 78.5663C346.329 73.6533 347.542 69.8027 349.965 67.0145C352.388 64.2263 355.71 62.806 359.933 62.7536C364.177 62.701 367.577 64.0486 370.131 66.7966C372.686 69.5445 374.035 73.3202 374.18 78.1236L374.398 96.1241L327.345 96.708L327.27 90.5032L346.466 90.265ZM351.572 90.2016L369.249 89.9822L369.111 78.639C369.074 75.5581 368.226 73.1768 366.568 71.4951C364.91 69.7919 362.702 68.9574 359.944 68.9916C357.294 69.0245 355.214 69.8799 353.705 71.5578C352.195 73.2142 351.437 75.5615 351.431 78.5998L351.572 90.2016ZM373.846 50.6865L373.922 56.8914L326.869 57.4753L326.793 51.2705L373.846 50.6865Z" fill="black"/>
<path d="M324.59 297.845L324.609 291.607L366.559 291.745L366.632 268.54L324.682 268.402L324.702 262.197L371.758 262.351L371.646 297.999L324.59 297.845ZM371.499 344.894L324.443 344.74L324.462 338.535L366.412 338.672L366.465 321.802L347.82 320.9C341.572 320.557 336.877 319.895 333.735 318.915C330.592 317.956 328.28 316.548 326.799 314.691C325.34 312.833 324.594 310.352 324.56 307.25L324.567 305.214L329.641 305.23L329.701 306.523C329.846 308.528 330.487 310.07 331.626 311.151C332.786 312.232 334.626 313.057 337.145 313.626C339.664 314.194 343.541 314.605 348.776 314.86L371.59 315.904L371.499 344.894ZM324.33 380.646L342.655 380.707L342.689 369.847L324.395 360.059L324.415 353.434L344.419 364.423C346.83 358.355 351.116 355.331 357.278 355.352C361.76 355.366 365.235 356.843 367.704 359.781C370.194 362.741 371.43 366.839 371.414 372.075L371.367 387.039L324.31 386.884L324.33 380.646ZM357.259 361.557C354.415 361.547 352.128 362.423 350.399 364.185C348.67 365.967 347.789 368.442 347.758 371.609L347.729 380.723L366.28 380.784L366.308 371.961C366.318 368.6 365.529 366.023 363.941 364.229C362.352 362.457 360.124 361.566 357.259 361.557ZM345.631 431.296L345.647 426.255L324.187 426.184L324.207 419.979L345.667 420.049L345.683 414.717L324.265 401.331L324.289 393.574L349.061 409.492L371.342 394.957L371.319 402.293L350.854 414.734L350.838 420.066L371.263 420.133L371.244 426.339L350.818 426.272L350.802 431.378L371.189 443.953L371.166 451.257L349.008 436.576L324.105 452.33L324.129 444.606L345.631 431.296Z" fill="black"/>
<path d="M34.6872 55.5995L11.9991 55.6386L12.0227 69.7297L23.7223 69.7096C28.6349 69.7658 32.4723 71.0196 35.2343 73.4711C37.9963 75.9227 39.3809 79.2599 39.3879 83.483C39.395 87.7276 38.011 91.1127 35.2358 93.6384C32.4605 96.1641 28.6706 97.4742 23.8659 97.5686L5.83181 97.5997L5.75295 50.5429L34.6787 50.4931L34.6872 55.5995ZM12.0313 74.8362L12.0609 92.5148L23.405 92.4953C26.4861 92.49 28.8763 91.6671 30.5757 90.0267C32.2967 88.3862 33.1548 86.187 33.1502 83.4291C33.1458 80.7789 32.3127 78.6904 30.6511 77.1634C29.011 75.6365 26.672 74.8541 23.6339 74.8162L12.0313 74.8362ZM73.7786 85.2013L54.0638 85.2353L49.6567 97.5242L43.2575 97.5352L61.1481 50.4475L66.5777 50.4381L84.6584 97.4639L78.2915 97.4749L73.7786 85.2013ZM55.9298 80.1256L71.9278 80.0981L63.8758 58.1025L55.9298 80.1256ZM127.158 97.3908L120.921 97.4015L120.884 75.6507L97.1618 75.6915L97.1983 97.4423L90.993 97.453L90.9141 50.3962L97.1194 50.3855L97.1533 70.6174L120.876 70.5765L120.842 50.3447L127.079 50.334L127.158 97.3908ZM164.725 85.0447L145.01 85.0787L140.603 97.3676L134.204 97.3786L152.094 50.2909L157.524 50.2815L175.605 97.3073L169.238 97.3183L164.725 85.0447ZM146.876 79.969L162.874 79.9415L154.822 57.9459L146.876 79.969ZM218.105 97.2342L211.867 97.2449L211.83 75.4941L188.108 75.5349L188.145 97.2858L181.939 97.2964L181.86 50.2396L188.066 50.229L188.1 70.4608L211.822 70.42L211.788 50.1881L218.026 50.1774L218.105 97.2342ZM235.575 69.3448L247.274 69.3247C252.187 69.3809 256.024 70.6347 258.786 73.0862C261.548 75.5377 262.933 78.875 262.94 83.0981C262.947 87.3427 261.563 90.7278 258.788 93.2535C256.013 95.7792 252.223 97.0892 247.418 97.1837L229.416 97.2147L229.337 50.1579L235.543 50.1472L235.575 69.3448ZM235.583 74.4513L235.613 92.1299L246.957 92.1104C250.038 92.1051 252.428 91.2822 254.128 89.6417C255.849 88.0013 256.707 85.8021 256.702 83.0442C256.698 80.394 255.865 78.3054 254.203 76.7785C252.563 75.2516 250.224 74.4692 247.186 74.4313L235.583 74.4513ZM274.857 97.1365L268.652 97.1471L268.573 50.0903L274.778 50.0797L274.857 97.1365Z" fill="black"/>
</svg>
