<svg width="587" height="451" viewBox="0 0 587 451" fill="none" xmlns="http://www.w3.org/2000/svg">
<g filter="url(#filter0_d)">
<rect x="3" y="1" width="579" height="443" rx="41" fill="#E2D7F4" fill-opacity="0.95"/>
</g>
<g filter="url(#filter1_i)">
<path d="M56.1992 46.5859C55.9883 48.3906 55.3203 49.7852 54.1953 50.7695C53.0781 51.7461 51.5898 52.2344 49.7305 52.2344C47.7148 52.2344 46.0977 51.5117 44.8789 50.0664C43.668 48.6211 43.0625 46.6875 43.0625 44.2656V42.625C43.0625 41.0391 43.3438 39.6445 43.9062 38.4414C44.4766 37.2383 45.2812 36.3164 46.3203 35.6758C47.3594 35.0273 48.5625 34.7031 49.9297 34.7031C51.7422 34.7031 53.1953 35.2109 54.2891 36.2266C55.3828 37.2344 56.0195 38.6328 56.1992 40.4219H53.9375C53.7422 39.0625 53.3164 38.0781 52.6602 37.4688C52.0117 36.8594 51.1016 36.5547 49.9297 36.5547C48.4922 36.5547 47.3633 37.0859 46.543 38.1484C45.7305 39.2109 45.3242 40.7227 45.3242 42.6836V44.3359C45.3242 46.1875 45.7109 47.6602 46.4844 48.7539C47.2578 49.8477 48.3398 50.3945 49.7305 50.3945C50.9805 50.3945 51.9375 50.1133 52.6016 49.5508C53.2734 48.9805 53.7188 47.9922 53.9375 46.5859H56.1992ZM72.4062 44.0195C72.4062 45.6914 72.125 47.1523 71.5625 48.4023C71 49.6445 70.2031 50.5938 69.1719 51.25C68.1406 51.9062 66.9375 52.2344 65.5625 52.2344C64.2188 52.2344 63.0273 51.9062 61.9883 51.25C60.9492 50.5859 60.1406 49.6445 59.5625 48.4258C58.9922 47.1992 58.6992 45.7812 58.6836 44.1719V42.9414C58.6836 41.3008 58.9688 39.8516 59.5391 38.5938C60.1094 37.3359 60.9141 36.375 61.9531 35.7109C63 35.0391 64.1953 34.7031 65.5391 34.7031C66.9062 34.7031 68.1094 35.0352 69.1484 35.6992C70.1953 36.3555 71 37.3125 71.5625 38.5703C72.125 39.8203 72.4062 41.2773 72.4062 42.9414V44.0195ZM70.168 42.918C70.168 40.8945 69.7617 39.3438 68.9492 38.2656C68.1367 37.1797 67 36.6367 65.5391 36.6367C64.1172 36.6367 62.9961 37.1797 62.1758 38.2656C61.3633 39.3438 60.9453 40.8438 60.9219 42.7656V44.0195C60.9219 45.9805 61.332 47.5234 62.1523 48.6484C62.9805 49.7656 64.1172 50.3242 65.5625 50.3242C67.0156 50.3242 68.1406 49.7969 68.9375 48.7422C69.7344 47.6797 70.1445 46.1602 70.168 44.1836V42.918ZM88.3086 34.9375V52H86.0586V36.7891H79.9414L79.6367 43.5508C79.5195 45.8164 79.2852 47.5195 78.9336 48.6602C78.5898 49.8008 78.082 50.6406 77.4102 51.1797C76.7383 51.7109 75.8398 51.9844 74.7148 52H73.9766V50.1602L74.4453 50.1367C75.1719 50.082 75.7305 49.8477 76.1211 49.4336C76.5117 49.0117 76.8086 48.3438 77.0117 47.4297C77.2148 46.5156 77.3594 45.1094 77.4453 43.2109L77.7969 34.9375H88.3086ZM105.512 52H103.25V44.1133H94.6484V52H92.3984V34.9375H94.6484V42.2734H103.25V34.9375H105.512V52ZM119.152 44.1133H111.758V50.1602H120.348V52H109.508V34.9375H120.23V36.7891H111.758V42.2734H119.152V44.1133ZM135.512 34.9375V52H133.25V44.9336C132.43 45.168 131.684 45.332 131.012 45.4258C130.34 45.5117 129.574 45.5547 128.715 45.5547C126.77 45.5547 125.324 45.1328 124.379 44.2891C123.434 43.4453 122.949 42.1523 122.926 40.4102V34.9375H125.188V40.3516C125.195 41.5391 125.465 42.3945 125.996 42.918C126.535 43.4414 127.441 43.7031 128.715 43.7031C130.199 43.7031 131.711 43.4922 133.25 43.0703V34.9375H135.512ZM152.691 52H150.43V44.1133H141.828V52H139.578V34.9375H141.828V42.2734H150.43V34.9375H152.691V52ZM159.043 41.8984H163.285C165.066 41.9219 166.457 42.3789 167.457 43.2695C168.457 44.1602 168.957 45.3711 168.957 46.9023C168.957 48.4414 168.453 49.668 167.445 50.582C166.438 51.4961 165.062 51.9688 163.32 52H156.793V34.9375H159.043V41.8984ZM159.043 43.75V50.1602H163.156C164.273 50.1602 165.141 49.8633 165.758 49.2695C166.383 48.6758 166.695 47.8789 166.695 46.8789C166.695 45.918 166.395 45.1602 165.793 44.6055C165.199 44.0508 164.352 43.7656 163.25 43.75H159.043ZM173.27 52H171.02V34.9375H173.27V52ZM187.098 44.1133H179.703V50.1602H188.293V52H177.453V34.9375H188.176V36.7891H179.703V42.2734H187.098V44.1133ZM212.398 56.1836H210.16V52H197.914V56.1953H195.664L195.652 50.1602H197.047C197.781 49.332 198.363 48.2227 198.793 46.832C199.23 45.4336 199.504 43.9023 199.613 42.2383L199.988 34.9375H210.195V50.1602H212.422L212.398 56.1836ZM199.613 50.1602H207.934V36.7891H202.156L201.91 41.8047C201.809 43.7656 201.547 45.4375 201.125 46.8203C200.711 48.2031 200.207 49.3164 199.613 50.1602ZM228.207 52H225.945V44.1133H217.344V52H215.094V34.9375H217.344V42.2734H225.945V34.9375H228.207V52ZM242.961 34.9375H245.211V52H242.961V38.8516L234.559 52H232.297V34.9375H234.559V48.0859L242.961 34.9375Z" fill="black"/>
</g>
<rect x="251" y="155" width="86" height="136" rx="23" fill="white"/>
<rect x="355" y="155" width="86" height="136" rx="23" fill="white"/>
<rect x="458" y="155" width="86" height="136" rx="23" fill="white"/>
<rect x="43" y="155" width="86" height="136" rx="23" fill="white"/>
<rect x="147" y="155" width="86" height="136" rx="23" fill="white"/>
<path d="M275.389 241H261.048V238.554L268.152 230.805C269.178 229.662 269.905 228.71 270.335 227.948C270.774 227.177 270.994 226.405 270.994 225.634C270.994 224.618 270.706 223.798 270.13 223.173C269.563 222.548 268.797 222.235 267.83 222.235C266.678 222.235 265.784 222.587 265.149 223.29C264.515 223.993 264.197 224.955 264.197 226.176H260.638C260.638 224.877 260.931 223.71 261.517 222.675C262.112 221.63 262.957 220.819 264.051 220.243C265.154 219.667 266.424 219.379 267.859 219.379C269.93 219.379 271.561 219.901 272.752 220.946C273.953 221.981 274.554 223.417 274.554 225.253C274.554 226.317 274.251 227.436 273.646 228.607C273.05 229.77 272.068 231.093 270.701 232.577L265.486 238.158H275.389V241ZM291.531 225.297C291.531 226.342 291.263 227.274 290.726 228.095C290.188 228.905 289.456 229.545 288.528 230.014C289.642 230.531 290.496 231.239 291.092 232.138C291.697 233.036 292 234.052 292 235.185C292 237.06 291.365 238.549 290.096 239.652C288.826 240.746 287.137 241.293 285.027 241.293C282.908 241.293 281.209 240.741 279.93 239.638C278.66 238.534 278.025 237.05 278.025 235.185C278.025 234.042 278.328 233.017 278.934 232.108C279.539 231.2 280.389 230.502 281.482 230.014C280.564 229.545 279.837 228.905 279.3 228.095C278.772 227.274 278.509 226.342 278.509 225.297C278.509 223.48 279.095 222.04 280.267 220.976C281.438 219.911 283.021 219.379 285.013 219.379C287.015 219.379 288.602 219.911 289.773 220.976C290.945 222.04 291.531 223.48 291.531 225.297ZM288.44 235.009C288.44 233.954 288.123 233.104 287.488 232.46C286.863 231.806 286.033 231.479 284.998 231.479C283.963 231.479 283.133 231.801 282.508 232.445C281.893 233.09 281.585 233.944 281.585 235.009C281.585 236.054 281.888 236.889 282.493 237.514C283.108 238.139 283.953 238.451 285.027 238.451C286.102 238.451 286.937 238.148 287.532 237.543C288.138 236.938 288.44 236.093 288.44 235.009ZM287.986 225.429C287.986 224.501 287.718 223.739 287.181 223.144C286.644 222.538 285.921 222.235 285.013 222.235C284.104 222.235 283.387 222.523 282.859 223.1C282.332 223.666 282.068 224.442 282.068 225.429C282.068 226.405 282.332 227.182 282.859 227.758C283.396 228.334 284.119 228.622 285.027 228.622C285.936 228.622 286.653 228.334 287.181 227.758C287.718 227.182 287.986 226.405 287.986 225.429ZM299.28 219.379C300.315 219.379 301.209 219.765 301.961 220.536C302.713 221.308 303.089 222.23 303.089 223.305C303.089 224.379 302.718 225.297 301.976 226.059C301.233 226.811 300.335 227.187 299.28 227.187C298.216 227.187 297.303 226.811 296.541 226.059C295.789 225.297 295.413 224.379 295.413 223.305C295.413 222.23 295.794 221.308 296.556 220.536C297.327 219.765 298.235 219.379 299.28 219.379ZM299.28 225.121C299.798 225.121 300.223 224.95 300.555 224.608C300.896 224.257 301.067 223.822 301.067 223.305C301.067 222.797 300.896 222.357 300.555 221.986C300.223 221.615 299.798 221.43 299.28 221.43C298.763 221.43 298.328 221.615 297.977 221.986C297.625 222.357 297.449 222.797 297.449 223.305C297.449 223.812 297.625 224.242 297.977 224.594C298.338 224.945 298.772 225.121 299.28 225.121ZM323.392 234.057C323.177 236.332 322.337 238.109 320.872 239.389C319.407 240.658 317.459 241.293 315.027 241.293C313.328 241.293 311.829 240.893 310.53 240.092C309.241 239.281 308.245 238.134 307.542 236.649C306.839 235.165 306.473 233.441 306.443 231.479V229.486C306.443 227.475 306.8 225.702 307.513 224.169C308.226 222.636 309.246 221.454 310.574 220.624C311.912 219.794 313.455 219.379 315.203 219.379C317.557 219.379 319.451 220.019 320.887 221.298C322.322 222.577 323.157 224.384 323.392 226.718H319.7C319.524 225.185 319.075 224.081 318.353 223.407C317.64 222.724 316.59 222.382 315.203 222.382C313.592 222.382 312.352 222.973 311.482 224.154C310.623 225.326 310.184 227.05 310.164 229.325V231.215C310.164 233.52 310.574 235.277 311.395 236.488C312.225 237.699 313.436 238.305 315.027 238.305C316.482 238.305 317.576 237.978 318.309 237.323C319.041 236.669 319.505 235.58 319.7 234.057H323.392ZM279.956 269H270.604V268.057L275.721 262.253C276.569 261.275 277.157 260.469 277.485 259.833C277.813 259.197 277.977 258.579 277.977 257.977C277.977 257.034 277.7 256.289 277.146 255.742C276.593 255.188 275.831 254.911 274.86 254.911C273.855 254.911 273.042 255.232 272.419 255.875C271.804 256.518 271.497 257.352 271.497 258.377H270.276C270.276 257.536 270.464 256.771 270.84 256.08C271.223 255.39 271.763 254.85 272.46 254.46C273.165 254.063 273.964 253.865 274.86 253.865C276.227 253.865 277.293 254.224 278.059 254.942C278.832 255.66 279.218 256.637 279.218 257.875C279.218 258.572 278.999 259.334 278.562 260.161C278.131 260.988 277.369 262.021 276.275 263.258L272.112 267.964H279.956V269ZM291.256 262.776C291.256 264.881 290.87 266.481 290.097 267.575C289.325 268.662 288.187 269.205 286.683 269.205C285.206 269.205 284.075 268.672 283.289 267.605C282.502 266.532 282.099 264.974 282.079 262.93V260.253C282.079 258.155 282.468 256.565 283.248 255.485C284.027 254.405 285.165 253.865 286.662 253.865C288.139 253.865 289.267 254.388 290.046 255.434C290.825 256.473 291.229 258.008 291.256 260.038V262.776ZM290.025 260.1C290.025 258.391 289.745 257.099 289.185 256.224C288.631 255.349 287.79 254.911 286.662 254.911C285.555 254.911 284.721 255.338 284.16 256.193C283.6 257.047 283.312 258.309 283.299 259.977V262.909C283.299 264.611 283.586 265.914 284.16 266.816C284.741 267.718 285.582 268.169 286.683 268.169C287.776 268.169 288.604 267.729 289.164 266.847C289.731 265.965 290.019 264.673 290.025 262.971V260.1ZM298.957 256.429C298.957 257.14 298.714 257.738 298.229 258.223C297.743 258.708 297.159 258.951 296.475 258.951C295.785 258.951 295.193 258.708 294.701 258.223C294.209 257.731 293.963 257.133 293.963 256.429C293.963 255.725 294.212 255.123 294.711 254.624C295.21 254.118 295.798 253.865 296.475 253.865C297.152 253.865 297.733 254.118 298.218 254.624C298.71 255.123 298.957 255.725 298.957 256.429ZM294.886 256.429C294.886 256.887 295.036 257.266 295.337 257.567C295.645 257.868 296.024 258.018 296.475 258.018C296.926 258.018 297.299 257.868 297.593 257.567C297.887 257.266 298.034 256.887 298.034 256.429C298.034 255.957 297.887 255.567 297.593 255.26C297.299 254.952 296.926 254.798 296.475 254.798C296.031 254.798 295.655 254.952 295.347 255.26C295.04 255.567 294.886 255.957 294.886 256.429ZM312.892 264.345C312.721 265.917 312.157 267.12 311.2 267.954C310.25 268.788 308.981 269.205 307.396 269.205C306.288 269.205 305.307 268.928 304.453 268.375C303.605 267.821 302.949 267.038 302.484 266.026C302.019 265.008 301.783 263.846 301.776 262.54V260.602C301.776 259.276 302.009 258.1 302.474 257.075C302.938 256.049 303.605 255.26 304.473 254.706C305.348 254.146 306.353 253.865 307.488 253.865C309.087 253.865 310.349 254.299 311.271 255.167C312.201 256.029 312.741 257.222 312.892 258.746H311.62C311.306 256.21 309.928 254.942 307.488 254.942C306.134 254.942 305.054 255.448 304.248 256.459C303.448 257.471 303.048 258.869 303.048 260.653V262.479C303.048 264.201 303.438 265.575 304.217 266.601C305.003 267.626 306.062 268.139 307.396 268.139C308.715 268.139 309.709 267.824 310.379 267.195C311.049 266.56 311.463 265.609 311.62 264.345H312.892Z" fill="black"/>
<path d="M369.164 228.71H371.332C372.426 228.7 373.29 228.417 373.925 227.86C374.569 227.304 374.892 226.498 374.892 225.443C374.892 224.428 374.623 223.642 374.086 223.085C373.559 222.519 372.748 222.235 371.654 222.235C370.697 222.235 369.911 222.514 369.296 223.07C368.681 223.617 368.373 224.335 368.373 225.224H364.813C364.813 224.13 365.102 223.134 365.678 222.235C366.264 221.337 367.074 220.639 368.109 220.141C369.154 219.633 370.321 219.379 371.61 219.379C373.739 219.379 375.409 219.916 376.62 220.99C377.841 222.055 378.451 223.539 378.451 225.443C378.451 226.4 378.144 227.304 377.528 228.153C376.923 228.993 376.137 229.628 375.17 230.058C376.342 230.458 377.23 231.088 377.836 231.947C378.451 232.807 378.759 233.832 378.759 235.023C378.759 236.938 378.1 238.461 376.781 239.594C375.473 240.727 373.749 241.293 371.61 241.293C369.56 241.293 367.88 240.746 366.571 239.652C365.263 238.559 364.608 237.104 364.608 235.287H368.168C368.168 236.225 368.48 236.986 369.105 237.572C369.74 238.158 370.59 238.451 371.654 238.451C372.758 238.451 373.627 238.158 374.262 237.572C374.896 236.986 375.214 236.137 375.214 235.023C375.214 233.9 374.882 233.036 374.218 232.431C373.554 231.825 372.567 231.522 371.259 231.522H369.164V228.71ZM396 232.021C396 235.087 395.424 237.401 394.271 238.964C393.129 240.517 391.386 241.293 389.042 241.293C386.737 241.293 384.999 240.536 383.827 239.022C382.665 237.499 382.069 235.248 382.04 232.27V228.578C382.04 225.512 382.611 223.212 383.754 221.679C384.906 220.146 386.659 219.379 389.013 219.379C391.347 219.379 393.085 220.126 394.228 221.62C395.38 223.114 395.971 225.351 396 228.329V232.021ZM392.44 228.036C392.44 226.034 392.167 224.569 391.62 223.642C391.073 222.704 390.204 222.235 389.013 222.235C387.851 222.235 386.996 222.68 386.449 223.568C385.902 224.447 385.614 225.824 385.585 227.699V232.533C385.585 234.525 385.863 236.01 386.42 236.986C386.977 237.963 387.851 238.451 389.042 238.451C390.185 238.451 391.029 238.002 391.576 237.104C392.123 236.195 392.411 234.779 392.44 232.855V228.036ZM403.28 219.379C404.315 219.379 405.209 219.765 405.961 220.536C406.713 221.308 407.089 222.23 407.089 223.305C407.089 224.379 406.718 225.297 405.976 226.059C405.233 226.811 404.335 227.187 403.28 227.187C402.216 227.187 401.303 226.811 400.541 226.059C399.789 225.297 399.413 224.379 399.413 223.305C399.413 222.23 399.794 221.308 400.556 220.536C401.327 219.765 402.235 219.379 403.28 219.379ZM403.28 225.121C403.798 225.121 404.223 224.95 404.555 224.608C404.896 224.257 405.067 223.822 405.067 223.305C405.067 222.797 404.896 222.357 404.555 221.986C404.223 221.615 403.798 221.43 403.28 221.43C402.763 221.43 402.328 221.615 401.977 221.986C401.625 222.357 401.449 222.797 401.449 223.305C401.449 223.812 401.625 224.242 401.977 224.594C402.338 224.945 402.772 225.121 403.28 225.121ZM427.392 234.057C427.177 236.332 426.337 238.109 424.872 239.389C423.407 240.658 421.459 241.293 419.027 241.293C417.328 241.293 415.829 240.893 414.53 240.092C413.241 239.281 412.245 238.134 411.542 236.649C410.839 235.165 410.473 233.441 410.443 231.479V229.486C410.443 227.475 410.8 225.702 411.513 224.169C412.226 222.636 413.246 221.454 414.574 220.624C415.912 219.794 417.455 219.379 419.203 219.379C421.557 219.379 423.451 220.019 424.887 221.298C426.322 222.577 427.157 224.384 427.392 226.718H423.7C423.524 225.185 423.075 224.081 422.353 223.407C421.64 222.724 420.59 222.382 419.203 222.382C417.592 222.382 416.352 222.973 415.482 224.154C414.623 225.326 414.184 227.05 414.164 229.325V231.215C414.164 233.52 414.574 235.277 415.395 236.488C416.225 237.699 417.436 238.305 419.027 238.305C420.482 238.305 421.576 237.978 422.309 237.323C423.041 236.669 423.505 235.58 423.7 234.057H427.392ZM383.956 269H374.604V268.057L379.721 262.253C380.569 261.275 381.157 260.469 381.485 259.833C381.813 259.197 381.977 258.579 381.977 257.977C381.977 257.034 381.7 256.289 381.146 255.742C380.593 255.188 379.831 254.911 378.86 254.911C377.855 254.911 377.042 255.232 376.419 255.875C375.804 256.518 375.497 257.352 375.497 258.377H374.276C374.276 257.536 374.464 256.771 374.84 256.08C375.223 255.39 375.763 254.85 376.46 254.46C377.165 254.063 377.964 253.865 378.86 253.865C380.227 253.865 381.293 254.224 382.059 254.942C382.832 255.66 383.218 256.637 383.218 257.875C383.218 258.572 382.999 259.334 382.562 260.161C382.131 260.988 381.369 262.021 380.275 263.258L376.112 267.964H383.956V269ZM391.964 269H390.734V255.547L386.673 257.054V255.906L391.759 254.019H391.964V269ZM402.957 256.429C402.957 257.14 402.714 257.738 402.229 258.223C401.743 258.708 401.159 258.951 400.475 258.951C399.785 258.951 399.193 258.708 398.701 258.223C398.209 257.731 397.963 257.133 397.963 256.429C397.963 255.725 398.212 255.123 398.711 254.624C399.21 254.118 399.798 253.865 400.475 253.865C401.152 253.865 401.733 254.118 402.218 254.624C402.71 255.123 402.957 255.725 402.957 256.429ZM398.886 256.429C398.886 256.887 399.036 257.266 399.337 257.567C399.645 257.868 400.024 258.018 400.475 258.018C400.926 258.018 401.299 257.868 401.593 257.567C401.887 257.266 402.034 256.887 402.034 256.429C402.034 255.957 401.887 255.567 401.593 255.26C401.299 254.952 400.926 254.798 400.475 254.798C400.031 254.798 399.655 254.952 399.347 255.26C399.04 255.567 398.886 255.957 398.886 256.429ZM416.892 264.345C416.721 265.917 416.157 267.12 415.2 267.954C414.25 268.788 412.981 269.205 411.396 269.205C410.288 269.205 409.307 268.928 408.453 268.375C407.605 267.821 406.949 267.038 406.484 266.026C406.019 265.008 405.783 263.846 405.776 262.54V260.602C405.776 259.276 406.009 258.1 406.474 257.075C406.938 256.049 407.605 255.26 408.473 254.706C409.348 254.146 410.353 253.865 411.488 253.865C413.087 253.865 414.349 254.299 415.271 255.167C416.201 256.029 416.741 257.222 416.892 258.746H415.62C415.306 256.21 413.928 254.942 411.488 254.942C410.134 254.942 409.054 255.448 408.248 256.459C407.448 257.471 407.048 258.869 407.048 260.653V262.479C407.048 264.201 407.438 265.575 408.217 266.601C409.003 267.626 410.062 268.139 411.396 268.139C412.715 268.139 413.709 267.824 414.379 267.195C415.049 266.56 415.463 265.609 415.62 264.345H416.892Z" fill="black"/>
<path d="M484.389 241H470.048V238.554L477.152 230.805C478.178 229.662 478.905 228.71 479.335 227.948C479.774 227.177 479.994 226.405 479.994 225.634C479.994 224.618 479.706 223.798 479.13 223.173C478.563 222.548 477.797 222.235 476.83 222.235C475.678 222.235 474.784 222.587 474.149 223.29C473.515 223.993 473.197 224.955 473.197 226.176H469.638C469.638 224.877 469.931 223.71 470.517 222.675C471.112 221.63 471.957 220.819 473.051 220.243C474.154 219.667 475.424 219.379 476.859 219.379C478.93 219.379 480.561 219.901 481.752 220.946C482.953 221.981 483.554 223.417 483.554 225.253C483.554 226.317 483.251 227.436 482.646 228.607C482.05 229.77 481.068 231.093 479.701 232.577L474.486 238.158H484.389V241ZM499.14 233.397H501.791V236.254H499.14V241H495.58V236.254H486.366L486.264 234.086L495.463 219.672H499.14V233.397ZM489.999 233.397H495.58V224.491L495.316 224.96L489.999 233.397ZM508.28 219.379C509.315 219.379 510.209 219.765 510.961 220.536C511.713 221.308 512.089 222.23 512.089 223.305C512.089 224.379 511.718 225.297 510.976 226.059C510.233 226.811 509.335 227.187 508.28 227.187C507.216 227.187 506.303 226.811 505.541 226.059C504.789 225.297 504.413 224.379 504.413 223.305C504.413 222.23 504.794 221.308 505.556 220.536C506.327 219.765 507.235 219.379 508.28 219.379ZM508.28 225.121C508.798 225.121 509.223 224.95 509.555 224.608C509.896 224.257 510.067 223.822 510.067 223.305C510.067 222.797 509.896 222.357 509.555 221.986C509.223 221.615 508.798 221.43 508.28 221.43C507.763 221.43 507.328 221.615 506.977 221.986C506.625 222.357 506.449 222.797 506.449 223.305C506.449 223.812 506.625 224.242 506.977 224.594C507.338 224.945 507.772 225.121 508.28 225.121ZM532.392 234.057C532.177 236.332 531.337 238.109 529.872 239.389C528.407 240.658 526.459 241.293 524.027 241.293C522.328 241.293 520.829 240.893 519.53 240.092C518.241 239.281 517.245 238.134 516.542 236.649C515.839 235.165 515.473 233.441 515.443 231.479V229.486C515.443 227.475 515.8 225.702 516.513 224.169C517.226 222.636 518.246 221.454 519.574 220.624C520.912 219.794 522.455 219.379 524.203 219.379C526.557 219.379 528.451 220.019 529.887 221.298C531.322 222.577 532.157 224.384 532.392 226.718H528.7C528.524 225.185 528.075 224.081 527.353 223.407C526.64 222.724 525.59 222.382 524.203 222.382C522.592 222.382 521.352 222.973 520.482 224.154C519.623 225.326 519.184 227.05 519.164 229.325V231.215C519.164 233.52 519.574 235.277 520.395 236.488C521.225 237.699 522.436 238.305 524.027 238.305C525.482 238.305 526.576 237.978 527.309 237.323C528.041 236.669 528.505 235.58 528.7 234.057H532.392ZM485.316 269H484.085V255.547L480.025 257.054V255.906L485.111 254.019H485.316V269ZM498.492 253.958V255.034H498.349C496.564 255.034 495.16 255.561 494.134 256.613C493.109 257.659 492.542 259.115 492.432 260.981C492.842 260.414 493.365 259.977 494.001 259.669C494.637 259.354 495.348 259.197 496.134 259.197C497.446 259.197 498.489 259.652 499.261 260.561C500.041 261.463 500.43 262.646 500.43 264.109C500.43 265.08 500.249 265.955 499.887 266.734C499.524 267.513 499.005 268.122 498.328 268.559C497.651 268.99 496.879 269.205 496.011 269.205C494.582 269.205 493.42 268.689 492.524 267.657C491.629 266.618 491.181 265.278 491.181 263.637V262.407C491.181 259.734 491.79 257.666 493.006 256.203C494.223 254.733 495.949 253.985 498.185 253.958H498.492ZM495.939 260.253C495.16 260.253 494.432 260.486 493.755 260.951C493.085 261.409 492.637 261.993 492.412 262.704V263.75C492.412 265.049 492.743 266.108 493.406 266.929C494.076 267.749 494.944 268.159 496.011 268.159C496.968 268.159 497.74 267.78 498.328 267.021C498.923 266.262 499.22 265.305 499.22 264.15C499.22 262.974 498.923 262.031 498.328 261.32C497.74 260.609 496.944 260.253 495.939 260.253ZM507.957 256.429C507.957 257.14 507.714 257.738 507.229 258.223C506.743 258.708 506.159 258.951 505.475 258.951C504.785 258.951 504.193 258.708 503.701 258.223C503.209 257.731 502.963 257.133 502.963 256.429C502.963 255.725 503.212 255.123 503.711 254.624C504.21 254.118 504.798 253.865 505.475 253.865C506.152 253.865 506.733 254.118 507.218 254.624C507.71 255.123 507.957 255.725 507.957 256.429ZM503.886 256.429C503.886 256.887 504.036 257.266 504.337 257.567C504.645 257.868 505.024 258.018 505.475 258.018C505.926 258.018 506.299 257.868 506.593 257.567C506.887 257.266 507.034 256.887 507.034 256.429C507.034 255.957 506.887 255.567 506.593 255.26C506.299 254.952 505.926 254.798 505.475 254.798C505.031 254.798 504.655 254.952 504.347 255.26C504.04 255.567 503.886 255.957 503.886 256.429ZM521.892 264.345C521.721 265.917 521.157 267.12 520.2 267.954C519.25 268.788 517.981 269.205 516.396 269.205C515.288 269.205 514.307 268.928 513.453 268.375C512.605 267.821 511.949 267.038 511.484 266.026C511.019 265.008 510.783 263.846 510.776 262.54V260.602C510.776 259.276 511.009 258.1 511.474 257.075C511.938 256.049 512.605 255.26 513.473 254.706C514.348 254.146 515.353 253.865 516.488 253.865C518.087 253.865 519.349 254.299 520.271 255.167C521.201 256.029 521.741 257.222 521.892 258.746H520.62C520.306 256.21 518.928 254.942 516.488 254.942C515.134 254.942 514.054 255.448 513.248 256.459C512.448 257.471 512.048 258.869 512.048 260.653V262.479C512.048 264.201 512.438 265.575 513.217 266.601C514.003 267.626 515.062 268.139 516.396 268.139C517.715 268.139 518.709 267.824 519.379 267.195C520.049 266.56 520.463 265.609 520.62 264.345H521.892Z" fill="black"/>
<path d="M68.3887 246H54.0479V243.554L61.1523 235.805C62.1777 234.662 62.9053 233.71 63.335 232.948C63.7744 232.177 63.9941 231.405 63.9941 230.634C63.9941 229.618 63.7061 228.798 63.1299 228.173C62.5635 227.548 61.7969 227.235 60.8301 227.235C59.6777 227.235 58.7842 227.587 58.1494 228.29C57.5146 228.993 57.1973 229.955 57.1973 231.176H53.6377C53.6377 229.877 53.9307 228.71 54.5166 227.675C55.1123 226.63 55.957 225.819 57.0508 225.243C58.1543 224.667 59.4238 224.379 60.8594 224.379C62.9297 224.379 64.5605 224.901 65.752 225.946C66.9531 226.981 67.5537 228.417 67.5537 230.253C67.5537 231.317 67.251 232.436 66.6455 233.607C66.0498 234.77 65.0684 236.093 63.7012 237.577L58.4863 243.158H68.3887V246ZM80.7373 246H77.1924V228.876L71.9629 230.663V227.66L80.2832 224.599H80.7373V246ZM92.2803 224.379C93.3154 224.379 94.209 224.765 94.9609 225.536C95.7129 226.308 96.0889 227.23 96.0889 228.305C96.0889 229.379 95.7178 230.297 94.9756 231.059C94.2334 231.811 93.335 232.187 92.2803 232.187C91.2158 232.187 90.3027 231.811 89.541 231.059C88.7891 230.297 88.4131 229.379 88.4131 228.305C88.4131 227.23 88.7939 226.308 89.5557 225.536C90.3271 224.765 91.2354 224.379 92.2803 224.379ZM92.2803 230.121C92.7979 230.121 93.2227 229.95 93.5547 229.608C93.8965 229.257 94.0674 228.822 94.0674 228.305C94.0674 227.797 93.8965 227.357 93.5547 226.986C93.2227 226.615 92.7979 226.43 92.2803 226.43C91.7627 226.43 91.3281 226.615 90.9766 226.986C90.625 227.357 90.4492 227.797 90.4492 228.305C90.4492 228.812 90.625 229.242 90.9766 229.594C91.3379 229.945 91.7725 230.121 92.2803 230.121ZM116.392 239.057C116.177 241.332 115.337 243.109 113.872 244.389C112.407 245.658 110.459 246.293 108.027 246.293C106.328 246.293 104.829 245.893 103.53 245.092C102.241 244.281 101.245 243.134 100.542 241.649C99.8389 240.165 99.4727 238.441 99.4434 236.479V234.486C99.4434 232.475 99.7998 230.702 100.513 229.169C101.226 227.636 102.246 226.454 103.574 225.624C104.912 224.794 106.455 224.379 108.203 224.379C110.557 224.379 112.451 225.019 113.887 226.298C115.322 227.577 116.157 229.384 116.392 231.718H112.7C112.524 230.185 112.075 229.081 111.353 228.407C110.64 227.724 109.59 227.382 108.203 227.382C106.592 227.382 105.352 227.973 104.482 229.154C103.623 230.326 103.184 232.05 103.164 234.325V236.215C103.164 238.52 103.574 240.277 104.395 241.488C105.225 242.699 106.436 243.305 108.027 243.305C109.482 243.305 110.576 242.978 111.309 242.323C112.041 241.669 112.505 240.58 112.7 239.057H116.392ZM69.3159 274H68.0854V260.547L64.0249 262.054V260.906L69.1108 259.019H69.3159V274ZM77.9805 265.869H79.252C79.9561 265.869 80.5713 265.746 81.0977 265.5C81.624 265.247 82.0239 264.905 82.2974 264.474C82.5776 264.037 82.7178 263.534 82.7178 262.967C82.7178 262.01 82.4478 261.261 81.9077 260.721C81.3677 260.181 80.5918 259.911 79.5801 259.911C78.623 259.911 77.8369 260.195 77.2217 260.762C76.6133 261.323 76.3091 262.064 76.3091 262.987H75.0786C75.0786 262.215 75.2734 261.511 75.6631 260.875C76.0527 260.232 76.5928 259.737 77.2832 259.388C77.9736 259.04 78.7393 258.865 79.5801 258.865C80.9336 258.865 82 259.234 82.7793 259.973C83.5586 260.711 83.9482 261.723 83.9482 263.008C83.9482 263.726 83.7192 264.389 83.2612 264.997C82.8101 265.599 82.188 266.05 81.395 266.351C82.3247 266.61 83.0288 267.058 83.5073 267.694C83.9858 268.323 84.2251 269.075 84.2251 269.95C84.2251 271.228 83.8081 272.257 82.9741 273.036C82.1401 273.815 81.0259 274.205 79.6313 274.205C78.7427 274.205 77.9258 274.027 77.1807 273.672C76.4424 273.316 75.8682 272.821 75.458 272.185C75.0547 271.542 74.853 270.797 74.853 269.95H76.0835C76.0835 270.9 76.415 271.676 77.0781 272.277C77.7412 272.872 78.5923 273.169 79.6313 273.169C80.6909 273.169 81.5146 272.899 82.1025 272.359C82.6973 271.812 82.9946 271.023 82.9946 269.991C82.9946 268.993 82.6733 268.23 82.0308 267.704C81.395 267.178 80.4551 266.915 79.2109 266.915H77.9805V265.869ZM91.9565 261.429C91.9565 262.14 91.7139 262.738 91.2285 263.223C90.7432 263.708 90.1587 263.951 89.4751 263.951C88.7847 263.951 88.1934 263.708 87.7012 263.223C87.209 262.731 86.9629 262.133 86.9629 261.429C86.9629 260.725 87.2124 260.123 87.7114 259.624C88.2104 259.118 88.7983 258.865 89.4751 258.865C90.1519 258.865 90.7329 259.118 91.2183 259.624C91.7104 260.123 91.9565 260.725 91.9565 261.429ZM87.8857 261.429C87.8857 261.887 88.0361 262.266 88.3369 262.567C88.6445 262.868 89.0239 263.018 89.4751 263.018C89.9263 263.018 90.2988 262.868 90.5928 262.567C90.8867 262.266 91.0337 261.887 91.0337 261.429C91.0337 260.957 90.8867 260.567 90.5928 260.26C90.2988 259.952 89.9263 259.798 89.4751 259.798C89.0308 259.798 88.6548 259.952 88.3472 260.26C88.0396 260.567 87.8857 260.957 87.8857 261.429ZM105.892 269.345C105.721 270.917 105.157 272.12 104.2 272.954C103.25 273.788 101.981 274.205 100.396 274.205C99.2881 274.205 98.3071 273.928 97.4526 273.375C96.605 272.821 95.9487 272.038 95.4839 271.026C95.019 270.008 94.7832 268.846 94.7764 267.54V265.602C94.7764 264.276 95.0088 263.1 95.4736 262.075C95.9385 261.049 96.605 260.26 97.4731 259.706C98.3481 259.146 99.353 258.865 100.488 258.865C102.087 258.865 103.349 259.299 104.271 260.167C105.201 261.029 105.741 262.222 105.892 263.746H104.62C104.306 261.21 102.928 259.942 100.488 259.942C99.1343 259.942 98.0542 260.448 97.2476 261.459C96.4478 262.471 96.0479 263.869 96.0479 265.653V267.479C96.0479 269.201 96.4375 270.575 97.2168 271.601C98.0029 272.626 99.0625 273.139 100.396 273.139C101.715 273.139 102.709 272.824 103.379 272.195C104.049 271.56 104.463 270.609 104.62 269.345H105.892Z" fill="black"/>
<path d="M173.389 246H159.048V243.554L166.152 235.805C167.178 234.662 167.905 233.71 168.335 232.948C168.774 232.177 168.994 231.405 168.994 230.634C168.994 229.618 168.706 228.798 168.13 228.173C167.563 227.548 166.797 227.235 165.83 227.235C164.678 227.235 163.784 227.587 163.149 228.29C162.515 228.993 162.197 229.955 162.197 231.176H158.638C158.638 229.877 158.931 228.71 159.517 227.675C160.112 226.63 160.957 225.819 162.051 225.243C163.154 224.667 164.424 224.379 165.859 224.379C167.93 224.379 169.561 224.901 170.752 225.946C171.953 226.981 172.554 228.417 172.554 230.253C172.554 231.317 172.251 232.436 171.646 233.607C171.05 234.77 170.068 236.093 168.701 237.577L163.486 243.158H173.389V246ZM187.173 224.569V227.514H186.733C184.741 227.543 183.149 228.09 181.958 229.154C180.767 230.219 180.059 231.728 179.834 233.681C180.977 232.479 182.437 231.879 184.214 231.879C186.099 231.879 187.583 232.543 188.667 233.871C189.761 235.199 190.308 236.913 190.308 239.013C190.308 241.181 189.668 242.938 188.389 244.286C187.119 245.624 185.449 246.293 183.379 246.293C181.25 246.293 179.521 245.507 178.193 243.935C176.875 242.362 176.216 240.302 176.216 237.753V236.537C176.216 232.797 177.124 229.867 178.94 227.748C180.767 225.629 183.389 224.569 186.807 224.569H187.173ZM183.35 234.75C182.568 234.75 181.851 234.97 181.196 235.409C180.552 235.849 180.078 236.435 179.775 237.167V238.251C179.775 239.833 180.107 241.093 180.771 242.03C181.436 242.958 182.295 243.422 183.35 243.422C184.404 243.422 185.239 243.026 185.854 242.235C186.47 241.444 186.777 240.404 186.777 239.115C186.777 237.826 186.465 236.776 185.84 235.966C185.215 235.155 184.385 234.75 183.35 234.75ZM197.28 224.379C198.315 224.379 199.209 224.765 199.961 225.536C200.713 226.308 201.089 227.23 201.089 228.305C201.089 229.379 200.718 230.297 199.976 231.059C199.233 231.811 198.335 232.187 197.28 232.187C196.216 232.187 195.303 231.811 194.541 231.059C193.789 230.297 193.413 229.379 193.413 228.305C193.413 227.23 193.794 226.308 194.556 225.536C195.327 224.765 196.235 224.379 197.28 224.379ZM197.28 230.121C197.798 230.121 198.223 229.95 198.555 229.608C198.896 229.257 199.067 228.822 199.067 228.305C199.067 227.797 198.896 227.357 198.555 226.986C198.223 226.615 197.798 226.43 197.28 226.43C196.763 226.43 196.328 226.615 195.977 226.986C195.625 227.357 195.449 227.797 195.449 228.305C195.449 228.812 195.625 229.242 195.977 229.594C196.338 229.945 196.772 230.121 197.28 230.121ZM221.392 239.057C221.177 241.332 220.337 243.109 218.872 244.389C217.407 245.658 215.459 246.293 213.027 246.293C211.328 246.293 209.829 245.893 208.53 245.092C207.241 244.281 206.245 243.134 205.542 241.649C204.839 240.165 204.473 238.441 204.443 236.479V234.486C204.443 232.475 204.8 230.702 205.513 229.169C206.226 227.636 207.246 226.454 208.574 225.624C209.912 224.794 211.455 224.379 213.203 224.379C215.557 224.379 217.451 225.019 218.887 226.298C220.322 227.577 221.157 229.384 221.392 231.718H217.7C217.524 230.185 217.075 229.081 216.353 228.407C215.64 227.724 214.59 227.382 213.203 227.382C211.592 227.382 210.352 227.973 209.482 229.154C208.623 230.326 208.184 232.05 208.164 234.325V236.215C208.164 238.52 208.574 240.277 209.395 241.488C210.225 242.699 211.436 243.305 213.027 243.305C214.482 243.305 215.576 242.978 216.309 242.323C217.041 241.669 217.505 240.58 217.7 239.057H221.392ZM174.316 274H173.085V260.547L169.025 262.054V260.906L174.111 259.019H174.316V274ZM189.051 262.916C189.051 263.688 188.825 264.382 188.374 264.997C187.923 265.605 187.328 266.053 186.59 266.34C187.451 266.634 188.142 267.109 188.661 267.766C189.181 268.422 189.44 269.181 189.44 270.042C189.44 271.32 189.006 272.335 188.138 273.087C187.27 273.833 186.122 274.205 184.693 274.205C183.25 274.205 182.095 273.833 181.227 273.087C180.366 272.342 179.935 271.327 179.935 270.042C179.935 269.194 180.185 268.439 180.684 267.776C181.183 267.113 181.866 266.634 182.734 266.34C181.996 266.053 181.408 265.605 180.971 264.997C180.533 264.382 180.314 263.688 180.314 262.916C180.314 261.678 180.711 260.694 181.504 259.962C182.304 259.231 183.36 258.865 184.672 258.865C185.985 258.865 187.041 259.234 187.841 259.973C188.647 260.711 189.051 261.692 189.051 262.916ZM188.21 270.052C188.21 269.123 187.878 268.36 187.215 267.766C186.552 267.164 185.705 266.863 184.672 266.863C183.64 266.863 182.796 267.157 182.14 267.745C181.483 268.333 181.155 269.102 181.155 270.052C181.155 271.002 181.473 271.761 182.109 272.329C182.745 272.889 183.606 273.169 184.693 273.169C185.752 273.169 186.604 272.889 187.246 272.329C187.889 271.768 188.21 271.009 188.21 270.052ZM187.82 262.905C187.82 262.051 187.523 261.34 186.928 260.772C186.34 260.198 185.588 259.911 184.672 259.911C183.743 259.911 182.987 260.188 182.406 260.742C181.832 261.289 181.545 262.01 181.545 262.905C181.545 263.78 181.832 264.484 182.406 265.018C182.987 265.551 183.746 265.817 184.683 265.817C185.605 265.817 186.357 265.551 186.938 265.018C187.526 264.478 187.82 263.773 187.82 262.905ZM196.957 261.429C196.957 262.14 196.714 262.738 196.229 263.223C195.743 263.708 195.159 263.951 194.475 263.951C193.785 263.951 193.193 263.708 192.701 263.223C192.209 262.731 191.963 262.133 191.963 261.429C191.963 260.725 192.212 260.123 192.711 259.624C193.21 259.118 193.798 258.865 194.475 258.865C195.152 258.865 195.733 259.118 196.218 259.624C196.71 260.123 196.957 260.725 196.957 261.429ZM192.886 261.429C192.886 261.887 193.036 262.266 193.337 262.567C193.645 262.868 194.024 263.018 194.475 263.018C194.926 263.018 195.299 262.868 195.593 262.567C195.887 262.266 196.034 261.887 196.034 261.429C196.034 260.957 195.887 260.567 195.593 260.26C195.299 259.952 194.926 259.798 194.475 259.798C194.031 259.798 193.655 259.952 193.347 260.26C193.04 260.567 192.886 260.957 192.886 261.429ZM210.892 269.345C210.721 270.917 210.157 272.12 209.2 272.954C208.25 273.788 206.981 274.205 205.396 274.205C204.288 274.205 203.307 273.928 202.453 273.375C201.605 272.821 200.949 272.038 200.484 271.026C200.019 270.008 199.783 268.846 199.776 267.54V265.602C199.776 264.276 200.009 263.1 200.474 262.075C200.938 261.049 201.605 260.26 202.473 259.706C203.348 259.146 204.353 258.865 205.488 258.865C207.087 258.865 208.349 259.299 209.271 260.167C210.201 261.029 210.741 262.222 210.892 263.746H209.62C209.306 261.21 207.928 259.942 205.488 259.942C204.134 259.942 203.054 260.448 202.248 261.459C201.448 262.471 201.048 263.869 201.048 265.653V267.479C201.048 269.201 201.438 270.575 202.217 271.601C203.003 272.626 204.062 273.139 205.396 273.139C206.715 273.139 207.709 272.824 208.379 272.195C209.049 271.56 209.463 270.609 209.62 269.345H210.892Z" fill="black"/>
<path d="M278.969 177.32H280.375V190H278.969V179.582L272.125 190H270.73V177.32H272.125V187.75L278.969 177.32ZM285.684 183.098H289.305C289.344 181.941 289.609 180.902 290.102 179.98C290.594 179.051 291.262 178.336 292.105 177.836C292.949 177.336 293.895 177.086 294.941 177.086C296.621 177.086 297.984 177.68 299.031 178.867C300.086 180.055 300.613 181.625 300.613 183.578V183.859C300.613 185.078 300.375 186.18 299.898 187.164C299.422 188.148 298.754 188.906 297.895 189.438C297.035 189.969 296.059 190.234 294.965 190.234C293.348 190.234 292.02 189.688 290.98 188.594C289.941 187.492 289.383 186.059 289.305 184.293H285.684V190H284.289V177.32H285.684V183.098ZM290.688 183.859C290.688 185.375 291.078 186.621 291.859 187.598C292.648 188.566 293.684 189.051 294.965 189.051C296.223 189.051 297.242 188.566 298.023 187.598C298.812 186.621 299.207 185.336 299.207 183.742V183.473C299.207 181.973 298.812 180.734 298.023 179.758C297.234 178.773 296.207 178.281 294.941 178.281C293.684 178.281 292.66 178.773 291.871 179.758C291.082 180.734 290.688 182.016 290.688 183.602V183.859ZM313.246 177.32V190H311.84V178.527H306.648L306.426 183.273C306.332 185.031 306.156 186.375 305.898 187.305C305.641 188.227 305.258 188.906 304.75 189.344C304.242 189.781 303.566 190 302.723 190H302.184V188.758L302.617 188.734C303.422 188.719 304 188.328 304.352 187.562C304.703 186.797 304.934 185.43 305.043 183.461L305.301 177.32H313.246Z" fill="black"/>
<path d="M387.621 190C387.48 189.602 387.391 189.012 387.352 188.23C386.859 188.871 386.23 189.367 385.465 189.719C384.707 190.062 383.902 190.234 383.051 190.234C381.832 190.234 380.844 189.895 380.086 189.215C379.336 188.535 378.961 187.676 378.961 186.637C378.961 185.402 379.473 184.426 380.496 183.707C381.527 182.988 382.961 182.629 384.797 182.629H387.34V181.188C387.34 180.281 387.059 179.57 386.496 179.055C385.941 178.531 385.129 178.27 384.059 178.27C383.082 178.27 382.273 178.52 381.633 179.02C380.992 179.52 380.672 180.121 380.672 180.824L379.266 180.812C379.266 179.805 379.734 178.934 380.672 178.199C381.609 177.457 382.762 177.086 384.129 177.086C385.543 177.086 386.656 177.441 387.469 178.152C388.289 178.855 388.711 179.84 388.734 181.105V187.105C388.734 188.332 388.863 189.25 389.121 189.859V190H387.621ZM383.215 188.992C384.152 188.992 384.988 188.766 385.723 188.312C386.465 187.859 387.004 187.254 387.34 186.496V183.707H384.832C383.434 183.723 382.34 183.98 381.551 184.48C380.762 184.973 380.367 185.652 380.367 186.52C380.367 187.23 380.629 187.82 381.152 188.289C381.684 188.758 382.371 188.992 383.215 188.992ZM392.637 190V177.32H397.289C398.898 177.32 400.133 177.609 400.992 178.188C401.852 178.758 402.281 179.598 402.281 180.707C402.281 181.34 402.09 181.906 401.707 182.406C401.324 182.898 400.766 183.258 400.031 183.484C400.859 183.641 401.523 183.996 402.023 184.551C402.531 185.105 402.785 185.75 402.785 186.484C402.785 187.602 402.371 188.469 401.543 189.086C400.723 189.695 399.559 190 398.051 190H392.637ZM394.031 184.164V188.828H398.098C399.152 188.828 399.965 188.625 400.535 188.219C401.105 187.812 401.391 187.227 401.391 186.461C401.391 185.758 401.105 185.199 400.535 184.785C399.965 184.371 399.152 184.164 398.098 184.164H394.031ZM394.031 182.992H397.582C399.785 182.961 400.887 182.211 400.887 180.742C400.887 179.969 400.582 179.406 399.973 179.055C399.371 178.695 398.477 178.516 397.289 178.516H394.031V182.992ZM413.812 178.527H407.402V190H405.996V177.32H413.812V178.527Z" fill="black"/>
<path d="M488.379 189.051C489.355 189.051 490.172 188.777 490.828 188.23C491.492 187.676 491.852 186.961 491.906 186.086H493.254C493.215 186.859 492.973 187.566 492.527 188.207C492.082 188.84 491.488 189.336 490.746 189.695C490.012 190.055 489.223 190.234 488.379 190.234C486.715 190.234 485.395 189.656 484.418 188.5C483.449 187.344 482.965 185.789 482.965 183.836V183.414C482.965 182.164 483.184 181.059 483.621 180.098C484.059 179.137 484.684 178.395 485.496 177.871C486.316 177.348 487.273 177.086 488.367 177.086C489.758 177.086 490.902 177.5 491.801 178.328C492.707 179.156 493.191 180.246 493.254 181.598H491.906C491.844 180.605 491.484 179.805 490.828 179.195C490.18 178.586 489.359 178.281 488.367 178.281C487.102 178.281 486.117 178.738 485.414 179.652C484.719 180.566 484.371 181.848 484.371 183.496V183.906C484.371 185.523 484.719 186.785 485.414 187.691C486.117 188.598 487.105 189.051 488.379 189.051ZM500.977 190.234C499.898 190.234 498.922 189.969 498.047 189.438C497.18 188.906 496.504 188.168 496.02 187.223C495.535 186.27 495.293 185.203 495.293 184.023V183.52C495.293 182.301 495.527 181.203 495.996 180.227C496.473 179.25 497.133 178.484 497.977 177.93C498.82 177.367 499.734 177.086 500.719 177.086C502.258 177.086 503.477 177.613 504.375 178.668C505.281 179.715 505.734 181.148 505.734 182.969V183.754H496.688V184.023C496.688 185.461 497.098 186.66 497.918 187.621C498.746 188.574 499.785 189.051 501.035 189.051C501.785 189.051 502.445 188.914 503.016 188.641C503.594 188.367 504.117 187.93 504.586 187.328L505.465 187.996C504.434 189.488 502.938 190.234 500.977 190.234ZM500.719 178.281C499.664 178.281 498.773 178.668 498.047 179.441C497.328 180.215 496.891 181.254 496.734 182.559H504.34V182.406C504.301 181.188 503.953 180.195 503.297 179.43C502.641 178.664 501.781 178.281 500.719 178.281ZM518.203 190H516.797V184.188H509.965V190H508.559V177.32H509.965V183.004H516.797V177.32H518.203V190Z" fill="black"/>
<path d="M72.8867 187.102L77.9258 176.32H79.6602V189H78.2539V178.594L73.3789 189H72.3828L67.4141 178.359V189H66.0195V176.32H67.8594L72.8867 187.102ZM91.4258 189C91.2852 188.602 91.1953 188.012 91.1562 187.23C90.6641 187.871 90.0352 188.367 89.2695 188.719C88.5117 189.062 87.707 189.234 86.8555 189.234C85.6367 189.234 84.6484 188.895 83.8906 188.215C83.1406 187.535 82.7656 186.676 82.7656 185.637C82.7656 184.402 83.2773 183.426 84.3008 182.707C85.332 181.988 86.7656 181.629 88.6016 181.629H91.1445V180.188C91.1445 179.281 90.8633 178.57 90.3008 178.055C89.7461 177.531 88.9336 177.27 87.8633 177.27C86.8867 177.27 86.0781 177.52 85.4375 178.02C84.7969 178.52 84.4766 179.121 84.4766 179.824L83.0703 179.812C83.0703 178.805 83.5391 177.934 84.4766 177.199C85.4141 176.457 86.5664 176.086 87.9336 176.086C89.3477 176.086 90.4609 176.441 91.2734 177.152C92.0938 177.855 92.5156 178.84 92.5391 180.105V186.105C92.5391 187.332 92.668 188.25 92.9258 188.859V189H91.4258ZM87.0195 187.992C87.957 187.992 88.793 187.766 89.5273 187.312C90.2695 186.859 90.8086 186.254 91.1445 185.496V182.707H88.6367C87.2383 182.723 86.1445 182.98 85.3555 183.48C84.5664 183.973 84.1719 184.652 84.1719 185.52C84.1719 186.23 84.4336 186.82 84.957 187.289C85.4883 187.758 86.1758 187.992 87.0195 187.992ZM104.621 176.32H106.027V189H104.621V178.582L97.7773 189H96.3828V176.32H97.7773V186.75L104.621 176.32ZM104.551 171.75C104.551 172.648 104.242 173.375 103.625 173.93C103.016 174.484 102.195 174.762 101.164 174.762C100.148 174.762 99.3281 174.488 98.7031 173.941C98.0859 173.387 97.7773 172.656 97.7773 171.75H98.9727C98.9727 172.398 99.1641 172.895 99.5469 173.238C99.9375 173.582 100.477 173.754 101.164 173.754C101.852 173.754 102.387 173.574 102.77 173.215C103.16 172.855 103.355 172.367 103.355 171.75H104.551Z" fill="black"/>
<path d="M175.898 176.32H177.305V189H175.898V178.582L169.055 189H167.66V176.32H169.055V186.75L175.898 176.32ZM182.613 182.098H186.234C186.273 180.941 186.539 179.902 187.031 178.98C187.523 178.051 188.191 177.336 189.035 176.836C189.879 176.336 190.824 176.086 191.871 176.086C193.551 176.086 194.914 176.68 195.961 177.867C197.016 179.055 197.543 180.625 197.543 182.578V182.859C197.543 184.078 197.305 185.18 196.828 186.164C196.352 187.148 195.684 187.906 194.824 188.438C193.965 188.969 192.988 189.234 191.895 189.234C190.277 189.234 188.949 188.688 187.91 187.594C186.871 186.492 186.312 185.059 186.234 183.293H182.613V189H181.219V176.32H182.613V182.098ZM187.617 182.859C187.617 184.375 188.008 185.621 188.789 186.598C189.578 187.566 190.613 188.051 191.895 188.051C193.152 188.051 194.172 187.566 194.953 186.598C195.742 185.621 196.137 184.336 196.137 182.742V182.473C196.137 180.973 195.742 179.734 194.953 178.758C194.164 177.773 193.137 177.281 191.871 177.281C190.613 177.281 189.59 177.773 188.801 178.758C188.012 179.734 187.617 181.016 187.617 182.602V182.859ZM210.328 189H208.922V183.188H202.09V189H200.684V176.32H202.09V182.004H208.922V176.32H210.328V189Z" fill="black"/>
<defs>
<filter id="filter0_d" x="0" y="0" width="587" height="451" filterUnits="userSpaceOnUse" color-interpolation-filters="sRGB">
<feFlood flood-opacity="0" result="BackgroundImageFix"/>
<feColorMatrix in="SourceAlpha" type="matrix" values="0 0 0 0 0 0 0 0 0 0 0 0 0 0 0 0 0 0 127 0"/>
<feMorphology radius="1" operator="dilate" in="SourceAlpha" result="effect1_dropShadow"/>
<feOffset dx="1" dy="3"/>
<feGaussianBlur stdDeviation="1.5"/>
<feColorMatrix type="matrix" values="0 0 0 0 0 0 0 0 0 0 0 0 0 0 0 0 0 0 0.1 0"/>
<feBlend mode="normal" in2="BackgroundImageFix" result="effect1_dropShadow"/>
<feBlend mode="normal" in="SourceGraphic" in2="effect1_dropShadow" result="shape"/>
</filter>
<filter id="filter1_i" x="43.0625" y="34.7031" width="202.148" height="25.4922" filterUnits="userSpaceOnUse" color-interpolation-filters="sRGB">
<feFlood flood-opacity="0" result="BackgroundImageFix"/>
<feBlend mode="normal" in="SourceGraphic" in2="BackgroundImageFix" result="shape"/>
<feColorMatrix in="SourceAlpha" type="matrix" values="0 0 0 0 0 0 0 0 0 0 0 0 0 0 0 0 0 0 127 0" result="hardAlpha"/>
<feOffset dy="4"/>
<feGaussianBlur stdDeviation="2"/>
<feComposite in2="hardAlpha" operator="arithmetic" k2="-1" k3="1"/>
<feColorMatrix type="matrix" values="0 0 0 0 0 0 0 0 0 0 0 0 0 0 0 0 0 0 0.25 0"/>
<feBlend mode="normal" in2="shape" result="effect1_innerShadow"/>
</filter>
</defs>
</svg>
