<svg width="626" height="511" viewBox="0 0 626 511" fill="none" xmlns="http://www.w3.org/2000/svg">
<g filter="url(#filter0_d)">
<rect x="3" y="1" width="542" height="394" rx="41" fill="#E2D7F4" fill-opacity="0.95"/>
</g>
<g filter="url(#filter1_i)">
<path d="M45.9648 43.8398L49.8906 33.9375H52.5039L46.4688 48.1523C46.0625 49.0586 45.6836 49.7031 45.332 50.0859C44.9805 50.4609 44.5664 50.75 44.0898 50.9531C43.6211 51.1484 43.0312 51.2461 42.3203 51.2461C41.7031 51.2461 41.3086 51.2109 41.1367 51.1406L41.207 49.3594L42.2734 49.4062C43.0938 49.4062 43.7031 49.0117 44.1016 48.2227L44.3945 47.6133L44.8398 46.5703L39.0273 33.9375H41.5469L45.9648 43.8398ZM69.5898 55.1836H67.3516V51H55.1055V55.1953H52.8555L52.8438 49.1602H54.2383C54.9727 48.332 55.5547 47.2227 55.9844 45.832C56.4219 44.4336 56.6953 42.9023 56.8047 41.2383L57.1797 33.9375H67.3867V49.1602H69.6133L69.5898 55.1836ZM56.8047 49.1602H65.125V35.7891H59.3477L59.1016 40.8047C59 42.7656 58.7383 44.4375 58.3164 45.8203C57.9023 47.2031 57.3984 48.3164 56.8047 49.1602ZM85.1289 43.0195C85.1289 44.6914 84.8477 46.1523 84.2852 47.4023C83.7227 48.6445 82.9258 49.5938 81.8945 50.25C80.8633 50.9062 79.6602 51.2344 78.2852 51.2344C76.9414 51.2344 75.75 50.9062 74.7109 50.25C73.6719 49.5859 72.8633 48.6445 72.2852 47.4258C71.7148 46.1992 71.4219 44.7812 71.4062 43.1719V41.9414C71.4062 40.3008 71.6914 38.8516 72.2617 37.5938C72.832 36.3359 73.6367 35.375 74.6758 34.7109C75.7227 34.0391 76.918 33.7031 78.2617 33.7031C79.6289 33.7031 80.832 34.0352 81.8711 34.6992C82.918 35.3555 83.7227 36.3125 84.2852 37.5703C84.8477 38.8203 85.1289 40.2773 85.1289 41.9414V43.0195ZM82.8906 41.918C82.8906 39.8945 82.4844 38.3438 81.6719 37.2656C80.8594 36.1797 79.7227 35.6367 78.2617 35.6367C76.8398 35.6367 75.7188 36.1797 74.8984 37.2656C74.0859 38.3438 73.668 39.8438 73.6445 41.7656V43.0195C73.6445 44.9805 74.0547 46.5234 74.875 47.6484C75.7031 48.7656 76.8398 49.3242 78.2852 49.3242C79.7383 49.3242 80.8633 48.7969 81.6602 47.7422C82.457 46.6797 82.8672 45.1602 82.8906 43.1836V41.918ZM98.9102 35.7891H90.6836V40.8984H94.9258C96.707 40.9219 98.0977 41.3789 99.0977 42.2695C100.098 43.1602 100.598 44.3711 100.598 45.9023C100.598 47.4414 100.094 48.668 99.0859 49.582C98.0781 50.4961 96.7031 50.9688 94.9609 51H88.4219V33.9375H98.9102V35.7891ZM90.6836 42.75V49.1602H94.7969C95.9141 49.1602 96.7812 48.8633 97.3984 48.2695C98.0234 47.6758 98.3359 46.8789 98.3359 45.8789C98.3359 44.918 98.0352 44.1602 97.4336 43.6055C96.8398 43.0508 95.9922 42.7656 94.8906 42.75H90.6836ZM116.195 45.5859C115.984 47.3906 115.316 48.7852 114.191 49.7695C113.074 50.7461 111.586 51.2344 109.727 51.2344C107.711 51.2344 106.094 50.5117 104.875 49.0664C103.664 47.6211 103.059 45.6875 103.059 43.2656V41.625C103.059 40.0391 103.34 38.6445 103.902 37.4414C104.473 36.2383 105.277 35.3164 106.316 34.6758C107.355 34.0273 108.559 33.7031 109.926 33.7031C111.738 33.7031 113.191 34.2109 114.285 35.2266C115.379 36.2344 116.016 37.6328 116.195 39.4219H113.934C113.738 38.0625 113.312 37.0781 112.656 36.4688C112.008 35.8594 111.098 35.5547 109.926 35.5547C108.488 35.5547 107.359 36.0859 106.539 37.1484C105.727 38.2109 105.32 39.7227 105.32 41.6836V43.3359C105.32 45.1875 105.707 46.6602 106.48 47.7539C107.254 48.8477 108.336 49.3945 109.727 49.3945C110.977 49.3945 111.934 49.1133 112.598 48.5508C113.27 47.9805 113.715 46.9922 113.934 45.5859H116.195ZM130.715 35.7891H125.23V51H122.992V35.7891H117.52V33.9375H130.715V35.7891ZM133.246 51V33.9375H138.824C140.676 33.9375 142.066 34.3203 142.996 35.0859C143.934 35.8516 144.402 36.9844 144.402 38.4844C144.402 39.2812 144.176 39.9883 143.723 40.6055C143.27 41.2148 142.652 41.6875 141.871 42.0234C142.793 42.2812 143.52 42.7734 144.051 43.5C144.59 44.2188 144.859 45.0781 144.859 46.0781C144.859 47.6094 144.363 48.8125 143.371 49.6875C142.379 50.5625 140.977 51 139.164 51H133.246ZM135.496 43.0195V49.1602H139.211C140.258 49.1602 141.082 48.8906 141.684 48.3516C142.293 47.8047 142.598 47.0547 142.598 46.1016C142.598 44.0469 141.48 43.0195 139.246 43.0195H135.496ZM135.496 41.2148H138.895C139.879 41.2148 140.664 40.9688 141.25 40.4766C141.844 39.9844 142.141 39.3164 142.141 38.4727C142.141 37.5352 141.867 36.8555 141.32 36.4336C140.773 36.0039 139.941 35.7891 138.824 35.7891H135.496V41.2148ZM157.621 46.5469H150.473L148.867 51H146.547L153.062 33.9375H155.031L161.559 51H159.25L157.621 46.5469ZM151.152 44.6953H156.953L154.047 36.7148L151.152 44.6953Z" fill="black"/>
</g>
<rect x="34" y="130" width="472" height="34" rx="17" fill="white"/>
<rect x="34" y="176" width="472" height="34" rx="17" fill="white"/>
<rect x="34" y="222" width="472" height="34" rx="17" fill="white"/>
<rect x="34" y="268" width="472" height="34" rx="17" fill="white"/>
<rect x="34" y="314" width="472" height="34" rx="17" fill="white"/>
<rect x="34" y="85" width="472" height="34" rx="17" fill="white"/>
<path d="M63.498 108H54.1816V106.701L59.1035 101.232C59.8327 100.406 60.334 99.735 60.6074 99.2207C60.8874 98.6999 61.0273 98.1628 61.0273 97.6094C61.0273 96.8672 60.8027 96.2585 60.3535 95.7832C59.9043 95.3079 59.3053 95.0703 58.5566 95.0703C57.6582 95.0703 56.9583 95.3275 56.457 95.8418C55.9622 96.3496 55.7148 97.0592 55.7148 97.9707H53.9082C53.9082 96.6621 54.3281 95.6042 55.168 94.7969C56.0143 93.9896 57.1439 93.5859 58.5566 93.5859C59.8783 93.5859 60.9232 93.9342 61.6914 94.6309C62.4596 95.321 62.8438 96.2422 62.8438 97.3945C62.8438 98.7943 61.9518 100.461 60.168 102.395L56.3594 106.525H63.498V108ZM75.1973 98.0391C76.5254 98.0391 77.5866 98.485 78.3809 99.377C79.1816 100.262 79.582 101.431 79.582 102.883V103.049C79.582 104.045 79.39 104.937 79.0059 105.725C78.6217 106.506 78.0684 107.115 77.3457 107.551C76.6296 107.98 75.8027 108.195 74.8652 108.195C73.446 108.195 72.3034 107.723 71.4375 106.779C70.5716 105.829 70.1387 104.556 70.1387 102.961V102.082C70.1387 99.862 70.5488 98.0977 71.3691 96.7891C72.196 95.4805 73.4134 94.6829 75.0215 94.3965C75.9329 94.2337 76.5482 94.0352 76.8672 93.8008C77.1862 93.5664 77.3457 93.2441 77.3457 92.834H78.8301C78.8301 93.6478 78.6445 94.2826 78.2734 94.7383C77.9089 95.194 77.3229 95.5163 76.5156 95.7051L75.168 96.0078C74.0938 96.2617 73.2865 96.6914 72.7461 97.2969C72.2122 97.8958 71.8639 98.6966 71.7012 99.6992C72.6582 98.5924 73.8236 98.0391 75.1973 98.0391ZM74.8457 99.5234C73.9603 99.5234 73.2572 99.8229 72.7363 100.422C72.2155 101.014 71.9551 101.838 71.9551 102.893V103.049C71.9551 104.182 72.2155 105.08 72.7363 105.744C73.2637 106.402 73.9733 106.73 74.8652 106.73C75.7637 106.73 76.4733 106.398 76.9941 105.734C77.515 105.07 77.7754 104.1 77.7754 102.824C77.7754 101.828 77.5117 101.031 76.9844 100.432C76.4635 99.8262 75.7507 99.5234 74.8457 99.5234ZM88.1367 108C88.0326 107.792 87.9479 107.421 87.8828 106.887C87.043 107.759 86.0404 108.195 84.875 108.195C83.8333 108.195 82.9772 107.902 82.3066 107.316C81.6426 106.724 81.3105 105.975 81.3105 105.07C81.3105 103.97 81.7272 103.117 82.5605 102.512C83.4004 101.9 84.5788 101.594 86.0957 101.594H87.8535V100.764C87.8535 100.132 87.6647 99.6309 87.2871 99.2598C86.9095 98.8822 86.3529 98.6934 85.6172 98.6934C84.9727 98.6934 84.4323 98.8561 83.9961 99.1816C83.5599 99.5072 83.3418 99.901 83.3418 100.363H81.5254C81.5254 99.8359 81.7109 99.3281 82.082 98.8398C82.4596 98.3451 82.9674 97.9544 83.6055 97.668C84.25 97.3815 84.9564 97.2383 85.7246 97.2383C86.9421 97.2383 87.8958 97.5443 88.5859 98.1562C89.276 98.7617 89.6341 99.5983 89.6602 100.666V105.529C89.6602 106.499 89.7839 107.271 90.0312 107.844V108H88.1367ZM85.1387 106.623C85.7051 106.623 86.2422 106.477 86.75 106.184C87.2578 105.891 87.6257 105.51 87.8535 105.041V102.873H86.4375C84.224 102.873 83.1172 103.521 83.1172 104.816C83.1172 105.383 83.306 105.826 83.6836 106.145C84.0612 106.464 84.5462 106.623 85.1387 106.623ZM96.7305 106.721C97.375 106.721 97.9382 106.525 98.4199 106.135C98.9017 105.744 99.1686 105.256 99.2207 104.67H100.93C100.897 105.275 100.689 105.852 100.305 106.398C99.9206 106.945 99.4062 107.382 98.7617 107.707C98.1237 108.033 97.4466 108.195 96.7305 108.195C95.2917 108.195 94.1458 107.717 93.293 106.76C92.4466 105.796 92.0234 104.481 92.0234 102.814V102.512C92.0234 101.483 92.2122 100.568 92.5898 99.7676C92.9674 98.9668 93.5078 98.3451 94.2109 97.9023C94.9206 97.4596 95.7572 97.2383 96.7207 97.2383C97.9056 97.2383 98.8887 97.5931 99.6699 98.3027C100.458 99.0124 100.878 99.9336 100.93 101.066H99.2207C99.1686 100.383 98.9082 99.8229 98.4395 99.3867C97.9772 98.944 97.4043 98.7227 96.7207 98.7227C95.8027 98.7227 95.0898 99.0547 94.582 99.7188C94.0807 100.376 93.8301 101.33 93.8301 102.58V102.922C93.8301 104.139 94.0807 105.077 94.582 105.734C95.0833 106.392 95.7995 106.721 96.7305 106.721ZM107.199 106.721C107.844 106.721 108.407 106.525 108.889 106.135C109.37 105.744 109.637 105.256 109.689 104.67H111.398C111.366 105.275 111.158 105.852 110.773 106.398C110.389 106.945 109.875 107.382 109.23 107.707C108.592 108.033 107.915 108.195 107.199 108.195C105.76 108.195 104.615 107.717 103.762 106.76C102.915 105.796 102.492 104.481 102.492 102.814V102.512C102.492 101.483 102.681 100.568 103.059 99.7676C103.436 98.9668 103.977 98.3451 104.68 97.9023C105.389 97.4596 106.226 97.2383 107.189 97.2383C108.374 97.2383 109.357 97.5931 110.139 98.3027C110.926 99.0124 111.346 99.9336 111.398 101.066H109.689C109.637 100.383 109.377 99.8229 108.908 99.3867C108.446 98.944 107.873 98.7227 107.189 98.7227C106.271 98.7227 105.559 99.0547 105.051 99.7188C104.549 100.376 104.299 101.33 104.299 102.58V102.922C104.299 104.139 104.549 105.077 105.051 105.734C105.552 106.392 106.268 106.721 107.199 106.721ZM117.814 108.195C116.382 108.195 115.217 107.727 114.318 106.789C113.42 105.845 112.971 104.585 112.971 103.01V102.678C112.971 101.63 113.169 100.695 113.566 99.875C113.97 99.0482 114.53 98.4036 115.246 97.9414C115.969 97.4727 116.75 97.2383 117.59 97.2383C118.964 97.2383 120.031 97.6908 120.793 98.5957C121.555 99.5007 121.936 100.796 121.936 102.482V103.234H114.777C114.803 104.276 115.106 105.119 115.686 105.764C116.271 106.402 117.014 106.721 117.912 106.721C118.55 106.721 119.09 106.59 119.533 106.33C119.976 106.07 120.363 105.725 120.695 105.295L121.799 106.154C120.913 107.515 119.585 108.195 117.814 108.195ZM117.59 98.7227C116.861 98.7227 116.249 98.9896 115.754 99.5234C115.259 100.051 114.953 100.793 114.836 101.75H120.129V101.613C120.077 100.695 119.829 99.9857 119.387 99.4844C118.944 98.9766 118.345 98.7227 117.59 98.7227ZM130.871 97.4336H132.678V108H130.871V100.295L125.998 108H124.191V97.4336H125.998V105.148L130.871 97.4336ZM131.359 93.5859C131.359 94.3737 131.089 95.0085 130.549 95.4902C130.015 95.9655 129.312 96.2031 128.439 96.2031C127.567 96.2031 126.861 95.9622 126.32 95.4805C125.78 94.9987 125.51 94.3672 125.51 93.5859H126.984C126.984 94.0417 127.108 94.3997 127.355 94.6602C127.603 94.9141 127.964 95.041 128.439 95.041C128.895 95.041 129.25 94.9141 129.504 94.6602C129.764 94.4062 129.895 94.0482 129.895 93.5859H131.359ZM144.211 108H142.404V103.488H137.551V108H135.734V97.4336H137.551V102.014H142.404V97.4336H144.211V108ZM153.645 108C153.54 107.792 153.456 107.421 153.391 106.887C152.551 107.759 151.548 108.195 150.383 108.195C149.341 108.195 148.485 107.902 147.814 107.316C147.15 106.724 146.818 105.975 146.818 105.07C146.818 103.97 147.235 103.117 148.068 102.512C148.908 101.9 150.087 101.594 151.604 101.594H153.361V100.764C153.361 100.132 153.173 99.6309 152.795 99.2598C152.417 98.8822 151.861 98.6934 151.125 98.6934C150.48 98.6934 149.94 98.8561 149.504 99.1816C149.068 99.5072 148.85 99.901 148.85 100.363H147.033C147.033 99.8359 147.219 99.3281 147.59 98.8398C147.967 98.3451 148.475 97.9544 149.113 97.668C149.758 97.3815 150.464 97.2383 151.232 97.2383C152.45 97.2383 153.404 97.5443 154.094 98.1562C154.784 98.7617 155.142 99.5983 155.168 100.666V105.529C155.168 106.499 155.292 107.271 155.539 107.844V108H153.645ZM150.646 106.623C151.213 106.623 151.75 106.477 152.258 106.184C152.766 105.891 153.133 105.51 153.361 105.041V102.873H151.945C149.732 102.873 148.625 103.521 148.625 104.816C148.625 105.383 148.814 105.826 149.191 106.145C149.569 106.464 150.054 106.623 150.646 106.623ZM63.3223 141.324H56.4668V145.582H60.002C61.4863 145.602 62.6452 145.982 63.4785 146.725C64.3118 147.467 64.7285 148.476 64.7285 149.752C64.7285 151.035 64.3086 152.057 63.4688 152.818C62.6289 153.58 61.4831 153.974 60.0312 154H54.582V139.781H63.3223V141.324ZM56.4668 147.125V152.467H59.8945C60.8255 152.467 61.5482 152.219 62.0625 151.725C62.5833 151.23 62.8438 150.566 62.8438 149.732C62.8438 148.932 62.5931 148.3 62.0918 147.838C61.597 147.376 60.8906 147.138 59.9727 147.125H56.4668ZM71.3691 154.195C69.9368 154.195 68.7715 153.727 67.873 152.789C66.9746 151.845 66.5254 150.585 66.5254 149.01V148.678C66.5254 147.63 66.724 146.695 67.1211 145.875C67.5247 145.048 68.0846 144.404 68.8008 143.941C69.5234 143.473 70.3047 143.238 71.1445 143.238C72.5182 143.238 73.5859 143.691 74.3477 144.596C75.1094 145.501 75.4902 146.796 75.4902 148.482V149.234H68.332C68.3581 150.276 68.6608 151.119 69.2402 151.764C69.8262 152.402 70.5684 152.721 71.4668 152.721C72.1048 152.721 72.6452 152.59 73.0879 152.33C73.5306 152.07 73.918 151.725 74.25 151.295L75.3535 152.154C74.4681 153.515 73.14 154.195 71.3691 154.195ZM71.1445 144.723C70.4154 144.723 69.8034 144.99 69.3086 145.523C68.8138 146.051 68.5078 146.793 68.3906 147.75H73.6836V147.613C73.6315 146.695 73.3841 145.986 72.9414 145.484C72.4987 144.977 71.8997 144.723 71.1445 144.723ZM81.8281 152.721C82.4727 152.721 83.0358 152.525 83.5176 152.135C83.9993 151.744 84.2663 151.256 84.3184 150.67H86.0273C85.9948 151.275 85.7865 151.852 85.4023 152.398C85.0182 152.945 84.5039 153.382 83.8594 153.707C83.2214 154.033 82.5443 154.195 81.8281 154.195C80.3893 154.195 79.2435 153.717 78.3906 152.76C77.5443 151.796 77.1211 150.481 77.1211 148.814V148.512C77.1211 147.483 77.3099 146.568 77.6875 145.768C78.0651 144.967 78.6055 144.345 79.3086 143.902C80.0182 143.46 80.8548 143.238 81.8184 143.238C83.0033 143.238 83.9863 143.593 84.7676 144.303C85.5553 145.012 85.9753 145.934 86.0273 147.066H84.3184C84.2663 146.383 84.0059 145.823 83.5371 145.387C83.0749 144.944 82.502 144.723 81.8184 144.723C80.9004 144.723 80.1875 145.055 79.6797 145.719C79.1784 146.376 78.9277 147.33 78.9277 148.58V148.922C78.9277 150.139 79.1784 151.077 79.6797 151.734C80.181 152.392 80.8971 152.721 81.8281 152.721ZM96.7012 154H94.8945V144.928H90.0312V154H88.2148V143.434H96.7012V154ZM108.264 143.434V154H106.447V144.928H102.854L102.639 148.883C102.521 150.699 102.215 151.998 101.721 152.779C101.232 153.561 100.454 153.967 99.3867 154H98.6641V152.408L99.1816 152.369C99.7676 152.304 100.188 151.965 100.441 151.354C100.695 150.742 100.858 149.609 100.93 147.955L101.125 143.434H108.264ZM117.688 154C117.583 153.792 117.499 153.421 117.434 152.887C116.594 153.759 115.591 154.195 114.426 154.195C113.384 154.195 112.528 153.902 111.857 153.316C111.193 152.724 110.861 151.975 110.861 151.07C110.861 149.97 111.278 149.117 112.111 148.512C112.951 147.9 114.13 147.594 115.646 147.594H117.404V146.764C117.404 146.132 117.215 145.631 116.838 145.26C116.46 144.882 115.904 144.693 115.168 144.693C114.523 144.693 113.983 144.856 113.547 145.182C113.111 145.507 112.893 145.901 112.893 146.363H111.076C111.076 145.836 111.262 145.328 111.633 144.84C112.01 144.345 112.518 143.954 113.156 143.668C113.801 143.382 114.507 143.238 115.275 143.238C116.493 143.238 117.447 143.544 118.137 144.156C118.827 144.762 119.185 145.598 119.211 146.666V151.529C119.211 152.499 119.335 153.271 119.582 153.844V154H117.688ZM114.689 152.623C115.256 152.623 115.793 152.477 116.301 152.184C116.809 151.891 117.176 151.51 117.404 151.041V148.873H115.988C113.775 148.873 112.668 149.521 112.668 150.816C112.668 151.383 112.857 151.826 113.234 152.145C113.612 152.464 114.097 152.623 114.689 152.623ZM129.738 144.898H126.193V154H124.387V144.898H120.91V143.434H129.738V144.898ZM140.129 154H138.322V149.488H133.469V154H131.652V143.434H133.469V148.014H138.322V143.434H140.129V154ZM145.012 147.076H147.756C148.954 147.089 149.901 147.402 150.598 148.014C151.294 148.626 151.643 149.456 151.643 150.504C151.643 151.559 151.285 152.405 150.568 153.043C149.852 153.681 148.889 154 147.678 154H143.205V143.434H145.012V147.076ZM155.412 154H153.596V143.434H155.412V154ZM145.012 148.551V152.525H147.697C148.374 152.525 148.898 152.353 149.27 152.008C149.641 151.656 149.826 151.178 149.826 150.572C149.826 149.986 149.644 149.508 149.279 149.137C148.921 148.759 148.417 148.564 147.766 148.551H145.012ZM165.402 143.434H167.209V154H165.402V146.295L160.529 154H158.723V143.434H160.529V151.148L165.402 143.434ZM165.891 139.586C165.891 140.374 165.62 141.008 165.08 141.49C164.546 141.965 163.843 142.203 162.971 142.203C162.098 142.203 161.392 141.962 160.852 141.48C160.311 140.999 160.041 140.367 160.041 139.586H161.516C161.516 140.042 161.639 140.4 161.887 140.66C162.134 140.914 162.495 141.041 162.971 141.041C163.426 141.041 163.781 140.914 164.035 140.66C164.296 140.406 164.426 140.048 164.426 139.586H165.891ZM178.42 149.518L178.693 151.393L179.094 149.703L181.906 139.781H183.488L186.232 149.703L186.623 151.422L186.926 149.508L189.133 139.781H191.018L187.57 154H185.861L182.932 143.639L182.707 142.555L182.482 143.639L179.445 154H177.736L174.299 139.781H176.174L178.42 149.518ZM194.787 154H192.98V143.434H194.787V154ZM192.834 140.631C192.834 140.338 192.922 140.09 193.098 139.889C193.28 139.687 193.547 139.586 193.898 139.586C194.25 139.586 194.517 139.687 194.699 139.889C194.882 140.09 194.973 140.338 194.973 140.631C194.973 140.924 194.882 141.168 194.699 141.363C194.517 141.559 194.25 141.656 193.898 141.656C193.547 141.656 193.28 141.559 193.098 141.363C192.922 141.168 192.834 140.924 192.834 140.631ZM201.447 148.697H196.682V147.223H201.447V148.697ZM211.34 147.721H205.373V154H203.498V139.781H212.307V141.324H205.373V146.188H211.34V147.721ZM216.232 154H214.426V143.434H216.232V154ZM214.279 140.631C214.279 140.338 214.367 140.09 214.543 139.889C214.725 139.687 214.992 139.586 215.344 139.586C215.695 139.586 215.962 139.687 216.145 139.889C216.327 140.09 216.418 140.338 216.418 140.631C216.418 140.924 216.327 141.168 216.145 141.363C215.962 141.559 215.695 141.656 215.344 141.656C214.992 141.656 214.725 141.559 214.543 141.363C214.367 141.168 214.279 140.924 214.279 140.631ZM63.3223 187.324H56.4668V191.582H60.002C61.4863 191.602 62.6452 191.982 63.4785 192.725C64.3118 193.467 64.7285 194.476 64.7285 195.752C64.7285 197.035 64.3086 198.057 63.4688 198.818C62.6289 199.58 61.4831 199.974 60.0312 200H54.582V185.781H63.3223V187.324ZM56.4668 193.125V198.467H59.8945C60.8255 198.467 61.5482 198.219 62.0625 197.725C62.5833 197.23 62.8438 196.566 62.8438 195.732C62.8438 194.932 62.5931 194.3 62.0918 193.838C61.597 193.376 60.8906 193.138 59.9727 193.125H56.4668ZM71.3691 200.195C69.9368 200.195 68.7715 199.727 67.873 198.789C66.9746 197.845 66.5254 196.585 66.5254 195.01V194.678C66.5254 193.63 66.724 192.695 67.1211 191.875C67.5247 191.048 68.0846 190.404 68.8008 189.941C69.5234 189.473 70.3047 189.238 71.1445 189.238C72.5182 189.238 73.5859 189.691 74.3477 190.596C75.1094 191.501 75.4902 192.796 75.4902 194.482V195.234H68.332C68.3581 196.276 68.6608 197.119 69.2402 197.764C69.8262 198.402 70.5684 198.721 71.4668 198.721C72.1048 198.721 72.6452 198.59 73.0879 198.33C73.5306 198.07 73.918 197.725 74.25 197.295L75.3535 198.154C74.4681 199.515 73.14 200.195 71.3691 200.195ZM71.1445 190.723C70.4154 190.723 69.8034 190.99 69.3086 191.523C68.8138 192.051 68.5078 192.793 68.3906 193.75H73.6836V193.613C73.6315 192.695 73.3841 191.986 72.9414 191.484C72.4987 190.977 71.8997 190.723 71.1445 190.723ZM81.8281 198.721C82.4727 198.721 83.0358 198.525 83.5176 198.135C83.9993 197.744 84.2663 197.256 84.3184 196.67H86.0273C85.9948 197.275 85.7865 197.852 85.4023 198.398C85.0182 198.945 84.5039 199.382 83.8594 199.707C83.2214 200.033 82.5443 200.195 81.8281 200.195C80.3893 200.195 79.2435 199.717 78.3906 198.76C77.5443 197.796 77.1211 196.481 77.1211 194.814V194.512C77.1211 193.483 77.3099 192.568 77.6875 191.768C78.0651 190.967 78.6055 190.345 79.3086 189.902C80.0182 189.46 80.8548 189.238 81.8184 189.238C83.0033 189.238 83.9863 189.593 84.7676 190.303C85.5553 191.012 85.9753 191.934 86.0273 193.066H84.3184C84.2663 192.383 84.0059 191.823 83.5371 191.387C83.0749 190.944 82.502 190.723 81.8184 190.723C80.9004 190.723 80.1875 191.055 79.6797 191.719C79.1784 192.376 78.9277 193.33 78.9277 194.58V194.922C78.9277 196.139 79.1784 197.077 79.6797 197.734C80.181 198.392 80.8971 198.721 81.8281 198.721ZM96.7012 200H94.8945V190.928H90.0312V200H88.2148V189.434H96.7012V200ZM108.264 189.434V200H106.447V190.928H102.854L102.639 194.883C102.521 196.699 102.215 197.998 101.721 198.779C101.232 199.561 100.454 199.967 99.3867 200H98.6641V198.408L99.1816 198.369C99.7676 198.304 100.188 197.965 100.441 197.354C100.695 196.742 100.858 195.609 100.93 193.955L101.125 189.434H108.264ZM117.688 200C117.583 199.792 117.499 199.421 117.434 198.887C116.594 199.759 115.591 200.195 114.426 200.195C113.384 200.195 112.528 199.902 111.857 199.316C111.193 198.724 110.861 197.975 110.861 197.07C110.861 195.97 111.278 195.117 112.111 194.512C112.951 193.9 114.13 193.594 115.646 193.594H117.404V192.764C117.404 192.132 117.215 191.631 116.838 191.26C116.46 190.882 115.904 190.693 115.168 190.693C114.523 190.693 113.983 190.856 113.547 191.182C113.111 191.507 112.893 191.901 112.893 192.363H111.076C111.076 191.836 111.262 191.328 111.633 190.84C112.01 190.345 112.518 189.954 113.156 189.668C113.801 189.382 114.507 189.238 115.275 189.238C116.493 189.238 117.447 189.544 118.137 190.156C118.827 190.762 119.185 191.598 119.211 192.666V197.529C119.211 198.499 119.335 199.271 119.582 199.844V200H117.688ZM114.689 198.623C115.256 198.623 115.793 198.477 116.301 198.184C116.809 197.891 117.176 197.51 117.404 197.041V194.873H115.988C113.775 194.873 112.668 195.521 112.668 196.816C112.668 197.383 112.857 197.826 113.234 198.145C113.612 198.464 114.097 198.623 114.689 198.623ZM129.738 190.898H126.193V200H124.387V190.898H120.91V189.434H129.738V190.898ZM140.129 200H138.322V195.488H133.469V200H131.652V189.434H133.469V194.014H138.322V189.434H140.129V200ZM149.562 200C149.458 199.792 149.374 199.421 149.309 198.887C148.469 199.759 147.466 200.195 146.301 200.195C145.259 200.195 144.403 199.902 143.732 199.316C143.068 198.724 142.736 197.975 142.736 197.07C142.736 195.97 143.153 195.117 143.986 194.512C144.826 193.9 146.005 193.594 147.521 193.594H149.279V192.764C149.279 192.132 149.09 191.631 148.713 191.26C148.335 190.882 147.779 190.693 147.043 190.693C146.398 190.693 145.858 190.856 145.422 191.182C144.986 191.507 144.768 191.901 144.768 192.363H142.951C142.951 191.836 143.137 191.328 143.508 190.84C143.885 190.345 144.393 189.954 145.031 189.668C145.676 189.382 146.382 189.238 147.15 189.238C148.368 189.238 149.322 189.544 150.012 190.156C150.702 190.762 151.06 191.598 151.086 192.666V197.529C151.086 198.499 151.21 199.271 151.457 199.844V200H149.562ZM146.564 198.623C147.131 198.623 147.668 198.477 148.176 198.184C148.684 197.891 149.051 197.51 149.279 197.041V194.873H147.863C145.65 194.873 144.543 195.521 144.543 196.816C144.543 197.383 144.732 197.826 145.109 198.145C145.487 198.464 145.972 198.623 146.564 198.623ZM161.994 189.434V200H160.178V195.889H157.453L154.963 200H153.01L155.666 195.615C154.989 195.368 154.468 194.987 154.104 194.473C153.745 193.952 153.566 193.346 153.566 192.656C153.566 191.693 153.928 190.918 154.65 190.332C155.373 189.74 156.34 189.44 157.551 189.434H161.994ZM155.383 192.676C155.383 193.19 155.559 193.607 155.91 193.926C156.262 194.238 156.727 194.398 157.307 194.404H160.178V190.898H157.58C156.91 190.898 156.376 191.064 155.979 191.396C155.581 191.722 155.383 192.148 155.383 192.676ZM178.498 200H176.691V190.928H171.828V200H170.012V189.434H178.498V200ZM187.922 200C187.818 199.792 187.733 199.421 187.668 198.887C186.828 199.759 185.826 200.195 184.66 200.195C183.618 200.195 182.762 199.902 182.092 199.316C181.428 198.724 181.096 197.975 181.096 197.07C181.096 195.97 181.512 195.117 182.346 194.512C183.186 193.9 184.364 193.594 185.881 193.594H187.639V192.764C187.639 192.132 187.45 191.631 187.072 191.26C186.695 190.882 186.138 190.693 185.402 190.693C184.758 190.693 184.217 190.856 183.781 191.182C183.345 191.507 183.127 191.901 183.127 192.363H181.311C181.311 191.836 181.496 191.328 181.867 190.84C182.245 190.345 182.753 189.954 183.391 189.668C184.035 189.382 184.742 189.238 185.51 189.238C186.727 189.238 187.681 189.544 188.371 190.156C189.061 190.762 189.419 191.598 189.445 192.666V197.529C189.445 198.499 189.569 199.271 189.816 199.844V200H187.922ZM184.924 198.623C185.49 198.623 186.027 198.477 186.535 198.184C187.043 197.891 187.411 197.51 187.639 197.041V194.873H186.223C184.009 194.873 182.902 195.521 182.902 196.816C182.902 197.383 183.091 197.826 183.469 198.145C183.846 198.464 184.331 198.623 184.924 198.623ZM201.203 194.834C201.203 196.442 200.835 197.738 200.1 198.721C199.364 199.704 198.368 200.195 197.111 200.195C195.829 200.195 194.82 199.788 194.084 198.975V204.062H192.277V189.434H193.928L194.016 190.605C194.751 189.694 195.773 189.238 197.082 189.238C198.352 189.238 199.354 189.717 200.09 190.674C200.832 191.631 201.203 192.962 201.203 194.668V194.834ZM199.396 194.629C199.396 193.438 199.143 192.497 198.635 191.807C198.127 191.117 197.43 190.771 196.545 190.771C195.451 190.771 194.631 191.257 194.084 192.227V197.275C194.624 198.239 195.451 198.721 196.564 198.721C197.43 198.721 198.117 198.379 198.625 197.695C199.139 197.005 199.396 195.983 199.396 194.629ZM206.799 195.498H205.48V200H203.664V189.434H205.48V193.906H206.662L210.217 189.434H212.404L208.225 194.512L212.756 200H210.461L206.799 195.498ZM213.615 194.619C213.615 193.584 213.817 192.653 214.221 191.826C214.631 190.999 215.197 190.361 215.92 189.912C216.649 189.463 217.479 189.238 218.41 189.238C219.849 189.238 221.011 189.736 221.896 190.732C222.788 191.729 223.234 193.053 223.234 194.707V194.834C223.234 195.863 223.036 196.787 222.639 197.607C222.248 198.421 221.685 199.056 220.949 199.512C220.22 199.967 219.38 200.195 218.43 200.195C216.997 200.195 215.835 199.697 214.943 198.701C214.058 197.705 213.615 196.387 213.615 194.746V194.619ZM215.432 194.834C215.432 196.006 215.702 196.947 216.242 197.656C216.789 198.366 217.518 198.721 218.43 198.721C219.348 198.721 220.077 198.363 220.617 197.646C221.158 196.924 221.428 195.915 221.428 194.619C221.428 193.46 221.151 192.523 220.598 191.807C220.051 191.084 219.322 190.723 218.41 190.723C217.518 190.723 216.799 191.077 216.252 191.787C215.705 192.497 215.432 193.512 215.432 194.834ZM225.666 200V189.434H229.787C231.193 189.434 232.271 189.681 233.02 190.176C233.775 190.664 234.152 191.383 234.152 192.334C234.152 192.822 234.006 193.265 233.713 193.662C233.42 194.053 232.987 194.352 232.414 194.561C233.052 194.71 233.563 195.003 233.947 195.439C234.338 195.876 234.533 196.396 234.533 197.002C234.533 197.972 234.175 198.714 233.459 199.229C232.749 199.743 231.743 200 230.441 200H225.666ZM227.473 195.361V198.545H230.461C231.216 198.545 231.779 198.405 232.15 198.125C232.528 197.845 232.717 197.451 232.717 196.943C232.717 195.889 231.942 195.361 230.393 195.361H227.473ZM227.473 193.916H229.807C231.499 193.916 232.346 193.421 232.346 192.432C232.346 191.442 231.545 190.931 229.943 190.898H227.473V193.916ZM240.217 195.498H238.898V200H237.082V189.434H238.898V193.906H240.08L243.635 189.434H245.822L241.643 194.512L246.174 200H243.879L240.217 195.498ZM254.25 200C254.146 199.792 254.061 199.421 253.996 198.887C253.156 199.759 252.154 200.195 250.988 200.195C249.947 200.195 249.09 199.902 248.42 199.316C247.756 198.724 247.424 197.975 247.424 197.07C247.424 195.97 247.84 195.117 248.674 194.512C249.514 193.9 250.692 193.594 252.209 193.594H253.967V192.764C253.967 192.132 253.778 191.631 253.4 191.26C253.023 190.882 252.466 190.693 251.73 190.693C251.086 190.693 250.546 190.856 250.109 191.182C249.673 191.507 249.455 191.901 249.455 192.363H247.639C247.639 191.836 247.824 191.328 248.195 190.84C248.573 190.345 249.081 189.954 249.719 189.668C250.363 189.382 251.07 189.238 251.838 189.238C253.055 189.238 254.009 189.544 254.699 190.156C255.389 190.762 255.747 191.598 255.773 192.666V197.529C255.773 198.499 255.897 199.271 256.145 199.844V200H254.25ZM251.252 198.623C251.818 198.623 252.355 198.477 252.863 198.184C253.371 197.891 253.739 197.51 253.967 197.041V194.873H252.551C250.337 194.873 249.23 195.521 249.23 196.816C249.23 197.383 249.419 197.826 249.797 198.145C250.174 198.464 250.66 198.623 251.252 198.623ZM65.5781 246H63.6934V239.428H56.5254V246H54.6504V231.781H56.5254V237.895H63.6934V231.781H65.5781V246ZM68.1465 240.619C68.1465 239.584 68.3483 238.653 68.752 237.826C69.1621 236.999 69.7285 236.361 70.4512 235.912C71.1803 235.463 72.0104 235.238 72.9414 235.238C74.3802 235.238 75.5423 235.736 76.4277 236.732C77.3197 237.729 77.7656 239.053 77.7656 240.707V240.834C77.7656 241.863 77.5671 242.787 77.1699 243.607C76.7793 244.421 76.2161 245.056 75.4805 245.512C74.7513 245.967 73.9115 246.195 72.9609 246.195C71.5286 246.195 70.3665 245.697 69.4746 244.701C68.5892 243.705 68.1465 242.387 68.1465 240.746V240.619ZM69.9629 240.834C69.9629 242.006 70.2331 242.947 70.7734 243.656C71.3203 244.366 72.0495 244.721 72.9609 244.721C73.8789 244.721 74.6081 244.363 75.1484 243.646C75.6888 242.924 75.959 241.915 75.959 240.619C75.959 239.46 75.6823 238.523 75.1289 237.807C74.582 237.084 73.8529 236.723 72.9414 236.723C72.0495 236.723 71.3301 237.077 70.7832 237.787C70.2363 238.497 69.9629 239.512 69.9629 240.834ZM86.1152 243.607L89.709 235.434H91.9648V246H90.1582V238.314L86.7402 246H85.4902L82.0039 238.148V246H80.1973V235.434H82.541L86.1152 243.607ZM99.2598 246.195C97.8275 246.195 96.6621 245.727 95.7637 244.789C94.8652 243.845 94.416 242.585 94.416 241.01V240.678C94.416 239.63 94.6146 238.695 95.0117 237.875C95.4154 237.048 95.9753 236.404 96.6914 235.941C97.4141 235.473 98.1953 235.238 99.0352 235.238C100.409 235.238 101.477 235.691 102.238 236.596C103 237.501 103.381 238.796 103.381 240.482V241.234H96.2227C96.2487 242.276 96.5514 243.119 97.1309 243.764C97.7168 244.402 98.459 244.721 99.3574 244.721C99.9954 244.721 100.536 244.59 100.979 244.33C101.421 244.07 101.809 243.725 102.141 243.295L103.244 244.154C102.359 245.515 101.031 246.195 99.2598 246.195ZM99.0352 236.723C98.306 236.723 97.694 236.99 97.1992 237.523C96.7044 238.051 96.3984 238.793 96.2812 239.75H101.574V239.613C101.522 238.695 101.275 237.986 100.832 237.484C100.389 236.977 99.7904 236.723 99.0352 236.723ZM114.406 240.834C114.406 242.442 114.038 243.738 113.303 244.721C112.567 245.704 111.571 246.195 110.314 246.195C109.032 246.195 108.023 245.788 107.287 244.975V250.062H105.48V235.434H107.131L107.219 236.605C107.954 235.694 108.977 235.238 110.285 235.238C111.555 235.238 112.557 235.717 113.293 236.674C114.035 237.631 114.406 238.962 114.406 240.668V240.834ZM112.6 240.629C112.6 239.438 112.346 238.497 111.838 237.807C111.33 237.117 110.633 236.771 109.748 236.771C108.654 236.771 107.834 237.257 107.287 238.227V243.275C107.827 244.239 108.654 244.721 109.768 244.721C110.633 244.721 111.32 244.379 111.828 243.695C112.342 243.005 112.6 241.983 112.6 240.629ZM123.234 246C123.13 245.792 123.046 245.421 122.98 244.887C122.141 245.759 121.138 246.195 119.973 246.195C118.931 246.195 118.075 245.902 117.404 245.316C116.74 244.724 116.408 243.975 116.408 243.07C116.408 241.97 116.825 241.117 117.658 240.512C118.498 239.9 119.676 239.594 121.193 239.594H122.951V238.764C122.951 238.132 122.762 237.631 122.385 237.26C122.007 236.882 121.451 236.693 120.715 236.693C120.07 236.693 119.53 236.856 119.094 237.182C118.658 237.507 118.439 237.901 118.439 238.363H116.623C116.623 237.836 116.809 237.328 117.18 236.84C117.557 236.345 118.065 235.954 118.703 235.668C119.348 235.382 120.054 235.238 120.822 235.238C122.04 235.238 122.993 235.544 123.684 236.156C124.374 236.762 124.732 237.598 124.758 238.666V243.529C124.758 244.499 124.882 245.271 125.129 245.844V246H123.234ZM120.236 244.623C120.803 244.623 121.34 244.477 121.848 244.184C122.355 243.891 122.723 243.51 122.951 243.041V240.873H121.535C119.322 240.873 118.215 241.521 118.215 242.816C118.215 243.383 118.404 243.826 118.781 244.145C119.159 244.464 119.644 244.623 120.236 244.623ZM132.463 244.525L133.088 243.754C133.791 242.842 134.191 241.475 134.289 239.652L134.455 235.434H141.262V244.525H142.619V249.105H140.812V246H133.439V249.105H131.633L131.643 244.525H132.463ZM134.602 244.525H139.455V237.104H136.203L136.096 239.623C135.985 241.726 135.487 243.36 134.602 244.525ZM153.283 235.434V246H151.467V236.928H147.873L147.658 240.883C147.541 242.699 147.235 243.998 146.74 244.779C146.252 245.561 145.474 245.967 144.406 246H143.684V244.408L144.201 244.369C144.787 244.304 145.207 243.965 145.461 243.354C145.715 242.742 145.878 241.609 145.949 239.955L146.145 235.434H153.283ZM164.26 235.434V246H162.443V241.889H159.719L157.229 246H155.275L157.932 241.615C157.255 241.368 156.734 240.987 156.369 240.473C156.011 239.952 155.832 239.346 155.832 238.656C155.832 237.693 156.193 236.918 156.916 236.332C157.639 235.74 158.605 235.44 159.816 235.434H164.26ZM157.648 238.676C157.648 239.19 157.824 239.607 158.176 239.926C158.527 240.238 158.993 240.398 159.572 240.404H162.443V236.898H159.846C159.175 236.898 158.641 237.064 158.244 237.396C157.847 237.722 157.648 238.148 157.648 238.676ZM180.754 246H178.947V241.488H174.094V246H172.277V235.434H174.094V240.014H178.947V235.434H180.754V246ZM188.049 246.195C186.617 246.195 185.451 245.727 184.553 244.789C183.654 243.845 183.205 242.585 183.205 241.01V240.678C183.205 239.63 183.404 238.695 183.801 237.875C184.204 237.048 184.764 236.404 185.48 235.941C186.203 235.473 186.984 235.238 187.824 235.238C189.198 235.238 190.266 235.691 191.027 236.596C191.789 237.501 192.17 238.796 192.17 240.482V241.234H185.012C185.038 242.276 185.34 243.119 185.92 243.764C186.506 244.402 187.248 244.721 188.146 244.721C188.785 244.721 189.325 244.59 189.768 244.33C190.21 244.07 190.598 243.725 190.93 243.295L192.033 244.154C191.148 245.515 189.82 246.195 188.049 246.195ZM187.824 236.723C187.095 236.723 186.483 236.99 185.988 237.523C185.493 238.051 185.188 238.793 185.07 239.75H190.363V239.613C190.311 238.695 190.064 237.986 189.621 237.484C189.178 236.977 188.579 236.723 187.824 236.723ZM197.561 241.498H196.242V246H194.426V235.434H196.242V239.906H197.424L200.979 235.434H203.166L198.986 240.512L203.518 246H201.223L197.561 241.498ZM208.527 243.354L210.988 235.434H212.922L208.674 247.631C208.016 249.389 206.971 250.268 205.539 250.268L205.197 250.238L204.523 250.111V248.646L205.012 248.686C205.624 248.686 206.099 248.562 206.438 248.314C206.783 248.067 207.066 247.615 207.287 246.957L207.688 245.883L203.918 235.434H205.891L208.527 243.354ZM223.469 240.834C223.469 242.442 223.101 243.738 222.365 244.721C221.63 245.704 220.633 246.195 219.377 246.195C218.094 246.195 217.085 245.788 216.35 244.975V250.062H214.543V235.434H216.193L216.281 236.605C217.017 235.694 218.039 235.238 219.348 235.238C220.617 235.238 221.62 235.717 222.355 236.674C223.098 237.631 223.469 238.962 223.469 240.668V240.834ZM221.662 240.629C221.662 239.438 221.408 238.497 220.9 237.807C220.393 237.117 219.696 236.771 218.811 236.771C217.717 236.771 216.896 237.257 216.35 238.227V243.275C216.89 244.239 217.717 244.721 218.83 244.721C219.696 244.721 220.383 244.379 220.891 243.695C221.405 243.005 221.662 241.983 221.662 240.629ZM233.85 235.434V246H232.033V241.889H229.309L226.818 246H224.865L227.521 241.615C226.844 241.368 226.324 240.987 225.959 240.473C225.601 239.952 225.422 239.346 225.422 238.656C225.422 237.693 225.783 236.918 226.506 236.332C227.229 235.74 228.195 235.44 229.406 235.434H233.85ZM227.238 238.676C227.238 239.19 227.414 239.607 227.766 239.926C228.117 240.238 228.583 240.398 229.162 240.404H232.033V236.898H229.436C228.765 236.898 228.231 237.064 227.834 237.396C227.437 237.722 227.238 238.148 227.238 238.676ZM238.615 235.434V244.525H242.482V235.434H244.289V244.525H248.146V235.434H249.963V244.525H251.447L251.271 249.135H249.65V246H236.799V235.434H238.615ZM260.129 235.434H261.936V246H260.129V238.295L255.256 246H253.449V235.434H255.256V243.148L260.129 235.434ZM268.381 239.291L270.725 235.434H272.834L269.377 240.658L272.941 246H270.852L268.41 242.045L265.969 246H263.869L267.434 240.658L263.977 235.434H266.066L268.381 239.291ZM58.3418 285.613H56.6133V292H54.7383V277.781H56.6133V284.051H58.0781L63.0488 277.781H65.3828L59.9531 284.676L65.7832 292H63.4883L58.3418 285.613ZM66.4668 286.619C66.4668 285.584 66.6686 284.653 67.0723 283.826C67.4824 282.999 68.0488 282.361 68.7715 281.912C69.5007 281.463 70.3307 281.238 71.2617 281.238C72.7005 281.238 73.8626 281.736 74.748 282.732C75.64 283.729 76.0859 285.053 76.0859 286.707V286.834C76.0859 287.863 75.8874 288.787 75.4902 289.607C75.0996 290.421 74.5365 291.056 73.8008 291.512C73.0716 291.967 72.2318 292.195 71.2812 292.195C69.849 292.195 68.6868 291.697 67.7949 290.701C66.9095 289.705 66.4668 288.387 66.4668 286.746V286.619ZM68.2832 286.834C68.2832 288.006 68.5534 288.947 69.0938 289.656C69.6406 290.366 70.3698 290.721 71.2812 290.721C72.1992 290.721 72.9284 290.363 73.4688 289.646C74.0091 288.924 74.2793 287.915 74.2793 286.619C74.2793 285.46 74.0026 284.523 73.4492 283.807C72.9023 283.084 72.1732 282.723 71.2617 282.723C70.3698 282.723 69.6504 283.077 69.1035 283.787C68.5566 284.497 68.2832 285.512 68.2832 286.834ZM77.9609 286.912C77.9609 285.148 78.3027 283.761 78.9863 282.752C79.6699 281.743 80.6074 281.238 81.7988 281.238C82.3522 281.238 82.8372 281.333 83.2539 281.521V277H85.0605V281.58C85.5163 281.352 86.0501 281.238 86.6621 281.238C87.86 281.238 88.8008 281.743 89.4844 282.752C90.168 283.761 90.5098 285.216 90.5098 287.117C90.5098 288.673 90.168 289.91 89.4844 290.828C88.8073 291.746 87.873 292.205 86.6816 292.205C86.0501 292.205 85.5098 292.101 85.0605 291.893V296.062H83.2539V291.922C82.8242 292.111 82.3327 292.205 81.7793 292.205C80.5944 292.205 79.6602 291.746 78.9766 290.828C78.2995 289.91 77.9609 288.654 77.9609 287.059V286.912ZM88.7031 286.912C88.7031 285.584 88.4753 284.555 88.0195 283.826C87.5638 283.09 86.9355 282.723 86.1348 282.723C85.7246 282.723 85.3665 282.788 85.0605 282.918V290.564C85.3535 290.675 85.7181 290.73 86.1543 290.73C86.9616 290.73 87.5866 290.418 88.0293 289.793C88.4785 289.168 88.7031 288.208 88.7031 286.912ZM79.7676 287.117C79.7676 288.302 79.9792 289.201 80.4023 289.812C80.8255 290.424 81.4342 290.73 82.2285 290.73C82.6061 290.73 82.9479 290.672 83.2539 290.555V282.889C82.9805 282.778 82.6452 282.723 82.248 282.723C81.4538 282.723 80.8418 283.077 80.4121 283.787C79.9824 284.497 79.7676 285.607 79.7676 287.117ZM97.248 292.195C95.8158 292.195 94.6504 291.727 93.752 290.789C92.8535 289.845 92.4043 288.585 92.4043 287.01V286.678C92.4043 285.63 92.6029 284.695 93 283.875C93.4036 283.048 93.9635 282.404 94.6797 281.941C95.4023 281.473 96.1836 281.238 97.0234 281.238C98.3971 281.238 99.4648 281.691 100.227 282.596C100.988 283.501 101.369 284.796 101.369 286.482V287.234H94.2109C94.237 288.276 94.5397 289.119 95.1191 289.764C95.7051 290.402 96.4473 290.721 97.3457 290.721C97.9837 290.721 98.5241 290.59 98.9668 290.33C99.4095 290.07 99.7969 289.725 100.129 289.295L101.232 290.154C100.347 291.515 99.0189 292.195 97.248 292.195ZM97.0234 282.723C96.2943 282.723 95.6823 282.99 95.1875 283.523C94.6927 284.051 94.3867 284.793 94.2695 285.75H99.5625V285.613C99.5104 284.695 99.263 283.986 98.8203 283.484C98.3776 282.977 97.7786 282.723 97.0234 282.723ZM103.635 292V281.434H107.756C109.162 281.434 110.24 281.681 110.988 282.176C111.743 282.664 112.121 283.383 112.121 284.334C112.121 284.822 111.975 285.265 111.682 285.662C111.389 286.053 110.956 286.352 110.383 286.561C111.021 286.71 111.532 287.003 111.916 287.439C112.307 287.876 112.502 288.396 112.502 289.002C112.502 289.972 112.144 290.714 111.428 291.229C110.718 291.743 109.712 292 108.41 292H103.635ZM105.441 287.361V290.545H108.43C109.185 290.545 109.748 290.405 110.119 290.125C110.497 289.845 110.686 289.451 110.686 288.943C110.686 287.889 109.911 287.361 108.361 287.361H105.441ZM105.441 285.916H107.775C109.468 285.916 110.314 285.421 110.314 284.432C110.314 283.442 109.514 282.931 107.912 282.898H105.441V285.916ZM121.418 292C121.314 291.792 121.229 291.421 121.164 290.887C120.324 291.759 119.322 292.195 118.156 292.195C117.115 292.195 116.258 291.902 115.588 291.316C114.924 290.724 114.592 289.975 114.592 289.07C114.592 287.97 115.008 287.117 115.842 286.512C116.682 285.9 117.86 285.594 119.377 285.594H121.135V284.764C121.135 284.132 120.946 283.631 120.568 283.26C120.191 282.882 119.634 282.693 118.898 282.693C118.254 282.693 117.714 282.856 117.277 283.182C116.841 283.507 116.623 283.901 116.623 284.363H114.807C114.807 283.836 114.992 283.328 115.363 282.84C115.741 282.345 116.249 281.954 116.887 281.668C117.531 281.382 118.238 281.238 119.006 281.238C120.223 281.238 121.177 281.544 121.867 282.156C122.557 282.762 122.915 283.598 122.941 284.666V289.529C122.941 290.499 123.065 291.271 123.312 291.844V292H121.418ZM118.42 290.623C118.986 290.623 119.523 290.477 120.031 290.184C120.539 289.891 120.907 289.51 121.135 289.041V286.873H119.719C117.505 286.873 116.398 287.521 116.398 288.816C116.398 289.383 116.587 289.826 116.965 290.145C117.342 290.464 117.827 290.623 118.42 290.623ZM134.699 286.834C134.699 288.442 134.331 289.738 133.596 290.721C132.86 291.704 131.864 292.195 130.607 292.195C129.325 292.195 128.316 291.788 127.58 290.975V296.062H125.773V281.434H127.424L127.512 282.605C128.247 281.694 129.27 281.238 130.578 281.238C131.848 281.238 132.85 281.717 133.586 282.674C134.328 283.631 134.699 284.962 134.699 286.668V286.834ZM132.893 286.629C132.893 285.438 132.639 284.497 132.131 283.807C131.623 283.117 130.926 282.771 130.041 282.771C128.947 282.771 128.127 283.257 127.58 284.227V289.275C128.12 290.239 128.947 290.721 130.061 290.721C130.926 290.721 131.613 290.379 132.121 289.695C132.635 289.005 132.893 287.983 132.893 286.629ZM140.295 287.498H138.977V292H137.16V281.434H138.977V285.906H140.158L143.713 281.434H145.9L141.721 286.512L146.252 292H143.957L140.295 287.498ZM154.328 292C154.224 291.792 154.139 291.421 154.074 290.887C153.234 291.759 152.232 292.195 151.066 292.195C150.025 292.195 149.169 291.902 148.498 291.316C147.834 290.724 147.502 289.975 147.502 289.07C147.502 287.97 147.919 287.117 148.752 286.512C149.592 285.9 150.77 285.594 152.287 285.594H154.045V284.764C154.045 284.132 153.856 283.631 153.479 283.26C153.101 282.882 152.544 282.693 151.809 282.693C151.164 282.693 150.624 282.856 150.188 283.182C149.751 283.507 149.533 283.901 149.533 284.363H147.717C147.717 283.836 147.902 283.328 148.273 282.84C148.651 282.345 149.159 281.954 149.797 281.668C150.441 281.382 151.148 281.238 151.916 281.238C153.133 281.238 154.087 281.544 154.777 282.156C155.467 282.762 155.826 283.598 155.852 284.666V289.529C155.852 290.499 155.975 291.271 156.223 291.844V292H154.328ZM151.33 290.623C151.896 290.623 152.434 290.477 152.941 290.184C153.449 289.891 153.817 289.51 154.045 289.041V286.873H152.629C150.415 286.873 149.309 287.521 149.309 288.816C149.309 289.383 149.497 289.826 149.875 290.145C150.253 290.464 150.738 290.623 151.33 290.623ZM159.045 293.221H157.492L163.43 277.781H164.973L159.045 293.221ZM174.904 292H173.088V288.172C172.294 288.38 171.48 288.484 170.646 288.484C169.325 288.484 168.316 288.146 167.619 287.469C166.929 286.792 166.577 285.828 166.564 284.578V281.424H168.371V284.637C168.404 286.212 169.162 287 170.646 287C171.48 287 172.294 286.896 173.088 286.688V281.434H174.904V292ZM184.328 292C184.224 291.792 184.139 291.421 184.074 290.887C183.234 291.759 182.232 292.195 181.066 292.195C180.025 292.195 179.169 291.902 178.498 291.316C177.834 290.724 177.502 289.975 177.502 289.07C177.502 287.97 177.919 287.117 178.752 286.512C179.592 285.9 180.77 285.594 182.287 285.594H184.045V284.764C184.045 284.132 183.856 283.631 183.479 283.26C183.101 282.882 182.544 282.693 181.809 282.693C181.164 282.693 180.624 282.856 180.188 283.182C179.751 283.507 179.533 283.901 179.533 284.363H177.717C177.717 283.836 177.902 283.328 178.273 282.84C178.651 282.345 179.159 281.954 179.797 281.668C180.441 281.382 181.148 281.238 181.916 281.238C183.133 281.238 184.087 281.544 184.777 282.156C185.467 282.762 185.826 283.598 185.852 284.666V289.529C185.852 290.499 185.975 291.271 186.223 291.844V292H184.328ZM181.33 290.623C181.896 290.623 182.434 290.477 182.941 290.184C183.449 289.891 183.817 289.51 184.045 289.041V286.873H182.629C180.415 286.873 179.309 287.521 179.309 288.816C179.309 289.383 179.497 289.826 179.875 290.145C180.253 290.464 180.738 290.623 181.33 290.623ZM195.52 281.434H197.326V292H195.52V284.295L190.646 292H188.84V281.434H190.646V289.148L195.52 281.434ZM196.008 277.586C196.008 278.374 195.738 279.008 195.197 279.49C194.663 279.965 193.96 280.203 193.088 280.203C192.215 280.203 191.509 279.962 190.969 279.48C190.428 278.999 190.158 278.367 190.158 277.586H191.633C191.633 278.042 191.757 278.4 192.004 278.66C192.251 278.914 192.613 279.041 193.088 279.041C193.544 279.041 193.898 278.914 194.152 278.66C194.413 278.406 194.543 278.048 194.543 277.586H196.008ZM208.859 292H207.053V287.488H202.199V292H200.383V281.434H202.199V286.014H207.053V281.434H208.859V292ZM218.605 281.434H220.412V292H218.605V284.295L213.732 292H211.926V281.434H213.732V289.148L218.605 281.434ZM226.604 287.498H225.285V292H223.469V281.434H225.285V285.906H226.467L230.021 281.434H232.209L228.029 286.512L232.561 292H230.266L226.604 287.498ZM239.24 292V281.434H243.361C244.768 281.434 245.845 281.681 246.594 282.176C247.349 282.664 247.727 283.383 247.727 284.334C247.727 284.822 247.58 285.265 247.287 285.662C246.994 286.053 246.561 286.352 245.988 286.561C246.626 286.71 247.137 287.003 247.521 287.439C247.912 287.876 248.107 288.396 248.107 289.002C248.107 289.972 247.749 290.714 247.033 291.229C246.324 291.743 245.318 292 244.016 292H239.24ZM241.047 287.361V290.545H244.035C244.79 290.545 245.354 290.405 245.725 290.125C246.102 289.845 246.291 289.451 246.291 288.943C246.291 287.889 245.516 287.361 243.967 287.361H241.047ZM241.047 285.916H243.381C245.074 285.916 245.92 285.421 245.92 284.432C245.92 283.442 245.119 282.931 243.518 282.898H241.047V285.916ZM250.021 286.619C250.021 285.584 250.223 284.653 250.627 283.826C251.037 282.999 251.604 282.361 252.326 281.912C253.055 281.463 253.885 281.238 254.816 281.238C256.255 281.238 257.417 281.736 258.303 282.732C259.195 283.729 259.641 285.053 259.641 286.707V286.834C259.641 287.863 259.442 288.787 259.045 289.607C258.654 290.421 258.091 291.056 257.355 291.512C256.626 291.967 255.786 292.195 254.836 292.195C253.404 292.195 252.242 291.697 251.35 290.701C250.464 289.705 250.021 288.387 250.021 286.746V286.619ZM251.838 286.834C251.838 288.006 252.108 288.947 252.648 289.656C253.195 290.366 253.924 290.721 254.836 290.721C255.754 290.721 256.483 290.363 257.023 289.646C257.564 288.924 257.834 287.915 257.834 286.619C257.834 285.46 257.557 284.523 257.004 283.807C256.457 283.084 255.728 282.723 254.816 282.723C253.924 282.723 253.205 283.077 252.658 283.787C252.111 284.497 251.838 285.512 251.838 286.834ZM267.033 292V281.434H271.154C272.561 281.434 273.638 281.681 274.387 282.176C275.142 282.664 275.52 283.383 275.52 284.334C275.52 284.822 275.373 285.265 275.08 285.662C274.787 286.053 274.354 286.352 273.781 286.561C274.419 286.71 274.93 287.003 275.314 287.439C275.705 287.876 275.9 288.396 275.9 289.002C275.9 289.972 275.542 290.714 274.826 291.229C274.117 291.743 273.111 292 271.809 292H267.033ZM268.84 287.361V290.545H271.828C272.583 290.545 273.146 290.405 273.518 290.125C273.895 289.845 274.084 289.451 274.084 288.943C274.084 287.889 273.309 287.361 271.76 287.361H268.84ZM268.84 285.916H271.174C272.867 285.916 273.713 285.421 273.713 284.432C273.713 283.442 272.912 282.931 271.311 282.898H268.84V285.916ZM282.531 290.721C283.176 290.721 283.739 290.525 284.221 290.135C284.702 289.744 284.969 289.256 285.021 288.67H286.73C286.698 289.275 286.49 289.852 286.105 290.398C285.721 290.945 285.207 291.382 284.562 291.707C283.924 292.033 283.247 292.195 282.531 292.195C281.092 292.195 279.947 291.717 279.094 290.76C278.247 289.796 277.824 288.481 277.824 286.814V286.512C277.824 285.483 278.013 284.568 278.391 283.768C278.768 282.967 279.309 282.345 280.012 281.902C280.721 281.46 281.558 281.238 282.521 281.238C283.706 281.238 284.689 281.593 285.471 282.303C286.258 283.012 286.678 283.934 286.73 285.066H285.021C284.969 284.383 284.709 283.823 284.24 283.387C283.778 282.944 283.205 282.723 282.521 282.723C281.604 282.723 280.891 283.055 280.383 283.719C279.882 284.376 279.631 285.33 279.631 286.58V286.922C279.631 288.139 279.882 289.077 280.383 289.734C280.884 290.392 281.6 290.721 282.531 290.721ZM293.146 292.195C291.714 292.195 290.549 291.727 289.65 290.789C288.752 289.845 288.303 288.585 288.303 287.01V286.678C288.303 285.63 288.501 284.695 288.898 283.875C289.302 283.048 289.862 282.404 290.578 281.941C291.301 281.473 292.082 281.238 292.922 281.238C294.296 281.238 295.363 281.691 296.125 282.596C296.887 283.501 297.268 284.796 297.268 286.482V287.234H290.109C290.135 288.276 290.438 289.119 291.018 289.764C291.604 290.402 292.346 290.721 293.244 290.721C293.882 290.721 294.423 290.59 294.865 290.33C295.308 290.07 295.695 289.725 296.027 289.295L297.131 290.154C296.245 291.515 294.917 292.195 293.146 292.195ZM292.922 282.723C292.193 282.723 291.581 282.99 291.086 283.523C290.591 284.051 290.285 284.793 290.168 285.75H295.461V285.613C295.409 284.695 295.161 283.986 294.719 283.484C294.276 282.977 293.677 282.723 292.922 282.723ZM302.912 285.291L305.256 281.434H307.365L303.908 286.658L307.473 292H305.383L302.941 288.045L300.5 292H298.4L301.965 286.658L298.508 281.434H300.598L302.912 285.291ZM322.883 292H321.076V287.488H316.223V292H314.406V281.434H316.223V286.014H321.076V281.434H322.883V292ZM325.314 286.619C325.314 285.584 325.516 284.653 325.92 283.826C326.33 282.999 326.896 282.361 327.619 281.912C328.348 281.463 329.178 281.238 330.109 281.238C331.548 281.238 332.71 281.736 333.596 282.732C334.488 283.729 334.934 285.053 334.934 286.707V286.834C334.934 287.863 334.735 288.787 334.338 289.607C333.947 290.421 333.384 291.056 332.648 291.512C331.919 291.967 331.079 292.195 330.129 292.195C328.697 292.195 327.535 291.697 326.643 290.701C325.757 289.705 325.314 288.387 325.314 286.746V286.619ZM327.131 286.834C327.131 288.006 327.401 288.947 327.941 289.656C328.488 290.366 329.217 290.721 330.129 290.721C331.047 290.721 331.776 290.363 332.316 289.646C332.857 288.924 333.127 287.915 333.127 286.619C333.127 285.46 332.85 284.523 332.297 283.807C331.75 283.084 331.021 282.723 330.109 282.723C329.217 282.723 328.498 283.077 327.951 283.787C327.404 284.497 327.131 285.512 327.131 286.834ZM343.283 289.607L346.877 281.434H349.133V292H347.326V284.314L343.908 292H342.658L339.172 284.148V292H337.365V281.434H339.709L343.283 289.607ZM356.428 292.195C354.995 292.195 353.83 291.727 352.932 290.789C352.033 289.845 351.584 288.585 351.584 287.01V286.678C351.584 285.63 351.783 284.695 352.18 283.875C352.583 283.048 353.143 282.404 353.859 281.941C354.582 281.473 355.363 281.238 356.203 281.238C357.577 281.238 358.645 281.691 359.406 282.596C360.168 283.501 360.549 284.796 360.549 286.482V287.234H353.391C353.417 288.276 353.719 289.119 354.299 289.764C354.885 290.402 355.627 290.721 356.525 290.721C357.163 290.721 357.704 290.59 358.146 290.33C358.589 290.07 358.977 289.725 359.309 289.295L360.412 290.154C359.527 291.515 358.199 292.195 356.428 292.195ZM356.203 282.723C355.474 282.723 354.862 282.99 354.367 283.523C353.872 284.051 353.566 284.793 353.449 285.75H358.742V285.613C358.69 284.695 358.443 283.986 358 283.484C357.557 282.977 356.958 282.723 356.203 282.723ZM371.574 286.834C371.574 288.442 371.206 289.738 370.471 290.721C369.735 291.704 368.739 292.195 367.482 292.195C366.2 292.195 365.191 291.788 364.455 290.975V296.062H362.648V281.434H364.299L364.387 282.605C365.122 281.694 366.145 281.238 367.453 281.238C368.723 281.238 369.725 281.717 370.461 282.674C371.203 283.631 371.574 284.962 371.574 286.668V286.834ZM369.768 286.629C369.768 285.438 369.514 284.497 369.006 283.807C368.498 283.117 367.801 282.771 366.916 282.771C365.822 282.771 365.002 283.257 364.455 284.227V289.275C364.995 290.239 365.822 290.721 366.936 290.721C367.801 290.721 368.488 290.379 368.996 289.695C369.51 289.005 369.768 287.983 369.768 286.629ZM380.402 292C380.298 291.792 380.214 291.421 380.148 290.887C379.309 291.759 378.306 292.195 377.141 292.195C376.099 292.195 375.243 291.902 374.572 291.316C373.908 290.724 373.576 289.975 373.576 289.07C373.576 287.97 373.993 287.117 374.826 286.512C375.666 285.9 376.844 285.594 378.361 285.594H380.119V284.764C380.119 284.132 379.93 283.631 379.553 283.26C379.175 282.882 378.618 282.693 377.883 282.693C377.238 282.693 376.698 282.856 376.262 283.182C375.826 283.507 375.607 283.901 375.607 284.363H373.791C373.791 283.836 373.977 283.328 374.348 282.84C374.725 282.345 375.233 281.954 375.871 281.668C376.516 281.382 377.222 281.238 377.99 281.238C379.208 281.238 380.161 281.544 380.852 282.156C381.542 282.762 381.9 283.598 381.926 284.666V289.529C381.926 290.499 382.049 291.271 382.297 291.844V292H380.402ZM377.404 290.623C377.971 290.623 378.508 290.477 379.016 290.184C379.523 289.891 379.891 289.51 380.119 289.041V286.873H378.703C376.49 286.873 375.383 287.521 375.383 288.816C375.383 289.383 375.572 289.826 375.949 290.145C376.327 290.464 376.812 290.623 377.404 290.623ZM388.303 285.291L390.646 281.434H392.756L389.299 286.658L392.863 292H390.773L388.332 288.045L385.891 292H383.791L387.355 286.658L383.898 281.434H385.988L388.303 285.291ZM63.3223 325.324H56.4668V329.582H60.002C61.4863 329.602 62.6452 329.982 63.4785 330.725C64.3118 331.467 64.7285 332.476 64.7285 333.752C64.7285 335.035 64.3086 336.057 63.4688 336.818C62.6289 337.58 61.4831 337.974 60.0312 338H54.582V323.781H63.3223V325.324ZM56.4668 331.125V336.467H59.8945C60.8255 336.467 61.5482 336.219 62.0625 335.725C62.5833 335.23 62.8438 334.566 62.8438 333.732C62.8438 332.932 62.5931 332.3 62.0918 331.838C61.597 331.376 60.8906 331.138 59.9727 331.125H56.4668ZM73.5078 338C73.4036 337.792 73.319 337.421 73.2539 336.887C72.4141 337.759 71.4115 338.195 70.2461 338.195C69.2044 338.195 68.3483 337.902 67.6777 337.316C67.0137 336.724 66.6816 335.975 66.6816 335.07C66.6816 333.97 67.0983 333.117 67.9316 332.512C68.7715 331.9 69.9499 331.594 71.4668 331.594H73.2246V330.764C73.2246 330.132 73.0358 329.631 72.6582 329.26C72.2806 328.882 71.724 328.693 70.9883 328.693C70.3438 328.693 69.8034 328.856 69.3672 329.182C68.931 329.507 68.7129 329.901 68.7129 330.363H66.8965C66.8965 329.836 67.082 329.328 67.4531 328.84C67.8307 328.345 68.3385 327.954 68.9766 327.668C69.6211 327.382 70.3275 327.238 71.0957 327.238C72.3132 327.238 73.2669 327.544 73.957 328.156C74.6471 328.762 75.0052 329.598 75.0312 330.666V335.529C75.0312 336.499 75.1549 337.271 75.4023 337.844V338H73.5078ZM70.5098 336.623C71.0762 336.623 71.6133 336.477 72.1211 336.184C72.6289 335.891 72.9967 335.51 73.2246 335.041V332.873H71.8086C69.5951 332.873 68.4883 333.521 68.4883 334.816C68.4883 335.383 68.6771 335.826 69.0547 336.145C69.4323 336.464 69.9173 336.623 70.5098 336.623ZM86.7891 332.834C86.7891 334.442 86.4212 335.738 85.6855 336.721C84.9499 337.704 83.9538 338.195 82.6973 338.195C81.4147 338.195 80.4056 337.788 79.6699 336.975V342.062H77.8633V327.434H79.5137L79.6016 328.605C80.3372 327.694 81.3594 327.238 82.668 327.238C83.9375 327.238 84.9401 327.717 85.6758 328.674C86.418 329.631 86.7891 330.962 86.7891 332.668V332.834ZM84.9824 332.629C84.9824 331.438 84.7285 330.497 84.2207 329.807C83.7129 329.117 83.0163 328.771 82.1309 328.771C81.0371 328.771 80.2168 329.257 79.6699 330.227V335.275C80.2103 336.239 81.0371 336.721 82.1504 336.721C83.0163 336.721 83.7031 336.379 84.2109 335.695C84.7253 335.005 84.9824 333.983 84.9824 332.629Z" fill="black"/>
<defs>
<filter id="filter0_d" x="0" y="0" width="550" height="402" filterUnits="userSpaceOnUse" color-interpolation-filters="sRGB">
<feFlood flood-opacity="0" result="BackgroundImageFix"/>
<feColorMatrix in="SourceAlpha" type="matrix" values="0 0 0 0 0 0 0 0 0 0 0 0 0 0 0 0 0 0 127 0"/>
<feMorphology radius="1" operator="dilate" in="SourceAlpha" result="effect1_dropShadow"/>
<feOffset dx="1" dy="3"/>
<feGaussianBlur stdDeviation="1.5"/>
<feColorMatrix type="matrix" values="0 0 0 0 0 0 0 0 0 0 0 0 0 0 0 0 0 0 0.1 0"/>
<feBlend mode="normal" in2="BackgroundImageFix" result="effect1_dropShadow"/>
<feBlend mode="normal" in="SourceGraphic" in2="effect1_dropShadow" result="shape"/>
</filter>
<filter id="filter1_i" x="39.0273" y="33.7031" width="122.531" height="25.4922" filterUnits="userSpaceOnUse" color-interpolation-filters="sRGB">
<feFlood flood-opacity="0" result="BackgroundImageFix"/>
<feBlend mode="normal" in="SourceGraphic" in2="BackgroundImageFix" result="shape"/>
<feColorMatrix in="SourceAlpha" type="matrix" values="0 0 0 0 0 0 0 0 0 0 0 0 0 0 0 0 0 0 127 0" result="hardAlpha"/>
<feOffset dy="4"/>
<feGaussianBlur stdDeviation="2"/>
<feComposite in2="hardAlpha" operator="arithmetic" k2="-1" k3="1"/>
<feColorMatrix type="matrix" values="0 0 0 0 0 0 0 0 0 0 0 0 0 0 0 0 0 0 0.25 0"/>
<feBlend mode="normal" in2="shape" result="effect1_innerShadow"/>
</filter>
</defs>
</svg>
