<svg width="328" height="370" viewBox="0 0 328 370" fill="none" xmlns="http://www.w3.org/2000/svg">
<path d="M39.6067 113.445L19.9072 124.7L26.8968 136.935L37.0553 131.131C41.3528 128.75 45.308 127.942 48.921 128.707C52.534 129.472 55.3879 131.687 57.4827 135.354C59.5881 139.04 60.0594 142.667 58.8965 146.234C57.7336 149.802 55.0876 152.815 50.9584 155.274L35.2998 164.22L11.9583 123.36L37.0738 109.011L39.6067 113.445ZM29.4298 141.369L38.1989 156.72L48.0487 151.092C50.7239 149.564 52.3944 147.666 53.06 145.4C53.7444 143.123 53.4026 140.787 52.0346 138.392C50.7201 136.091 48.9631 134.688 46.7638 134.183C44.5832 133.667 42.1632 134.144 39.504 135.613L29.4298 141.369ZM88.2224 119.839L71.1046 129.619L73.3519 142.479L67.7957 145.654L60.0566 95.8796L64.771 93.186L103.743 125.115L98.2149 128.274L88.2224 119.839ZM70.1992 124.255L84.0899 116.318L66.2132 101.184L70.1992 124.255ZM105.493 102.899L114.631 118.895L109.243 121.973L85.9017 81.1132L100.971 72.5034C105.442 69.9488 109.593 69.0913 113.422 69.9308C117.27 70.7596 120.268 73.0542 122.417 76.8146C124.682 80.7809 125.186 84.5506 123.927 88.1236C122.676 91.6673 119.74 94.7592 115.119 97.3993L105.493 102.899ZM102.976 98.4928L112.658 92.9614C115.539 91.3153 117.362 89.3806 118.126 87.1571C118.88 84.9149 118.525 82.5122 117.061 79.9491C115.671 77.517 113.793 76.0095 111.425 75.4267C109.057 74.8439 106.52 75.2887 103.813 76.761L93.8226 82.4688L102.976 98.4928ZM137.321 73.8453L147.479 68.0414C151.777 65.6605 155.732 64.8523 159.345 65.617C162.958 66.3816 165.812 68.5974 167.907 72.2643C170.012 75.9499 170.484 79.5766 169.321 83.1443C168.158 86.7121 165.512 89.7252 161.383 92.1836L145.752 101.114L122.41 60.2542L127.798 57.1759L137.321 73.8453ZM139.854 78.2793L148.623 93.6297L158.473 88.0022C161.148 86.4737 162.818 84.5763 163.484 82.31C164.169 80.0331 163.827 77.6972 162.459 75.3025C161.144 73.0014 159.387 71.5981 157.188 71.0929C155.007 70.5769 152.587 71.0537 149.928 72.5234L139.854 78.2793ZM185.207 78.5716L179.819 81.6499L156.478 40.7901L161.866 37.7118L185.207 78.5716Z" fill="black"/>
<path d="M70.6067 197.445L50.9072 208.7L57.8968 220.935L68.0553 215.131C72.3528 212.75 76.308 211.942 79.921 212.707C83.534 213.472 86.3879 215.687 88.4827 219.354C90.5881 223.04 91.0594 226.667 89.8965 230.234C88.7336 233.802 86.0876 236.815 81.9584 239.274L66.2998 248.22L42.9583 207.36L68.0738 193.011L70.6067 197.445ZM60.4298 225.369L69.1989 240.72L79.0487 235.092C81.7239 233.564 83.3944 231.666 84.06 229.4C84.7444 227.123 84.4026 224.787 83.0346 222.392C81.7201 220.091 79.9631 218.688 77.7638 218.183C75.5832 217.667 73.1632 218.144 70.504 219.613L60.4298 225.369ZM119.222 203.839L102.105 213.619L104.352 226.479L98.7957 229.654L91.0566 179.88L95.771 177.186L134.743 209.115L129.215 212.274L119.222 203.839ZM101.199 208.255L115.09 200.318L97.2132 185.184L101.199 208.255ZM136.493 186.899L145.631 202.895L140.243 205.973L116.902 165.113L131.971 156.503C136.442 153.949 140.593 153.091 144.422 153.931C148.27 154.76 151.268 157.054 153.417 160.815C155.682 164.781 156.186 168.551 154.927 172.124C153.676 175.667 150.74 178.759 146.119 181.399L136.493 186.899ZM133.976 182.493L143.658 176.961C146.539 175.315 148.362 173.381 149.126 171.157C149.88 168.915 149.525 166.512 148.061 163.949C146.671 161.517 144.793 160.01 142.425 159.427C140.057 158.844 137.52 159.289 134.813 160.761L124.823 166.469L133.976 182.493ZM168.321 157.845L178.479 152.041C182.777 149.66 186.732 148.852 190.345 149.617C193.958 150.382 196.812 152.597 198.907 156.264C201.012 159.95 201.484 163.577 200.321 167.144C199.158 170.712 196.512 173.725 192.383 176.184L176.752 185.114L153.41 144.254L158.798 141.176L168.321 157.845ZM170.854 162.279L179.623 177.63L189.473 172.002C192.148 170.474 193.818 168.576 194.484 166.31C195.169 164.033 194.827 161.697 193.459 159.303C192.144 157.001 190.387 155.598 188.188 155.093C186.007 154.577 183.587 155.054 180.928 156.523L170.854 162.279ZM216.207 162.572L210.819 165.65L187.478 124.79L192.866 121.712L216.207 162.572Z" fill="black"/>
</svg>
