<svg width="485" height="563" viewBox="0 0 485 563" fill="none" xmlns="http://www.w3.org/2000/svg">
<rect x="324" y="7" width="145" height="341" fill="#7900B1"/>
<path d="M38.7044 392.626L54.6746 430.781L69.4688 392.154L77.5153 392.031L78.236 439.082L72.0315 439.177L71.7508 420.855L72.0295 401.069L57.1663 439.405L52.416 439.478L36.4194 401.711L37.3348 421.382L37.6155 439.705L31.4109 439.8L30.6902 392.748L38.7044 392.626ZM125.047 416.353C125.118 420.964 124.404 425.004 122.906 428.475C121.407 431.924 119.25 434.575 116.434 436.429C113.618 438.282 110.314 439.238 106.522 439.296C102.816 439.352 99.5172 438.498 96.6242 436.732C93.7308 434.945 91.4613 432.383 89.8156 429.047C88.1911 425.688 87.3233 421.79 87.2122 417.353L87.1603 413.96C87.091 409.436 87.8161 405.427 89.3356 401.935C90.8552 398.442 93.0336 395.758 95.8709 393.883C98.7293 391.986 102.011 391.009 105.717 390.953C109.487 390.895 112.819 391.76 115.712 393.547C118.627 395.312 120.886 397.918 122.49 401.362C124.094 404.786 124.931 408.792 125.002 413.38L125.047 416.353ZM118.828 413.41C118.743 407.831 117.557 403.571 115.271 400.633C112.985 397.672 109.827 396.223 105.799 396.285C101.878 396.345 98.809 397.889 96.5928 400.919C94.3978 403.926 93.3085 408.08 93.3251 413.381L93.3781 416.839C93.4609 422.246 94.6571 426.484 96.9667 429.551C99.2975 432.597 102.456 434.089 106.441 434.028C110.448 433.967 113.528 432.465 115.681 429.523C117.834 426.559 118.901 422.352 118.882 416.9L118.828 413.41ZM140.614 419.703L140.896 438.123L134.691 438.218L133.97 391.166L151.324 390.901C156.473 390.822 160.522 392.074 163.47 394.658C166.44 397.241 167.959 400.698 168.025 405.029C168.095 409.596 166.716 413.14 163.889 415.662C161.083 418.161 157.019 419.452 151.698 419.533L140.614 419.703ZM140.536 414.629L151.685 414.459C155.002 414.408 157.533 413.593 159.276 412.015C161.018 410.415 161.867 408.14 161.821 405.188C161.779 402.387 160.861 400.16 159.069 398.507C157.276 396.854 154.839 396.018 151.758 396.001L140.253 396.177L140.536 414.629ZM212.299 415.017C212.37 419.627 211.656 423.668 210.157 427.139C208.659 430.588 206.501 433.239 203.685 435.092C200.869 436.945 197.565 437.901 193.774 437.959C190.068 438.016 186.769 437.161 183.876 435.396C180.983 433.608 178.713 431.046 177.067 427.71C175.443 424.352 174.575 420.454 174.464 416.017L174.412 412.624C174.343 408.099 175.068 404.091 176.587 400.598C178.107 397.106 180.285 394.422 183.123 392.547C185.981 390.65 189.263 389.673 192.969 389.616C196.739 389.558 200.071 390.423 202.964 392.211C205.878 393.976 208.138 396.581 209.742 400.026C211.346 403.449 212.183 407.455 212.254 412.044L212.299 415.017ZM206.08 412.074C205.995 406.494 204.809 402.235 202.523 399.296C200.237 396.336 197.079 394.887 193.05 394.948C189.129 395.008 186.061 396.553 183.845 399.582C181.65 402.59 180.56 406.744 180.577 412.044L180.63 415.502C180.713 420.91 181.909 425.147 184.219 428.215C186.549 431.26 189.708 432.753 193.693 432.692C197.7 432.63 200.78 431.129 202.933 428.187C205.086 425.223 206.153 421.015 206.134 415.564L206.08 412.074ZM253.962 414.928L248.921 415.005L249.25 436.463L243.045 436.558L242.716 415.101L237.384 415.182L224.399 436.844L216.643 436.962L232.098 411.902L217.151 389.892L224.486 389.78L237.305 410.012L242.637 409.93L242.324 389.507L248.529 389.412L248.842 409.835L253.948 409.757L266.141 389.142L273.444 389.03L259.178 411.454L275.393 436.063L267.669 436.181L253.962 414.928ZM307.601 413.816L287.21 414.128L287.466 430.803L311.153 430.44L311.231 435.514L281.339 435.971L280.618 388.92L310.187 388.467L310.265 393.573L286.901 393.931L287.133 409.055L307.524 408.742L307.601 413.816ZM355.115 434.841L348.878 434.937L348.545 413.189L324.826 413.552L325.159 435.3L318.954 435.395L318.233 388.344L324.438 388.249L324.748 408.478L348.467 408.115L348.158 387.886L354.394 387.79L355.115 434.841ZM401.991 412.111C402.062 416.722 401.348 420.762 399.849 424.233C398.351 427.682 396.193 430.333 393.377 432.187C390.561 434.04 387.257 434.996 383.466 435.054C379.76 435.11 376.461 434.256 373.568 432.49C370.675 430.703 368.405 428.141 366.759 424.804C365.135 421.446 364.267 417.548 364.156 413.111L364.104 409.718C364.035 405.194 364.76 401.185 366.279 397.693C367.799 394.2 369.977 391.516 372.815 389.641C375.673 387.744 378.955 386.767 382.661 386.711C386.431 386.653 389.762 387.518 392.656 389.305C395.57 391.07 397.83 393.676 399.434 397.12C401.038 400.544 401.875 404.55 401.945 409.138L401.991 412.111ZM395.772 409.168C395.687 403.588 394.501 399.329 392.215 396.39C389.928 393.43 386.771 391.981 382.742 392.043C378.821 392.103 375.753 393.647 373.537 396.677C371.342 399.684 370.252 403.838 370.269 409.139L370.322 412.596C370.405 418.004 371.601 422.241 373.91 425.309C376.241 428.355 379.399 429.847 383.385 429.786C387.392 429.725 390.472 428.223 392.625 425.281C394.778 422.317 395.844 418.11 395.826 412.658L395.772 409.168ZM437.897 411.82L417.506 412.132L417.762 428.807L441.449 428.444L441.527 433.518L411.635 433.976L410.914 386.924L440.483 386.471L440.561 391.577L417.197 391.935L417.429 407.059L437.82 406.746L437.897 411.82Z" fill="black"/>
<path d="M316.5 -52.5V356" stroke="black" stroke-width="25.86"/>
<path d="M0.5 353.5H485" stroke="black" stroke-width="25.86"/>
</svg>
