<svg width="412" height="54" viewBox="0 0 412 54" fill="none" xmlns="http://www.w3.org/2000/svg">
<path d="M8.70442 6.62559L24.6746 44.7808L39.4688 6.15436L47.5153 6.03111L48.236 53.0825L42.0315 53.1775L41.7508 34.8546L42.0295 15.0686L27.1663 53.4052L22.416 53.478L6.41936 15.7111L7.3348 35.3818L7.61546 53.7047L1.41088 53.7997L0.69018 6.74835L8.70442 6.62559ZM95.0472 30.3534C95.1179 34.9638 94.404 39.0043 92.9056 42.4751C91.407 45.9243 89.2496 48.5755 86.4336 50.4287C83.6175 52.2819 80.3137 53.2376 76.522 53.2957C72.8165 53.3524 69.5172 52.4979 66.6242 50.7321C63.7308 48.9448 61.4613 46.3829 59.8156 43.0466C58.1911 39.6883 57.3233 35.7905 57.2122 31.3532L57.1603 27.96C57.091 23.4359 57.8161 19.4275 59.3356 15.9349C60.8552 12.4422 63.0336 9.75837 65.8709 7.88327C68.7293 5.9863 72.0113 5.00944 75.7168 4.95268C79.487 4.89493 82.8187 5.75971 85.7121 7.54704C88.6267 9.31248 90.8861 11.9176 92.4903 15.3624C94.0943 18.7856 94.9314 22.7916 95.0017 27.3804L95.0472 30.3534ZM88.8284 27.4103C88.743 21.8305 87.5572 17.5712 85.2711 14.6325C82.9847 11.6723 79.8272 10.223 75.7985 10.2847C71.8776 10.3448 68.809 11.8894 66.5928 14.9186C64.3978 17.926 63.3085 22.08 63.3251 27.3808L63.3781 30.8385C63.4609 36.246 64.6571 40.4835 66.9667 43.5512C69.2975 46.5969 72.4557 48.0893 76.4413 48.0282C80.4484 47.9669 83.5284 46.4651 85.6813 43.5231C87.8339 40.5595 88.9008 36.3519 88.8819 30.9004L88.8284 27.4103ZM110.614 33.7028L110.896 52.1227L104.691 52.2177L103.97 5.16637L121.324 4.90056C126.473 4.82169 130.522 6.07414 133.47 8.65792C136.44 11.2414 137.959 14.6982 138.025 19.0285C138.095 23.5958 136.716 27.1401 133.889 29.6615C131.083 32.161 127.019 33.4516 121.698 33.5331L110.614 33.7028ZM110.536 28.6293L121.685 28.4585C125.002 28.4077 127.533 27.5932 129.276 26.015C131.018 24.4153 131.867 22.1397 131.821 19.1882C131.779 16.3875 130.861 14.1605 129.069 12.5071C127.276 10.8538 124.839 10.0184 121.758 10.001L110.253 10.1772L110.536 28.6293ZM182.299 29.017C182.37 33.6273 181.656 37.6678 180.157 41.1386C178.659 44.5878 176.501 47.239 173.685 49.0922C170.869 50.9455 167.565 51.9011 163.774 51.9592C160.068 52.0159 156.769 51.1614 153.876 49.3957C150.983 47.6083 148.713 45.0465 147.067 41.7101C145.443 38.3518 144.575 34.454 144.464 30.0167L144.412 26.6236C144.343 22.0994 145.068 18.091 146.587 14.5984C148.107 11.1058 150.285 8.4219 153.123 6.5468C155.981 4.64983 159.263 3.67296 162.969 3.61621C166.739 3.55846 170.071 4.42324 172.964 6.21057C175.878 7.97601 178.138 10.5811 179.742 14.0259C181.346 17.4491 182.183 21.4551 182.254 26.0439L182.299 29.017ZM176.08 26.0738C175.995 20.494 174.809 16.2348 172.523 13.2961C170.237 10.3358 167.079 8.88655 163.05 8.94826C159.129 9.00832 156.061 10.553 153.845 13.5822C151.65 16.5895 150.56 20.7436 150.577 26.0443L150.63 29.502C150.713 34.9095 151.909 39.147 154.219 42.2147C156.549 45.2605 159.708 46.7528 163.693 46.6918C167.7 46.6304 170.78 45.1287 172.933 42.1866C175.086 39.223 176.153 35.0154 176.134 29.5639L176.08 26.0738ZM223.962 28.9283L218.921 29.0055L219.25 50.463L213.045 50.558L212.716 29.1005L207.384 29.1822L194.399 50.8436L186.643 50.9624L202.098 25.9016L187.151 3.89226L194.486 3.7799L207.305 24.0117L212.637 23.9301L212.324 3.50667L218.529 3.41163L218.842 23.835L223.948 23.7568L236.141 3.14186L243.444 3.02999L229.178 25.4545L245.393 50.0625L237.669 50.1808L223.962 28.9283ZM277.601 27.8158L257.21 28.1281L257.466 44.8029L281.153 44.4401L281.231 49.5136L251.339 49.9715L250.618 2.9201L280.187 2.46719L280.265 7.57304L256.901 7.93091L257.133 23.0546L277.524 22.7422L277.601 27.8158ZM325.115 48.8414L318.878 48.9369L318.545 27.1886L294.826 27.5519L295.159 49.3002L288.954 49.3953L288.233 2.34394L294.438 2.2489L294.748 22.4784L318.467 22.1151L318.158 1.88558L324.394 1.79004L325.115 48.8414ZM371.991 26.1114C372.062 30.7217 371.348 34.7623 369.849 38.233C368.351 41.6822 366.193 44.3334 363.377 46.1866C360.561 48.0399 357.257 48.9955 353.466 49.0536C349.76 49.1104 346.461 48.2558 343.568 46.4901C340.675 44.7027 338.405 42.1409 336.759 38.8045C335.135 35.4462 334.267 31.5484 334.156 27.1111L334.104 23.718C334.035 19.1938 334.76 15.1854 336.279 11.6928C337.799 8.20018 339.977 5.51632 342.815 3.64122C345.673 1.74424 348.955 0.767378 352.661 0.710619C356.431 0.65287 359.762 1.51766 362.656 3.30498C365.57 5.07043 367.83 7.67554 369.434 11.1203C371.038 14.5435 371.875 18.5495 371.945 23.1383L371.991 26.1114ZM365.772 23.1683C365.687 17.5884 364.501 13.3292 362.215 10.3905C359.928 7.43024 356.771 5.98097 352.742 6.04267C348.821 6.10273 345.753 7.64737 343.537 10.6766C341.342 13.6839 340.252 17.838 340.269 23.1387L340.322 26.5965C340.405 32.0039 341.601 36.2415 343.91 39.3091C346.241 42.3549 349.399 43.8472 353.385 43.7862C357.392 43.7248 360.472 42.2231 362.625 39.281C364.778 36.3174 365.844 32.1099 365.826 26.6583L365.772 23.1683ZM407.897 25.82L387.506 26.1323L387.762 42.8071L411.449 42.4443L411.527 47.5178L381.635 47.9757L380.914 0.924309L410.483 0.471394L410.561 5.57724L387.197 5.93512L387.429 21.0588L407.82 20.7464L407.897 25.82Z" fill="black"/>
</svg>
