<svg width="205" height="49" viewBox="0 0 205 49" fill="none" xmlns="http://www.w3.org/2000/svg">
<path d="M38.6595 25.9906C38.6595 30.6015 37.8839 34.6306 36.3326 38.078C34.7812 41.5038 32.5835 44.1217 29.7394 45.9316C26.8953 47.7414 23.5772 48.6464 19.7851 48.6464C16.0791 48.6464 12.7934 47.7414 9.92771 45.9316C7.06207 44.1001 4.83204 41.5038 3.23762 38.1426C1.66475 34.7599 0.856767 30.8492 0.813675 26.4107V23.0172C0.813675 18.4925 1.60011 14.4957 3.17298 11.0267C4.74585 7.55781 6.96511 4.90763 9.83075 3.0762C12.7179 1.22323 16.0145 0.296746 19.7205 0.296746C23.491 0.296746 26.8091 1.21246 29.6748 3.04388C32.562 4.85376 34.7812 7.49317 36.3326 10.9621C37.8839 14.4095 38.6595 18.4279 38.6595 23.0172V25.9906ZM32.4866 22.9526C32.4866 17.3721 31.3662 13.0952 29.1254 10.1218C26.8846 7.12689 23.7496 5.62943 19.7205 5.62943C15.799 5.62943 12.7072 7.12689 10.4448 10.1218C8.20402 13.0952 7.0513 17.232 6.98666 22.5324V25.9906C6.98666 31.3987 8.11783 35.654 10.3802 38.7567C12.6641 41.8378 15.799 43.3783 19.7851 43.3783C23.7927 43.3783 26.8953 41.924 29.093 39.0152C31.2908 36.085 32.4219 31.8942 32.4866 26.443V22.9526ZM79.5758 6.04958H64.4503V48H58.2773V6.04958H43.1842V0.943132H79.5758V6.04958ZM113.155 26.2491H92.762V42.9259H116.452V48H86.5567V0.943132H116.129V6.04958H92.762V21.175H113.155V26.2491ZM159.76 0.943132V48H153.555V6.04958H136.684L135.844 24.6978C135.52 30.9462 134.874 35.6433 133.904 38.789C132.956 41.9347 131.556 44.251 129.703 45.7377C127.85 47.2028 125.372 47.9569 122.27 48H120.233V42.9259L121.526 42.8612C123.53 42.7104 125.071 42.064 126.148 40.9221C127.225 39.7586 128.044 37.9164 128.604 35.3955C129.164 32.8746 129.563 28.9963 129.8 23.7605L130.769 0.943132H159.76ZM177.051 20.1408H188.75C193.663 20.2054 197.498 21.4659 200.256 23.9221C203.014 26.3784 204.393 29.7181 204.393 33.9411C204.393 38.1857 203.003 41.5685 200.224 44.0894C197.444 46.6103 193.652 47.9138 188.847 48H170.845V0.943132H177.051V20.1408ZM177.051 25.2472V42.9259H188.395C191.476 42.9259 193.867 42.1071 195.57 40.4696C197.293 38.8321 198.155 36.6344 198.155 33.8765C198.155 31.2263 197.326 29.1363 195.667 27.6065C194.029 26.0768 191.691 25.2903 188.653 25.2472H177.051Z" fill="black"/>
</svg>
