<svg width="145" height="172" viewBox="0 0 145 172" fill="none" xmlns="http://www.w3.org/2000/svg">
<path d="M35.0893 37.6828C31.6156 40.7149 28.0701 42.7801 24.4528 43.8784C20.8518 44.9625 17.4343 45.0284 14.2006 44.0759C10.9668 43.1235 8.10302 41.2188 5.60931 38.362C3.17226 35.57 1.69326 32.4995 1.1723 29.1505C0.667578 25.7873 1.15707 22.3999 2.64079 18.9884C4.15491 15.5789 6.56971 12.3986 9.88519 9.44732L12.4417 7.21573C15.8505 4.24027 19.3787 2.20442 23.0264 1.10818C26.6741 0.0119414 30.1301 -0.0589182 33.3942 0.895602C36.6888 1.85219 39.5546 3.72644 41.9917 6.51837C44.4712 9.35899 45.9634 12.4609 46.4681 15.8241C47.0032 19.1894 46.4742 22.597 44.881 26.0469C43.304 29.4826 40.7868 32.7095 37.3293 35.7275L35.0893 37.6828ZM33.3186 31.0344C37.5228 27.3647 40.0081 23.7081 40.7745 20.0647C41.5572 16.4071 40.6238 13.0606 37.9742 10.0252C35.3955 7.07091 32.2341 5.72633 28.4901 5.99143C24.7766 6.25859 20.902 8.11059 16.8663 11.5474L14.2611 13.8215C10.1868 17.3779 7.72484 21.0284 6.87515 24.7731C6.05585 28.5199 6.95682 31.8947 9.57806 34.8977C12.2135 37.9168 15.3494 39.2979 18.986 39.0408C22.6388 38.7695 26.5398 36.8658 30.689 33.3298L33.3186 31.0344ZM77.0188 55.3943L67.0722 43.9993L35.4683 71.5861L31.4089 66.9356L63.0129 39.3488L53.0876 27.9782L56.9346 24.6202L80.8658 52.0363L77.0188 55.3943ZM83.8833 93.9753L70.4725 78.6116L57.9088 89.5783L73.4875 107.426L69.6648 110.762L50.0055 88.2402L85.4565 57.2955L104.903 79.5741L101.056 82.9321L85.6901 65.3283L74.2951 75.2749L87.706 90.6386L83.8833 93.9753ZM133.595 112.444L98.1442 143.389L94.0636 138.714L125.668 111.127L114.573 98.4175L99.9718 110.048C95.052 113.913 91.0883 116.515 88.0808 117.853C85.0875 119.208 82.4216 119.676 80.083 119.257C77.7607 118.825 75.5632 117.454 73.4904 115.145L72.1514 113.611L75.9741 110.274L76.8729 111.206C78.3043 112.616 79.8043 113.352 81.373 113.412C82.958 113.459 84.8843 112.864 87.1518 111.628C89.4194 110.393 92.6033 108.143 96.7035 104.878L114.531 90.6038L133.595 112.444ZM130.503 138.095L138.197 146.909C141.378 150.652 142.951 154.371 142.914 158.063C142.877 161.756 141.268 164.991 138.086 167.769C134.889 170.56 131.426 171.737 127.699 171.301C123.972 170.865 120.497 168.865 117.272 165.302L105.434 151.74L140.885 120.796L144.966 125.47L130.503 138.095ZM126.656 141.453L113.337 153.078L120.797 161.625C122.823 163.946 125.013 165.209 127.366 165.415C129.733 165.636 131.956 164.84 134.033 163.027C136.03 161.284 137.059 159.285 137.12 157.029C137.196 154.789 136.251 152.511 134.286 150.194L126.656 141.453Z" fill="black"/>
</svg>
